  0
SECTION
  2
HEADER
  9
$ACADVER
  1
AC1012
  9
$DWGCODEPAGE
  3
ansi_1252
  9
$INSBASE
 10
0.0
 20
0.0
 30
0.0
  9
$EXTMIN
 10
-680.0
 20
-140.0
 30
0.0
  9
$EXTMAX
 10
480.0
 20
140.0
 30
0.0
  9
$LIMMIN
 10
0.0
 20
0.0
  9
$LIMMAX
 10
420.0
 20
297.0
  9
$ORTHOMODE
 70
     0
  9
$REGENMODE
 70
     1
  9
$FILLMODE
 70
     1
  9
$QTEXTMODE
 70
     0
  9
$MIRRTEXT
 70
     1
  9
$DRAGMODE
 70
     2
  9
$LTSCALE
 40
1.0
  9
$OSMODE
 70
    37
  9
$ATTMODE
 70
     1
  9
$TEXTSIZE
 40
3.5
  9
$TRACEWID
 40
1.0
  9
$TEXTSTYLE
  7
STANDARD
  9
$CLAYER
  8
0
  9
$CELTYPE
  6
BYLAYER
  9
$CECOLOR
 62
   256
  9
$CELTSCALE
 40
1.0
  9
$DELOBJ
 70
     1
  9
$DISPSILH
 70
     0
  9
$DIMSCALE
 40
1.0
  9
$DIMASZ
 40
3.302
  9
$DIMEXO
 40
1.0
  9
$DIMDLI
 40
3.75
  9
$DIMRND
 40
0.0
  9
$DIMDLE
 40
0.0
  9
$DIMEXE
 40
1.0
  9
$DIMTP
 40
0.0
  9
$DIMTM
 40
0.0
  9
$DIMTXT
 40
3.5
  9
$DIMCEN
 40
2.5
  9
$DIMTSZ
 40
0.0
  9
$DIMTOL
 70
     0
  9
$DIMLIM
 70
     0
  9
$DIMTIH
 70
     1
  9
$DIMTOH
 70
     1
  9
$DIMSE1
 70
     0
  9
$DIMSE2
 70
     0
  9
$DIMTAD
 70
     1
  9
$DIMZIN
 70
     0
  9
$DIMBLK
  1

  9
$DIMASO
 70
     1
  9
$DIMSHO
 70
     1
  9
$DIMPOST
  1

  9
$DIMAPOST
  1

  9
$DIMALT
 70
     0
  9
$DIMALTD
 70
     3
  9
$DIMALTF
 40
0.0393700787
  9
$DIMLFAC
 40
1.0
  9
$DIMTOFL
 70
     1
  9
$DIMTVP
 40
0.0
  9
$DIMTIX
 70
     0
  9
$DIMSOXD
 70
     0
  9
$DIMSAH
 70
     0
  9
$DIMBLK1
  1

  9
$DIMBLK2
  1

  9
$DIMSTYLE
  2
ISO-25
  9
$DIMCLRD
 70
     0
  9
$DIMCLRE
 70
     0
  9
$DIMCLRT
 70
     0
  9
$DIMTFAC
 40
1.0
  9
$DIMGAP
 40
1.524
  9
$DIMJUST
 70
     0
  9
$DIMSD1
 70
     0
  9
$DIMSD2
 70
     0
  9
$DIMTOLJ
 70
     0
  9
$DIMTZIN
 70
     0
  9
$DIMALTZ
 70
     0
  9
$DIMALTTZ
 70
     0
  9
$DIMFIT
 70
     3
  9
$DIMUPT
 70
     0
  9
$DIMUNIT
 70
     2
  9
$DIMDEC
 70
     2
  9
$DIMTDEC
 70
     2
  9
$DIMALTU
 70
     2
  9
$DIMALTTD
 70
     3
  9
$DIMTXSTY
  7
STANDARD
  9
$DIMAUNIT
 70
     0
  9
$LUNITS
 70
     2
  9
$LUPREC
 70
     3
  9
$SKETCHINC
 40
1.0
  9
$FILLETRAD
 40
10.0
  9
$AUNITS
 70
     0
  9
$AUPREC
 70
     2
  9
$MENU
  1
.
  9
$ELEVATION
 40
0.0
  9
$PELEVATION
 40
0.0
  9
$THICKNESS
 40
0.0
  9
$LIMCHECK
 70
     0
  9
$CHAMFERA
 40
0.0
  9
$CHAMFERB
 40
0.0
  9
$CHAMFERC
 40
0.0
  9
$CHAMFERD
 40
0.0
  9
$SKPOLY
 70
     0
  9
$TDCREATE
 40
2459086.536565532
  9
$TDUPDATE
 40
2459086.53692287
  9
$TDINDWG
 40
0.0000000116
  9
$TDUSRTIMER
 40
0.0000000116
  9
$USRTIMER
 70
     1
  9
$ANGBASE
 50
0.0
  9
$ANGDIR
 70
     0
  9
$PDMODE
 70
     0
  9
$PDSIZE
 40
-1.0
  9
$PLINEWID
 40
0.0
  9
$COORDS
 70
     1
  9
$SPLFRAME
 70
     0
  9
$SPLINETYPE
 70
     6
  9
$SPLINESEGS
 70
     8
  9
$ATTDIA
 70
     0
  9
$ATTREQ
 70
     1
  9
$HANDLING
 70
     1
  9
$HANDSEED
  5
40B
  9
$SURFTAB1
 70
     6
  9
$SURFTAB2
 70
     6
  9
$SURFTYPE
 70
     6
  9
$SURFU
 70
     6
  9
$SURFV
 70
     6
  9
$UCSNAME
  2

  9
$UCSORG
 10
0.0
 20
0.0
 30
0.0
  9
$UCSXDIR
 10
1.0
 20
0.0
 30
0.0
  9
$UCSYDIR
 10
0.0
 20
1.0
 30
0.0
  9
$PUCSNAME
  2

  9
$PUCSORG
 10
0.0
 20
0.0
 30
0.0
  9
$PUCSXDIR
 10
1.0
 20
0.0
 30
0.0
  9
$PUCSYDIR
 10
0.0
 20
1.0
 30
0.0
  9
$USERI1
 70
     0
  9
$USERI2
 70
     0
  9
$USERI3
 70
     0
  9
$USERI4
 70
     0
  9
$USERI5
 70
     0
  9
$USERR1
 40
0.0
  9
$USERR2
 40
0.0
  9
$USERR3
 40
0.0
  9
$USERR4
 40
0.0
  9
$USERR5
 40
0.0
  9
$WORLDVIEW
 70
     1
  9
$SHADEDGE
 70
     3
  9
$SHADEDIF
 70
    70
  9
$TILEMODE
 70
     1
  9
$MAXACTVP
 70
    64
  9
$PINSBASE
 10
0.0
 20
0.0
 30
0.0
  9
$PLIMCHECK
 70
     0
  9
$PEXTMIN
 10
1.0000000000E+20
 20
1.0000000000E+20
 30
1.0000000000E+20
  9
$PEXTMAX
 10
-1.0000000000E+20
 20
-1.0000000000E+20
 30
-1.0000000000E+20
  9
$PLIMMIN
 10
0.0
 20
0.0
  9
$PLIMMAX
 10
420.0
 20
297.0
  9
$UNITMODE
 70
     0
  9
$VISRETAIN
 70
     1
  9
$PLINEGEN
 70
     0
  9
$PSLTSCALE
 70
     1
  9
$TREEDEPTH
 70
  3020
  9
$PICKSTYLE
 70
     1
  9
$CMLSTYLE
  2
STANDARD
  9
$CMLJUST
 70
     0
  9
$CMLSCALE
 40
20.0
  9
$SAVEIMAGES
 70
     1
  0
ENDSEC
  0
SECTION
  2
CLASSES
  0
CLASS
  1
ACDBDICTIONARYWDFLT
  2
AcDbDictionaryWithDefault
  3
ObjectDBX Classes
 90
    32768
280
     0
281
     0
  0
CLASS
  1
VISUALSTYLE
  2
AcDbVisualStyle
  3
ObjectDBX Classes
 90
     4095
280
     0
281
     0
  0
CLASS
  1
MATERIAL
  2
AcDbMaterial
  3
ObjectDBX Classes
 90
     1153
280
     0
281
     0
  0
CLASS
  1
SCALE
  2
AcDbScale
  3
ObjectDBX Classes
 90
     1153
280
     0
281
     0
  0
CLASS
  1
TABLESTYLE
  2
AcDbTableStyle
  3
ObjectDBX Classes
 90
     4095
280
     0
281
     0
  0
CLASS
  1
MLEADERSTYLE
  2
AcDbMLeaderStyle
  3
ACDB_MLEADERSTYLE_CLASS
 90
     4095
280
     0
281
     0
  0
CLASS
  1
SUN
  2
AcDbSun
  3
SCENEOE
 90
     1153
280
     0
281
     0
  0
CLASS
  1
XRECORD
  2
AcDbXrecord
  3
ObjectDBX Classes
 90
    32768
280
     0
281
     0
  0
ENDSEC
  0
SECTION
  2
TABLES
  0
TABLE
  2
VPORT
  5
8
330
0
100
AcDbSymbolTable
 70
     1
  0
VPORT
  5
29
330
8
100
AcDbSymbolTableRecord
100
AcDbViewportTableRecord
  2
*ACTIVE
 70
     0
 10
0.0
 20
0.0
 11
1.0
 21
1.0
 12
-100.0
 22
0.0
 13
0.0
 23
0.0
 14
10.0
 24
10.0
 15
10.0
 25
10.0
 16
0.0
 26
0.0
 36
1.0
 17
0.0
 27
0.0
 37
0.0
 40
285.6
 41
4.1428571429
 42
50.0
 43
0.0
 44
0.0
 50
0.0
 51
0.0
 71
     0
 72
   100
 73
     1
 74
     3
 75
     0
 76
     0
 77
     0
 78
     0
  0
ENDTAB
  0
TABLE
  2
LTYPE
  5
5
330
0
100
AcDbSymbolTable
 70
     6
  0
LTYPE
  5
14
330
5
100
AcDbSymbolTableRecord
100
AcDbLinetypeTableRecord
  2
BYBLOCK
 70
     0
  3

 72
    65
 73
     0
 40
0.0
  0
LTYPE
  5
15
330
5
100
AcDbSymbolTableRecord
100
AcDbLinetypeTableRecord
  2
BYLAYER
 70
     0
  3

 72
    65
 73
     0
 40
0.0
  0
LTYPE
  5
16
330
5
100
AcDbSymbolTableRecord
100
AcDbLinetypeTableRecord
  2
CONTINUOUS
 70
     0
  3
Solid line
 72
    65
 73
     0
 40
0.0
  0
LTYPE
  5
6E
330
5
100
AcDbSymbolTableRecord
100
AcDbLinetypeTableRecord
  2
HIDDEN
 70
     0
  3
Hidden __ __ __ __ __ __ __ __ __ __ __ __ __ __
 72
    65
 73
     2
 40
1.905
 49
1.27
 74
     0
 49
-0.635
 74
     0
  0
LTYPE
  5
6F
330
5
100
AcDbSymbolTableRecord
100
AcDbLinetypeTableRecord
  2
PHANTOM
 70
     0
  3
Phantom ______  __  __  ______  __  __  ______
 72
    65
 73
     6
 40
12.7
 49
6.35
 74
     0
 49
-1.27
 74
     0
 49
1.27
 74
     0
 49
-1.27
 74
     0
 49
1.27
 74
     0
 49
-1.27
 74
     0
  0
LTYPE
  5
70
330
5
100
AcDbSymbolTableRecord
100
AcDbLinetypeTableRecord
  2
CENTER
 70
     0
  3
Center ____ _ ____ _ ____ _ ____ _ ____ _ ____
 72
    65
 73
     4
 40
10.16
 49
6.35
 74
     0
 49
-1.27
 74
     0
 49
1.27
 74
     0
 49
-1.27
 74
     0
  0
LTYPE
  5
71
330
5
100
AcDbSymbolTableRecord
100
AcDbLinetypeTableRecord
  2
CENTERX2
 70
     0
  3
Center (2x) ________  __  ________  __  _____
 72
    65
 73
     4
 40
20.32
 49
12.7
 74
     0
 49
-2.54
 74
     0
 49
2.54
 74
     0
 49
-2.54
 74
     0
  0
LTYPE
  5
72
330
5
100
AcDbSymbolTableRecord
100
AcDbLinetypeTableRecord
  2
DOT2
 70
     0
  3
Dot (.5x) ........................................
 72
    65
 73
     2
 40
0.635
 49
0.0
 74
     0
 49
-0.635
 74
     0
  0
ENDTAB
  0
TABLE
  2
LAYER
  5
2
330
0
100
AcDbSymbolTable
 70
     1
  0
LAYER
  5
10
330
2
100
AcDbSymbolTableRecord
100
AcDbLayerTableRecord
  2
0
 70
     0
 62
     7
  6
CONTINUOUS
  0
ENDTAB
  0
TABLE
  2
STYLE
  5
3
330
0
100
AcDbSymbolTable
 70
     1
  0
STYLE
  5
11
330
3
100
AcDbSymbolTableRecord
100
AcDbTextStyleTableRecord
  2
STANDARD
 70
     0
 40
0.0
 41
1.0
 50
0.0
 71
     0
 42
3.5
  3
txt
  4

  0
ENDTAB
  0
TABLE
  2
VIEW
  5
6
330
0
100
AcDbSymbolTable
 70
     0
  0
ENDTAB
  0
TABLE
  2
UCS
  5
7
330
0
100
AcDbSymbolTable
 70
     0
  0
ENDTAB
  0
TABLE
  2
APPID
  5
9
330
0
100
AcDbSymbolTable
 70
     1
  0
APPID
  5
12
330
9
100
AcDbSymbolTableRecord
100
AcDbRegAppTableRecord
  2
ACAD
 70
     0
  0
ENDTAB
  0
TABLE
  2
DIMSTYLE
  5
A
330
0
100
AcDbSymbolTable
 70
     1
  0
DIMSTYLE
105
27
330
A
100
AcDbSymbolTableRecord
100
AcDbDimStyleTableRecord
  2
ISO-25
 70
     0
  3

  4

  5

  6

  7

 40
1.0
 41
2.5
 42
0.625
 43
3.75
 44
1.25
 45
0.0
 46
0.0
 47
0.0
 48
0.0
140
2.5
141
2.5
142
0.0
143
0.0393700787
144
1.0
145
0.0
146
1.0
147
0.625
 71
     0
 72
     0
 73
     0
 74
     0
 75
     0
 76
     0
 77
     1
 78
     8
170
     0
171
     3
172
     1
173
     0
174
     0
175
     0
176
     0
177
     0
178
     0
270
     2
271
     2
272
     2
273
     2
274
     3
340
11
275
     0
280
     0
281
     0
282
     0
283
     0
284
     8
285
     0
286
     0
287
     3
288
     0
  0
ENDTAB
  0
TABLE
  2
BLOCK_RECORD
  5
1
330
0
100
AcDbSymbolTable
 70
     1
  0
BLOCK_RECORD
  5
1F
330
1
100
AcDbSymbolTableRecord
100
AcDbBlockTableRecord
  2
*MODEL_SPACE
  0
BLOCK_RECORD
  5
1B
330
1
100
AcDbSymbolTableRecord
100
AcDbBlockTableRecord
  2
*PAPER_SPACE
  0
BLOCK_RECORD
  5
23
330
1
100
AcDbSymbolTableRecord
100
AcDbBlockTableRecord
  2
*PAPER_SPACE0
  0
ENDTAB
  0
ENDSEC
  0
SECTION
  2
BLOCKS
  0
BLOCK
  5
20
330
1F
100
AcDbEntity
  8
0
100
AcDbBlockBegin
  2
*MODEL_SPACE
 70
     0
 10
0.0
 20
0.0
 30
0.0
  3
*MODEL_SPACE
  1

  0
ENDBLK
  5
21
330
1F
100
AcDbEntity
  8
0
100
AcDbBlockEnd
  0
BLOCK
  5
1C
330
1B
100
AcDbEntity
 67
     1
  8
0
100
AcDbBlockBegin
  2
*PAPER_SPACE
 70
     0
 10
0.0
 20
0.0
 30
0.0
  3
*PAPER_SPACE
  1

  0
ENDBLK
  5
1D
330
1B
100
AcDbEntity
 67
     1
  8
0
100
AcDbBlockEnd
  0
BLOCK
  5
24
330
23
100
AcDbEntity
  8
0
100
AcDbBlockBegin
  2
*PAPER_SPACE0
 70
     0
 10
0.0
 20
0.0
 30
0.0
  3
*PAPER_SPACE0
  1

  0
ENDBLK
  5
25
330
23
100
AcDbEntity
  8
0
100
AcDbBlockEnd
  0
ENDSEC
  0
SECTION
  2
ENTITIES
  0
LINE
  5
73
330
1F
100
AcDbEntity
  8
0
  6
CENTERX2
 62
     7
100
AcDbLine
 10
433.1206320915
 20
-121.7889445152
 30
0.0
 11
433.1206320915
 21
118.2110554848
 31
0.0
  0
POLYLINE
  5
74
330
1F
100
AcDbEntity
  8
0
  6
CONTINUOUS
 62
     7
100
AcDb2dPolyline
 66
     1
 10
0.0
 20
0.0
 30
0.0
 70
   128
  0
VERTEX
  5
2D6
330
74
100
AcDbEntity
  8
0
  6
CONTINUOUS
 62
     7
100
AcDbVertex
100
AcDb2dVertex
 10
423.6886496697
 20
-40.0610268116
 30
0.0
  0
VERTEX
  5
2D7
330
74
100
AcDbEntity
  8
0
  6
CONTINUOUS
 62
     7
100
AcDbVertex
100
AcDb2dVertex
 10
423.6886496697
 20
-36.4333414879
 30
0.0
  0
VERTEX
  5
2D8
330
74
100
AcDbEntity
  8
0
  6
CONTINUOUS
 62
     7
100
AcDbVertex
100
AcDb2dVertex
 10
423.6886496697
 20
-36.4333414879
 30
0.0
  0
VERTEX
  5
2D9
330
74
100
AcDbEntity
  8
0
  6
CONTINUOUS
 62
     7
100
AcDbVertex
100
AcDb2dVertex
 10
427.3163352165
 20
-36.4333414879
 30
0.0
  0
VERTEX
  5
2DA
330
74
100
AcDbEntity
  8
0
  6
CONTINUOUS
 62
     7
100
AcDbVertex
100
AcDb2dVertex
 10
427.3163352165
 20
-36.4333414879
 30
0.0
  0
VERTEX
  5
2DB
330
74
100
AcDbEntity
  8
0
  6
CONTINUOUS
 62
     7
100
AcDbVertex
100
AcDb2dVertex
 10
427.3163352165
 20
-29.6616618004
 30
0.0
  0
VERTEX
  5
2DC
330
74
100
AcDbEntity
  8
0
  6
CONTINUOUS
 62
     7
100
AcDbVertex
100
AcDb2dVertex
 10
427.3163352165
 20
-29.6616618004
 30
0.0
  0
VERTEX
  5
2DD
330
74
100
AcDbEntity
  8
0
  6
CONTINUOUS
 62
     7
100
AcDbVertex
100
AcDb2dVertex
 10
423.6886496697
 20
-29.6616618004
 30
0.0
  0
VERTEX
  5
2DE
330
74
100
AcDbEntity
  8
0
  6
CONTINUOUS
 62
     7
100
AcDbVertex
100
AcDb2dVertex
 10
423.6886496697
 20
-29.6616618004
 30
0.0
  0
VERTEX
  5
2DF
330
74
100
AcDbEntity
  8
0
  6
CONTINUOUS
 62
     7
100
AcDbVertex
100
AcDb2dVertex
 10
423.6886496697
 20
-26.0339762535
 30
0.0
  0
VERTEX
  5
2E0
330
74
100
AcDbEntity
  8
0
  6
CONTINUOUS
 62
     7
100
AcDbVertex
100
AcDb2dVertex
 10
423.6886496697
 20
-26.0339762535
 30
0.0
  0
VERTEX
  5
2E1
330
74
100
AcDbEntity
  8
0
  6
CONTINUOUS
 62
     7
100
AcDbVertex
100
AcDb2dVertex
 10
433.1206320915
 20
-26.0339762535
 30
0.0
  0
VERTEX
  5
2E2
330
74
100
AcDbEntity
  8
0
  6
CONTINUOUS
 62
     7
100
AcDbVertex
100
AcDb2dVertex
 10
433.1206320915
 20
-26.0339762535
 30
0.0
  0
VERTEX
  5
2E3
330
74
100
AcDbEntity
  8
0
  6
CONTINUOUS
 62
     7
100
AcDbVertex
100
AcDb2dVertex
 10
433.1206320915
 20
-29.6616618004
 30
0.0
  0
VERTEX
  5
2E4
330
74
100
AcDbEntity
  8
0
  6
CONTINUOUS
 62
     7
100
AcDbVertex
100
AcDb2dVertex
 10
433.1206320915
 20
-29.6616618004
 30
0.0
  0
VERTEX
  5
2E5
330
74
100
AcDbEntity
  8
0
  6
CONTINUOUS
 62
     7
100
AcDbVertex
100
AcDb2dVertex
 10
429.0092551384
 20
-29.6616618004
 30
0.0
  0
VERTEX
  5
2E6
330
74
100
AcDbEntity
  8
0
  6
CONTINUOUS
 62
     7
100
AcDbVertex
100
AcDb2dVertex
 10
429.0092551384
 20
-29.6616618004
 30
0.0
  0
VERTEX
  5
2E7
330
74
100
AcDbEntity
  8
0
  6
CONTINUOUS
 62
     7
100
AcDbVertex
100
AcDb2dVertex
 10
429.0092551384
 20
-36.4333414879
 30
0.0
  0
VERTEX
  5
2E8
330
74
100
AcDbEntity
  8
0
  6
CONTINUOUS
 62
     7
100
AcDbVertex
100
AcDb2dVertex
 10
429.0092551384
 20
-36.4333414879
 30
0.0
  0
VERTEX
  5
2E9
330
74
100
AcDbEntity
  8
0
  6
CONTINUOUS
 62
     7
100
AcDbVertex
100
AcDb2dVertex
 10
433.1206320915
 20
-36.4333414879
 30
0.0
  0
VERTEX
  5
2EA
330
74
100
AcDbEntity
  8
0
  6
CONTINUOUS
 62
     7
100
AcDbVertex
100
AcDb2dVertex
 10
433.1206320915
 20
-36.4333414879
 30
0.0
  0
VERTEX
  5
2EB
330
74
100
AcDbEntity
  8
0
  6
CONTINUOUS
 62
     7
100
AcDbVertex
100
AcDb2dVertex
 10
433.1206320915
 20
-40.0610270347
 30
0.0
  0
VERTEX
  5
2EC
330
74
100
AcDbEntity
  8
0
  6
CONTINUOUS
 62
     7
100
AcDbVertex
100
AcDb2dVertex
 10
433.1206320915
 20
-40.0610270347
 30
0.0
  0
VERTEX
  5
2ED
330
74
100
AcDbEntity
  8
0
  6
CONTINUOUS
 62
     7
100
AcDbVertex
100
AcDb2dVertex
 10
423.6886496697
 20
-40.0610270347
 30
0.0
  0
SEQEND
  5
403
330
74
100
AcDbEntity
  8
0
  6
CONTINUOUS
 62
     7
  0
POLYLINE
  5
75
330
1F
100
AcDbEntity
  8
0
  6
CONTINUOUS
 62
     7
100
AcDb2dPolyline
 66
     1
 10
0.0
 20
0.0
 30
0.0
 70
   128
  0
VERTEX
  5
2EE
330
75
100
AcDbEntity
  8
0
  6
CONTINUOUS
 62
     7
100
AcDbVertex
100
AcDb2dVertex
 10
423.6886496697
 20
-15.4910087585
 30
0.0
  0
VERTEX
  5
2EF
330
75
100
AcDbEntity
  8
0
  6
CONTINUOUS
 62
     7
100
AcDbVertex
100
AcDb2dVertex
 10
423.6886496697
 20
-11.7858633842
 30
0.0
  0
VERTEX
  5
2F0
330
75
100
AcDbEntity
  8
0
  6
CONTINUOUS
 62
     7
100
AcDbVertex
100
AcDb2dVertex
 10
423.6886496697
 20
-11.7858633842
 30
0.0
  0
VERTEX
  5
2F1
330
75
100
AcDbEntity
  8
0
  6
CONTINUOUS
 62
     7
100
AcDbVertex
100
AcDb2dVertex
 10
433.1206320915
 20
-4.2074015465
 30
0.0
  0
VERTEX
  5
2F2
330
75
100
AcDbEntity
  8
0
  6
CONTINUOUS
 62
     7
100
AcDbVertex
100
AcDb2dVertex
 10
433.1206320915
 20
-4.2074015465
 30
0.0
  0
VERTEX
  5
2F3
330
75
100
AcDbEntity
  8
0
  6
CONTINUOUS
 62
     7
100
AcDbVertex
100
AcDb2dVertex
 10
433.1206320915
 20
-8.0939375725
 30
0.0
  0
VERTEX
  5
2F4
330
75
100
AcDbEntity
  8
0
  6
CONTINUOUS
 62
     7
100
AcDbVertex
100
AcDb2dVertex
 10
433.1206320915
 20
-8.0939375725
 30
0.0
  0
VERTEX
  5
2F5
330
75
100
AcDbEntity
  8
0
  6
CONTINUOUS
 62
     7
100
AcDbVertex
100
AcDb2dVertex
 10
431.1858664665
 20
-9.6111414757
 30
0.0
  0
VERTEX
  5
2F6
330
75
100
AcDbEntity
  8
0
  6
CONTINUOUS
 62
     7
100
AcDbVertex
100
AcDb2dVertex
 10
431.1858664665
 20
-9.6111414757
 30
0.0
  0
VERTEX
  5
2F7
330
75
100
AcDbEntity
  8
0
  6
CONTINUOUS
 62
     7
100
AcDbVertex
100
AcDb2dVertex
 10
431.1858664665
 20
-17.667626461
 30
0.0
  0
VERTEX
  5
2F8
330
75
100
AcDbEntity
  8
0
  6
CONTINUOUS
 62
     7
100
AcDbVertex
100
AcDb2dVertex
 10
431.1858664665
 20
-17.667626461
 30
0.0
  0
VERTEX
  5
2F9
330
75
100
AcDbEntity
  8
0
  6
CONTINUOUS
 62
     7
100
AcDbVertex
100
AcDb2dVertex
 10
433.1206320915
 20
-19.1867197838
 30
0.0
  0
VERTEX
  5
2FA
330
75
100
AcDbEntity
  8
0
  6
CONTINUOUS
 62
     7
100
AcDbVertex
100
AcDb2dVertex
 10
433.1206320915
 20
-19.1867197838
 30
0.0
  0
VERTEX
  5
2FB
330
75
100
AcDbEntity
  8
0
  6
CONTINUOUS
 62
     7
100
AcDbVertex
100
AcDb2dVertex
 10
433.1206320915
 20
-23.0713663902
 30
0.0
  0
VERTEX
  5
2FC
330
75
100
AcDbEntity
  8
0
  6
CONTINUOUS
 62
     7
100
AcDbVertex
100
AcDb2dVertex
 10
433.1206320915
 20
-23.0713663902
 30
0.0
  0
VERTEX
  5
2FD
330
75
100
AcDbEntity
  8
0
  6
CONTINUOUS
 62
     7
100
AcDbVertex
100
AcDb2dVertex
 10
423.6886496697
 20
-15.4910151329
 30
0.0
  0
SEQEND
  5
404
330
75
100
AcDbEntity
  8
0
  6
CONTINUOUS
 62
     7
  0
POLYLINE
  5
76
330
1F
100
AcDbEntity
  8
0
  6
CONTINUOUS
 62
     7
100
AcDb2dPolyline
 66
     1
 10
0.0
 20
0.0
 30
0.0
 70
   128
  0
VERTEX
  5
2FE
330
76
100
AcDbEntity
  8
0
  6
CONTINUOUS
 62
     7
100
AcDbVertex
100
AcDb2dVertex
 10
426.2185824547
 20
-13.639383018
 30
0.0
  0
VERTEX
  5
2FF
330
76
100
AcDbEntity
  8
0
  6
CONTINUOUS
 62
     7
100
AcDbVertex
100
AcDb2dVertex
 10
429.4929465447
 20
-16.3393645134
 30
0.0
  0
VERTEX
  5
300
330
76
100
AcDbEntity
  8
0
  6
CONTINUOUS
 62
     7
100
AcDbVertex
100
AcDb2dVertex
 10
429.4929465447
 20
-16.3393645134
 30
0.0
  0
VERTEX
  5
301
330
76
100
AcDbEntity
  8
0
  6
CONTINUOUS
 62
     7
100
AcDbVertex
100
AcDb2dVertex
 10
429.4929465447
 20
-10.9394034233
 30
0.0
  0
VERTEX
  5
302
330
76
100
AcDbEntity
  8
0
  6
CONTINUOUS
 62
     7
100
AcDbVertex
100
AcDb2dVertex
 10
429.4929465447
 20
-10.9394034233
 30
0.0
  0
VERTEX
  5
303
330
76
100
AcDbEntity
  8
0
  6
CONTINUOUS
 62
     7
100
AcDbVertex
100
AcDb2dVertex
 10
426.2185824547
 20
-13.6393839683
 30
0.0
  0
SEQEND
  5
405
330
76
100
AcDbEntity
  8
0
  6
CONTINUOUS
 62
     7
  0
POLYLINE
  5
77
330
1F
100
AcDbEntity
  8
0
  6
CONTINUOUS
 62
     7
100
AcDb2dPolyline
 66
     1
 10
0.0
 20
0.0
 30
0.0
 70
   128
  0
VERTEX
  5
304
330
77
100
AcDbEntity
  8
0
  6
CONTINUOUS
 62
     7
100
AcDbVertex
100
AcDb2dVertex
 10
423.6886496697
 20
-1.4866366982
 30
0.0
  0
VERTEX
  5
305
330
77
100
AcDbEntity
  8
0
  6
CONTINUOUS
 62
     7
100
AcDbVertex
100
AcDb2dVertex
 10
423.6886496697
 20
2.95160915
 30
0.0
  0
VERTEX
  5
306
330
77
100
AcDbEntity
  8
0
  6
CONTINUOUS
 62
     7
100
AcDbVertex
100
AcDb2dVertex
 10
423.6886496697
 20
2.95160915
 30
0.0
  0
VERTEX
  5
307
330
77
100
AcDbEntity
  8
0
  6
CONTINUOUS
 62
     7
100
AcDbVertex
100
AcDb2dVertex
 10
423.6905390892
 20
3.478757206
 30
0.0
  0
VERTEX
  5
308
330
77
100
AcDbEntity
  8
0
  6
CONTINUOUS
 62
     7
100
AcDbVertex
100
AcDb2dVertex
 10
423.6962073479
 20
3.9907899056
 30
0.0
  0
VERTEX
  5
309
330
77
100
AcDbEntity
  8
0
  6
CONTINUOUS
 62
     7
100
AcDbVertex
100
AcDb2dVertex
 10
423.7056544457
 20
4.4839284096
 30
0.0
  0
VERTEX
  5
30A
330
77
100
AcDbEntity
  8
0
  6
CONTINUOUS
 62
     7
100
AcDbVertex
100
AcDb2dVertex
 10
423.7207698021
 20
4.9600621376
 30
0.0
  0
VERTEX
  5
30B
330
77
100
AcDbEntity
  8
0
  6
CONTINUOUS
 62
     7
100
AcDbVertex
100
AcDb2dVertex
 10
423.7377745781
 20
5.4173016701
 30
0.0
  0
VERTEX
  5
30C
330
77
100
AcDbEntity
  8
0
  6
CONTINUOUS
 62
     7
100
AcDbVertex
100
AcDb2dVertex
 10
423.7604476128
 20
5.8594258461
 30
0.0
  0
VERTEX
  5
30D
330
77
100
AcDbEntity
  8
0
  6
CONTINUOUS
 62
     7
100
AcDbVertex
100
AcDb2dVertex
 10
423.7868994866
 20
6.2845452462
 30
0.0
  0
VERTEX
  5
30E
330
77
100
AcDbEntity
  8
0
  6
CONTINUOUS
 62
     7
100
AcDbVertex
100
AcDb2dVertex
 10
423.8152407799
 20
6.6907704506
 30
0.0
  0
VERTEX
  5
30F
330
77
100
AcDbEntity
  8
0
  6
CONTINUOUS
 62
     7
100
AcDbVertex
100
AcDb2dVertex
 10
423.8492503319
 20
7.0799908791
 30
0.0
  0
VERTEX
  5
310
330
77
100
AcDbEntity
  8
0
  6
CONTINUOUS
 62
     7
100
AcDbVertex
100
AcDb2dVertex
 10
423.887038723
 20
7.4540959511
 30
0.0
  0
VERTEX
  5
311
330
77
100
AcDbEntity
  8
0
  6
CONTINUOUS
 62
     7
100
AcDbVertex
100
AcDb2dVertex
 10
423.9304953728
 20
7.8093068276
 30
0.0
  0
VERTEX
  5
312
330
77
100
AcDbEntity
  8
0
  6
CONTINUOUS
 62
     7
100
AcDbVertex
100
AcDb2dVertex
 10
423.9758414421
 20
8.147512928
 30
0.0
  0
VERTEX
  5
313
330
77
100
AcDbEntity
  8
0
  6
CONTINUOUS
 62
     7
100
AcDbVertex
100
AcDb2dVertex
 10
424.0249663506
 20
8.4668248329
 30
0.0
  0
VERTEX
  5
314
330
77
100
AcDbEntity
  8
0
  6
CONTINUOUS
 62
     7
100
AcDbVertex
100
AcDb2dVertex
 10
424.0797595177
 20
8.7710213814
 30
0.0
  0
VERTEX
  5
315
330
77
100
AcDbEntity
  8
0
  6
CONTINUOUS
 62
     7
100
AcDbVertex
100
AcDb2dVertex
 10
424.1364421044
 20
9.0582131539
 30
0.0
  0
VERTEX
  5
316
330
77
100
AcDbEntity
  8
0
  6
CONTINUOUS
 62
     7
100
AcDbVertex
100
AcDb2dVertex
 10
424.1987929497
 20
9.3265107308
 30
0.0
  0
VERTEX
  5
317
330
77
100
AcDbEntity
  8
0
  6
CONTINUOUS
 62
     7
100
AcDbVertex
100
AcDb2dVertex
 10
424.3367205773
 20
9.8366540108
 30
0.0
  0
VERTEX
  5
318
330
77
100
AcDbEntity
  8
0
  6
CONTINUOUS
 62
     7
100
AcDbVertex
100
AcDb2dVertex
 10
424.4935424004
 20
10.3241242562
 30
0.0
  0
VERTEX
  5
319
330
77
100
AcDbEntity
  8
0
  6
CONTINUOUS
 62
     7
100
AcDbVertex
100
AcDb2dVertex
 10
424.6711478386
 20
10.7870320473
 30
0.0
  0
VERTEX
  5
31A
330
77
100
AcDbEntity
  8
0
  6
CONTINUOUS
 62
     7
100
AcDbVertex
100
AcDb2dVertex
 10
424.8676474724
 20
11.2291562233
 30
0.0
  0
VERTEX
  5
31B
330
77
100
AcDbEntity
  8
0
  6
CONTINUOUS
 62
     7
100
AcDbVertex
100
AcDb2dVertex
 10
425.0849307213
 20
11.6467179451
 30
0.0
  0
VERTEX
  5
31C
330
77
100
AcDbEntity
  8
0
  6
CONTINUOUS
 62
     7
100
AcDbVertex
100
AcDb2dVertex
 10
425.3229975853
 20
12.0416066323
 30
0.0
  0
VERTEX
  5
31D
330
77
100
AcDbEntity
  8
0
  6
CONTINUOUS
 62
     7
100
AcDbVertex
100
AcDb2dVertex
 10
425.5799586449
 20
12.4119328652
 30
0.0
  0
VERTEX
  5
31E
330
77
100
AcDbEntity
  8
0
  6
CONTINUOUS
 62
     7
100
AcDbVertex
100
AcDb2dVertex
 10
425.8558139
 20
12.761475483
 30
0.0
  0
VERTEX
  5
31F
330
77
100
AcDbEntity
  8
0
  6
CONTINUOUS
 62
     7
100
AcDbVertex
100
AcDb2dVertex
 10
426.1486739311
 20
13.0788979683
 30
0.0
  0
VERTEX
  5
320
330
77
100
AcDbEntity
  8
0
  6
CONTINUOUS
 62
     7
100
AcDbVertex
100
AcDb2dVertex
 10
426.4528704796
 20
13.3528638039
 30
0.0
  0
VERTEX
  5
321
330
77
100
AcDbEntity
  8
0
  6
CONTINUOUS
 62
     7
100
AcDbVertex
100
AcDb2dVertex
 10
426.7702929649
 20
13.5852624092
 30
0.0
  0
VERTEX
  5
322
330
77
100
AcDbEntity
  8
0
  6
CONTINUOUS
 62
     7
100
AcDbVertex
100
AcDb2dVertex
 10
427.0990519676
 20
13.7742043648
 30
0.0
  0
VERTEX
  5
323
330
77
100
AcDbEntity
  8
0
  6
CONTINUOUS
 62
     7
100
AcDbVertex
100
AcDb2dVertex
 10
427.4410369072
 20
13.9215790901
 30
0.0
  0
VERTEX
  5
324
330
77
100
AcDbEntity
  8
0
  6
CONTINUOUS
 62
     7
100
AcDbVertex
100
AcDb2dVertex
 10
427.7943583641
 20
14.0273865853
 30
0.0
  0
VERTEX
  5
325
330
77
100
AcDbEntity
  8
0
  6
CONTINUOUS
 62
     7
100
AcDbVertex
100
AcDb2dVertex
 10
428.1590163384
 20
14.0916268502
 30
0.0
  0
VERTEX
  5
326
330
77
100
AcDbEntity
  8
0
  6
CONTINUOUS
 62
     7
100
AcDbVertex
100
AcDb2dVertex
 10
428.5369002495
 20
14.1124104653
 30
0.0
  0
VERTEX
  5
327
330
77
100
AcDbEntity
  8
0
  6
CONTINUOUS
 62
     7
100
AcDbVertex
100
AcDb2dVertex
 10
428.5369002495
 20
14.1124104653
 30
0.0
  0
VERTEX
  5
328
330
77
100
AcDbEntity
  8
0
  6
CONTINUOUS
 62
     7
100
AcDbVertex
100
AcDb2dVertex
 10
428.807087246
 20
14.1010739479
 30
0.0
  0
VERTEX
  5
329
330
77
100
AcDbEntity
  8
0
  6
CONTINUOUS
 62
     7
100
AcDbVertex
100
AcDb2dVertex
 10
429.0697165642
 20
14.0651749764
 30
0.0
  0
VERTEX
  5
32A
330
77
100
AcDbEntity
  8
0
  6
CONTINUOUS
 62
     7
100
AcDbVertex
100
AcDb2dVertex
 10
429.3285670433
 20
14.0066029701
 30
0.0
  0
VERTEX
  5
32B
330
77
100
AcDbEntity
  8
0
  6
CONTINUOUS
 62
     7
100
AcDbVertex
100
AcDb2dVertex
 10
429.5817492638
 20
13.9234685097
 30
0.0
  0
VERTEX
  5
32C
330
77
100
AcDbEntity
  8
0
  6
CONTINUOUS
 62
     7
100
AcDbVertex
100
AcDb2dVertex
 10
429.8292632256
 20
13.8176610146
 30
0.0
  0
VERTEX
  5
32D
330
77
100
AcDbEntity
  8
0
  6
CONTINUOUS
 62
     7
100
AcDbVertex
100
AcDb2dVertex
 10
430.0711089287
 20
13.6872910652
 30
0.0
  0
VERTEX
  5
32E
330
77
100
AcDbEntity
  8
0
  6
CONTINUOUS
 62
     7
100
AcDbVertex
100
AcDb2dVertex
 10
430.3091757927
 20
13.5342480812
 30
0.0
  0
VERTEX
  5
32F
330
77
100
AcDbEntity
  8
0
  6
CONTINUOUS
 62
     7
100
AcDbVertex
100
AcDb2dVertex
 10
430.5396849785
 20
13.356642643
 30
0.0
  0
VERTEX
  5
330
330
77
100
AcDbEntity
  8
0
  6
CONTINUOUS
 62
     7
100
AcDbVertex
100
AcDb2dVertex
 10
430.7626364861
 20
13.1582535897
 30
0.0
  0
VERTEX
  5
331
330
77
100
AcDbEntity
  8
0
  6
CONTINUOUS
 62
     7
100
AcDbVertex
100
AcDb2dVertex
 10
430.9780303154
 20
12.9428597603
 30
0.0
  0
VERTEX
  5
332
330
77
100
AcDbEntity
  8
0
  6
CONTINUOUS
 62
     7
100
AcDbVertex
100
AcDb2dVertex
 10
431.1820876274
 20
12.710461155
 30
0.0
  0
VERTEX
  5
333
330
77
100
AcDbEntity
  8
0
  6
CONTINUOUS
 62
     7
100
AcDbVertex
100
AcDb2dVertex
 10
431.3766978417
 20
12.4591683541
 30
0.0
  0
VERTEX
  5
334
330
77
100
AcDbEntity
  8
0
  6
CONTINUOUS
 62
     7
100
AcDbVertex
100
AcDb2dVertex
 10
431.5618609581
 20
12.1889813576
 30
0.0
  0
VERTEX
  5
335
330
77
100
AcDbEntity
  8
0
  6
CONTINUOUS
 62
     7
100
AcDbVertex
100
AcDb2dVertex
 10
431.7356875572
 20
11.9017895851
 30
0.0
  0
VERTEX
  5
336
330
77
100
AcDbEntity
  8
0
  6
CONTINUOUS
 62
     7
100
AcDbVertex
100
AcDb2dVertex
 10
431.9019564781
 20
11.5957036171
 30
0.0
  0
VERTEX
  5
337
330
77
100
AcDbEntity
  8
0
  6
CONTINUOUS
 62
     7
100
AcDbVertex
100
AcDb2dVertex
 10
432.0568888817
 20
11.2726128731
 30
0.0
  0
VERTEX
  5
338
330
77
100
AcDbEntity
  8
0
  6
CONTINUOUS
 62
     7
100
AcDbVertex
100
AcDb2dVertex
 10
432.3346335564
 20
10.5943112526
 30
0.0
  0
VERTEX
  5
339
330
77
100
AcDbEntity
  8
0
  6
CONTINUOUS
 62
     7
100
AcDbVertex
100
AcDb2dVertex
 10
432.5670321617
 20
9.8876683388
 30
0.0
  0
VERTEX
  5
33A
330
77
100
AcDbEntity
  8
0
  6
CONTINUOUS
 62
     7
100
AcDbVertex
100
AcDb2dVertex
 10
432.7521952782
 20
9.1526841316
 30
0.0
  0
VERTEX
  5
33B
330
77
100
AcDbEntity
  8
0
  6
CONTINUOUS
 62
     7
100
AcDbVertex
100
AcDb2dVertex
 10
432.8901229057
 20
8.3912480507
 30
0.0
  0
VERTEX
  5
33C
330
77
100
AcDbEntity
  8
0
  6
CONTINUOUS
 62
     7
100
AcDbVertex
100
AcDb2dVertex
 10
432.9184641991
 20
8.1890801583
 30
0.0
  0
VERTEX
  5
33D
330
77
100
AcDbEntity
  8
0
  6
CONTINUOUS
 62
     7
100
AcDbVertex
100
AcDb2dVertex
 10
432.9449160729
 20
7.9680180702
 30
0.0
  0
VERTEX
  5
33E
330
77
100
AcDbEntity
  8
0
  6
CONTINUOUS
 62
     7
100
AcDbVertex
100
AcDb2dVertex
 10
432.9675891075
 20
7.7299512062
 30
0.0
  0
VERTEX
  5
33F
330
77
100
AcDbEntity
  8
0
  6
CONTINUOUS
 62
     7
100
AcDbVertex
100
AcDb2dVertex
 10
432.9902621422
 20
7.4729901467
 30
0.0
  0
VERTEX
  5
340
330
77
100
AcDbEntity
  8
0
  6
CONTINUOUS
 62
     7
100
AcDbVertex
100
AcDb2dVertex
 10
433.0110457573
 20
7.1990243111
 30
0.0
  0
VERTEX
  5
341
330
77
100
AcDbEntity
  8
0
  6
CONTINUOUS
 62
     7
100
AcDbVertex
100
AcDb2dVertex
 10
433.0299399529
 20
6.9080536995
 30
0.0
  0
VERTEX
  5
342
330
77
100
AcDbEntity
  8
0
  6
CONTINUOUS
 62
     7
100
AcDbVertex
100
AcDb2dVertex
 10
433.0469447289
 20
6.6000783119
 30
0.0
  0
VERTEX
  5
343
330
77
100
AcDbEntity
  8
0
  6
CONTINUOUS
 62
     7
100
AcDbVertex
100
AcDb2dVertex
 10
433.0620600853
 20
6.2732087288
 30
0.0
  0
VERTEX
  5
344
330
77
100
AcDbEntity
  8
0
  6
CONTINUOUS
 62
     7
100
AcDbVertex
100
AcDb2dVertex
 10
433.0771754418
 20
5.9274449501
 30
0.0
  0
VERTEX
  5
345
330
77
100
AcDbEntity
  8
0
  6
CONTINUOUS
 62
     7
100
AcDbVertex
100
AcDb2dVertex
 10
433.0885119591
 20
5.5646763954
 30
0.0
  0
VERTEX
  5
346
330
77
100
AcDbEntity
  8
0
  6
CONTINUOUS
 62
     7
100
AcDbVertex
100
AcDb2dVertex
 10
433.0979590569
 20
5.1849030648
 30
0.0
  0
VERTEX
  5
347
330
77
100
AcDbEntity
  8
0
  6
CONTINUOUS
 62
     7
100
AcDbVertex
100
AcDb2dVertex
 10
433.1055167351
 20
4.7862355385
 30
0.0
  0
VERTEX
  5
348
330
77
100
AcDbEntity
  8
0
  6
CONTINUOUS
 62
     7
100
AcDbVertex
100
AcDb2dVertex
 10
433.1130744133
 20
4.3705632363
 30
0.0
  0
VERTEX
  5
349
330
77
100
AcDbEntity
  8
0
  6
CONTINUOUS
 62
     7
100
AcDbVertex
100
AcDb2dVertex
 10
433.1168532524
 20
3.937886158
 30
0.0
  0
VERTEX
  5
34A
330
77
100
AcDbEntity
  8
0
  6
CONTINUOUS
 62
     7
100
AcDbVertex
100
AcDb2dVertex
 10
433.1206320915
 20
3.4863148842
 30
0.0
  0
VERTEX
  5
34B
330
77
100
AcDbEntity
  8
0
  6
CONTINUOUS
 62
     7
100
AcDbVertex
100
AcDb2dVertex
 10
433.1206320915
 20
3.0177388344
 30
0.0
  0
VERTEX
  5
34C
330
77
100
AcDbEntity
  8
0
  6
CONTINUOUS
 62
     7
100
AcDbVertex
100
AcDb2dVertex
 10
433.1206320915
 20
3.0177388344
 30
0.0
  0
VERTEX
  5
34D
330
77
100
AcDbEntity
  8
0
  6
CONTINUOUS
 62
     7
100
AcDbVertex
100
AcDb2dVertex
 10
433.1206320915
 20
-1.4866373863
 30
0.0
  0
VERTEX
  5
34E
330
77
100
AcDbEntity
  8
0
  6
CONTINUOUS
 62
     7
100
AcDbVertex
100
AcDb2dVertex
 10
433.1206320915
 20
-1.4866373863
 30
0.0
  0
VERTEX
  5
34F
330
77
100
AcDbEntity
  8
0
  6
CONTINUOUS
 62
     7
100
AcDbVertex
100
AcDb2dVertex
 10
423.6886496697
 20
-1.4866373863
 30
0.0
  0
SEQEND
  5
406
330
77
100
AcDbEntity
  8
0
  6
CONTINUOUS
 62
     7
  0
POLYLINE
  5
78
330
1F
100
AcDbEntity
  8
0
  6
CONTINUOUS
 62
     7
100
AcDb2dPolyline
 66
     1
 10
0.0
 20
0.0
 30
0.0
 70
   128
  0
VERTEX
  5
350
330
78
100
AcDbEntity
  8
0
  6
CONTINUOUS
 62
     7
100
AcDbVertex
100
AcDb2dVertex
 10
425.3815695915
 20
2.1410472691
 30
0.0
  0
VERTEX
  5
351
330
78
100
AcDbEntity
  8
0
  6
CONTINUOUS
 62
     7
100
AcDbVertex
100
AcDb2dVertex
 10
431.4277121697
 20
2.1410481606
 30
0.0
  0
VERTEX
  5
352
330
78
100
AcDbEntity
  8
0
  6
CONTINUOUS
 62
     7
100
AcDbVertex
100
AcDb2dVertex
 10
431.4277121697
 20
2.1410481606
 30
0.0
  0
VERTEX
  5
353
330
78
100
AcDbEntity
  8
0
  6
CONTINUOUS
 62
     7
100
AcDbVertex
100
AcDb2dVertex
 10
431.4277121697
 20
3.9341073189
 30
0.0
  0
VERTEX
  5
354
330
78
100
AcDbEntity
  8
0
  6
CONTINUOUS
 62
     7
100
AcDbVertex
100
AcDb2dVertex
 10
431.4277121697
 20
3.9341073189
 30
0.0
  0
VERTEX
  5
355
330
78
100
AcDbEntity
  8
0
  6
CONTINUOUS
 62
     7
100
AcDbVertex
100
AcDb2dVertex
 10
431.4239333305
 20
4.5727311287
 30
0.0
  0
VERTEX
  5
356
330
78
100
AcDbEntity
  8
0
  6
CONTINUOUS
 62
     7
100
AcDbVertex
100
AcDb2dVertex
 10
431.4088179741
 20
5.1660088692
 30
0.0
  0
VERTEX
  5
357
330
78
100
AcDbEntity
  8
0
  6
CONTINUOUS
 62
     7
100
AcDbVertex
100
AcDb2dVertex
 10
431.388034359
 20
5.7139405403
 30
0.0
  0
VERTEX
  5
358
330
78
100
AcDbEntity
  8
0
  6
CONTINUOUS
 62
     7
100
AcDbVertex
100
AcDb2dVertex
 10
431.3559142265
 20
6.2184155617
 30
0.0
  0
VERTEX
  5
359
330
78
100
AcDbEntity
  8
0
  6
CONTINUOUS
 62
     7
100
AcDbVertex
100
AcDb2dVertex
 10
431.3162364159
 20
6.6737656746
 30
0.0
  0
VERTEX
  5
35A
330
78
100
AcDbEntity
  8
0
  6
CONTINUOUS
 62
     7
100
AcDbVertex
100
AcDb2dVertex
 10
431.2652220879
 20
7.0856591378
 30
0.0
  0
VERTEX
  5
35B
330
78
100
AcDbEntity
  8
0
  6
CONTINUOUS
 62
     7
100
AcDbVertex
100
AcDb2dVertex
 10
431.2085395012
 20
7.4522065316
 30
0.0
  0
VERTEX
  5
35C
330
78
100
AcDbEntity
  8
0
  6
CONTINUOUS
 62
     7
100
AcDbVertex
100
AcDb2dVertex
 10
431.1405203972
 20
7.773407856
 30
0.0
  0
VERTEX
  5
35D
330
78
100
AcDbEntity
  8
0
  6
CONTINUOUS
 62
     7
100
AcDbVertex
100
AcDb2dVertex
 10
431.0630541954
 20
8.0643784676
 30
0.0
  0
VERTEX
  5
35E
330
78
100
AcDbEntity
  8
0
  6
CONTINUOUS
 62
     7
100
AcDbVertex
100
AcDb2dVertex
 10
430.9723620567
 20
8.3440125618
 30
0.0
  0
VERTEX
  5
35F
330
78
100
AcDbEntity
  8
0
  6
CONTINUOUS
 62
     7
100
AcDbVertex
100
AcDb2dVertex
 10
430.8703334007
 20
8.6085312996
 30
0.0
  0
VERTEX
  5
360
330
78
100
AcDbEntity
  8
0
  6
CONTINUOUS
 62
     7
100
AcDbVertex
100
AcDb2dVertex
 10
430.7550788078
 20
8.857934681
 30
0.0
  0
VERTEX
  5
361
330
78
100
AcDbEntity
  8
0
  6
CONTINUOUS
 62
     7
100
AcDbVertex
100
AcDb2dVertex
 10
430.6284876976
 20
9.096001545
 30
0.0
  0
VERTEX
  5
362
330
78
100
AcDbEntity
  8
0
  6
CONTINUOUS
 62
     7
100
AcDbVertex
100
AcDb2dVertex
 10
430.4905600701
 20
9.3189530525
 30
0.0
  0
VERTEX
  5
363
330
78
100
AcDbEntity
  8
0
  6
CONTINUOUS
 62
     7
100
AcDbVertex
100
AcDb2dVertex
 10
430.3394065056
 20
9.5286786232
 30
0.0
  0
VERTEX
  5
364
330
78
100
AcDbEntity
  8
0
  6
CONTINUOUS
 62
     7
100
AcDbVertex
100
AcDb2dVertex
 10
430.1750270043
 20
9.725178257
 30
0.0
  0
VERTEX
  5
365
330
78
100
AcDbEntity
  8
0
  6
CONTINUOUS
 62
     7
100
AcDbVertex
100
AcDb2dVertex
 10
430.0012004051
 20
9.9027836952
 30
0.0
  0
VERTEX
  5
366
330
78
100
AcDbEntity
  8
0
  6
CONTINUOUS
 62
     7
100
AcDbVertex
100
AcDb2dVertex
 10
429.8160372887
 20
10.0577160988
 30
0.0
  0
VERTEX
  5
367
330
78
100
AcDbEntity
  8
0
  6
CONTINUOUS
 62
     7
100
AcDbVertex
100
AcDb2dVertex
 10
429.623316494
 20
10.1880860482
 30
0.0
  0
VERTEX
  5
368
330
78
100
AcDbEntity
  8
0
  6
CONTINUOUS
 62
     7
100
AcDbVertex
100
AcDb2dVertex
 10
429.419259182
 20
10.2957829628
 30
0.0
  0
VERTEX
  5
369
330
78
100
AcDbEntity
  8
0
  6
CONTINUOUS
 62
     7
100
AcDbVertex
100
AcDb2dVertex
 10
429.2057547722
 20
10.3770280037
 30
0.0
  0
VERTEX
  5
36A
330
78
100
AcDbEntity
  8
0
  6
CONTINUOUS
 62
     7
100
AcDbVertex
100
AcDb2dVertex
 10
428.9828032646
 20
10.4374894295
 30
0.0
  0
VERTEX
  5
36B
330
78
100
AcDbEntity
  8
0
  6
CONTINUOUS
 62
     7
100
AcDbVertex
100
AcDb2dVertex
 10
428.7485152397
 20
10.4733884011
 30
0.0
  0
VERTEX
  5
36C
330
78
100
AcDbEntity
  8
0
  6
CONTINUOUS
 62
     7
100
AcDbVertex
100
AcDb2dVertex
 10
428.5066695366
 20
10.4847249184
 30
0.0
  0
VERTEX
  5
36D
330
78
100
AcDbEntity
  8
0
  6
CONTINUOUS
 62
     7
100
AcDbVertex
100
AcDb2dVertex
 10
428.5066695366
 20
10.4847249184
 30
0.0
  0
VERTEX
  5
36E
330
78
100
AcDbEntity
  8
0
  6
CONTINUOUS
 62
     7
100
AcDbVertex
100
AcDb2dVertex
 10
428.317727581
 20
10.4771672402
 30
0.0
  0
VERTEX
  5
36F
330
78
100
AcDbEntity
  8
0
  6
CONTINUOUS
 62
     7
100
AcDbVertex
100
AcDb2dVertex
 10
428.1363433037
 20
10.4563836251
 30
0.0
  0
VERTEX
  5
370
330
78
100
AcDbEntity
  8
0
  6
CONTINUOUS
 62
     7
100
AcDbVertex
100
AcDb2dVertex
 10
427.9587378655
 20
10.4204846535
 30
0.0
  0
VERTEX
  5
371
330
78
100
AcDbEntity
  8
0
  6
CONTINUOUS
 62
     7
100
AcDbVertex
100
AcDb2dVertex
 10
427.7868006859
 20
10.3713597451
 30
0.0
  0
VERTEX
  5
372
330
78
100
AcDbEntity
  8
0
  6
CONTINUOUS
 62
     7
100
AcDbVertex
100
AcDb2dVertex
 10
427.6186423454
 20
10.3090088997
 30
0.0
  0
VERTEX
  5
373
330
78
100
AcDbEntity
  8
0
  6
CONTINUOUS
 62
     7
100
AcDbVertex
100
AcDb2dVertex
 10
427.4580416832
 20
10.2315426979
 30
0.0
  0
VERTEX
  5
374
330
78
100
AcDbEntity
  8
0
  6
CONTINUOUS
 62
     7
100
AcDbVertex
100
AcDb2dVertex
 10
427.3012198601
 20
10.1389611397
 30
0.0
  0
VERTEX
  5
375
330
78
100
AcDbEntity
  8
0
  6
CONTINUOUS
 62
     7
100
AcDbVertex
100
AcDb2dVertex
 10
427.1500662956
 20
10.0331536446
 30
0.0
  0
VERTEX
  5
376
330
78
100
AcDbEntity
  8
0
  6
CONTINUOUS
 62
     7
100
AcDbVertex
100
AcDb2dVertex
 10
427.0064704094
 20
9.9141202126
 30
0.0
  0
VERTEX
  5
377
330
78
100
AcDbEntity
  8
0
  6
CONTINUOUS
 62
     7
100
AcDbVertex
100
AcDb2dVertex
 10
426.8647639427
 20
9.7799714241
 30
0.0
  0
VERTEX
  5
378
330
78
100
AcDbEntity
  8
0
  6
CONTINUOUS
 62
     7
100
AcDbVertex
100
AcDb2dVertex
 10
426.7306151543
 20
9.6307072792
 30
0.0
  0
VERTEX
  5
379
330
78
100
AcDbEntity
  8
0
  6
CONTINUOUS
 62
     7
100
AcDbVertex
100
AcDb2dVertex
 10
426.6021346245
 20
9.4682171974
 30
0.0
  0
VERTEX
  5
37A
330
78
100
AcDbEntity
  8
0
  6
CONTINUOUS
 62
     7
100
AcDbVertex
100
AcDb2dVertex
 10
426.4774329338
 20
9.2925011788
 30
0.0
  0
VERTEX
  5
37B
330
78
100
AcDbEntity
  8
0
  6
CONTINUOUS
 62
     7
100
AcDbVertex
100
AcDb2dVertex
 10
426.3583995018
 20
9.1016698036
 30
0.0
  0
VERTEX
  5
37C
330
78
100
AcDbEntity
  8
0
  6
CONTINUOUS
 62
     7
100
AcDbVertex
100
AcDb2dVertex
 10
426.2450343285
 20
8.8976124916
 30
0.0
  0
VERTEX
  5
37D
330
78
100
AcDbEntity
  8
0
  6
CONTINUOUS
 62
     7
100
AcDbVertex
100
AcDb2dVertex
 10
426.1373374138
 20
8.6784398232
 30
0.0
  0
VERTEX
  5
37E
330
78
100
AcDbEntity
  8
0
  6
CONTINUOUS
 62
     7
100
AcDbVertex
100
AcDb2dVertex
 10
426.1373374138
 20
8.6784398232
 30
0.0
  0
VERTEX
  5
37F
330
78
100
AcDbEntity
  8
0
  6
CONTINUOUS
 62
     7
100
AcDbVertex
100
AcDb2dVertex
 10
426.0466452751
 20
8.4668248329
 30
0.0
  0
VERTEX
  5
380
330
78
100
AcDbEntity
  8
0
  6
CONTINUOUS
 62
     7
100
AcDbVertex
100
AcDb2dVertex
 10
425.9597319756
 20
8.2400944863
 30
0.0
  0
VERTEX
  5
381
330
78
100
AcDbEntity
  8
0
  6
CONTINUOUS
 62
     7
100
AcDbVertex
100
AcDb2dVertex
 10
425.8803763542
 20
7.9982487831
 30
0.0
  0
VERTEX
  5
382
330
78
100
AcDbEntity
  8
0
  6
CONTINUOUS
 62
     7
100
AcDbVertex
100
AcDb2dVertex
 10
425.8066889916
 20
7.7412877236
 30
0.0
  0
VERTEX
  5
383
330
78
100
AcDbEntity
  8
0
  6
CONTINUOUS
 62
     7
100
AcDbVertex
100
AcDb2dVertex
 10
425.7386698876
 20
7.4692113076
 30
0.0
  0
VERTEX
  5
384
330
78
100
AcDbEntity
  8
0
  6
CONTINUOUS
 62
     7
100
AcDbVertex
100
AcDb2dVertex
 10
425.6763190422
 20
7.1801301155
 30
0.0
  0
VERTEX
  5
385
330
78
100
AcDbEntity
  8
0
  6
CONTINUOUS
 62
     7
100
AcDbVertex
100
AcDb2dVertex
 10
425.6215258751
 20
6.8778229866
 30
0.0
  0
VERTEX
  5
386
330
78
100
AcDbEntity
  8
0
  6
CONTINUOUS
 62
     7
100
AcDbVertex
100
AcDb2dVertex
 10
425.5705115471
 20
6.5585110817
 30
0.0
  0
VERTEX
  5
387
330
78
100
AcDbEntity
  8
0
  6
CONTINUOUS
 62
     7
100
AcDbVertex
100
AcDb2dVertex
 10
425.5270548973
 20
6.2240838204
 30
0.0
  0
VERTEX
  5
388
330
78
100
AcDbEntity
  8
0
  6
CONTINUOUS
 62
     7
100
AcDbVertex
100
AcDb2dVertex
 10
425.4873770867
 20
5.8745412026
 30
0.0
  0
VERTEX
  5
389
330
78
100
AcDbEntity
  8
0
  6
CONTINUOUS
 62
     7
100
AcDbVertex
100
AcDb2dVertex
 10
425.4552569542
 20
5.5079938088
 30
0.0
  0
VERTEX
  5
38A
330
78
100
AcDbEntity
  8
0
  6
CONTINUOUS
 62
     7
100
AcDbVertex
100
AcDb2dVertex
 10
425.4288050804
 20
5.1282204781
 30
0.0
  0
VERTEX
  5
38B
330
78
100
AcDbEntity
  8
0
  6
CONTINUOUS
 62
     7
100
AcDbVertex
100
AcDb2dVertex
 10
425.4080214653
 20
4.7314423714
 30
0.0
  0
VERTEX
  5
38C
330
78
100
AcDbEntity
  8
0
  6
CONTINUOUS
 62
     7
100
AcDbVertex
100
AcDb2dVertex
 10
425.3929061089
 20
4.3195489083
 30
0.0
  0
VERTEX
  5
38D
330
78
100
AcDbEntity
  8
0
  6
CONTINUOUS
 62
     7
100
AcDbVertex
100
AcDb2dVertex
 10
425.3853484306
 20
3.8925400887
 30
0.0
  0
VERTEX
  5
38E
330
78
100
AcDbEntity
  8
0
  6
CONTINUOUS
 62
     7
100
AcDbVertex
100
AcDb2dVertex
 10
425.3815695915
 20
3.4504159127
 30
0.0
  0
VERTEX
  5
38F
330
78
100
AcDbEntity
  8
0
  6
CONTINUOUS
 62
     7
100
AcDbVertex
100
AcDb2dVertex
 10
425.3815695915
 20
3.4504159127
 30
0.0
  0
VERTEX
  5
390
330
78
100
AcDbEntity
  8
0
  6
CONTINUOUS
 62
     7
100
AcDbVertex
100
AcDb2dVertex
 10
425.3815695915
 20
2.1410481606
 30
0.0
  0
SEQEND
  5
407
330
78
100
AcDbEntity
  8
0
  6
CONTINUOUS
 62
     7
  0
POLYLINE
  5
79
330
1F
100
AcDbEntity
  8
0
  6
CONTINUOUS
 62
     7
100
AcDb2dPolyline
 66
     1
 10
0.0
 20
0.0
 30
0.0
 70
   128
  0
VERTEX
  5
391
330
79
100
AcDbEntity
  8
0
  6
CONTINUOUS
 62
     7
100
AcDbVertex
100
AcDb2dVertex
 10
423.6886496697
 20
17.1354711056
 30
0.0
  0
VERTEX
  5
392
330
79
100
AcDbEntity
  8
0
  6
CONTINUOUS
 62
     7
100
AcDbVertex
100
AcDb2dVertex
 10
423.6886496697
 20
20.7631673012
 30
0.0
  0
VERTEX
  5
393
330
79
100
AcDbEntity
  8
0
  6
CONTINUOUS
 62
     7
100
AcDbVertex
100
AcDb2dVertex
 10
423.6886496697
 20
20.7631673012
 30
0.0
  0
VERTEX
  5
394
330
79
100
AcDbEntity
  8
0
  6
CONTINUOUS
 62
     7
100
AcDbVertex
100
AcDb2dVertex
 10
433.1206320915
 20
20.7631673012
 30
0.0
  0
VERTEX
  5
395
330
79
100
AcDbEntity
  8
0
  6
CONTINUOUS
 62
     7
100
AcDbVertex
100
AcDb2dVertex
 10
433.1206320915
 20
20.7631673012
 30
0.0
  0
VERTEX
  5
396
330
79
100
AcDbEntity
  8
0
  6
CONTINUOUS
 62
     7
100
AcDbVertex
100
AcDb2dVertex
 10
433.1206320915
 20
17.1354817543
 30
0.0
  0
VERTEX
  5
397
330
79
100
AcDbEntity
  8
0
  6
CONTINUOUS
 62
     7
100
AcDbVertex
100
AcDb2dVertex
 10
433.1206320915
 20
17.1354817543
 30
0.0
  0
VERTEX
  5
398
330
79
100
AcDbEntity
  8
0
  6
CONTINUOUS
 62
     7
100
AcDbVertex
100
AcDb2dVertex
 10
423.6886496697
 20
17.1354817543
 30
0.0
  0
SEQEND
  5
408
330
79
100
AcDbEntity
  8
0
  6
CONTINUOUS
 62
     7
  0
POLYLINE
  5
7A
330
1F
100
AcDbEntity
  8
0
  6
CONTINUOUS
 62
     7
100
AcDb2dPolyline
 66
     1
 10
0.0
 20
0.0
 30
0.0
 70
   128
  0
VERTEX
  5
399
330
7A
100
AcDbEntity
  8
0
  6
CONTINUOUS
 62
     7
100
AcDbVertex
100
AcDb2dVertex
 10
423.6886496697
 20
25.4791527987
 30
0.0
  0
VERTEX
  5
39A
330
7A
100
AcDbEntity
  8
0
  6
CONTINUOUS
 62
     7
100
AcDbVertex
100
AcDb2dVertex
 10
423.6886496697
 20
29.4658337746
 30
0.0
  0
VERTEX
  5
39B
330
7A
100
AcDbEntity
  8
0
  6
CONTINUOUS
 62
     7
100
AcDbVertex
100
AcDb2dVertex
 10
423.6886496697
 20
29.4658337746
 30
0.0
  0
VERTEX
  5
39C
330
7A
100
AcDbEntity
  8
0
  6
CONTINUOUS
 62
     7
100
AcDbVertex
100
AcDb2dVertex
 10
423.6905390892
 20
29.8682801399
 30
0.0
  0
VERTEX
  5
39D
330
7A
100
AcDbEntity
  8
0
  6
CONTINUOUS
 62
     7
100
AcDbVertex
100
AcDb2dVertex
 10
423.6924285088
 20
30.2556111489
 30
0.0
  0
VERTEX
  5
39E
330
7A
100
AcDbEntity
  8
0
  6
CONTINUOUS
 62
     7
100
AcDbVertex
100
AcDb2dVertex
 10
423.6980967674
 20
30.6278268013
 30
0.0
  0
VERTEX
  5
39F
330
7A
100
AcDbEntity
  8
0
  6
CONTINUOUS
 62
     7
100
AcDbVertex
100
AcDb2dVertex
 10
423.7056544457
 20
30.9849270973
 30
0.0
  0
VERTEX
  5
3A0
330
7A
100
AcDbEntity
  8
0
  6
CONTINUOUS
 62
     7
100
AcDbVertex
100
AcDb2dVertex
 10
423.7151015434
 20
31.3288014565
 30
0.0
  0
VERTEX
  5
3A1
330
7A
100
AcDbEntity
  8
0
  6
CONTINUOUS
 62
     7
100
AcDbVertex
100
AcDb2dVertex
 10
423.7264380608
 20
31.6556710396
 30
0.0
  0
VERTEX
  5
3A2
330
7A
100
AcDbEntity
  8
0
  6
CONTINUOUS
 62
     7
100
AcDbVertex
100
AcDb2dVertex
 10
423.7415534172
 20
31.9693146858
 30
0.0
  0
VERTEX
  5
3A3
330
7A
100
AcDbEntity
  8
0
  6
CONTINUOUS
 62
     7
100
AcDbVertex
100
AcDb2dVertex
 10
423.7566687737
 20
32.2697323952
 30
0.0
  0
VERTEX
  5
3A4
330
7A
100
AcDbEntity
  8
0
  6
CONTINUOUS
 62
     7
100
AcDbVertex
100
AcDb2dVertex
 10
423.7755629692
 20
32.5531453285
 30
0.0
  0
VERTEX
  5
3A5
330
7A
100
AcDbEntity
  8
0
  6
CONTINUOUS
 62
     7
100
AcDbVertex
100
AcDb2dVertex
 10
423.7963465843
 20
32.8214429055
 30
0.0
  0
VERTEX
  5
3A6
330
7A
100
AcDbEntity
  8
0
  6
CONTINUOUS
 62
     7
100
AcDbVertex
100
AcDb2dVertex
 10
423.819019619
 20
33.0765145455
 30
0.0
  0
VERTEX
  5
3A7
330
7A
100
AcDbEntity
  8
0
  6
CONTINUOUS
 62
     7
100
AcDbVertex
100
AcDb2dVertex
 10
423.8435820732
 20
33.316470829
 30
0.0
  0
VERTEX
  5
3A8
330
7A
100
AcDbEntity
  8
0
  6
CONTINUOUS
 62
     7
100
AcDbVertex
100
AcDb2dVertex
 10
423.870033947
 20
33.5413117562
 30
0.0
  0
VERTEX
  5
3A9
330
7A
100
AcDbEntity
  8
0
  6
CONTINUOUS
 62
     7
100
AcDbVertex
100
AcDb2dVertex
 10
423.8983752403
 20
33.7529267464
 30
0.0
  0
VERTEX
  5
3AA
330
7A
100
AcDbEntity
  8
0
  6
CONTINUOUS
 62
     7
100
AcDbVertex
100
AcDb2dVertex
 10
423.9286059532
 20
33.9475369606
 30
0.0
  0
VERTEX
  5
3AB
330
7A
100
AcDbEntity
  8
0
  6
CONTINUOUS
 62
     7
100
AcDbVertex
100
AcDb2dVertex
 10
423.9626155052
 20
34.128921238
 30
0.0
  0
VERTEX
  5
3AC
330
7A
100
AcDbEntity
  8
0
  6
CONTINUOUS
 62
     7
100
AcDbVertex
100
AcDb2dVertex
 10
424.0363028679
 20
34.4671273384
 30
0.0
  0
VERTEX
  5
3AD
330
7A
100
AcDbEntity
  8
0
  6
CONTINUOUS
 62
     7
100
AcDbVertex
100
AcDb2dVertex
 10
424.1213267479
 20
34.7902180825
 30
0.0
  0
VERTEX
  5
3AE
330
7A
100
AcDbEntity
  8
0
  6
CONTINUOUS
 62
     7
100
AcDbVertex
100
AcDb2dVertex
 10
424.2176871452
 20
35.0944146309
 30
0.0
  0
VERTEX
  5
3AF
330
7A
100
AcDbEntity
  8
0
  6
CONTINUOUS
 62
     7
100
AcDbVertex
100
AcDb2dVertex
 10
424.3253840599
 20
35.3816064034
 30
0.0
  0
VERTEX
  5
3B0
330
7A
100
AcDbEntity
  8
0
  6
CONTINUOUS
 62
     7
100
AcDbVertex
100
AcDb2dVertex
 10
424.4444174919
 20
35.6517933998
 30
0.0
  0
VERTEX
  5
3B1
330
7A
100
AcDbEntity
  8
0
  6
CONTINUOUS
 62
     7
100
AcDbVertex
100
AcDb2dVertex
 10
424.5747874413
 20
35.9068650399
 30
0.0
  0
VERTEX
  5
3B2
330
7A
100
AcDbEntity
  8
0
  6
CONTINUOUS
 62
     7
100
AcDbVertex
100
AcDb2dVertex
 10
424.7164939079
 20
36.1430424843
 30
0.0
  0
VERTEX
  5
3B3
330
7A
100
AcDbEntity
  8
0
  6
CONTINUOUS
 62
     7
100
AcDbVertex
100
AcDb2dVertex
 10
424.869536892
 20
36.3622151528
 30
0.0
  0
VERTEX
  5
3B4
330
7A
100
AcDbEntity
  8
0
  6
CONTINUOUS
 62
     7
100
AcDbVertex
100
AcDb2dVertex
 10
425.0320269737
 20
36.5606042061
 30
0.0
  0
VERTEX
  5
3B5
330
7A
100
AcDbEntity
  8
0
  6
CONTINUOUS
 62
     7
100
AcDbVertex
100
AcDb2dVertex
 10
425.2001853142
 20
36.7325413857
 30
0.0
  0
VERTEX
  5
3B6
330
7A
100
AcDbEntity
  8
0
  6
CONTINUOUS
 62
     7
100
AcDbVertex
100
AcDb2dVertex
 10
425.3777907524
 20
36.8780266915
 30
0.0
  0
VERTEX
  5
3B7
330
7A
100
AcDbEntity
  8
0
  6
CONTINUOUS
 62
     7
100
AcDbVertex
100
AcDb2dVertex
 10
425.5610644493
 20
36.9970601235
 30
0.0
  0
VERTEX
  5
3B8
330
7A
100
AcDbEntity
  8
0
  6
CONTINUOUS
 62
     7
100
AcDbVertex
100
AcDb2dVertex
 10
425.7518958244
 20
37.0896416817
 30
0.0
  0
VERTEX
  5
3B9
330
7A
100
AcDbEntity
  8
0
  6
CONTINUOUS
 62
     7
100
AcDbVertex
100
AcDb2dVertex
 10
425.9502848778
 20
37.1557713661
 30
0.0
  0
VERTEX
  5
3BA
330
7A
100
AcDbEntity
  8
0
  6
CONTINUOUS
 62
     7
100
AcDbVertex
100
AcDb2dVertex
 10
426.1543421898
 20
37.1954491768
 30
0.0
  0
VERTEX
  5
3BB
330
7A
100
AcDbEntity
  8
0
  6
CONTINUOUS
 62
     7
100
AcDbVertex
100
AcDb2dVertex
 10
426.3678465996
 20
37.2086751137
 30
0.0
  0
VERTEX
  5
3BC
330
7A
100
AcDbEntity
  8
0
  6
CONTINUOUS
 62
     7
100
AcDbVertex
100
AcDb2dVertex
 10
426.3678465996
 20
37.2086751137
 30
0.0
  0
VERTEX
  5
3BD
330
7A
100
AcDbEntity
  8
0
  6
CONTINUOUS
 62
     7
100
AcDbVertex
100
AcDb2dVertex
 10
426.5907981072
 20
37.1935597573
 30
0.0
  0
VERTEX
  5
3BE
330
7A
100
AcDbEntity
  8
0
  6
CONTINUOUS
 62
     7
100
AcDbVertex
100
AcDb2dVertex
 10
426.804302517
 20
37.1501031075
 30
0.0
  0
VERTEX
  5
3BF
330
7A
100
AcDbEntity
  8
0
  6
CONTINUOUS
 62
     7
100
AcDbVertex
100
AcDb2dVertex
 10
427.008359829
 20
37.0783051644
 30
0.0
  0
VERTEX
  5
3C0
330
7A
100
AcDbEntity
  8
0
  6
CONTINUOUS
 62
     7
100
AcDbVertex
100
AcDb2dVertex
 10
427.2029700432
 20
36.9762765084
 30
0.0
  0
VERTEX
  5
3C1
330
7A
100
AcDbEntity
  8
0
  6
CONTINUOUS
 62
     7
100
AcDbVertex
100
AcDb2dVertex
 10
427.3900225792
 20
36.8440171395
 30
0.0
  0
VERTEX
  5
3C2
330
7A
100
AcDbEntity
  8
0
  6
CONTINUOUS
 62
     7
100
AcDbVertex
100
AcDb2dVertex
 10
427.5657385979
 20
36.6853058968
 30
0.0
  0
VERTEX
  5
3C3
330
7A
100
AcDbEntity
  8
0
  6
CONTINUOUS
 62
     7
100
AcDbVertex
100
AcDb2dVertex
 10
427.7338969383
 20
36.4963639412
 30
0.0
  0
VERTEX
  5
3C4
330
7A
100
AcDbEntity
  8
0
  6
CONTINUOUS
 62
     7
100
AcDbVertex
100
AcDb2dVertex
 10
427.8907187615
 20
36.2771912728
 30
0.0
  0
VERTEX
  5
3C5
330
7A
100
AcDbEntity
  8
0
  6
CONTINUOUS
 62
     7
100
AcDbVertex
100
AcDb2dVertex
 10
428.0399829064
 20
36.029677311
 30
0.0
  0
VERTEX
  5
3C6
330
7A
100
AcDbEntity
  8
0
  6
CONTINUOUS
 62
     7
100
AcDbVertex
100
AcDb2dVertex
 10
428.1779105339
 20
35.7519326363
 30
0.0
  0
VERTEX
  5
3C7
330
7A
100
AcDbEntity
  8
0
  6
CONTINUOUS
 62
     7
100
AcDbVertex
100
AcDb2dVertex
 10
428.3082804833
 20
35.4458466683
 30
0.0
  0
VERTEX
  5
3C8
330
7A
100
AcDbEntity
  8
0
  6
CONTINUOUS
 62
     7
100
AcDbVertex
100
AcDb2dVertex
 10
428.4273139153
 20
35.1095299874
 30
0.0
  0
VERTEX
  5
3C9
330
7A
100
AcDbEntity
  8
0
  6
CONTINUOUS
 62
     7
100
AcDbVertex
100
AcDb2dVertex
 10
428.5387896691
 20
34.7429825936
 30
0.0
  0
VERTEX
  5
3CA
330
7A
100
AcDbEntity
  8
0
  6
CONTINUOUS
 62
     7
100
AcDbVertex
100
AcDb2dVertex
 10
428.6408183251
 20
34.3480939064
 30
0.0
  0
VERTEX
  5
3CB
330
7A
100
AcDbEntity
  8
0
  6
CONTINUOUS
 62
     7
100
AcDbVertex
100
AcDb2dVertex
 10
428.7333998833
 20
33.9229745064
 30
0.0
  0
VERTEX
  5
3CC
330
7A
100
AcDbEntity
  8
0
  6
CONTINUOUS
 62
     7
100
AcDbVertex
100
AcDb2dVertex
 10
428.8165343437
 20
33.469513813
 30
0.0
  0
VERTEX
  5
3CD
330
7A
100
AcDbEntity
  8
0
  6
CONTINUOUS
 62
     7
100
AcDbVertex
100
AcDb2dVertex
 10
428.8165343437
 20
33.469513813
 30
0.0
  0
VERTEX
  5
3CE
330
7A
100
AcDbEntity
  8
0
  6
CONTINUOUS
 62
     7
100
AcDbVertex
100
AcDb2dVertex
 10
433.1206320915
 20
38.1155965004
 30
0.0
  0
VERTEX
  5
3CF
330
7A
100
AcDbEntity
  8
0
  6
CONTINUOUS
 62
     7
100
AcDbVertex
100
AcDb2dVertex
 10
433.1206320915
 20
38.1155965004
 30
0.0
  0
VERTEX
  5
3D0
330
7A
100
AcDbEntity
  8
0
  6
CONTINUOUS
 62
     7
100
AcDbVertex
100
AcDb2dVertex
 10
433.1206320915
 20
34.0306714211
 30
0.0
  0
VERTEX
  5
3D1
330
7A
100
AcDbEntity
  8
0
  6
CONTINUOUS
 62
     7
100
AcDbVertex
100
AcDb2dVertex
 10
433.1206320915
 20
34.0306714211
 30
0.0
  0
VERTEX
  5
3D2
330
7A
100
AcDbEntity
  8
0
  6
CONTINUOUS
 62
     7
100
AcDbVertex
100
AcDb2dVertex
 10
429.0092551384
 20
29.5924248848
 30
0.0
  0
VERTEX
  5
3D3
330
7A
100
AcDbEntity
  8
0
  6
CONTINUOUS
 62
     7
100
AcDbVertex
100
AcDb2dVertex
 10
429.0092551384
 20
29.5924248848
 30
0.0
  0
VERTEX
  5
3D4
330
7A
100
AcDbEntity
  8
0
  6
CONTINUOUS
 62
     7
100
AcDbVertex
100
AcDb2dVertex
 10
429.0092551384
 20
29.106844059
 30
0.0
  0
VERTEX
  5
3D5
330
7A
100
AcDbEntity
  8
0
  6
CONTINUOUS
 62
     7
100
AcDbVertex
100
AcDb2dVertex
 10
429.0092551384
 20
29.106844059
 30
0.0
  0
VERTEX
  5
3D6
330
7A
100
AcDbEntity
  8
0
  6
CONTINUOUS
 62
     7
100
AcDbVertex
100
AcDb2dVertex
 10
433.1206320915
 20
29.106844059
 30
0.0
  0
VERTEX
  5
3D7
330
7A
100
AcDbEntity
  8
0
  6
CONTINUOUS
 62
     7
100
AcDbVertex
100
AcDb2dVertex
 10
433.1206320915
 20
29.106844059
 30
0.0
  0
VERTEX
  5
3D8
330
7A
100
AcDbEntity
  8
0
  6
CONTINUOUS
 62
     7
100
AcDbVertex
100
AcDb2dVertex
 10
433.1206320915
 20
25.4791585121
 30
0.0
  0
VERTEX
  5
3D9
330
7A
100
AcDbEntity
  8
0
  6
CONTINUOUS
 62
     7
100
AcDbVertex
100
AcDb2dVertex
 10
433.1206320915
 20
25.4791585121
 30
0.0
  0
VERTEX
  5
3DA
330
7A
100
AcDbEntity
  8
0
  6
CONTINUOUS
 62
     7
100
AcDbVertex
100
AcDb2dVertex
 10
423.6886496697
 20
25.4791585121
 30
0.0
  0
SEQEND
  5
409
330
7A
100
AcDbEntity
  8
0
  6
CONTINUOUS
 62
     7
  0
POLYLINE
  5
7B
330
1F
100
AcDbEntity
  8
0
  6
CONTINUOUS
 62
     7
100
AcDb2dPolyline
 66
     1
 10
0.0
 20
0.0
 30
0.0
 70
   128
  0
VERTEX
  5
3DB
330
7B
100
AcDbEntity
  8
0
  6
CONTINUOUS
 62
     7
100
AcDbVertex
100
AcDb2dVertex
 10
427.3163352165
 20
29.1068404913
 30
0.0
  0
VERTEX
  5
3DC
330
7B
100
AcDbEntity
  8
0
  6
CONTINUOUS
 62
     7
100
AcDbVertex
100
AcDb2dVertex
 10
427.3163352165
 20
30.3255196724
 30
0.0
  0
VERTEX
  5
3DD
330
7B
100
AcDbEntity
  8
0
  6
CONTINUOUS
 62
     7
100
AcDbVertex
100
AcDb2dVertex
 10
427.3163352165
 20
30.3255196724
 30
0.0
  0
VERTEX
  5
3DE
330
7B
100
AcDbEntity
  8
0
  6
CONTINUOUS
 62
     7
100
AcDbVertex
100
AcDb2dVertex
 10
427.3125563774
 20
30.7714226876
 30
0.0
  0
VERTEX
  5
3DF
330
7B
100
AcDbEntity
  8
0
  6
CONTINUOUS
 62
     7
100
AcDbVertex
100
AcDb2dVertex
 10
427.3031092796
 20
31.1814267311
 30
0.0
  0
VERTEX
  5
3E0
330
7B
100
AcDbEntity
  8
0
  6
CONTINUOUS
 62
     7
100
AcDbVertex
100
AcDb2dVertex
 10
427.2842150841
 20
31.5555318032
 30
0.0
  0
VERTEX
  5
3E1
330
7B
100
AcDbEntity
  8
0
  6
CONTINUOUS
 62
     7
100
AcDbVertex
100
AcDb2dVertex
 10
427.2596526299
 20
31.8937379036
 30
0.0
  0
VERTEX
  5
3E2
330
7B
100
AcDbEntity
  8
0
  6
CONTINUOUS
 62
     7
100
AcDbVertex
100
AcDb2dVertex
 10
427.229421917
 20
32.194155613
 30
0.0
  0
VERTEX
  5
3E3
330
7B
100
AcDbEntity
  8
0
  6
CONTINUOUS
 62
     7
100
AcDbVertex
100
AcDb2dVertex
 10
427.1897441063
 20
32.4605637703
 30
0.0
  0
VERTEX
  5
3E4
330
7B
100
AcDbEntity
  8
0
  6
CONTINUOUS
 62
     7
100
AcDbVertex
100
AcDb2dVertex
 10
427.144398037
 20
32.6891835366
 30
0.0
  0
VERTEX
  5
3E5
330
7B
100
AcDbEntity
  8
0
  6
CONTINUOUS
 62
     7
100
AcDbVertex
100
AcDb2dVertex
 10
427.0914942894
 20
32.8819043312
 30
0.0
  0
VERTEX
  5
3E6
330
7B
100
AcDbEntity
  8
0
  6
CONTINUOUS
 62
     7
100
AcDbVertex
100
AcDb2dVertex
 10
427.0310328636
 20
33.0462838326
 30
0.0
  0
VERTEX
  5
3E7
330
7B
100
AcDbEntity
  8
0
  6
CONTINUOUS
 62
     7
100
AcDbVertex
100
AcDb2dVertex
 10
426.9611243401
 20
33.1879902993
 30
0.0
  0
VERTEX
  5
3E8
330
7B
100
AcDbEntity
  8
0
  6
CONTINUOUS
 62
     7
100
AcDbVertex
100
AcDb2dVertex
 10
426.8817687187
 20
33.3070237313
 30
0.0
  0
VERTEX
  5
3E9
330
7B
100
AcDbEntity
  8
0
  6
CONTINUOUS
 62
     7
100
AcDbVertex
100
AcDb2dVertex
 10
426.7929659996
 20
33.4071629677
 30
0.0
  0
VERTEX
  5
3EA
330
7B
100
AcDbEntity
  8
0
  6
CONTINUOUS
 62
     7
100
AcDbVertex
100
AcDb2dVertex
 10
426.6947161827
 20
33.4827397499
 30
0.0
  0
VERTEX
  5
3EB
330
7B
100
AcDbEntity
  8
0
  6
CONTINUOUS
 62
     7
100
AcDbVertex
100
AcDb2dVertex
 10
426.587019268
 20
33.537532917
 30
0.0
  0
VERTEX
  5
3EC
330
7B
100
AcDbEntity
  8
0
  6
CONTINUOUS
 62
     7
100
AcDbVertex
100
AcDb2dVertex
 10
426.4717646752
 20
33.5696530495
 30
0.0
  0
VERTEX
  5
3ED
330
7B
100
AcDbEntity
  8
0
  6
CONTINUOUS
 62
     7
100
AcDbVertex
100
AcDb2dVertex
 10
426.3451735649
 20
33.5809895668
 30
0.0
  0
VERTEX
  5
3EE
330
7B
100
AcDbEntity
  8
0
  6
CONTINUOUS
 62
     7
100
AcDbVertex
100
AcDb2dVertex
 10
426.3451735649
 20
33.5809895668
 30
0.0
  0
VERTEX
  5
3EF
330
7B
100
AcDbEntity
  8
0
  6
CONTINUOUS
 62
     7
100
AcDbVertex
100
AcDb2dVertex
 10
426.19590942
 20
33.5602059517
 30
0.0
  0
VERTEX
  5
3F0
330
7B
100
AcDbEntity
  8
0
  6
CONTINUOUS
 62
     7
100
AcDbVertex
100
AcDb2dVertex
 10
426.0560923729
 20
33.4940762673
 30
0.0
  0
VERTEX
  5
3F1
330
7B
100
AcDbEntity
  8
0
  6
CONTINUOUS
 62
     7
100
AcDbVertex
100
AcDb2dVertex
 10
425.9276118431
 20
33.3863793526
 30
0.0
  0
VERTEX
  5
3F2
330
7B
100
AcDbEntity
  8
0
  6
CONTINUOUS
 62
     7
100
AcDbVertex
100
AcDb2dVertex
 10
425.8085784111
 20
33.2333363686
 30
0.0
  0
VERTEX
  5
3F3
330
7B
100
AcDbEntity
  8
0
  6
CONTINUOUS
 62
     7
100
AcDbVertex
100
AcDb2dVertex
 10
425.702770916
 20
33.0462838326
 30
0.0
  0
VERTEX
  5
3F4
330
7B
100
AcDbEntity
  8
0
  6
CONTINUOUS
 62
     7
100
AcDbVertex
100
AcDb2dVertex
 10
425.6120787773
 20
32.8290005837
 30
0.0
  0
VERTEX
  5
3F5
330
7B
100
AcDbEntity
  8
0
  6
CONTINUOUS
 62
     7
100
AcDbVertex
100
AcDb2dVertex
 10
425.5383914147
 20
32.5814866219
 30
0.0
  0
VERTEX
  5
3F6
330
7B
100
AcDbEntity
  8
0
  6
CONTINUOUS
 62
     7
100
AcDbVertex
100
AcDb2dVertex
 10
425.481708828
 20
32.3056313668
 30
0.0
  0
VERTEX
  5
3F7
330
7B
100
AcDbEntity
  8
0
  6
CONTINUOUS
 62
     7
100
AcDbVertex
100
AcDb2dVertex
 10
425.4590357933
 20
32.1450307045
 30
0.0
  0
VERTEX
  5
3F8
330
7B
100
AcDbEntity
  8
0
  6
CONTINUOUS
 62
     7
100
AcDbVertex
100
AcDb2dVertex
 10
425.4382521782
 20
31.9541993294
 30
0.0
  0
VERTEX
  5
3F9
330
7B
100
AcDbEntity
  8
0
  6
CONTINUOUS
 62
     7
100
AcDbVertex
100
AcDb2dVertex
 10
425.4212474022
 20
31.7331372414
 30
0.0
  0
VERTEX
  5
3FA
330
7B
100
AcDbEntity
  8
0
  6
CONTINUOUS
 62
     7
100
AcDbVertex
100
AcDb2dVertex
 10
425.4061320458
 20
31.48373386
 30
0.0
  0
VERTEX
  5
3FB
330
7B
100
AcDbEntity
  8
0
  6
CONTINUOUS
 62
     7
100
AcDbVertex
100
AcDb2dVertex
 10
425.3947955284
 20
31.2003209267
 30
0.0
  0
VERTEX
  5
3FC
330
7B
100
AcDbEntity
  8
0
  6
CONTINUOUS
 62
     7
100
AcDbVertex
100
AcDb2dVertex
 10
425.3872378502
 20
30.8885667
 30
0.0
  0
VERTEX
  5
3FD
330
7B
100
AcDbEntity
  8
0
  6
CONTINUOUS
 62
     7
100
AcDbVertex
100
AcDb2dVertex
 10
425.3834590111
 20
30.5465817604
 30
0.0
  0
VERTEX
  5
3FE
330
7B
100
AcDbEntity
  8
0
  6
CONTINUOUS
 62
     7
100
AcDbVertex
100
AcDb2dVertex
 10
425.3815695915
 20
30.174366108
 30
0.0
  0
VERTEX
  5
3FF
330
7B
100
AcDbEntity
  8
0
  6
CONTINUOUS
 62
     7
100
AcDbVertex
100
AcDb2dVertex
 10
425.3815695915
 20
30.174366108
 30
0.0
  0
VERTEX
  5
400
330
7B
100
AcDbEntity
  8
0
  6
CONTINUOUS
 62
     7
100
AcDbVertex
100
AcDb2dVertex
 10
425.3815695915
 20
29.106844059
 30
0.0
  0
VERTEX
  5
401
330
7B
100
AcDbEntity
  8
0
  6
CONTINUOUS
 62
     7
100
AcDbVertex
100
AcDb2dVertex
 10
425.3815695915
 20
29.106844059
 30
0.0
  0
VERTEX
  5
402
330
7B
100
AcDbEntity
  8
0
  6
CONTINUOUS
 62
     7
100
AcDbVertex
100
AcDb2dVertex
 10
427.3163352165
 20
29.106844059
 30
0.0
  0
SEQEND
  5
40A
330
7B
100
AcDbEntity
  8
0
  6
CONTINUOUS
 62
     7
  0
SPLINE
  5
7C
330
1F
100
AcDbEntity
  8
0
  6
CONTINUOUS
 62
     7
100
AcDbSpline
210
0.0
220
0.0
230
1.0
 70
     8
 71
     3
 72
    43
 73
    39
 74
     0
 42
0.000000001
 43
0.00000001
 40
0.0
 40
0.0
 40
0.0
 40
0.0
 40
0.0205238224460732
 40
0.0406413626751562
 40
0.0607834190586366
 40
0.0810079980591245
 40
0.1014374252837429
 40
0.1222892521098561
 40
0.1437686774803266
 40
0.165853687827591
 40
0.1885036163712973
 40
0.211622140943511
 40
0.235094186356897
 40
0.2592164542266699
 40
0.2840754843382988
 40
0.3095533943108292
 40
0.335989840275798
 40
0.3631842913581073
 40
0.4188123733141578
 40
0.4752687651222419
 40
0.5327931553346815
 40
0.5915226136178038
 40
0.6070161340500544
 40
0.6239132742197763
 40
0.6420630607155572
 40
0.6616408305636821
 40
0.6824931504515177
 40
0.704622807091685
 40
0.72803213102783
 40
0.7528663335514216
 40
0.7791330595127124
 40
0.8066787363320395
 40
0.8355104628975731
 40
0.8657726801390082
 40
0.8973252486129308
 40
0.9301644290230048
 40
0.9644375276928255
 40
1.0
 40
1.0
 40
1.0
 40
1.0
 10
428.536900249495
 20
14.11241046526494
 30
0.0
 10
428.6270986751478
 20
14.1104844409717
 30
0.0
 10
428.8057099908185
 20
14.1066705192703
 30
0.0
 10
429.0704475469955
 20
14.0683684592696
 30
0.0
 10
429.3301260929998
 20
14.01094764983977
 30
0.0
 10
429.5838560088443
 20
13.92647546574296
 30
0.0
 10
429.8328956412212
 20
13.82089538614677
 30
0.0
 10
430.0750844337686
 20
13.68858227927893
 30
0.0
 10
430.3139183562652
 20
13.53638320182209
 30
0.0
 10
430.5438054650164
 20
13.35764024800438
 30
0.0
 10
430.7659460543605
 20
13.15877374535992
 30
0.0
 10
430.9816601263927
 20
12.94414535904731
 30
0.0
 10
431.1863753804742
 20
12.71027352343142
 30
0.0
 10
431.3810741551411
 20
12.45835938355767
 30
0.0
 10
431.5661426841493
 20
12.18848558396794
 30
0.0
 10
431.7398064018801
 20
11.89929710067848
 30
0.0
 10
431.9064117930909
 20
11.59423753074716
 30
0.0
 10
432.1125441769005
 20
11.16069743878233
 30
0.0
 10
432.3439413885908
 20
10.59385414583911
 30
0.0
 10
432.5770014196284
 20
9.885671129941668
 30
0.0
 10
432.7618144910213
 20
9.149332163399484
 30
0.0
 10
432.8642397285374
 20
8.579370263302605
 30
0.0
 10
432.9199225575873
 20
8.18305888042968
 30
0.0
 10
432.9467114853413
 20
7.962672228394158
 30
0.0
 10
432.9680786656862
 20
7.723694996959026
 30
0.0
 10
432.9914560066745
 20
7.467474215383397
 30
0.0
 10
433.0118997863021
 20
7.193458078081392
 30
0.0
 10
433.0307302867607
 20
6.902471812844976
 30
0.0
 10
433.0478933835563
 20
6.593858221857429
 30
0.0
 10
433.0621221835873
 20
6.266914688224558
 30
0.0
 10
433.0785188562052
 20
5.921875149517029
 30
0.0
 10
433.0888082078978
 20
5.559031842426845
 30
0.0
 10
433.098718653738
 20
5.178635284812724
 30
0.0
 10
433.1052470467314
 20
4.780563245689313
 30
0.0
 10
433.1143808194293
 20
4.364929274775809
 30
0.0
 10
433.116357074905
 20
3.931583196028878
 30
0.0
 10
433.121767599405
 20
3.480657457161957
 30
0.0
 10
433.1210152245229
 20
3.17393272747305
 30
0.0
 10
433.1206320915359
 20
3.017738834405569
 30
0.0
  0
SPLINE
  5
7D
330
1F
100
AcDbEntity
  8
0
  6
CONTINUOUS
 62
     7
100
AcDbSpline
210
0.0
220
0.0
230
1.0
 70
     8
 71
     3
 72
    39
 73
    35
 74
     0
 42
0.000000001
 43
0.00000001
 40
0.0
 40
0.0
 40
0.0
 40
0.0
 40
0.0394569160551794
 40
0.0777845530882401
 40
0.1147023970140582
 40
0.1503586267142291
 40
0.184606344832081
 40
0.2177425154103594
 40
0.249623942129001
 40
0.2801035239467938
 40
0.3093474039546107
 40
0.3374913941560155
 40
0.3642769087161071
 40
0.3898179236964937
 40
0.4139993853790757
 40
0.4371347009724295
 40
0.4590454868141305
 40
0.4796625245629763
 40
0.5192174011962678
 40
0.5575458209504788
 40
0.5946568338129179
 40
0.6308707389899184
 40
0.6661032035323544
 40
0.7006161908362581
 40
0.7343540925667372
 40
0.7676831469835551
 40
0.800009382775784
 40
0.8306512652276443
 40
0.8600972255714097
 40
0.8884789847744345
 40
0.9163519843306868
 40
0.9439582159836327
 40
0.9716729062718815
 40
1.0
 40
1.0
 40
1.0
 40
1.0
 10
423.688649669661
 20
2.951609149957326
 30
0.0
 10
423.6889848227914
 20
3.127327275102831
 30
0.0
 10
423.689645536782
 20
3.473734374300143
 30
0.0
 10
423.695685686011
 20
3.984515834472464
 30
0.0
 10
423.7040673277494
 20
4.478350403283096
 30
0.0
 10
423.7206259786184
 20
4.953790876471921
 30
0.0
 10
423.7361762749488
 20
5.412412885023878
 30
0.0
 10
423.7593151012028
 20
5.853899353391918
 30
0.0
 10
423.7863257674073
 20
6.278321351107729
 30
0.0
 10
423.8132315377707
 20
6.685408819097174
 30
0.0
 10
423.848339144451
 20
7.075154297470132
 30
0.0
 10
423.8846352643415
 20
7.448276563873205
 30
0.0
 10
423.9294781737459
 20
7.80385513012737
 30
0.0
 10
423.9739191001067
 20
8.141659662669143
 30
0.0
 10
424.0225295632741
 20
8.462517036210299
 30
0.0
 10
424.0784584067649
 20
8.765710611059898
 30
0.0
 10
424.1332307161712
 20
9.053004398477084
 30
0.0
 10
424.2172031506224
 20
9.408853453637912
 30
0.0
 10
424.3314078018716
 20
9.832496402286855
 30
0.0
 10
424.4870080282635
 20
10.32068305921412
 30
0.0
 10
424.6661081864261
 20
10.7847838770216
 30
0.0
 10
424.8610527421463
 20
11.22745758072812
 30
0.0
 10
425.0792265016063
 20
11.64624021400948
 30
0.0
 10
425.316854837096
 20
12.04148106775731
 30
0.0
 10
425.5755062404098
 20
12.41295266025098
 30
0.0
 10
425.8485677840992
 20
12.76169908880809
 30
0.0
 10
426.1386853137443
 20
13.07828280145618
 30
0.0
 10
426.4444690138754
 20
13.35469029505268
 30
0.0
 10
426.7623637890974
 20
13.58870703806296
 30
0.0
 10
427.0937734119346
 20
13.77962156241026
 30
0.0
 10
427.4374605751656
 20
13.92807419486485
 30
0.0
 10
427.7931654547893
 20
14.03395345064595
 30
0.0
 10
428.1608709379026
 20
14.10137484068226
 30
0.0
 10
428.4106473249717
 20
14.10870522252308
 30
0.0
 10
428.536900249495
 20
14.11241046526494
 30
0.0
  0
CIRCLE
  5
B1
330
1F
100
AcDbEntity
  8
0
  6
CONTINUOUS
 62
     7
100
AcDbCircle
 10
-180.0
 20
0.0
 30
0.0
 40
1.999999999999974
  0
CIRCLE
  5
D4
330
1F
100
AcDbEntity
  8
0
  6
CONTINUOUS
 62
     7
100
AcDbCircle
 10
23.0
 20
-56.1000122793
 30
0.0
 40
2.000000000002807
  0
CIRCLE
  5
D5
330
1F
100
AcDbEntity
  8
0
  6
CONTINUOUS
 62
     7
100
AcDbCircle
 10
163.0
 20
89.9999877207
 30
0.0
 40
2.499999999991985
  0
CIRCLE
  5
D6
330
1F
100
AcDbEntity
  8
0
  6
CONTINUOUS
 62
     7
100
AcDbCircle
 10
163.0
 20
29.9999877207
 30
0.0
 40
2.499999999991964
  0
CIRCLE
  5
D7
330
1F
100
AcDbEntity
  8
0
  6
CONTINUOUS
 62
     7
100
AcDbCircle
 10
21.0
 20
90.0
 30
0.0
 40
2.499999999991914
  0
CIRCLE
  5
DC
330
1F
100
AcDbEntity
  8
0
  6
CONTINUOUS
 62
     7
100
AcDbCircle
 10
-100.0
 20
-120.0
 30
0.0
 40
1.650000000000006
  0
CIRCLE
  5
DD
330
1F
100
AcDbEntity
  8
0
  6
CONTINUOUS
 62
     7
100
AcDbCircle
 10
-441.5
 20
120.0
 30
0.0
 40
1.649999999999991
  0
CIRCLE
  5
DE
330
1F
100
AcDbEntity
  8
0
  6
CONTINUOUS
 62
     7
100
AcDbCircle
 10
241.5
 20
120.0
 30
0.0
 40
1.649999999999991
  0
CIRCLE
  5
E5
330
1F
100
AcDbEntity
  8
0
  6
CONTINUOUS
 62
     7
100
AcDbCircle
 10
-441.5
 20
-120.0
 30
0.0
 40
1.649999999999991
  0
CIRCLE
  5
E6
330
1F
100
AcDbEntity
  8
0
  6
CONTINUOUS
 62
     7
100
AcDbCircle
 10
241.5
 20
-120.0
 30
0.0
 40
1.65000000000002
  0
CIRCLE
  5
E7
330
1F
100
AcDbEntity
  8
0
  6
CONTINUOUS
 62
     7
100
AcDbCircle
 10
-660.0
 20
-120.0
 30
0.0
 40
1.650000000000048
  0
CIRCLE
  5
EE
330
1F
100
AcDbEntity
  8
0
  6
CONTINUOUS
 62
     7
100
AcDbCircle
 10
-360.0
 20
0.0
 30
0.0
 40
1.999999999999947
  0
CIRCLE
  5
F5
330
1F
100
AcDbEntity
  8
0
  6
CONTINUOUS
 62
     7
100
AcDbCircle
 10
21.0
 20
29.9999877207
 30
0.0
 40
2.499999999991932
  0
CIRCLE
  5
10A
330
1F
100
AcDbEntity
  8
0
  6
CONTINUOUS
 62
     7
100
AcDbCircle
 10
-660.0
 20
120.0
 30
0.0
 40
1.650000000000063
  0
CIRCLE
  5
15F
330
1F
100
AcDbEntity
  8
0
  6
CONTINUOUS
 62
     7
100
AcDbCircle
 10
460.0
 20
120.0
 30
0.0
 40
1.649999999999977
  0
CIRCLE
  5
168
330
1F
100
AcDbEntity
  8
0
  6
CONTINUOUS
 62
     7
100
AcDbCircle
 10
460.0
 20
-120.0
 30
0.0
 40
1.650000000000034
  0
CIRCLE
  5
181
330
1F
100
AcDbEntity
  8
0
  6
CONTINUOUS
 62
     7
100
AcDbCircle
 10
-100.0
 20
120.0
 30
0.0
 40
1.650000000000006
  0
SPLINE
  5
18B
330
1F
100
AcDbEntity
  8
0
  6
CONTINUOUS
 62
     7
100
AcDbSpline
210
0.0
220
0.0
230
1.0
 70
     8
 71
     3
 72
    23
 73
    19
 74
     0
 42
0.000000001
 43
0.00000001
 40
0.0
 40
0.0
 40
0.0
 40
0.0
 40
0.0461569113589195
 40
0.0911610125283352
 40
0.135842450798128
 40
0.1812290418930961
 40
0.2285476941892881
 40
0.2774554683785838
 40
0.3296999047113616
 40
0.3853656175770412
 40
0.4450671413031857
 40
0.5091204550137924
 40
0.5778391329877404
 40
0.6515288633817806
 40
0.7306640512946858
 40
0.8149078431562106
 40
0.9047754882970341
 40
1.0
 40
1.0
 40
1.0
 40
1.0
 10
426.3678465995926
 20
37.2086751137024
 30
0.0
 10
426.4423875428809
 20
37.20573580760707
 30
0.0
 10
426.5896077026559
 20
37.19993060721796
 30
0.0
 10
426.8050838610397
 20
37.15467550926089
 30
0.0
 10
427.0116035570832
 20
37.08297179424834
 30
0.0
 10
427.208239557989
 20
36.97879481595407
 30
0.0
 10
427.3949647512665
 20
36.84602677493653
 30
0.0
 10
427.5725676098868
 20
36.68449981400747
 30
0.0
 10
427.7413372975476
 20
36.49516429694214
 30
0.0
 10
427.8968186524253
 20
36.27337405087054
 30
0.0
 10
428.0475150257121
 20
36.02578334386901
 30
0.0
 10
428.1832650448843
 20
35.74607093336195
 30
0.0
 10
428.3150901232504
 20
35.43989504971074
 30
0.0
 10
428.4322549989886
 20
35.1018642255392
 30
0.0
 10
428.5438780588864
 20
34.7358557465376
 30
0.0
 10
428.6453918809084
 20
34.33984715097137
 30
0.0
 10
428.7380304447358
 20
33.91506212158033
 30
0.0
 10
428.7898663061613
 20
33.62086806657543
 30
0.0
 10
428.8165343437332
 20
33.46951381304322
 30
0.0
  0
SPLINE
  5
18C
330
1F
100
AcDbEntity
  8
0
  6
CONTINUOUS
 62
     7
100
AcDbSpline
210
0.0
220
0.0
230
1.0
 70
     8
 71
     3
 72
    39
 73
    35
 74
     0
 42
0.000000001
 43
0.00000001
 40
0.0
 40
0.0
 40
0.0
 40
0.0
 40
0.0452421194331612
 40
0.0887850425172138
 40
0.1306330832850856
 40
0.1707860462595403
 40
0.2094577911465685
 40
0.2462254259412706
 40
0.2815250751322897
 40
0.3153397098275401
 40
0.3472707283590669
 40
0.3775221687719194
 40
0.4063094936696909
 40
0.4334254988989611
 40
0.4588756521858942
 40
0.4828770754482821
 40
0.5050168613896461
 40
0.5257627833368733
 40
0.5646746861703684
 40
0.6022320165081628
 40
0.6381034341214759
 40
0.6725839363753626
 40
0.7057744212469425
 40
0.7379769705217335
 40
0.768939613099343
 40
0.7989905520936034
 40
0.8278185945858363
 40
0.8548546212550738
 40
0.8806638649256632
 40
0.9052309793187198
 40
0.9290749341193661
 40
0.9525835249230954
 40
0.9759525690772023
 40
1.0
 40
1.0
 40
1.0
 40
1.0
 10
423.688649669661
 20
29.46583377459107
 30
0.0
 10
423.6893641431276
 20
29.59998174742716
 30
0.0
 10
423.6907662559797
 20
29.86323938480302
 30
0.0
 10
423.6913899723052
 20
30.25059503483154
 30
0.0
 10
423.697815744771
 20
30.62280604151106
 30
0.0
 10
423.7050898528467
 20
30.98054800595564
 30
0.0
 10
423.7147438588883
 20
31.32316055788058
 30
0.0
 10
423.7251022555195
 20
31.6513722012604
 30
0.0
 10
423.7417712580694
 20
31.96489456019846
 30
0.0
 10
423.7551476522299
 20
32.2642238455751
 30
0.0
 10
423.7748755456717
 20
32.54820491568416
 30
0.0
 10
423.79546918232
 20
32.81715784534756
 30
0.0
 10
423.8180072733219
 20
33.07163276167995
 30
0.0
 10
423.8424456310863
 20
33.31162548323385
 30
0.0
 10
423.86892787734
 20
33.53712255465096
 30
0.0
 10
423.8969958717639
 20
33.7475411683577
 30
0.0
 10
423.9266991814767
 20
33.94367213844827
 30
0.0
 10
423.9722400937791
 20
34.18193328431926
 30
0.0
 10
424.0329587312788
 20
34.46378308272345
 30
0.0
 10
424.1172976584791
 20
34.78617773527741
 30
0.0
 10
424.2138328829515
 20
35.09137318183288
 30
0.0
 10
424.3212366303529
 20
35.37916600805592
 30
0.0
 10
424.4408046757582
 20
35.65025142683713
 30
0.0
 10
424.5700606698097
 20
35.90527025594265
 30
0.0
 10
424.7124994194227
 20
36.14240232143178
 30
0.0
 10
424.86465579367
 20
36.36134916854365
 30
0.0
 10
425.0259025207828
 20
36.55888350044418
 30
0.0
 10
425.1943475253856
 20
36.73349201975614
 30
0.0
 10
425.3725165189166
 20
36.87899217312204
 30
0.0
 10
425.5568965557504
 20
36.99996893218223
 30
0.0
 10
425.7492413460217
 20
37.09361560287154
 30
0.0
 10
425.9487346027107
 20
37.15972243272115
 30
0.0
 10
426.1557602371217
 20
37.20146486259262
 30
0.0
 10
426.2964800533642
 20
37.20624888170354
 30
0.0
 10
426.3678465995926
 20
37.2086751137024
 30
0.0
  0
SPLINE
  5
1A9
330
1F
100
AcDbEntity
  8
0
  6
CONTINUOUS
 62
     7
100
AcDbSpline
210
0.0
220
0.0
230
1.0
 70
     8
 71
     3
 72
    23
 73
    19
 74
     0
 42
0.000000001
 43
0.00000001
 40
0.0
 40
0.0
 40
0.0
 40
0.0
 40
0.121321635064557
 40
0.2329014523545288
 40
0.3348143225008814
 40
0.4270727439543314
 40
0.5092204793169268
 40
0.5825019000625794
 40
0.6459144441740373
 40
0.7002878936827807
 40
0.7479401054382168
 40
0.7909307019442204
 40
0.8298532826669257
 40
0.8662679197150766
 40
0.8999925182512475
 40
0.932868014045491
 40
0.9654204013030105
 40
1.0
 40
1.0
 40
1.0
 40
1.0
 10
427.3163352165359
 20
30.32551967241822
 30
0.0
 10
427.3154175408075
 20
30.47415520067899
 30
0.0
 10
427.3136558763704
 20
30.7594912034867
 30
0.0
 10
427.3056887454945
 20
31.16966544239924
 30
0.0
 10
427.2860951117958
 20
31.54380766381599
 30
0.0
 10
427.2618717811304
 20
31.88147027857262
 30
0.0
 10
427.2333941460228
 20
32.1837002835073
 30
0.0
 10
427.1933493579556
 20
32.4489006228206
 30
0.0
 10
427.1496355168372
 20
32.67900193854617
 30
0.0
 10
427.0964263273777
 20
32.87482598354794
 30
0.0
 10
427.0359215890657
 20
33.04208648293465
 30
0.0
 10
426.9666382639804
 20
33.1854266876022
 30
0.0
 10
426.8858551694235
 20
33.30617677348534
 30
0.0
 10
426.7985212295798
 20
33.40818439305576
 30
0.0
 10
426.697497324241
 20
33.48526075573496
 30
0.0
 10
426.5889481339735
 20
33.54112148598371
 30
0.0
 10
426.4699268570618
 20
33.57463624310812
 30
0.0
 10
426.3875868140449
 20
33.57882958293415
 30
0.0
 10
426.3451735649246
 20
33.58098956682741
 30
0.0
  0
SPLINE
  5
1AA
330
1F
100
AcDbEntity
  8
0
  6
CONTINUOUS
 62
     7
100
AcDbSpline
210
0.0
220
0.0
230
1.0
 70
     8
 71
     3
 72
    23
 73
    19
 74
     0
 42
0.000000001
 43
0.00000001
 40
0.0
 40
0.0
 40
0.0
 40
0.0
 40
0.039736704466061
 40
0.0805183572719386
 40
0.1247227205869764
 40
0.1758448810992392
 40
0.2325094779251209
 40
0.2945916293797886
 40
0.3626852925075795
 40
0.4369406763448748
 40
0.4797067413992837
 40
0.5303214733661161
 40
0.5887819004958603
 40
0.654663644366014
 40
0.7294519046757557
 40
0.8116774073379133
 40
0.901855303724379
 40
1.0
 40
1.0
 40
1.0
 40
1.0
 10
426.3451735649246
 20
33.58098956682741
 30
0.0
 10
426.294633127541
 20
33.57728032088409
 30
0.0
 10
426.192223200784
 20
33.56976428768289
 30
0.0
 10
426.0485820699187
 20
33.49671063902368
 30
0.0
 10
425.9166471560498
 20
33.38472254650183
 30
0.0
 10
425.8008960804975
 20
33.22974677359652
 30
0.0
 10
425.6957800118645
 20
33.04209833527567
 30
0.0
 10
425.6053032518001
 20
32.82327058666495
 30
0.0
 10
425.53299119983
 20
32.57479055431658
 30
0.0
 10
425.4858149979606
 20
32.34528015375977
 30
0.0
 10
425.4570354996628
 20
32.13527911549501
 30
0.0
 10
425.4360289352962
 20
31.94443997084279
 30
0.0
 10
425.4203001802916
 20
31.7237931192588
 30
0.0
 10
425.4044270680284
 20
31.47254920290239
 30
0.0
 10
425.3938475329032
 20
31.19093976394295
 30
0.0
 10
425.3862435365581
 20
30.87852902868739
 30
0.0
 10
425.3830930361481
 20
30.53651061552702
 30
0.0
 10
425.3820915289945
 20
30.29843808433053
 30
0.0
 10
425.3815695915359
 20
30.1743661079651
 30
0.0
  0
SPLINE
  5
1B0
330
1F
100
AcDbEntity
  8
0
  6
CONTINUOUS
 62
     7
100
AcDbSpline
210
0.0
220
0.0
230
1.0
 70
     8
 71
     3
 72
    23
 73
    19
 74
     0
 42
0.000000001
 43
0.00000001
 40
0.0
 40
0.0
 40
0.0
 40
0.0
 40
0.0432922180511805
 40
0.0889514177326015
 40
0.136813351678144
 40
0.1870794703658043
 40
0.2398149401532956
 40
0.2954234391893723
 40
0.3531950924307048
 40
0.4139995675119053
 40
0.4774135621745963
 40
0.5435632385928408
 40
0.6127524933001308
 40
0.6843376250500542
 40
0.759049586351727
 40
0.8365536697096062
 40
0.9168604676164086
 40
1.0
 40
1.0
 40
1.0
 40
1.0
 10
426.1373374138016
 20
8.6784398231751
 30
0.0
 10
426.1065882796553
 20
8.608120409081215
 30
0.0
 10
426.0434088169369
 20
8.463636900050043
 30
0.0
 10
425.9563331972677
 20
8.237146977414033
 30
0.0
 10
425.877699001211
 20
7.994603018459069
 30
0.0
 10
425.8040003842783
 20
7.737475128138402
 30
0.0
 10
425.7361017728718
 20
7.464583060585888
 30
0.0
 10
425.6736504965448
 20
7.176739910438142
 30
0.0
 10
425.6200146305946
 20
6.872627982945613
 30
0.0
 10
425.5677083016985
 20
6.554241400869983
 30
0.0
 10
425.5261265420047
 20
6.219307042309243
 30
0.0
 10
425.4848316677517
 20
5.869387448153612
 30
0.0
 10
425.4540879004279
 20
5.503816969495854
 30
0.0
 10
425.4272243080734
 20
5.122765178630004
 30
0.0
 10
425.4069335740035
 20
4.726537322762764
 30
0.0
 10
425.3911450766768
 20
4.314625679201152
 30
0.0
 10
425.3847273014727
 20
3.88752040986549
 30
0.0
 10
425.3826342532514
 20
3.597791204597448
 30
0.0
 10
425.3815695915359
 20
3.450415912652638
 30
0.0
  0
SPLINE
  5
1B1
330
1F
100
AcDbEntity
  8
0
  6
CONTINUOUS
 62
     7
100
AcDbSpline
210
0.0
220
0.0
230
1.0
 70
     8
 71
     3
 72
    23
 73
    19
 74
     0
 42
0.000000001
 43
0.00000001
 40
0.0
 40
0.0
 40
0.0
 40
0.0
 40
0.0597742672560232
 40
0.1174868861808193
 40
0.1747651962756144
 40
0.2312912139780823
 40
0.2879842217569165
 40
0.3443490838136219
 40
0.4019162644176601
 40
0.4602406569645399
 40
0.5192007316268507
 40
0.5808840732039734
 40
0.6443236315396796
 40
0.70980523973333
 40
0.777917027774997
 40
0.8490141509682243
 40
0.9228047917637024
 40
0.9999999999999999
 40
0.9999999999999999
 40
0.9999999999999999
 40
0.9999999999999999
 10
428.5066695366043
 20
10.48472491838994
 30
0.0
 10
428.4436347004139
 20
10.4831620853445
 30
0.0
 10
428.3197391352336
 20
10.48009032225047
 30
0.0
 10
428.1363749781211
 20
10.45903277561545
 30
0.0
 10
427.95892961624
 20
10.42298963464481
 30
0.0
 10
427.7860080480684
 20
10.37328077072965
 30
0.0
 10
427.6177582089137
 20
10.31200208850208
 30
0.0
 10
427.4557358312956
 20
10.23309420311311
 30
0.0
 10
427.2993557358301
 20
10.14041282055842
 30
0.0
 10
427.1478147435219
 20
10.03496739407963
 30
0.0
 10
427.0031998710768
 20
9.913482641708976
 30
0.0
 10
426.8612874443392
 20
9.780789134172387
 30
0.0
 10
426.7276521045267
 20
9.630334181166464
 30
0.0
 10
426.5991749856797
 20
9.46698597169843
 30
0.0
 10
426.4736420415867
 20
9.291235271549349
 30
0.0
 10
426.3555408745025
 20
9.100058306634763
 30
0.0
 10
426.2410933958138
 20
8.895597454793142
 30
0.0
 10
426.1724387702994
 20
8.751905731316466
 30
0.0
 10
426.1373374138016
 20
8.6784398231751
 30
0.0
  0
SPLINE
  5
1B2
330
1F
100
AcDbEntity
  8
0
  6
CONTINUOUS
 62
     7
100
AcDbSpline
210
0.0
220
0.0
230
1.0
 70
     8
 71
     3
 72
    31
 73
    27
 74
     0
 42
0.000000001
 43
0.00000001
 40
0.0
 40
0.0
 40
0.0
 40
0.0
 40
0.0803410340041795
 40
0.1550002920026369
 40
0.2239803111639935
 40
0.2875723711278689
 40
0.3450730131351611
 40
0.397285607551733
 40
0.4439457897685766
 40
0.4852493817774271
 40
0.5231288892351227
 40
0.5601110744364285
 40
0.595777429917543
 40
0.6303408697989585
 40
0.6642608289848361
 40
0.6972417150495648
 40
0.729763744252248
 40
0.7619926032877526
 40
0.7932560002740937
 40
0.8236284351595685
 40
0.8528992168836853
 40
0.8819257804280296
 40
0.9106638169640576
 40
0.9397244224295271
 40
0.9695421186730081
 40
1.0
 40
1.0
 40
1.0
 40
1.0
 10
431.427712169661
 20
3.934107318902639
 30
0.0
 10
431.4275030630539
 20
4.146998467809562
 30
0.0
 10
431.4270996380101
 20
4.557724949667302
 30
0.0
 10
431.4095659816266
 20
5.150970695612835
 30
0.0
 10
431.3917231085235
 20
5.699832088267703
 30
0.0
 10
431.358279756928
 20
6.202391293159581
 30
0.0
 10
431.3210727794922
 20
6.660193028890228
 30
0.0
 10
431.2682963709848
 20
7.071211745799143
 30
0.0
 10
431.2148840898471
 20
7.438911052702384
 30
0.0
 10
431.1450522826981
 20
7.765171714685843
 30
0.0
 10
431.0664006527456
 20
8.06288444679838
 30
0.0
 10
430.9757714728182
 20
8.341503841349882
 30
0.0
 10
430.8745895278581
 20
8.607161325546096
 30
0.0
 10
430.7578101650735
 20
8.85739438453202
 30
0.0
 10
430.6323515787711
 20
9.095325289536195
 30
0.0
 10
430.4937924859784
 20
9.319648147933199
 30
0.0
 10
430.3423298417871
 20
9.529971516183195
 30
0.0
 10
430.1790163282092
 20
9.725290703518684
 30
0.0
 10
430.005892075657
 20
9.90432306030022
 30
0.0
 10
429.8207483841848
 20
10.059146753777
 30
0.0
 10
429.6260146842366
 20
10.1912026855291
 30
0.0
 10
429.4220677207517
 20
10.30021350582919
 30
0.0
 10
429.205919390697
 20
10.38043606753818
 30
0.0
 10
428.9818681644699
 20
10.44231952556228
 30
0.0
 10
428.7471848826514
 20
10.47866466856756
 30
0.0
 10
428.5874069840272
 20
10.48269058208066
 30
0.0
 10
428.5066695366044
 20
10.48472491838995
 30
0.0
  0
LINE
  5
1B6
330
1F
100
AcDbEntity
  8
0
  6
CONTINUOUS
 62
     7
100
AcDbLine
 10
423.6886496697
 20
-1.4866373863
 30
0.0
 11
423.6886496697
 21
2.95160915
 31
0.0
  0
LINE
  5
1B7
330
1F
100
AcDbEntity
  8
0
  6
CONTINUOUS
 62
     7
100
AcDbLine
 10
433.1206320915
 20
-1.4866373863
 30
0.0
 11
423.6886496697
 21
-1.4866373863
 31
0.0
  0
LINE
  5
1B8
330
1F
100
AcDbEntity
  8
0
  6
CONTINUOUS
 62
     7
100
AcDbLine
 10
433.1206320915
 20
3.0177388344
 30
0.0
 11
433.1206320915
 21
-1.4866373863
 31
0.0
  0
LINE
  5
1B9
330
1F
100
AcDbEntity
  8
0
  6
CONTINUOUS
 62
     7
100
AcDbLine
 10
2.5
 20
25.0
 30
0.0
 11
2.5
 21
24.0
 31
0.0
  0
LINE
  5
1BA
330
1F
100
AcDbEntity
  8
0
  6
CONTINUOUS
 62
     7
100
AcDbLine
 10
2.5
 20
24.0
 30
0.0
 11
3.9
 21
24.0
 31
0.0
  0
LINE
  5
1BB
330
1F
100
AcDbEntity
  8
0
  6
CONTINUOUS
 62
     7
100
AcDbLine
 10
3.9
 20
24.0
 30
0.0
 11
3.9
 21
20.5
 31
0.0
  0
LINE
  5
1BC
330
1F
100
AcDbEntity
  8
0
  6
CONTINUOUS
 62
     7
100
AcDbLine
 10
3.9
 20
20.5
 30
0.0
 11
4.9
 21
20.5
 31
0.0
  0
LINE
  5
1BD
330
1F
100
AcDbEntity
  8
0
  6
CONTINUOUS
 62
     7
100
AcDbLine
 10
4.9
 20
20.5
 30
0.0
 11
4.9
 21
25.0
 31
0.0
  0
LINE
  5
1BE
330
1F
100
AcDbEntity
  8
0
  6
CONTINUOUS
 62
     7
100
AcDbLine
 10
4.9
 20
25.0
 30
0.0
 11
2.5
 21
25.0
 31
0.0
  0
LINE
  5
1BF
330
1F
100
AcDbEntity
  8
0
  6
CONTINUOUS
 62
     7
100
AcDbLine
 10
-0.9
 20
25.0
 30
0.0
 11
-0.9
 21
20.5
 31
0.0
  0
LINE
  5
1C0
330
1F
100
AcDbEntity
  8
0
  6
CONTINUOUS
 62
     7
100
AcDbLine
 10
-0.9
 20
20.5
 30
0.0
 11
0.1
 21
20.5
 31
0.0
  0
LINE
  5
1C1
330
1F
100
AcDbEntity
  8
0
  6
CONTINUOUS
 62
     7
100
AcDbLine
 10
0.1
 20
20.5
 30
0.0
 11
0.1
 21
24.0
 31
0.0
  0
LINE
  5
1C2
330
1F
100
AcDbEntity
  8
0
  6
CONTINUOUS
 62
     7
100
AcDbLine
 10
0.1
 20
24.0
 30
0.0
 11
1.5
 21
24.0
 31
0.0
  0
LINE
  5
1C3
330
1F
100
AcDbEntity
  8
0
  6
CONTINUOUS
 62
     7
100
AcDbLine
 10
1.5
 20
24.0
 30
0.0
 11
1.5
 21
25.0
 31
0.0
  0
LINE
  5
1C4
330
1F
100
AcDbEntity
  8
0
  6
CONTINUOUS
 62
     7
100
AcDbLine
 10
1.5
 20
25.0
 30
0.0
 11
-0.9
 21
25.0
 31
0.0
  0
LINE
  5
1C5
330
1F
100
AcDbEntity
  8
0
  6
CONTINUOUS
 62
     7
100
AcDbLine
 10
4.9
 20
15.0
 30
0.0
 11
4.9
 21
19.5
 31
0.0
  0
LINE
  5
1C6
330
1F
100
AcDbEntity
  8
0
  6
CONTINUOUS
 62
     7
100
AcDbLine
 10
4.9
 20
19.5
 30
0.0
 11
3.9
 21
19.5
 31
0.0
  0
LINE
  5
1C7
330
1F
100
AcDbEntity
  8
0
  6
CONTINUOUS
 62
     7
100
AcDbLine
 10
3.9
 20
19.5
 30
0.0
 11
3.9
 21
16.0
 31
0.0
  0
LINE
  5
1C8
330
1F
100
AcDbEntity
  8
0
  6
CONTINUOUS
 62
     7
100
AcDbLine
 10
3.9
 20
16.0
 30
0.0
 11
2.5
 21
16.0
 31
0.0
  0
LINE
  5
1C9
330
1F
100
AcDbEntity
  8
0
  6
CONTINUOUS
 62
     7
100
AcDbLine
 10
2.5
 20
16.0
 30
0.0
 11
2.5
 21
15.0
 31
0.0
  0
LINE
  5
1CA
330
1F
100
AcDbEntity
  8
0
  6
CONTINUOUS
 62
     7
100
AcDbLine
 10
2.5
 20
15.0
 30
0.0
 11
4.9
 21
15.0
 31
0.0
  0
LINE
  5
1CB
330
1F
100
AcDbEntity
  8
0
  6
CONTINUOUS
 62
     7
100
AcDbLine
 10
-169.9
 20
19.5
 30
0.0
 11
-170.9
 21
19.5
 31
0.0
  0
LINE
  5
1CC
330
1F
100
AcDbEntity
  8
0
  6
CONTINUOUS
 62
     7
100
AcDbLine
 10
-170.9
 20
19.5
 30
0.0
 11
-170.9
 21
15.0
 31
0.0
  0
LINE
  5
1CD
330
1F
100
AcDbEntity
  8
0
  6
CONTINUOUS
 62
     7
100
AcDbLine
 10
-170.9
 20
15.0
 30
0.0
 11
-168.5
 21
15.0
 31
0.0
  0
LINE
  5
1CE
330
1F
100
AcDbEntity
  8
0
  6
CONTINUOUS
 62
     7
100
AcDbLine
 10
-168.5
 20
15.0
 30
0.0
 11
-168.5
 21
16.0
 31
0.0
  0
LINE
  5
1CF
330
1F
100
AcDbEntity
  8
0
  6
CONTINUOUS
 62
     7
100
AcDbLine
 10
-168.5
 20
16.0
 30
0.0
 11
-169.9
 21
16.0
 31
0.0
  0
LINE
  5
1D0
330
1F
100
AcDbEntity
  8
0
  6
CONTINUOUS
 62
     7
100
AcDbLine
 10
-169.9
 20
16.0
 30
0.0
 11
-169.9
 21
19.5
 31
0.0
  0
LINE
  5
1D1
330
1F
100
AcDbEntity
  8
0
  6
CONTINUOUS
 62
     7
100
AcDbLine
 10
-167.5
 20
25.0
 30
0.0
 11
-167.5
 21
24.0
 31
0.0
  0
LINE
  5
1D2
330
1F
100
AcDbEntity
  8
0
  6
CONTINUOUS
 62
     7
100
AcDbLine
 10
-167.5
 20
24.0
 30
0.0
 11
-166.1
 21
24.0
 31
0.0
  0
LINE
  5
1D3
330
1F
100
AcDbEntity
  8
0
  6
CONTINUOUS
 62
     7
100
AcDbLine
 10
-166.1
 20
24.0
 30
0.0
 11
-166.1
 21
20.5
 31
0.0
  0
LINE
  5
1D4
330
1F
100
AcDbEntity
  8
0
  6
CONTINUOUS
 62
     7
100
AcDbLine
 10
-166.1
 20
20.5
 30
0.0
 11
-165.1
 21
20.5
 31
0.0
  0
LINE
  5
1D5
330
1F
100
AcDbEntity
  8
0
  6
CONTINUOUS
 62
     7
100
AcDbLine
 10
-165.1
 20
20.5
 30
0.0
 11
-165.1
 21
25.0
 31
0.0
  0
LINE
  5
1D6
330
1F
100
AcDbEntity
  8
0
  6
CONTINUOUS
 62
     7
100
AcDbLine
 10
-165.1
 20
25.0
 30
0.0
 11
-167.5
 21
25.0
 31
0.0
  0
LINE
  5
1D7
330
1F
100
AcDbEntity
  8
0
  6
CONTINUOUS
 62
     7
100
AcDbLine
 10
-170.9
 20
25.0
 30
0.0
 11
-170.9
 21
20.5
 31
0.0
  0
LINE
  5
1D8
330
1F
100
AcDbEntity
  8
0
  6
CONTINUOUS
 62
     7
100
AcDbLine
 10
-170.9
 20
20.5
 30
0.0
 11
-169.9
 21
20.5
 31
0.0
  0
LINE
  5
1D9
330
1F
100
AcDbEntity
  8
0
  6
CONTINUOUS
 62
     7
100
AcDbLine
 10
-169.9
 20
20.5
 30
0.0
 11
-169.9
 21
24.0
 31
0.0
  0
LINE
  5
1DA
330
1F
100
AcDbEntity
  8
0
  6
CONTINUOUS
 62
     7
100
AcDbLine
 10
-169.9
 20
24.0
 30
0.0
 11
-168.5
 21
24.0
 31
0.0
  0
LINE
  5
1DB
330
1F
100
AcDbEntity
  8
0
  6
CONTINUOUS
 62
     7
100
AcDbLine
 10
-168.5
 20
24.0
 30
0.0
 11
-168.5
 21
25.0
 31
0.0
  0
LINE
  5
1DC
330
1F
100
AcDbEntity
  8
0
  6
CONTINUOUS
 62
     7
100
AcDbLine
 10
-168.5
 20
25.0
 30
0.0
 11
-170.9
 21
25.0
 31
0.0
  0
LINE
  5
1DD
330
1F
100
AcDbEntity
  8
0
  6
CONTINUOUS
 62
     7
100
AcDbLine
 10
-349.9
 20
19.5
 30
0.0
 11
-350.9
 21
19.5
 31
0.0
  0
LINE
  5
1DE
330
1F
100
AcDbEntity
  8
0
  6
CONTINUOUS
 62
     7
100
AcDbLine
 10
-350.9
 20
19.5
 30
0.0
 11
-350.9
 21
15.0
 31
0.0
  0
LINE
  5
1DF
330
1F
100
AcDbEntity
  8
0
  6
CONTINUOUS
 62
     7
100
AcDbLine
 10
-350.9
 20
15.0
 30
0.0
 11
-348.5
 21
15.0
 31
0.0
  0
LINE
  5
1E0
330
1F
100
AcDbEntity
  8
0
  6
CONTINUOUS
 62
     7
100
AcDbLine
 10
-348.5
 20
15.0
 30
0.0
 11
-348.5
 21
16.0
 31
0.0
  0
LINE
  5
1E1
330
1F
100
AcDbEntity
  8
0
  6
CONTINUOUS
 62
     7
100
AcDbLine
 10
-348.5
 20
16.0
 30
0.0
 11
-349.9
 21
16.0
 31
0.0
  0
LINE
  5
1E2
330
1F
100
AcDbEntity
  8
0
  6
CONTINUOUS
 62
     7
100
AcDbLine
 10
-349.9
 20
16.0
 30
0.0
 11
-349.9
 21
19.5
 31
0.0
  0
LINE
  5
1E3
330
1F
100
AcDbEntity
  8
0
  6
CONTINUOUS
 62
     7
100
AcDbLine
 10
-165.1
 20
15.0
 30
0.0
 11
-165.1
 21
19.5
 31
0.0
  0
LINE
  5
1E4
330
1F
100
AcDbEntity
  8
0
  6
CONTINUOUS
 62
     7
100
AcDbLine
 10
-165.1
 20
19.5
 30
0.0
 11
-166.1
 21
19.5
 31
0.0
  0
LINE
  5
1E5
330
1F
100
AcDbEntity
  8
0
  6
CONTINUOUS
 62
     7
100
AcDbLine
 10
-166.1
 20
19.5
 30
0.0
 11
-166.1
 21
16.0
 31
0.0
  0
LINE
  5
1E6
330
1F
100
AcDbEntity
  8
0
  6
CONTINUOUS
 62
     7
100
AcDbLine
 10
-166.1
 20
16.0
 30
0.0
 11
-167.5
 21
16.0
 31
0.0
  0
LINE
  5
1E7
330
1F
100
AcDbEntity
  8
0
  6
CONTINUOUS
 62
     7
100
AcDbLine
 10
-167.5
 20
16.0
 30
0.0
 11
-167.5
 21
15.0
 31
0.0
  0
LINE
  5
1E8
330
1F
100
AcDbEntity
  8
0
  6
CONTINUOUS
 62
     7
100
AcDbLine
 10
-167.5
 20
15.0
 30
0.0
 11
-165.1
 21
15.0
 31
0.0
  0
LINE
  5
1E9
330
1F
100
AcDbEntity
  8
0
  6
CONTINUOUS
 62
     7
100
AcDbLine
 10
225.9
 20
-41.1000122793
 30
0.0
 11
225.9
 21
-36.6000122793
 31
0.0
  0
LINE
  5
1EA
330
1F
100
AcDbEntity
  8
0
  6
CONTINUOUS
 62
     7
100
AcDbLine
 10
225.9
 20
-36.6000122793
 30
0.0
 11
224.9
 21
-36.6000122793
 31
0.0
  0
LINE
  5
1EB
330
1F
100
AcDbEntity
  8
0
  6
CONTINUOUS
 62
     7
100
AcDbLine
 10
224.9
 20
-36.6000122793
 30
0.0
 11
224.9
 21
-40.1000122793
 31
0.0
  0
LINE
  5
1EC
330
1F
100
AcDbEntity
  8
0
  6
CONTINUOUS
 62
     7
100
AcDbLine
 10
224.9
 20
-40.1000122793
 30
0.0
 11
223.5
 21
-40.1000122793
 31
0.0
  0
LINE
  5
1ED
330
1F
100
AcDbEntity
  8
0
  6
CONTINUOUS
 62
     7
100
AcDbLine
 10
223.5
 20
-40.1000122793
 30
0.0
 11
223.5
 21
-41.1000122793
 31
0.0
  0
LINE
  5
1EE
330
1F
100
AcDbEntity
  8
0
  6
CONTINUOUS
 62
     7
100
AcDbLine
 10
223.5
 20
-41.1000122793
 30
0.0
 11
225.9
 21
-41.1000122793
 31
0.0
  0
LINE
  5
1EF
330
1F
100
AcDbEntity
  8
0
  6
CONTINUOUS
 62
     7
100
AcDbLine
 10
222.5
 20
-32.1000122793
 30
0.0
 11
222.5
 21
-31.1000122793
 31
0.0
  0
LINE
  5
1F0
330
1F
100
AcDbEntity
  8
0
  6
CONTINUOUS
 62
     7
100
AcDbLine
 10
222.5
 20
-31.1000122793
 30
0.0
 11
220.1
 21
-31.1000122793
 31
0.0
  0
LINE
  5
1F1
330
1F
100
AcDbEntity
  8
0
  6
CONTINUOUS
 62
     7
100
AcDbLine
 10
220.1
 20
-31.1000122793
 30
0.0
 11
220.1
 21
-35.6000122793
 31
0.0
  0
LINE
  5
1F2
330
1F
100
AcDbEntity
  8
0
  6
CONTINUOUS
 62
     7
100
AcDbLine
 10
220.1
 20
-35.6000122793
 30
0.0
 11
221.1
 21
-35.6000122793
 31
0.0
  0
LINE
  5
1F3
330
1F
100
AcDbEntity
  8
0
  6
CONTINUOUS
 62
     7
100
AcDbLine
 10
221.1
 20
-35.6000122793
 30
0.0
 11
221.1
 21
-32.1000122793
 31
0.0
  0
LINE
  5
1F4
330
1F
100
AcDbEntity
  8
0
  6
CONTINUOUS
 62
     7
100
AcDbLine
 10
221.1
 20
-32.1000122793
 30
0.0
 11
222.5
 21
-32.1000122793
 31
0.0
  0
LINE
  5
1F5
330
1F
100
AcDbEntity
  8
0
  6
CONTINUOUS
 62
     7
100
AcDbLine
 10
0.1
 20
19.5
 30
0.0
 11
-0.9
 21
19.5
 31
0.0
  0
LINE
  5
1F6
330
1F
100
AcDbEntity
  8
0
  6
CONTINUOUS
 62
     7
100
AcDbLine
 10
-0.9
 20
19.5
 30
0.0
 11
-0.9
 21
15.0
 31
0.0
  0
LINE
  5
1F7
330
1F
100
AcDbEntity
  8
0
  6
CONTINUOUS
 62
     7
100
AcDbLine
 10
-0.9
 20
15.0
 30
0.0
 11
1.5
 21
15.0
 31
0.0
  0
LINE
  5
1F8
330
1F
100
AcDbEntity
  8
0
  6
CONTINUOUS
 62
     7
100
AcDbLine
 10
1.5
 20
15.0
 30
0.0
 11
1.5
 21
16.0
 31
0.0
  0
LINE
  5
1F9
330
1F
100
AcDbEntity
  8
0
  6
CONTINUOUS
 62
     7
100
AcDbLine
 10
1.5
 20
16.0
 30
0.0
 11
0.1
 21
16.0
 31
0.0
  0
LINE
  5
1FA
330
1F
100
AcDbEntity
  8
0
  6
CONTINUOUS
 62
     7
100
AcDbLine
 10
0.1
 20
16.0
 30
0.0
 11
0.1
 21
19.5
 31
0.0
  0
LINE
  5
1FB
330
1F
100
AcDbEntity
  8
0
  6
CONTINUOUS
 62
     7
100
AcDbLine
 10
40.7802718965
 20
49.0201559399
 30
0.0
 11
42.1429077718
 21
50.4841419516
 31
0.0
  0
LINE
  5
1FC
330
1F
100
AcDbEntity
  8
0
  6
CONTINUOUS
 62
     7
100
AcDbLine
 10
38.0296626978
 20
59.1224000342
 30
0.0
 11
36.0333421625
 21
59.0005560045
 31
0.0
  0
LINE
  5
1FD
330
1F
100
AcDbEntity
  8
0
  6
CONTINUOUS
 62
     7
100
AcDbLine
 10
40.1028566247
 20
70.3078645952
 30
0.0
 11
41.5558017333
 21
68.9334924327
 31
0.0
  0
LINE
  5
1FE
330
1F
100
AcDbEntity
  8
0
  6
CONTINUOUS
 62
     7
100
AcDbLine
 10
52.2212913527
 20
72.9425222902
 30
0.0
 11
52.4091797128
 21
74.9336611012
 31
0.0
  0
LINE
  5
1FF
330
1F
100
AcDbEntity
  8
0
  6
CONTINUOUS
 62
     7
100
AcDbLine
 10
62.8316701485
 20
69.2201835673
 30
0.0
 11
61.2541216062
 21
67.9908327993
 31
0.0
  0
LINE
  5
200
330
1F
100
AcDbEntity
  8
0
  6
CONTINUOUS
 62
     7
100
AcDbLine
 10
64.000008617
 20
60.0000146104
 30
0.0
 11
66.0000174784
 21
60.0
 31
0.0
  0
LINE
  5
201
330
1F
100
AcDbEntity
  8
0
  6
CONTINUOUS
 62
     7
100
AcDbLine
 10
36.0
 20
60.0
 30
0.0
 11
38.0000055132
 21
60.0000146104
 31
0.0
  0
LINE
  5
202
330
1F
100
AcDbEntity
  8
0
  6
CONTINUOUS
 62
     7
100
AcDbLine
 10
40.981554223
 20
68.2843759618
 30
0.0
 11
39.4402634195
 21
69.5588851266
 31
0.0
  0
LINE
  5
203
330
1F
100
AcDbEntity
  8
0
  6
CONTINUOUS
 62
     7
100
AcDbLine
 10
128.55
 20
-48.3696628589
 30
0.0
 11
126.55
 21
-48.3696628589
 31
0.0
  0
LINE
  5
204
330
1F
100
AcDbEntity
  8
0
  6
CONTINUOUS
 62
     7
100
AcDbLine
 10
126.55
 20
-48.3696628589
 30
0.0
 11
126.55
 21
-73.4281632333
 31
0.0
  0
LINE
  5
205
330
1F
100
AcDbEntity
  8
0
  6
CONTINUOUS
 62
     7
100
AcDbLine
 10
126.55
 20
-73.4281632333
 30
0.0
 11
128.55
 21
-73.4281632333
 31
0.0
  0
LINE
  5
206
330
1F
100
AcDbEntity
  8
0
  6
CONTINUOUS
 62
     7
100
AcDbLine
 10
128.55
 20
-73.4281632333
 30
0.0
 11
128.55
 21
-48.3696628589
 31
0.0
  0
LINE
  5
207
330
1F
100
AcDbEntity
  8
0
  6
CONTINUOUS
 62
     7
100
AcDbLine
 10
-347.5
 20
25.0
 30
0.0
 11
-347.5
 21
24.0
 31
0.0
  0
LINE
  5
208
330
1F
100
AcDbEntity
  8
0
  6
CONTINUOUS
 62
     7
100
AcDbLine
 10
-347.5
 20
24.0
 30
0.0
 11
-346.1
 21
24.0
 31
0.0
  0
LINE
  5
209
330
1F
100
AcDbEntity
  8
0
  6
CONTINUOUS
 62
     7
100
AcDbLine
 10
-346.1
 20
24.0
 30
0.0
 11
-346.1
 21
20.5
 31
0.0
  0
LINE
  5
20A
330
1F
100
AcDbEntity
  8
0
  6
CONTINUOUS
 62
     7
100
AcDbLine
 10
-346.1
 20
20.5
 30
0.0
 11
-345.1
 21
20.5
 31
0.0
  0
LINE
  5
20B
330
1F
100
AcDbEntity
  8
0
  6
CONTINUOUS
 62
     7
100
AcDbLine
 10
-345.1
 20
20.5
 30
0.0
 11
-345.1
 21
25.0
 31
0.0
  0
LINE
  5
20C
330
1F
100
AcDbEntity
  8
0
  6
CONTINUOUS
 62
     7
100
AcDbLine
 10
-345.1
 20
25.0
 30
0.0
 11
-347.5
 21
25.0
 31
0.0
  0
LINE
  5
20D
330
1F
100
AcDbEntity
  8
0
  6
CONTINUOUS
 62
     7
100
AcDbLine
 10
-350.9
 20
25.0
 30
0.0
 11
-350.9
 21
20.5
 31
0.0
  0
LINE
  5
20E
330
1F
100
AcDbEntity
  8
0
  6
CONTINUOUS
 62
     7
100
AcDbLine
 10
-350.9
 20
20.5
 30
0.0
 11
-349.9
 21
20.5
 31
0.0
  0
LINE
  5
20F
330
1F
100
AcDbEntity
  8
0
  6
CONTINUOUS
 62
     7
100
AcDbLine
 10
-349.9
 20
20.5
 30
0.0
 11
-349.9
 21
24.0
 31
0.0
  0
LINE
  5
210
330
1F
100
AcDbEntity
  8
0
  6
CONTINUOUS
 62
     7
100
AcDbLine
 10
-349.9
 20
24.0
 30
0.0
 11
-348.5
 21
24.0
 31
0.0
  0
LINE
  5
211
330
1F
100
AcDbEntity
  8
0
  6
CONTINUOUS
 62
     7
100
AcDbLine
 10
-348.5
 20
24.0
 30
0.0
 11
-348.5
 21
25.0
 31
0.0
  0
LINE
  5
212
330
1F
100
AcDbEntity
  8
0
  6
CONTINUOUS
 62
     7
100
AcDbLine
 10
-348.5
 20
25.0
 30
0.0
 11
-350.9
 21
25.0
 31
0.0
  0
LINE
  5
213
330
1F
100
AcDbEntity
  8
0
  6
CONTINUOUS
 62
     7
100
AcDbLine
 10
-345.1
 20
15.0
 30
0.0
 11
-345.1
 21
19.5
 31
0.0
  0
LINE
  5
214
330
1F
100
AcDbEntity
  8
0
  6
CONTINUOUS
 62
     7
100
AcDbLine
 10
-345.1
 20
19.5
 30
0.0
 11
-346.1
 21
19.5
 31
0.0
  0
LINE
  5
215
330
1F
100
AcDbEntity
  8
0
  6
CONTINUOUS
 62
     7
100
AcDbLine
 10
-346.1
 20
19.5
 30
0.0
 11
-346.1
 21
16.0
 31
0.0
  0
LINE
  5
216
330
1F
100
AcDbEntity
  8
0
  6
CONTINUOUS
 62
     7
100
AcDbLine
 10
-346.1
 20
16.0
 30
0.0
 11
-347.5
 21
16.0
 31
0.0
  0
LINE
  5
217
330
1F
100
AcDbEntity
  8
0
  6
CONTINUOUS
 62
     7
100
AcDbLine
 10
-347.5
 20
16.0
 30
0.0
 11
-347.5
 21
15.0
 31
0.0
  0
LINE
  5
218
330
1F
100
AcDbEntity
  8
0
  6
CONTINUOUS
 62
     7
100
AcDbLine
 10
-347.5
 20
15.0
 30
0.0
 11
-345.1
 21
15.0
 31
0.0
  0
LINE
  5
219
330
1F
100
AcDbEntity
  8
0
  6
CONTINUOUS
 62
     7
100
AcDbLine
 10
57.560536927
 20
-48.3696628589
 30
0.0
 11
55.560536927
 21
-48.3696628589
 31
0.0
  0
LINE
  5
21A
330
1F
100
AcDbEntity
  8
0
  6
CONTINUOUS
 62
     7
100
AcDbLine
 10
55.560536927
 20
-48.3696628589
 30
0.0
 11
55.560536927
 21
-73.4281632333
 31
0.0
  0
LINE
  5
21B
330
1F
100
AcDbEntity
  8
0
  6
CONTINUOUS
 62
     7
100
AcDbLine
 10
55.560536927
 20
-73.4281632333
 30
0.0
 11
57.560536927
 21
-73.4281632333
 31
0.0
  0
LINE
  5
21C
330
1F
100
AcDbEntity
  8
0
  6
CONTINUOUS
 62
     7
100
AcDbLine
 10
57.560536927
 20
-73.4281632333
 30
0.0
 11
57.560536927
 21
-48.3696628589
 31
0.0
  0
LINE
  5
21D
330
1F
100
AcDbEntity
  8
0
  6
CONTINUOUS
 62
     7
100
AcDbLine
 10
-525.38
 20
-1.0
 30
0.0
 11
-525.38
 21
-42.109833897
 31
0.0
  0
LINE
  5
21E
330
1F
100
AcDbEntity
  8
0
  6
CONTINUOUS
 62
     7
100
AcDbLine
 10
-525.38
 20
-42.109833897
 30
0.0
 11
-523.38
 21
-42.109833897
 31
0.0
  0
LINE
  5
21F
330
1F
100
AcDbEntity
  8
0
  6
CONTINUOUS
 62
     7
100
AcDbLine
 10
-523.38
 20
-42.109833897
 30
0.0
 11
-523.38
 21
-1.0
 31
0.0
  0
LINE
  5
220
330
1F
100
AcDbEntity
  8
0
  6
CONTINUOUS
 62
     7
100
AcDbLine
 10
-523.38
 20
-1.0
 30
0.0
 11
-525.38
 21
-1.0
 31
0.0
  0
LINE
  5
221
330
1F
100
AcDbEntity
  8
0
  6
CONTINUOUS
 62
     7
100
AcDbLine
 10
-623.18
 20
-42.109833897
 30
0.0
 11
-621.18
 21
-42.109833897
 31
0.0
  0
LINE
  5
222
330
1F
100
AcDbEntity
  8
0
  6
CONTINUOUS
 62
     7
100
AcDbLine
 10
-621.18
 20
-42.109833897
 30
0.0
 11
-621.18
 21
-1.0
 31
0.0
  0
LINE
  5
223
330
1F
100
AcDbEntity
  8
0
  6
CONTINUOUS
 62
     7
100
AcDbLine
 10
-621.18
 20
-1.0
 30
0.0
 11
-623.18
 21
-1.0
 31
0.0
  0
LINE
  5
224
330
1F
100
AcDbEntity
  8
0
  6
CONTINUOUS
 62
     7
100
AcDbLine
 10
-623.18
 20
-1.0
 30
0.0
 11
-623.18
 21
-42.109833897
 31
0.0
  0
LINE
  5
225
330
1F
100
AcDbEntity
  8
0
  6
CONTINUOUS
 62
     7
100
AcDbLine
 10
-623.18
 20
1.0
 30
0.0
 11
-621.18
 21
1.0
 31
0.0
  0
LINE
  5
226
330
1F
100
AcDbEntity
  8
0
  6
CONTINUOUS
 62
     7
100
AcDbLine
 10
-621.18
 20
1.0
 30
0.0
 11
-621.18
 21
47.0201559399
 31
0.0
  0
LINE
  5
227
330
1F
100
AcDbEntity
  8
0
  6
CONTINUOUS
 62
     7
100
AcDbLine
 10
-621.18
 20
47.0201559399
 30
0.0
 11
-623.18
 21
47.0201559399
 31
0.0
  0
LINE
  5
228
330
1F
100
AcDbEntity
  8
0
  6
CONTINUOUS
 62
     7
100
AcDbLine
 10
-623.18
 20
47.0201559399
 30
0.0
 11
-623.18
 21
1.0
 31
0.0
  0
LINE
  5
229
330
1F
100
AcDbEntity
  8
0
  6
CONTINUOUS
 62
     7
100
AcDbLine
 10
126.019386797
 20
52.564370884
 30
0.0
 11
126.2808836511
 21
54.5472020403
 31
0.0
  0
LINE
  5
22A
330
1F
100
AcDbEntity
  8
0
  6
CONTINUOUS
 62
     7
100
AcDbLine
 10
121.550359703
 20
59.2574106989
 30
0.0
 11
119.5686723224
 21
58.9873826909
 31
0.0
  0
LINE
  5
22B
330
1F
100
AcDbEntity
  8
0
  6
CONTINUOUS
 62
     7
100
AcDbLine
 10
134.4313276772
 20
58.987382691
 30
0.0
 11
132.4496402969
 21
59.2574106989
 31
0.0
  0
LINE
  5
22C
330
1F
100
AcDbEntity
  8
0
  6
CONTINUOUS
 62
     7
100
AcDbLine
 10
127.7191163489
 20
54.5472020403
 30
0.0
 11
127.9806132031
 21
52.5643708836
 31
0.0
  0
LINE
  5
22D
330
1F
100
AcDbEntity
  8
0
  6
CONTINUOUS
 62
     7
100
AcDbLine
 10
-525.38
 20
1.0
 30
0.0
 11
-523.38
 21
1.0
 31
0.0
  0
LINE
  5
22E
330
1F
100
AcDbEntity
  8
0
  6
CONTINUOUS
 62
     7
100
AcDbLine
 10
-523.38
 20
1.0
 30
0.0
 11
-523.38
 21
47.0201559399
 31
0.0
  0
LINE
  5
22F
330
1F
100
AcDbEntity
  8
0
  6
CONTINUOUS
 62
     7
100
AcDbLine
 10
-523.38
 20
47.0201559399
 30
0.0
 11
-525.38
 21
47.0201559399
 31
0.0
  0
LINE
  5
230
330
1F
100
AcDbEntity
  8
0
  6
CONTINUOUS
 62
     7
100
AcDbLine
 10
-525.38
 20
47.0201559399
 30
0.0
 11
-525.38
 21
1.0
 31
0.0
  0
LINE
  5
231
330
1F
100
AcDbEntity
  8
0
  6
CONTINUOUS
 62
     7
100
AcDbLine
 10
-526.38
 20
-81.185
 30
0.0
 11
-572.28
 21
-81.185
 31
0.0
  0
LINE
  5
232
330
1F
100
AcDbEntity
  8
0
  6
CONTINUOUS
 62
     7
100
AcDbLine
 10
-572.28
 20
-81.185
 30
0.0
 11
-572.28
 21
-83.185
 31
0.0
  0
LINE
  5
233
330
1F
100
AcDbEntity
  8
0
  6
CONTINUOUS
 62
     7
100
AcDbLine
 10
-572.28
 20
-83.185
 30
0.0
 11
-524.38
 21
-83.185
 31
0.0
  0
LINE
  5
234
330
1F
100
AcDbEntity
  8
0
  6
CONTINUOUS
 62
     7
100
AcDbLine
 10
-523.38
 20
-82.185
 30
0.0
 11
-523.38
 21
-44.109833897
 31
0.0
  0
LINE
  5
235
330
1F
100
AcDbEntity
  8
0
  6
CONTINUOUS
 62
     7
100
AcDbLine
 10
-523.38
 20
-44.109833897
 30
0.0
 11
-525.38
 21
-44.109833897
 31
0.0
  0
LINE
  5
236
330
1F
100
AcDbEntity
  8
0
  6
CONTINUOUS
 62
     7
100
AcDbLine
 10
-525.38
 20
-44.109833897
 30
0.0
 11
-525.38
 21
-80.185
 31
0.0
  0
LINE
  5
237
330
1F
100
AcDbEntity
  8
0
  6
CONTINUOUS
 62
     7
100
AcDbLine
 10
-622.18
 20
-83.185
 30
0.0
 11
-574.28
 21
-83.185
 31
0.0
  0
LINE
  5
238
330
1F
100
AcDbEntity
  8
0
  6
CONTINUOUS
 62
     7
100
AcDbLine
 10
-574.28
 20
-83.185
 30
0.0
 11
-574.28
 21
-81.185
 31
0.0
  0
LINE
  5
239
330
1F
100
AcDbEntity
  8
0
  6
CONTINUOUS
 62
     7
100
AcDbLine
 10
-574.28
 20
-81.185
 30
0.0
 11
-620.18
 21
-81.185
 31
0.0
  0
LINE
  5
23A
330
1F
100
AcDbEntity
  8
0
  6
CONTINUOUS
 62
     7
100
AcDbLine
 10
-621.18
 20
-80.185
 30
0.0
 11
-621.18
 21
-44.109833897
 31
0.0
  0
LINE
  5
23B
330
1F
100
AcDbEntity
  8
0
  6
CONTINUOUS
 62
     7
100
AcDbLine
 10
-621.18
 20
-44.109833897
 30
0.0
 11
-623.18
 21
-44.109833897
 31
0.0
  0
LINE
  5
23C
330
1F
100
AcDbEntity
  8
0
  6
CONTINUOUS
 62
     7
100
AcDbLine
 10
-623.18
 20
-44.109833897
 30
0.0
 11
-623.18
 21
-82.185
 31
0.0
  0
LINE
  5
23D
330
1F
100
AcDbEntity
  8
0
  6
CONTINUOUS
 62
     7
100
AcDbLine
 10
-621.18
 20
49.0201559399
 30
0.0
 11
-621.18
 21
80.185
 31
0.0
  0
LINE
  5
23E
330
1F
100
AcDbEntity
  8
0
  6
CONTINUOUS
 62
     7
100
AcDbLine
 10
-620.18
 20
81.185
 30
0.0
 11
-574.28
 21
81.185
 31
0.0
  0
LINE
  5
23F
330
1F
100
AcDbEntity
  8
0
  6
CONTINUOUS
 62
     7
100
AcDbLine
 10
-574.28
 20
81.185
 30
0.0
 11
-574.28
 21
83.185
 31
0.0
  0
LINE
  5
240
330
1F
100
AcDbEntity
  8
0
  6
CONTINUOUS
 62
     7
100
AcDbLine
 10
-574.28
 20
83.185
 30
0.0
 11
-622.18
 21
83.185
 31
0.0
  0
LINE
  5
241
330
1F
100
AcDbEntity
  8
0
  6
CONTINUOUS
 62
     7
100
AcDbLine
 10
-623.18
 20
82.185
 30
0.0
 11
-623.18
 21
49.0201559399
 31
0.0
  0
LINE
  5
242
330
1F
100
AcDbEntity
  8
0
  6
CONTINUOUS
 62
     7
100
AcDbLine
 10
-623.18
 20
49.0201559399
 30
0.0
 11
-621.18
 21
49.0201559399
 31
0.0
  0
LINE
  5
243
330
1F
100
AcDbEntity
  8
0
  6
CONTINUOUS
 62
     7
100
AcDbLine
 10
-523.38
 20
49.0201559399
 30
0.0
 11
-523.38
 21
82.185
 31
0.0
  0
LINE
  5
244
330
1F
100
AcDbEntity
  8
0
  6
CONTINUOUS
 62
     7
100
AcDbLine
 10
-524.38
 20
83.185
 30
0.0
 11
-572.28
 21
83.185
 31
0.0
  0
LINE
  5
245
330
1F
100
AcDbEntity
  8
0
  6
CONTINUOUS
 62
     7
100
AcDbLine
 10
-572.28
 20
83.185
 30
0.0
 11
-572.28
 21
81.185
 31
0.0
  0
LINE
  5
246
330
1F
100
AcDbEntity
  8
0
  6
CONTINUOUS
 62
     7
100
AcDbLine
 10
-572.28
 20
81.185
 30
0.0
 11
-526.38
 21
81.185
 31
0.0
  0
LINE
  5
247
330
1F
100
AcDbEntity
  8
0
  6
CONTINUOUS
 62
     7
100
AcDbLine
 10
-525.38
 20
80.185
 30
0.0
 11
-525.38
 21
49.0201559399
 31
0.0
  0
LINE
  5
248
330
1F
100
AcDbEntity
  8
0
  6
CONTINUOUS
 62
     7
100
AcDbLine
 10
-525.38
 20
49.0201559399
 30
0.0
 11
-523.38
 21
49.0201559399
 31
0.0
  0
LINE
  5
249
330
1F
100
AcDbEntity
  8
0
  6
CONTINUOUS
 62
     7
100
AcDbLine
 10
57.560536927
 20
-14.4790791487
 30
0.0
 11
55.560536927
 21
-14.4790791487
 31
0.0
  0
LINE
  5
24A
330
1F
100
AcDbEntity
  8
0
  6
CONTINUOUS
 62
     7
100
AcDbLine
 10
55.560536927
 20
-14.4790791487
 30
0.0
 11
55.560536927
 21
-46.3696628589
 31
0.0
  0
LINE
  5
24B
330
1F
100
AcDbEntity
  8
0
  6
CONTINUOUS
 62
     7
100
AcDbLine
 10
55.560536927
 20
-46.3696628589
 30
0.0
 11
57.560536927
 21
-46.3696628589
 31
0.0
  0
LINE
  5
24C
330
1F
100
AcDbEntity
  8
0
  6
CONTINUOUS
 62
     7
100
AcDbLine
 10
57.560536927
 20
-46.3696628589
 30
0.0
 11
57.560536927
 21
-14.4790791487
 31
0.0
  0
LINE
  5
24D
330
1F
100
AcDbEntity
  8
0
  6
CONTINUOUS
 62
     7
100
AcDbLine
 10
60.4654522199
 20
48.3636184132
 30
0.0
 11
59.2033871288
 21
49.9151449592
 31
0.0
  0
LINE
  5
24E
330
1F
100
AcDbEntity
  8
0
  6
CONTINUOUS
 62
     7
100
AcDbLine
 10
49.4417269994
 20
47.0937446773
 30
0.0
 11
49.2019901178
 21
45.1081523727
 31
0.0
  0
LINE
  5
24F
330
1F
100
AcDbEntity
  8
0
  6
CONTINUOUS
 62
     7
100
AcDbLine
 10
119.5643831631
 20
60.9806009238
 30
0.0
 11
121.5472143196
 21
60.7191040696
 31
0.0
  0
LINE
  5
250
330
1F
100
AcDbEntity
  8
0
  6
CONTINUOUS
 62
     7
100
AcDbLine
 10
126.2808836511
 20
65.4527734011
 30
0.0
 11
126.019386797
 21
67.4356045575
 31
0.0
  0
LINE
  5
251
330
1F
100
AcDbEntity
  8
0
  6
CONTINUOUS
 62
     7
100
AcDbLine
 10
221.1
 20
-36.6000122793
 30
0.0
 11
220.1
 21
-36.6000122793
 31
0.0
  0
LINE
  5
252
330
1F
100
AcDbEntity
  8
0
  6
CONTINUOUS
 62
     7
100
AcDbLine
 10
220.1
 20
-36.6000122793
 30
0.0
 11
220.1
 21
-41.1000122793
 31
0.0
  0
LINE
  5
253
330
1F
100
AcDbEntity
  8
0
  6
CONTINUOUS
 62
     7
100
AcDbLine
 10
220.1
 20
-41.1000122793
 30
0.0
 11
222.5
 21
-41.1000122793
 31
0.0
  0
LINE
  5
254
330
1F
100
AcDbEntity
  8
0
  6
CONTINUOUS
 62
     7
100
AcDbLine
 10
222.5
 20
-41.1000122793
 30
0.0
 11
222.5
 21
-40.1000122793
 31
0.0
  0
LINE
  5
255
330
1F
100
AcDbEntity
  8
0
  6
CONTINUOUS
 62
     7
100
AcDbLine
 10
222.5
 20
-40.1000122793
 30
0.0
 11
221.1
 21
-40.1000122793
 31
0.0
  0
LINE
  5
256
330
1F
100
AcDbEntity
  8
0
  6
CONTINUOUS
 62
     7
100
AcDbLine
 10
221.1
 20
-40.1000122793
 30
0.0
 11
221.1
 21
-36.6000122793
 31
0.0
  0
LINE
  5
257
330
1F
100
AcDbEntity
  8
0
  6
CONTINUOUS
 62
     7
100
AcDbLine
 10
223.5
 20
-31.1000122793
 30
0.0
 11
223.5
 21
-32.1000122793
 31
0.0
  0
LINE
  5
258
330
1F
100
AcDbEntity
  8
0
  6
CONTINUOUS
 62
     7
100
AcDbLine
 10
223.5
 20
-32.1000122793
 30
0.0
 11
224.9
 21
-32.1000122793
 31
0.0
  0
LINE
  5
259
330
1F
100
AcDbEntity
  8
0
  6
CONTINUOUS
 62
     7
100
AcDbLine
 10
224.9
 20
-32.1000122793
 30
0.0
 11
224.9
 21
-35.6000122793
 31
0.0
  0
LINE
  5
25A
330
1F
100
AcDbEntity
  8
0
  6
CONTINUOUS
 62
     7
100
AcDbLine
 10
224.9
 20
-35.6000122793
 30
0.0
 11
225.9
 21
-35.6000122793
 31
0.0
  0
LINE
  5
25B
330
1F
100
AcDbEntity
  8
0
  6
CONTINUOUS
 62
     7
100
AcDbLine
 10
225.9
 20
-35.6000122793
 30
0.0
 11
225.9
 21
-31.1000122793
 31
0.0
  0
LINE
  5
25C
330
1F
100
AcDbEntity
  8
0
  6
CONTINUOUS
 62
     7
100
AcDbLine
 10
225.9
 20
-31.1000122793
 30
0.0
 11
223.5
 21
-31.1000122793
 31
0.0
  0
LINE
  5
25D
330
1F
100
AcDbEntity
  8
0
  6
CONTINUOUS
 62
     7
100
AcDbLine
 10
65.9671268098
 20
59.0005410444
 30
0.0
 11
63.961530623
 21
59.0005410444
 31
0.0
  0
LINE
  5
25E
330
1F
100
AcDbEntity
  8
0
  6
CONTINUOUS
 62
     7
100
AcDbLine
 10
60.1923963179
 20
50.8076253575
 30
0.0
 11
61.606607198
 21
49.3934144774
 31
0.0
  0
LINE
  5
25F
330
1F
100
AcDbEntity
  8
0
  6
CONTINUOUS
 62
     7
100
AcDbLine
 10
53.4010723835
 20
74.806582661
 30
0.0
 11
53.0809325682
 21
72.8323873217
 31
0.0
  0
LINE
  5
260
330
1F
100
AcDbEntity
  8
0
  6
CONTINUOUS
 62
     7
100
AcDbLine
 10
60.6989091961
 20
68.6563035269
 30
0.0
 11
62.1910402415
 21
69.9880333718
 31
0.0
  0
LINE
  5
261
330
1F
100
AcDbEntity
  8
0
  6
CONTINUOUS
 62
     7
100
AcDbLine
 10
48.2019901178
 20
45.263274159
 30
0.0
 11
48.5750610069
 21
47.2281832239
 31
0.0
  0
LINE
  5
262
330
1F
100
AcDbEntity
  8
0
  6
CONTINUOUS
 62
     7
100
AcDbLine
 10
42.7966287478
 20
49.9151435387
 30
0.0
 11
41.5345652586
 21
48.3636184132
 31
0.0
  0
LINE
  5
263
330
1F
100
AcDbEntity
  8
0
  6
CONTINUOUS
 62
     7
100
AcDbLine
 10
57.560536927
 20
-87.129424044
 30
0.0
 11
57.560536927
 21
-75.9059682861
 31
0.0
  0
LINE
  5
264
330
1F
100
AcDbEntity
  8
0
  6
CONTINUOUS
 62
     7
100
AcDbLine
 10
57.560536927
 20
-75.9059682861
 30
0.0
 11
55.560536927
 21
-75.9059682861
 31
0.0
  0
LINE
  5
265
330
1F
100
AcDbEntity
  8
0
  6
CONTINUOUS
 62
     7
100
AcDbLine
 10
55.560536927
 20
-75.9059682861
 30
0.0
 11
55.560536927
 21
-89.129424044
 31
0.0
  0
LINE
  5
266
330
1F
100
AcDbEntity
  8
0
  6
CONTINUOUS
 62
     7
100
AcDbLine
 10
58.560536927
 20
-92.129424044
 30
0.0
 11
91.8796634916
 21
-92.129424044
 31
0.0
  0
LINE
  5
267
330
1F
100
AcDbEntity
  8
0
  6
CONTINUOUS
 62
     7
100
AcDbLine
 10
91.8796634916
 20
-92.129424044
 30
0.0
 11
91.8796634916
 21
-90.129424044
 31
0.0
  0
LINE
  5
268
330
1F
100
AcDbEntity
  8
0
  6
CONTINUOUS
 62
     7
100
AcDbLine
 10
91.8796634916
 20
-90.129424044
 30
0.0
 11
60.560536927
 21
-90.129424044
 31
0.0
  0
LINE
  5
269
330
1F
100
AcDbEntity
  8
0
  6
CONTINUOUS
 62
     7
100
AcDbLine
 10
126.55
 20
-46.3696628589
 30
0.0
 11
128.55
 21
-46.3696628589
 31
0.0
  0
LINE
  5
26A
330
1F
100
AcDbEntity
  8
0
  6
CONTINUOUS
 62
     7
100
AcDbLine
 10
128.55
 20
-46.3696628589
 30
0.0
 11
128.55
 21
-14.4790791487
 31
0.0
  0
LINE
  5
26B
330
1F
100
AcDbEntity
  8
0
  6
CONTINUOUS
 62
     7
100
AcDbLine
 10
128.55
 20
-14.4790791487
 30
0.0
 11
126.55
 21
-14.4790791487
 31
0.0
  0
LINE
  5
26C
330
1F
100
AcDbEntity
  8
0
  6
CONTINUOUS
 62
     7
100
AcDbLine
 10
126.55
 20
-14.4790791487
 30
0.0
 11
126.55
 21
-46.3696628589
 31
0.0
  0
LINE
  5
26D
330
1F
100
AcDbEntity
  8
0
  6
CONTINUOUS
 62
     7
100
AcDbLine
 10
127.9806132031
 20
67.4356045573
 30
0.0
 11
127.7191163489
 21
65.4527734011
 31
0.0
  0
LINE
  5
26E
330
1F
100
AcDbEntity
  8
0
  6
CONTINUOUS
 62
     7
100
AcDbLine
 10
132.4527856804
 20
60.7191040696
 30
0.0
 11
134.4356168364
 21
60.9806009237
 31
0.0
  0
LINE
  5
26F
330
1F
100
AcDbEntity
  8
0
  6
CONTINUOUS
 62
     7
100
AcDbLine
 10
128.55
 20
-89.129424044
 30
0.0
 11
128.55
 21
-75.4281632333
 31
0.0
  0
LINE
  5
270
330
1F
100
AcDbEntity
  8
0
  6
CONTINUOUS
 62
     7
100
AcDbLine
 10
128.55
 20
-75.4281632333
 30
0.0
 11
126.55
 21
-75.4281632333
 31
0.0
  0
LINE
  5
271
330
1F
100
AcDbEntity
  8
0
  6
CONTINUOUS
 62
     7
100
AcDbLine
 10
126.55
 20
-75.4281632333
 30
0.0
 11
126.55
 21
-87.129424044
 31
0.0
  0
LINE
  5
272
330
1F
100
AcDbEntity
  8
0
  6
CONTINUOUS
 62
     7
100
AcDbLine
 10
123.55
 20
-90.129424044
 30
0.0
 11
93.8796634916
 21
-90.129424044
 31
0.0
  0
LINE
  5
273
330
1F
100
AcDbEntity
  8
0
  6
CONTINUOUS
 62
     7
100
AcDbLine
 10
93.8796634916
 20
-90.129424044
 30
0.0
 11
93.8796634916
 21
-92.129424044
 31
0.0
  0
LINE
  5
274
330
1F
100
AcDbEntity
  8
0
  6
CONTINUOUS
 62
     7
100
AcDbLine
 10
93.8796634916
 20
-92.129424044
 30
0.0
 11
125.55
 21
-92.129424044
 31
0.0
  0
LINE
  5
275
330
1F
100
AcDbEntity
  8
0
  6
CONTINUOUS
 62
     7
100
AcDbLine
 10
55.560536927
 20
-12.4790791487
 30
0.0
 11
57.560536927
 21
-12.4790791487
 31
0.0
  0
LINE
  5
276
330
1F
100
AcDbEntity
  8
0
  6
CONTINUOUS
 62
     7
100
AcDbLine
 10
57.560536927
 20
-12.4790791487
 30
0.0
 11
57.560536927
 21
8.4823406619
 31
0.0
  0
LINE
  5
277
330
1F
100
AcDbEntity
  8
0
  6
CONTINUOUS
 62
     7
100
AcDbLine
 10
60.560536927
 20
11.4823406619
 30
0.0
 11
90.0552684635
 21
11.4823406619
 31
0.0
  0
LINE
  5
278
330
1F
100
AcDbEntity
  8
0
  6
CONTINUOUS
 62
     7
100
AcDbLine
 10
90.0552684635
 20
11.4823406619
 30
0.0
 11
90.0552684635
 21
13.4823406619
 31
0.0
  0
LINE
  5
279
330
1F
100
AcDbEntity
  8
0
  6
CONTINUOUS
 62
     7
100
AcDbLine
 10
90.0552684635
 20
13.4823406619
 30
0.0
 11
58.560536927
 21
13.4823406619
 31
0.0
  0
LINE
  5
27A
330
1F
100
AcDbEntity
  8
0
  6
CONTINUOUS
 62
     7
100
AcDbLine
 10
55.560536927
 20
10.4823406619
 30
0.0
 11
55.560536927
 21
-12.4790791487
 31
0.0
  0
LINE
  5
27B
330
1F
100
AcDbEntity
  8
0
  6
CONTINUOUS
 62
     7
100
AcDbLine
 10
92.0552684635
 20
13.4823406619
 30
0.0
 11
92.0552684635
 21
11.4823406619
 31
0.0
  0
LINE
  5
27C
330
1F
100
AcDbEntity
  8
0
  6
CONTINUOUS
 62
     7
100
AcDbLine
 10
92.0552684635
 20
11.4823406619
 30
0.0
 11
123.55
 21
11.4823406619
 31
0.0
  0
LINE
  5
27D
330
1F
100
AcDbEntity
  8
0
  6
CONTINUOUS
 62
     7
100
AcDbLine
 10
126.55
 20
8.4823406619
 30
0.0
 11
126.55
 21
-12.4790791487
 31
0.0
  0
LINE
  5
27E
330
1F
100
AcDbEntity
  8
0
  6
CONTINUOUS
 62
     7
100
AcDbLine
 10
126.55
 20
-12.4790791487
 30
0.0
 11
128.55
 21
-12.4790791487
 31
0.0
  0
LINE
  5
27F
330
1F
100
AcDbEntity
  8
0
  6
CONTINUOUS
 62
     7
100
AcDbLine
 10
128.55
 20
-12.4790791487
 30
0.0
 11
128.55
 21
10.4823406619
 31
0.0
  0
LINE
  5
280
330
1F
100
AcDbEntity
  8
0
  6
CONTINUOUS
 62
     7
100
AcDbLine
 10
125.55
 20
13.4823406619
 30
0.0
 11
92.0552684635
 21
13.4823406619
 31
0.0
  0
LINE
  5
281
330
1F
100
AcDbEntity
  8
0
  6
CONTINUOUS
 62
     7
100
AcDbLine
 10
480.0
 20
-140.0
 30
0.0
 11
480.0
 21
140.0
 31
0.0
  0
LINE
  5
282
330
1F
100
AcDbEntity
  8
0
  6
CONTINUOUS
 62
     7
100
AcDbLine
 10
-680.0
 20
-140.0
 30
0.0
 11
480.0
 21
-140.0
 31
0.0
  0
LINE
  5
283
330
1F
100
AcDbEntity
  8
0
  6
CONTINUOUS
 62
     7
100
AcDbLine
 10
-680.0
 20
140.0
 30
0.0
 11
-680.0
 21
-140.0
 31
0.0
  0
LINE
  5
284
330
1F
100
AcDbEntity
  8
0
  6
CONTINUOUS
 62
     7
100
AcDbLine
 10
480.0
 20
140.0
 30
0.0
 11
-680.0
 21
140.0
 31
0.0
  0
LINE
  5
285
330
1F
100
AcDbEntity
  8
0
  6
CONTINUOUS
 62
     7
100
AcDbLine
 10
429.0092551384
 20
29.106844059
 30
0.0
 11
433.1206320915
 21
29.106844059
 31
0.0
  0
LINE
  5
286
330
1F
100
AcDbEntity
  8
0
  6
CONTINUOUS
 62
     7
100
AcDbLine
 10
429.0092551384
 20
29.5924248848
 30
0.0
 11
429.0092551384
 21
29.106844059
 31
0.0
  0
LINE
  5
287
330
1F
100
AcDbEntity
  8
0
  6
CONTINUOUS
 62
     7
100
AcDbLine
 10
433.1206320915
 20
34.0306714211
 30
0.0
 11
429.0092551384
 21
29.5924248848
 31
0.0
  0
LINE
  5
288
330
1F
100
AcDbEntity
  8
0
  6
CONTINUOUS
 62
     7
100
AcDbLine
 10
433.1206320915
 20
38.1155965004
 30
0.0
 11
433.1206320915
 21
34.0306714211
 31
0.0
  0
LINE
  5
289
330
1F
100
AcDbEntity
  8
0
  6
CONTINUOUS
 62
     7
100
AcDbLine
 10
428.8165343437
 20
33.469513813
 30
0.0
 11
433.1206320915
 21
38.1155965004
 31
0.0
  0
LINE
  5
28A
330
1F
100
AcDbEntity
  8
0
  6
CONTINUOUS
 62
     7
100
AcDbLine
 10
423.6886496697
 20
25.4791585121
 30
0.0
 11
423.6886496697
 21
29.4658337746
 31
0.0
  0
LINE
  5
28B
330
1F
100
AcDbEntity
  8
0
  6
CONTINUOUS
 62
     7
100
AcDbLine
 10
433.1206320915
 20
25.4791585121
 30
0.0
 11
423.6886496697
 21
25.4791585121
 31
0.0
  0
LINE
  5
28C
330
1F
100
AcDbEntity
  8
0
  6
CONTINUOUS
 62
     7
100
AcDbLine
 10
433.1206320915
 20
29.106844059
 30
0.0
 11
433.1206320915
 21
25.4791585121
 31
0.0
  0
LINE
  5
28D
330
1F
100
AcDbEntity
  8
0
  6
CONTINUOUS
 62
     7
100
AcDbLine
 10
423.6886496697
 20
20.7631673012
 30
0.0
 11
433.1206320915
 21
20.7631673012
 31
0.0
  0
LINE
  5
28E
330
1F
100
AcDbEntity
  8
0
  6
CONTINUOUS
 62
     7
100
AcDbLine
 10
423.6886496697
 20
17.1354817543
 30
0.0
 11
423.6886496697
 21
20.7631673012
 31
0.0
  0
LINE
  5
28F
330
1F
100
AcDbEntity
  8
0
  6
CONTINUOUS
 62
     7
100
AcDbLine
 10
433.1206320915
 20
17.1354817543
 30
0.0
 11
423.6886496697
 21
17.1354817543
 31
0.0
  0
LINE
  5
290
330
1F
100
AcDbEntity
  8
0
  6
CONTINUOUS
 62
     7
100
AcDbLine
 10
433.1206320915
 20
20.7631673012
 30
0.0
 11
433.1206320915
 21
17.1354817543
 31
0.0
  0
LINE
  5
291
330
1F
100
AcDbEntity
  8
0
  6
CONTINUOUS
 62
     7
100
AcDbLine
 10
431.1858664665
 20
-17.667626461
 30
0.0
 11
433.1206320915
 21
-19.1867197838
 31
0.0
  0
LINE
  5
292
330
1F
100
AcDbEntity
  8
0
  6
CONTINUOUS
 62
     7
100
AcDbLine
 10
431.1858664665
 20
-9.6111414757
 30
0.0
 11
431.1858664665
 21
-17.667626461
 31
0.0
  0
LINE
  5
293
330
1F
100
AcDbEntity
  8
0
  6
CONTINUOUS
 62
     7
100
AcDbLine
 10
433.1206320915
 20
-8.0939375725
 30
0.0
 11
431.1858664665
 21
-9.6111414757
 31
0.0
  0
LINE
  5
294
330
1F
100
AcDbEntity
  8
0
  6
CONTINUOUS
 62
     7
100
AcDbLine
 10
433.1206320915
 20
-4.2074015465
 30
0.0
 11
433.1206320915
 21
-8.0939375725
 31
0.0
  0
LINE
  5
295
330
1F
100
AcDbEntity
  8
0
  6
CONTINUOUS
 62
     7
100
AcDbLine
 10
423.6886496697
 20
-11.7858633842
 30
0.0
 11
433.1206320915
 21
-4.2074015465
 31
0.0
  0
LINE
  5
296
330
1F
100
AcDbEntity
  8
0
  6
CONTINUOUS
 62
     7
100
AcDbLine
 10
423.6886496697
 20
-15.4910151329
 30
0.0
 11
423.6886496697
 21
-11.7858633842
 31
0.0
  0
LINE
  5
297
330
1F
100
AcDbEntity
  8
0
  6
CONTINUOUS
 62
     7
100
AcDbLine
 10
433.1206320915
 20
-23.0713663902
 30
0.0
 11
423.6886496697
 21
-15.4910151329
 31
0.0
  0
LINE
  5
298
330
1F
100
AcDbEntity
  8
0
  6
CONTINUOUS
 62
     7
100
AcDbLine
 10
433.1206320915
 20
-19.1867197838
 30
0.0
 11
433.1206320915
 21
-23.0713663902
 31
0.0
  0
LINE
  5
299
330
1F
100
AcDbEntity
  8
0
  6
CONTINUOUS
 62
     7
100
AcDbLine
 10
429.0092551384
 20
-36.4333414879
 30
0.0
 11
433.1206320915
 21
-36.4333414879
 31
0.0
  0
LINE
  5
29A
330
1F
100
AcDbEntity
  8
0
  6
CONTINUOUS
 62
     7
100
AcDbLine
 10
429.0092551384
 20
-29.6616618004
 30
0.0
 11
429.0092551384
 21
-36.4333414879
 31
0.0
  0
LINE
  5
29B
330
1F
100
AcDbEntity
  8
0
  6
CONTINUOUS
 62
     7
100
AcDbLine
 10
433.1206320915
 20
-29.6616618004
 30
0.0
 11
429.0092551384
 21
-29.6616618004
 31
0.0
  0
LINE
  5
29C
330
1F
100
AcDbEntity
  8
0
  6
CONTINUOUS
 62
     7
100
AcDbLine
 10
433.1206320915
 20
-26.0339762535
 30
0.0
 11
433.1206320915
 21
-29.6616618004
 31
0.0
  0
LINE
  5
29D
330
1F
100
AcDbEntity
  8
0
  6
CONTINUOUS
 62
     7
100
AcDbLine
 10
423.6886496697
 20
-26.0339762535
 30
0.0
 11
433.1206320915
 21
-26.0339762535
 31
0.0
  0
LINE
  5
29E
330
1F
100
AcDbEntity
  8
0
  6
CONTINUOUS
 62
     7
100
AcDbLine
 10
423.6886496697
 20
-29.6616618004
 30
0.0
 11
423.6886496697
 21
-26.0339762535
 31
0.0
  0
LINE
  5
29F
330
1F
100
AcDbEntity
  8
0
  6
CONTINUOUS
 62
     7
100
AcDbLine
 10
427.3163352165
 20
-29.6616618004
 30
0.0
 11
423.6886496697
 21
-29.6616618004
 31
0.0
  0
LINE
  5
2A0
330
1F
100
AcDbEntity
  8
0
  6
CONTINUOUS
 62
     7
100
AcDbLine
 10
427.3163352165
 20
-36.4333414879
 30
0.0
 11
427.3163352165
 21
-29.6616618004
 31
0.0
  0
LINE
  5
2A1
330
1F
100
AcDbEntity
  8
0
  6
CONTINUOUS
 62
     7
100
AcDbLine
 10
423.6886496697
 20
-36.4333414879
 30
0.0
 11
427.3163352165
 21
-36.4333414879
 31
0.0
  0
LINE
  5
2A2
330
1F
100
AcDbEntity
  8
0
  6
CONTINUOUS
 62
     7
100
AcDbLine
 10
423.6886496697
 20
-40.0610270347
 30
0.0
 11
423.6886496697
 21
-36.4333414879
 31
0.0
  0
LINE
  5
2A3
330
1F
100
AcDbEntity
  8
0
  6
CONTINUOUS
 62
     7
100
AcDbLine
 10
433.1206320915
 20
-40.0610270347
 30
0.0
 11
423.6886496697
 21
-40.0610270347
 31
0.0
  0
LINE
  5
2A4
330
1F
100
AcDbEntity
  8
0
  6
CONTINUOUS
 62
     7
100
AcDbLine
 10
433.1206320915
 20
-36.4333414879
 30
0.0
 11
433.1206320915
 21
-40.0610270347
 31
0.0
  0
LINE
  5
2A5
330
1F
100
AcDbEntity
  8
0
  6
CONTINUOUS
 62
     7
100
AcDbLine
 10
427.3163352165
 20
29.106844059
 30
0.0
 11
427.3163352165
 21
30.3255196724
 31
0.0
  0
LINE
  5
2A6
330
1F
100
AcDbEntity
  8
0
  6
CONTINUOUS
 62
     7
100
AcDbLine
 10
425.3815695915
 20
30.174366108
 30
0.0
 11
425.3815695915
 21
29.106844059
 31
0.0
  0
LINE
  5
2A7
330
1F
100
AcDbEntity
  8
0
  6
CONTINUOUS
 62
     7
100
AcDbLine
 10
425.3815695915
 20
29.106844059
 30
0.0
 11
427.3163352165
 21
29.106844059
 31
0.0
  0
LINE
  5
2A8
330
1F
100
AcDbEntity
  8
0
  6
CONTINUOUS
 62
     7
100
AcDbLine
 10
425.3815695915
 20
3.4504159127
 30
0.0
 11
425.3815695915
 21
2.1410481606
 31
0.0
  0
LINE
  5
2A9
330
1F
100
AcDbEntity
  8
0
  6
CONTINUOUS
 62
     7
100
AcDbLine
 10
425.3815695915
 20
2.1410481606
 30
0.0
 11
431.4277121697
 21
2.1410481606
 31
0.0
  0
LINE
  5
2AA
330
1F
100
AcDbEntity
  8
0
  6
CONTINUOUS
 62
     7
100
AcDbLine
 10
431.4277121697
 20
2.1410481606
 30
0.0
 11
431.4277121697
 21
3.9341073189
 31
0.0
  0
LINE
  5
2AB
330
1F
100
AcDbEntity
  8
0
  6
CONTINUOUS
 62
     7
100
AcDbLine
 10
429.4929465447
 20
-10.9394034233
 30
0.0
 11
426.2185824547
 21
-13.6393839683
 31
0.0
  0
LINE
  5
2AC
330
1F
100
AcDbEntity
  8
0
  6
CONTINUOUS
 62
     7
100
AcDbLine
 10
429.4929465447
 20
-16.3393645134
 30
0.0
 11
429.4929465447
 21
-10.9394034233
 31
0.0
  0
LINE
  5
2AD
330
1F
100
AcDbEntity
  8
0
  6
CONTINUOUS
 62
     7
100
AcDbLine
 10
426.2185824547
 20
-13.6393839683
 30
0.0
 11
429.4929465447
 21
-16.3393645134
 31
0.0
  0
ARC
  5
2AE
330
1F
100
AcDbEntity
  8
0
  6
CONTINUOUS
 62
     7
100
AcDbCircle
 10
51.0000070652
 20
60.0000146104
 30
0.0
 40
13.00000155197567
100
AcDbArc
 50
183.8709136824
 51
227.0534930781
  0
ARC
  5
2AF
330
1F
100
AcDbEntity
  8
0
  6
CONTINUOUS
 62
     7
100
AcDbCircle
 10
51.0000087392
 20
60.0
 30
0.0
 40
14.99999989064351
100
AcDbArc
 50
183.820425244
 51
227.0534503748
  0
ARC
  5
2B0
330
1F
100
AcDbEntity
  8
0
  6
CONTINUOUS
 62
     7
100
AcDbCircle
 10
51.0000070652
 20
60.0000146104
 30
0.0
 40
13.00000155197419
100
AcDbArc
 50
84.6094026031
 51
136.591876445
  0
ARC
  5
2B1
330
1F
100
AcDbEntity
  8
0
  6
CONTINUOUS
 62
     7
100
AcDbCircle
 10
51.0000087392
 20
60.0
 30
0.0
 40
14.99999989064182
100
AcDbArc
 50
84.6094142122
 51
136.5918402962
  0
ARC
  5
2B2
330
1F
100
AcDbEntity
  8
0
  6
CONTINUOUS
 62
     7
100
AcDbCircle
 10
51.000007065
 20
60.0000146104
 30
0.0
 40
13.00000155196917
100
AcDbArc
 50
360.0
 51
37.9285449973
  0
ARC
  5
2B3
330
1F
100
AcDbEntity
  8
0
  6
CONTINUOUS
 62
     7
100
AcDbCircle
 10
51.0000175878
 20
59.9999886452
 30
0.0
 40
14.99999989063913
100
AcDbArc
 50
0.0000433721
 51
37.9286479346
  0
ARC
  5
2B4
330
1F
100
AcDbEntity
  8
0
  6
CONTINUOUS
 62
     7
100
AcDbCircle
 10
51.0000070652
 20
60.0000146104
 30
0.0
 40
13.00000155198361
100
AcDbArc
 50
140.4123056007
 51
180.0
  0
ARC
  5
2B5
330
1F
100
AcDbEntity
  8
0
  6
CONTINUOUS
 62
     7
100
AcDbCircle
 10
50.9999998906
 20
59.9999892992
 30
0.0
 40
14.99999989064565
100
AcDbArc
 50
140.4122136291
 51
179.999959126
  0
ARC
  5
2B6
330
1F
100
AcDbEntity
  8
0
  6
CONTINUOUS
 62
     7
100
AcDbCircle
 10
127.0
 20
59.9999877207
 30
0.0
 40
5.499999999969616
100
AcDbArc
 50
187.7594296708
 51
262.4871568177
  0
ARC
  5
2B7
330
1F
100
AcDbEntity
  8
0
  6
CONTINUOUS
 62
     7
100
AcDbCircle
 10
127.0
 20
59.999987721
 30
0.0
 40
7.500000000000928
100
AcDbArc
 50
187.7594296731
 51
262.4871568177
  0
ARC
  5
2B8
330
1F
100
AcDbEntity
  8
0
  6
CONTINUOUS
 62
     7
100
AcDbCircle
 10
127.0
 20
59.9999877207
 30
0.0
 40
5.499999999969138
100
AcDbArc
 50
277.5128431829
 51
352.2405703294
  0
ARC
  5
2B9
330
1F
100
AcDbEntity
  8
0
  6
CONTINUOUS
 62
     7
100
AcDbCircle
 10
126.9999999995
 20
59.9999877205
 30
0.0
 40
7.500000000000478
100
AcDbArc
 50
277.5128431868
 51
352.2405703315
  0
ARC
  5
2BA
330
1F
100
AcDbEntity
  8
0
  6
CONTINUOUS
 62
     7
100
AcDbCircle
 10
-526.38
 20
-80.185
 30
0.0
 40
0.9999999999998863
100
AcDbArc
 50
270.0
 51
0.0
  0
ARC
  5
2BB
330
1F
100
AcDbEntity
  8
0
  6
CONTINUOUS
 62
     7
100
AcDbCircle
 10
-524.38
 20
-82.185
 30
0.0
 40
0.9999999999998153
100
AcDbArc
 50
270.0
 51
0.0
  0
ARC
  5
2BC
330
1F
100
AcDbEntity
  8
0
  6
CONTINUOUS
 62
     7
100
AcDbCircle
 10
-622.18
 20
-82.185
 30
0.0
 40
1.0
100
AcDbArc
 50
180.0
 51
270.0
  0
ARC
  5
2BD
330
1F
100
AcDbEntity
  8
0
  6
CONTINUOUS
 62
     7
100
AcDbCircle
 10
-620.18
 20
-80.185
 30
0.0
 40
1.0
100
AcDbArc
 50
180.0
 51
270.0
  0
ARC
  5
2BE
330
1F
100
AcDbEntity
  8
0
  6
CONTINUOUS
 62
     7
100
AcDbCircle
 10
-620.18
 20
80.185
 30
0.0
 40
1.0
100
AcDbArc
 50
90.0
 51
180.0
  0
ARC
  5
2BF
330
1F
100
AcDbEntity
  8
0
  6
CONTINUOUS
 62
     7
100
AcDbCircle
 10
-622.18
 20
82.185
 30
0.0
 40
1.0
100
AcDbArc
 50
90.0
 51
180.0
  0
ARC
  5
2C0
330
1F
100
AcDbEntity
  8
0
  6
CONTINUOUS
 62
     7
100
AcDbCircle
 10
-524.38
 20
82.185
 30
0.0
 40
0.9999999999998863
100
AcDbArc
 50
360.0
 51
90.0
  0
ARC
  5
2C1
330
1F
100
AcDbEntity
  8
0
  6
CONTINUOUS
 62
     7
100
AcDbCircle
 10
-526.38
 20
80.185
 30
0.0
 40
0.9999999999998153
100
AcDbArc
 50
360.0
 51
90.0
  0
ARC
  5
2C2
330
1F
100
AcDbEntity
  8
0
  6
CONTINUOUS
 62
     7
100
AcDbCircle
 10
51.0000070652
 20
60.0000146104
 30
0.0
 40
13.0000015519749
100
AcDbArc
 50
263.1155337427
 51
309.1260929982
  0
ARC
  5
2C3
330
1F
100
AcDbEntity
  8
0
  6
CONTINUOUS
 62
     7
100
AcDbCircle
 10
51.0000087393
 20
60.0
 30
0.0
 40
14.99999989064301
100
AcDbArc
 50
263.1155207048
 51
309.1261232539
  0
ARC
  5
2C4
330
1F
100
AcDbEntity
  8
0
  6
CONTINUOUS
 62
     7
100
AcDbCircle
 10
127.0
 20
59.9999877207
 30
0.0
 40
5.499999999968993
100
AcDbArc
 50
97.5128431823
 51
172.4871568173
  0
ARC
  5
2C5
330
1F
100
AcDbEntity
  8
0
  6
CONTINUOUS
 62
     7
100
AcDbCircle
 10
126.9999999994
 20
59.9999877211
 30
0.0
 40
7.499999999393293
100
AcDbArc
 50
97.5128431784
 51
172.4871568197
  0
ARC
  5
2C6
330
1F
100
AcDbEntity
  8
0
  6
CONTINUOUS
 62
     7
100
AcDbCircle
 10
51.000007065
 20
60.0000146104
 30
0.0
 40
13.00000155196781
100
AcDbArc
 50
315.0000000001
 51
355.5906018214
  0
ARC
  5
2C7
330
1F
100
AcDbEntity
  8
0
  6
CONTINUOUS
 62
     7
100
AcDbCircle
 10
51.0005487931
 20
60.0004811218
 30
0.0
 40
14.99994458951633
100
AcDbArc
 50
314.9972767866
 51
356.1776615275
  0
ARC
  5
2C8
330
1F
100
AcDbEntity
  8
0
  6
CONTINUOUS
 62
     7
100
AcDbCircle
 10
51.0000070651
 20
60.0000146104
 30
0.0
 40
13.00000155197178
100
AcDbArc
 50
41.748973425
 51
80.7889725956
  0
ARC
  5
2C9
330
1F
100
AcDbEntity
  8
0
  6
CONTINUOUS
 62
     7
100
AcDbCircle
 10
51.0000087392
 20
60.0
 30
0.0
 40
14.99999989064044
100
AcDbArc
 50
41.7490193193
 51
80.7889878409
  0
ARC
  5
2CA
330
1F
100
AcDbEntity
  8
0
  6
CONTINUOUS
 62
     7
100
AcDbCircle
 10
51.0000070652
 20
60.0000146105
 30
0.0
 40
13.00000155197945
100
AcDbArc
 50
230.8739169229
 51
259.2494019999
  0
ARC
  5
2CB
330
1F
100
AcDbEntity
  8
0
  6
CONTINUOUS
 62
     7
100
AcDbCircle
 10
51.0000087392
 20
60.0
 30
0.0
 40
14.99999989063893
100
AcDbArc
 50
230.8738767461
 51
259.2493853076
  0
ARC
  5
2CC
330
1F
100
AcDbEntity
  8
0
  6
CONTINUOUS
 62
     7
100
AcDbCircle
 10
60.560536927
 20
-87.129424044
 30
0.0
 40
3.000000000000036
100
AcDbArc
 50
180.0
 51
270.0
  0
ARC
  5
2CD
330
1F
100
AcDbEntity
  8
0
  6
CONTINUOUS
 62
     7
100
AcDbCircle
 10
58.560536927
 20
-89.129424044
 30
0.0
 40
3.000000000000014
100
AcDbArc
 50
180.0
 51
270.0
  0
ARC
  5
2CE
330
1F
100
AcDbEntity
  8
0
  6
CONTINUOUS
 62
     7
100
AcDbCircle
 10
127.0
 20
59.9999877207
 30
0.0
 40
5.499999999969257
100
AcDbArc
 50
7.5128431826
 51
82.4871568171
  0
ARC
  5
2CF
330
1F
100
AcDbEntity
  8
0
  6
CONTINUOUS
 62
     7
100
AcDbCircle
 10
126.9999999995
 20
59.9999877205
 30
0.0
 40
7.499999999999702
100
AcDbArc
 50
7.5128431837
 51
82.4871568136
  0
ARC
  5
2D0
330
1F
100
AcDbEntity
  8
0
  6
CONTINUOUS
 62
     7
100
AcDbCircle
 10
125.55
 20
-89.129424044
 30
0.0
 40
3.000000000000014
100
AcDbArc
 50
270.0
 51
0.0
  0
ARC
  5
2D1
330
1F
100
AcDbEntity
  8
0
  6
CONTINUOUS
 62
     7
100
AcDbCircle
 10
123.55
 20
-87.129424044
 30
0.0
 40
3.0
100
AcDbArc
 50
270.0
 51
0.0
  0
ARC
  5
2D2
330
1F
100
AcDbEntity
  8
0
  6
CONTINUOUS
 62
     7
100
AcDbCircle
 10
60.560536927
 20
8.4823406619
 30
0.0
 40
3.000000000000014
100
AcDbArc
 50
90.0
 51
180.0
  0
ARC
  5
2D3
330
1F
100
AcDbEntity
  8
0
  6
CONTINUOUS
 62
     7
100
AcDbCircle
 10
58.560536927
 20
10.4823406619
 30
0.0
 40
2.999999999999979
100
AcDbArc
 50
90.0
 51
180.0
  0
ARC
  5
2D4
330
1F
100
AcDbEntity
  8
0
  6
CONTINUOUS
 62
     7
100
AcDbCircle
 10
123.55
 20
8.4823406619
 30
0.0
 40
3.000000000000016
100
AcDbArc
 50
0.0
 51
90.0
  0
ARC
  5
2D5
330
1F
100
AcDbEntity
  8
0
  6
CONTINUOUS
 62
     7
100
AcDbCircle
 10
125.55
 20
10.4823406619
 30
0.0
 40
3.000000000000043
100
AcDbArc
 50
0.0
 51
90.0
  0
ENDSEC
  0
SECTION
  2
OBJECTS
  0
DICTIONARY
  5
C
330
0
100
AcDbDictionary
  3
ACAD_GROUP
350
D
  3
ACAD_MLINESTYLE
350
17
  3
ACAD_SCALELIST
350
47
1001
ACAD
1000
TREAT_AS_HARD
1070
     0
  0
DICTIONARY
  5
D
102
{ACAD_REACTORS
330
C
102
}
330
C
100
AcDbDictionary
1001
ACAD
1000
TREAT_AS_HARD
1070
     0
  0
DICTIONARY
  5
17
102
{ACAD_REACTORS
330
C
102
}
330
C
100
AcDbDictionary
  3
STANDARD
350
18
1001
ACAD
1000
TREAT_AS_HARD
1070
     0
  0
DICTIONARY
  5
47
102
{ACAD_REACTORS
330
C
102
}
330
C
100
AcDbDictionary
1001
ACAD
1000
TREAT_AS_HARD
1070
     0
  0
MLINESTYLE
  5
18
102
{ACAD_REACTORS
330
17
102
}
330
17
100
AcDbMlineStyle
  2
Standard
 70
     0
  3

 62
   256
 51
90.0
 52
90.0
 71
     2
 49
0.5
 62
   256
  6
BYLAYER
 49
-0.5
 62
   256
  6
BYLAYER
  0
ENDSEC
  0
EOF
