  0
SECTION
  2
HEADER
  9
$ACADVER
  1
AC1015
  9
$ACADMAINTVER
 70
     6
  9
$DWGCODEPAGE
  3
ANSI_1252
  9
$INSBASE
 10
0.0
 20
0.0
 30
0.0
  9
$EXTMIN
 10
-571.5388953286
 20
-145.8284752418
 30
0.0
  9
$EXTMAX
 10
571.9011871771
 20
145.8104886228
 30
0.0
  9
$LIMMIN
 10
0.0
 20
0.0
  9
$LIMMAX
 10
420.0
 20
297.0
  9
$ORTHOMODE
 70
     0
  9
$REGENMODE
 70
     1
  9
$FILLMODE
 70
     1
  9
$QTEXTMODE
 70
     0
  9
$MIRRTEXT
 70
     1
  9
$LTSCALE
 40
1.0
  9
$ATTMODE
 70
     1
  9
$TEXTSIZE
 40
3.5
  9
$TRACEWID
 40
1.0
  9
$TEXTSTYLE
  7
Standard
  9
$CLAYER
  8
0
  9
$CELTYPE
  6
ByLayer
  9
$CECOLOR
 62
   256
  9
$CELTSCALE
 40
1.0
  9
$DISPSILH
 70
     0
  9
$DIMSCALE
 40
1.0
  9
$DIMASZ
 40
3.302
  9
$DIMEXO
 40
1.0
  9
$DIMDLI
 40
3.75
  9
$DIMRND
 40
0.0
  9
$DIMDLE
 40
0.0
  9
$DIMEXE
 40
1.0
  9
$DIMTP
 40
0.0
  9
$DIMTM
 40
0.0
  9
$DIMTXT
 40
3.5
  9
$DIMCEN
 40
2.5
  9
$DIMTSZ
 40
0.0
  9
$DIMTOL
 70
     0
  9
$DIMLIM
 70
     0
  9
$DIMTIH
 70
     1
  9
$DIMTOH
 70
     1
  9
$DIMSE1
 70
     0
  9
$DIMSE2
 70
     0
  9
$DIMTAD
 70
     1
  9
$DIMZIN
 70
     0
  9
$DIMBLK
  1

  9
$DIMASO
 70
     1
  9
$DIMSHO
 70
     1
  9
$DIMPOST
  1

  9
$DIMAPOST
  1

  9
$DIMALT
 70
     0
  9
$DIMALTD
 70
     3
  9
$DIMALTF
 40
0.0393700787
  9
$DIMLFAC
 40
1.0
  9
$DIMTOFL
 70
     1
  9
$DIMTVP
 40
0.0
  9
$DIMTIX
 70
     0
  9
$DIMSOXD
 70
     0
  9
$DIMSAH
 70
     0
  9
$DIMBLK1
  1

  9
$DIMBLK2
  1

  9
$DIMSTYLE
  2
ISO-25
  9
$DIMCLRD
 70
     0
  9
$DIMCLRE
 70
     0
  9
$DIMCLRT
 70
     0
  9
$DIMTFAC
 40
1.0
  9
$DIMGAP
 40
1.524
  9
$DIMJUST
 70
     0
  9
$DIMSD1
 70
     0
  9
$DIMSD2
 70
     0
  9
$DIMTOLJ
 70
     0
  9
$DIMTZIN
 70
     0
  9
$DIMALTZ
 70
     0
  9
$DIMALTTZ
 70
     0
  9
$DIMUPT
 70
     0
  9
$DIMDEC
 70
     2
  9
$DIMTDEC
 70
     2
  9
$DIMALTU
 70
     2
  9
$DIMALTTD
 70
     3
  9
$DIMTXSTY
  7
Standard
  9
$DIMAUNIT
 70
     0
  9
$DIMADEC
 70
     2
  9
$DIMALTRND
 40
0.0
  9
$DIMAZIN
 70
     0
  9
$DIMDSEP
 70
    44
  9
$DIMATFIT
 70
     3
  9
$DIMFRAC
 70
     0
  9
$DIMLDRBLK
  1

  9
$DIMLUNIT
 70
     2
  9
$DIMLWD
 70
    -2
  9
$DIMLWE
 70
    -2
  9
$DIMTMOVE
 70
     0
  9
$LUNITS
 70
     2
  9
$LUPREC
 70
     3
  9
$SKETCHINC
 40
1.0
  9
$FILLETRAD
 40
10.0
  9
$AUNITS
 70
     0
  9
$AUPREC
 70
     2
  9
$MENU
  1
.
  9
$ELEVATION
 40
0.0
  9
$PELEVATION
 40
0.0
  9
$THICKNESS
 40
0.0
  9
$LIMCHECK
 70
     0
  9
$CHAMFERA
 40
0.0
  9
$CHAMFERB
 40
0.0
  9
$CHAMFERC
 40
0.0
  9
$CHAMFERD
 40
0.0
  9
$SKPOLY
 70
     0
  9
$TDCREATE
 40
2459067.461072616
  9
$TDUCREATE
 40
2459067.127739282
  9
$TDUPDATE
 40
2459067.461551632
  9
$TDUUPDATE
 40
2459067.128218299
  9
$TDINDWG
 40
0.0000000116
  9
$TDUSRTIMER
 40
0.0000000116
  9
$USRTIMER
 70
     1
  9
$ANGBASE
 50
0.0
  9
$ANGDIR
 70
     0
  9
$PDMODE
 70
     0
  9
$PDSIZE
 40
-1.0
  9
$PLINEWID
 40
0.0
  9
$SPLFRAME
 70
     0
  9
$SPLINETYPE
 70
     6
  9
$SPLINESEGS
 70
     8
  9
$HANDSEED
  5
2F5
  9
$SURFTAB1
 70
     6
  9
$SURFTAB2
 70
     6
  9
$SURFTYPE
 70
     6
  9
$SURFU
 70
     6
  9
$SURFV
 70
     6
  9
$UCSBASE
  2

  9
$UCSNAME
  2

  9
$UCSORG
 10
0.0
 20
0.0
 30
0.0
  9
$UCSXDIR
 10
1.0
 20
0.0
 30
0.0
  9
$UCSYDIR
 10
0.0
 20
1.0
 30
0.0
  9
$UCSORTHOREF
  2

  9
$UCSORTHOVIEW
 70
     0
  9
$UCSORGTOP
 10
0.0
 20
0.0
 30
0.0
  9
$UCSORGBOTTOM
 10
0.0
 20
0.0
 30
0.0
  9
$UCSORGLEFT
 10
0.0
 20
0.0
 30
0.0
  9
$UCSORGRIGHT
 10
0.0
 20
0.0
 30
0.0
  9
$UCSORGFRONT
 10
0.0
 20
0.0
 30
0.0
  9
$UCSORGBACK
 10
0.0
 20
0.0
 30
0.0
  9
$PUCSBASE
  2

  9
$PUCSNAME
  2

  9
$PUCSORG
 10
0.0
 20
0.0
 30
0.0
  9
$PUCSXDIR
 10
1.0
 20
0.0
 30
0.0
  9
$PUCSYDIR
 10
0.0
 20
1.0
 30
0.0
  9
$PUCSORTHOREF
  2

  9
$PUCSORTHOVIEW
 70
     0
  9
$PUCSORGTOP
 10
0.0
 20
0.0
 30
0.0
  9
$PUCSORGBOTTOM
 10
0.0
 20
0.0
 30
0.0
  9
$PUCSORGLEFT
 10
0.0
 20
0.0
 30
0.0
  9
$PUCSORGRIGHT
 10
0.0
 20
0.0
 30
0.0
  9
$PUCSORGFRONT
 10
0.0
 20
0.0
 30
0.0
  9
$PUCSORGBACK
 10
0.0
 20
0.0
 30
0.0
  9
$USERI1
 70
     0
  9
$USERI2
 70
     0
  9
$USERI3
 70
     0
  9
$USERI4
 70
     0
  9
$USERI5
 70
     0
  9
$USERR1
 40
0.0
  9
$USERR2
 40
0.0
  9
$USERR3
 40
0.0
  9
$USERR4
 40
0.0
  9
$USERR5
 40
0.0
  9
$WORLDVIEW
 70
     1
  9
$SHADEDGE
 70
     3
  9
$SHADEDIF
 70
    70
  9
$TILEMODE
 70
     1
  9
$MAXACTVP
 70
    64
  9
$PINSBASE
 10
0.0
 20
0.0
 30
0.0
  9
$PLIMCHECK
 70
     0
  9
$PEXTMIN
 10
1.0000000000E+20
 20
1.0000000000E+20
 30
1.0000000000E+20
  9
$PEXTMAX
 10
-1.0000000000E+20
 20
-1.0000000000E+20
 30
-1.0000000000E+20
  9
$PLIMMIN
 10
0.0
 20
0.0
  9
$PLIMMAX
 10
420.0
 20
297.0
  9
$UNITMODE
 70
     0
  9
$VISRETAIN
 70
     1
  9
$PLINEGEN
 70
     0
  9
$PSLTSCALE
 70
     1
  9
$TREEDEPTH
 70
  3020
  9
$CMLSTYLE
  2
Standard
  9
$CMLJUST
 70
     0
  9
$CMLSCALE
 40
20.0
  9
$PROXYGRAPHICS
 70
     1
  9
$MEASUREMENT
 70
     1
  9
$CELWEIGHT
370
    -1
  9
$ENDCAPS
280
     0
  9
$JOINSTYLE
280
     0
  9
$LWDISPLAY
290
     1
  9
$INSUNITS
 70
     4
  9
$HYPERLINKBASE
  1

  9
$STYLESHEET
  1

  9
$XEDIT
290
     1
  9
$CEPSNTYPE
380
     0
  9
$PSTYLEMODE
290
     1
  9
$FINGERPRINTGUID
  2
{E8B31E53-0CDA-4BA0-865E-7B6C27D79351}
  9
$VERSIONGUID
  2
{FAEB1C32-E019-11D5-929B-00C0DF256EC4}
  9
$EXTNAMES
290
     1
  9
$PSVPSCALE
 40
0.0
  9
$OLESTARTUP
290
     0
  0
ENDSEC
  0
SECTION
  2
CLASSES
  0
CLASS
  1
ACDBDICTIONARYWDFLT
  2
AcDbDictionaryWithDefault
  3
ObjectDBX Classes
 90
        0
280
     0
281
     0
  0
CLASS
  1
VISUALSTYLE
  2
AcDbVisualStyle
  3
ObjectDBX Classes
 90
     4095
280
     0
281
     0
  0
CLASS
  1
MATERIAL
  2
AcDbMaterial
  3
ObjectDBX Classes
 90
     1153
280
     0
281
     0
  0
CLASS
  1
SCALE
  2
AcDbScale
  3
ObjectDBX Classes
 90
     1153
280
     0
281
     0
  0
CLASS
  1
TABLESTYLE
  2
AcDbTableStyle
  3
ObjectDBX Classes
 90
     4095
280
     0
281
     0
  0
CLASS
  1
MLEADERSTYLE
  2
AcDbMLeaderStyle
  3
ACDB_MLEADERSTYLE_CLASS
 90
     4095
280
     0
281
     0
  0
CLASS
  1
SUN
  2
AcDbSun
  3
SCENEOE
 90
     1153
280
     0
281
     0
  0
CLASS
  1
ACDBPLACEHOLDER
  2
AcDbPlaceHolder
  3
ObjectDBX Classes
 90
        0
280
     0
281
     0
  0
CLASS
  1
LAYOUT
  2
AcDbLayout
  3
ObjectDBX Classes
 90
        0
280
     0
281
     0
  0
ENDSEC
  0
SECTION
  2
TABLES
  0
TABLE
  2
VPORT
  5
8
330
0
100
AcDbSymbolTable
 70
     1
  0
VPORT
  5
29
330
8
100
AcDbSymbolTableRecord
100
AcDbViewportTableRecord
  2
*Active
 70
     0
 10
0.0
 20
0.0
 11
1.0
 21
1.0
 12
0.1811459242
 22
-0.0089933095
 13
0.0
 23
0.0
 14
10.0
 24
10.0
 15
10.0
 25
10.0
 16
0.0
 26
0.0
 36
1.0
 17
0.0
 27
0.0
 37
0.0
 40
297.4717431419
 41
3.920738393
 42
50.0
 43
0.0
 44
0.0
 50
0.0
 51
0.0
 71
     0
 72
   100
 73
     1
 74
     3
 75
     0
 76
     0
 77
     0
 78
     0
281
     0
 65
     1
110
0.0
120
0.0
130
0.0
111
1.0
121
0.0
131
0.0
112
0.0
122
1.0
132
0.0
 79
     0
146
0.0
  0
ENDTAB
  0
TABLE
  2
LTYPE
  5
5
330
0
100
AcDbSymbolTable
 70
     6
  0
LTYPE
  5
14
330
5
100
AcDbSymbolTableRecord
100
AcDbLinetypeTableRecord
  2
ByBlock
 70
     0
  3

 72
    65
 73
     0
 40
0.0
  0
LTYPE
  5
15
330
5
100
AcDbSymbolTableRecord
100
AcDbLinetypeTableRecord
  2
ByLayer
 70
     0
  3

 72
    65
 73
     0
 40
0.0
  0
LTYPE
  5
16
330
5
100
AcDbSymbolTableRecord
100
AcDbLinetypeTableRecord
  2
Continuous
 70
     0
  3
Solid line
 72
    65
 73
     0
 40
0.0
  0
LTYPE
  5
6E
330
5
100
AcDbSymbolTableRecord
100
AcDbLinetypeTableRecord
  2
HIDDEN
 70
     0
  3
Hidden __ __ __ __ __ __ __ __ __ __ __ __ __ __
 72
    65
 73
     2
 40
1.905
 49
1.27
 74
     0
 49
-0.635
 74
     0
  0
LTYPE
  5
6F
330
5
100
AcDbSymbolTableRecord
100
AcDbLinetypeTableRecord
  2
PHANTOM
 70
     0
  3
Phantom ______  __  __  ______  __  __  ______
 72
    65
 73
     6
 40
12.7
 49
6.35
 74
     0
 49
-1.27
 74
     0
 49
1.27
 74
     0
 49
-1.27
 74
     0
 49
1.27
 74
     0
 49
-1.27
 74
     0
  0
LTYPE
  5
70
330
5
100
AcDbSymbolTableRecord
100
AcDbLinetypeTableRecord
  2
CENTER
 70
     0
  3
Center ____ _ ____ _ ____ _ ____ _ ____ _ ____
 72
    65
 73
     4
 40
10.16
 49
6.35
 74
     0
 49
-1.27
 74
     0
 49
1.27
 74
     0
 49
-1.27
 74
     0
  0
LTYPE
  5
71
330
5
100
AcDbSymbolTableRecord
100
AcDbLinetypeTableRecord
  2
CENTERX2
 70
     0
  3
Center (2x) ________  __  ________  __  _____
 72
    65
 73
     4
 40
20.32
 49
12.7
 74
     0
 49
-2.54
 74
     0
 49
2.54
 74
     0
 49
-2.54
 74
     0
  0
LTYPE
  5
72
330
5
100
AcDbSymbolTableRecord
100
AcDbLinetypeTableRecord
  2
DOT2
 70
     0
  3
Dot (.5x) ........................................
 72
    65
 73
     2
 40
0.635
 49
0.0
 74
     0
 49
-0.635
 74
     0
  0
ENDTAB
  0
TABLE
  2
LAYER
  5
2
330
0
100
AcDbSymbolTable
 70
     1
  0
LAYER
  5
10
330
2
100
AcDbSymbolTableRecord
100
AcDbLayerTableRecord
  2
0
 70
     0
 62
     7
  6
Continuous
370
    -3
390
F
  0
ENDTAB
  0
TABLE
  2
STYLE
  5
3
330
0
100
AcDbSymbolTable
 70
     1
  0
STYLE
  5
11
330
3
100
AcDbSymbolTableRecord
100
AcDbTextStyleTableRecord
  2
Standard
 70
     0
 40
0.0
 41
1.0
 50
0.0
 71
     0
 42
3.5
  3
txt
  4

  0
ENDTAB
  0
TABLE
  2
VIEW
  5
6
330
0
100
AcDbSymbolTable
 70
     0
  0
ENDTAB
  0
TABLE
  2
UCS
  5
7
330
0
100
AcDbSymbolTable
 70
     0
  0
ENDTAB
  0
TABLE
  2
APPID
  5
9
330
0
100
AcDbSymbolTable
 70
     1
  0
APPID
  5
12
330
9
100
AcDbSymbolTableRecord
100
AcDbRegAppTableRecord
  2
ACAD
 70
     0
  0
ENDTAB
  0
TABLE
  2
DIMSTYLE
  5
A
330
0
100
AcDbSymbolTable
 70
     1
100
AcDbDimStyleTable
  0
DIMSTYLE
105
27
330
A
100
AcDbSymbolTableRecord
100
AcDbDimStyleTableRecord
  2
ISO-25
 70
     0
 41
2.5
 42
0.625
 43
3.75
 44
1.25
 73
     0
 74
     0
 77
     1
 78
     8
140
2.5
141
2.5
143
0.0393700787
147
0.625
171
     3
172
     1
178
     0
271
     2
272
     2
274
     3
278
    44
283
     0
284
     8
340
11
  0
ENDTAB
  0
TABLE
  2
BLOCK_RECORD
  5
1
330
0
100
AcDbSymbolTable
 70
     1
  0
BLOCK_RECORD
  5
1F
330
1
100
AcDbSymbolTableRecord
100
AcDbBlockTableRecord
  2
*Model_Space
340
22
  0
BLOCK_RECORD
  5
1B
330
1
100
AcDbSymbolTableRecord
100
AcDbBlockTableRecord
  2
*Paper_Space
340
1E
  0
BLOCK_RECORD
  5
23
330
1
100
AcDbSymbolTableRecord
100
AcDbBlockTableRecord
  2
*Paper_Space0
340
26
  0
ENDTAB
  0
ENDSEC
  0
SECTION
  2
BLOCKS
  0
BLOCK
  5
20
330
1F
100
AcDbEntity
  8
0
100
AcDbBlockBegin
  2
*Model_Space
 70
     0
 10
0.0
 20
0.0
 30
0.0
  3
*Model_Space
  1

  0
ENDBLK
  5
21
330
1F
100
AcDbEntity
  8
0
100
AcDbBlockEnd
  0
BLOCK
  5
1C
330
1B
100
AcDbEntity
 67
     1
  8
0
100
AcDbBlockBegin
  2
*Paper_Space
 70
     0
 10
0.0
 20
0.0
 30
0.0
  3
*Paper_Space
  1

  0
ENDBLK
  5
1D
330
1B
100
AcDbEntity
 67
     1
  8
0
100
AcDbBlockEnd
  0
BLOCK
  5
24
330
23
100
AcDbEntity
  8
0
100
AcDbBlockBegin
  2
*Paper_Space0
 70
     0
 10
0.0
 20
0.0
 30
0.0
  3
*Paper_Space0
  1

  0
ENDBLK
  5
25
330
23
100
AcDbEntity
  8
0
100
AcDbBlockEnd
  0
ENDSEC
  0
SECTION
  2
ENTITIES
  0
LWPOLYLINE
  5
73
330
1F
100
AcDbEntity
  8
0
  6
Continuous
 62
     7
100
AcDbPolyline
 90
       17
 70
   128
 43
0.0
 10
-550.2141325318
 20
-124.0385892143
 10
-550.7693339473
 20
-124.3489776655
 10
-551.1658048133
 20
-124.8515745014
 10
-551.3431860346
 20
-125.4698639099
 10
-551.2744729282
 20
-126.1097169333
 10
-550.9701264415
 20
-126.673721749
 10
-550.4764805684
 20
-127.0760137367
 10
-549.8686884181
 20
-127.2553475879
 10
-549.2392808357
 20
-127.1844213494
 10
-548.6840794203
 20
-126.8740328983
 10
-548.2876085542
 20
-126.3714360623
 10
-548.1102273329
 20
-125.7531466538
 10
-548.1789404394
 20
-125.1132936305
 10
-548.483286926
 20
-124.5492888147
 10
-548.9769327991
 20
-124.1469968271
 10
-549.5847249495
 20
-123.9676629759
 10
-550.2141325318
 20
-124.0385892143
  0
LWPOLYLINE
  5
74
330
1F
100
AcDbEntity
  8
0
  6
Continuous
 62
     7
100
AcDbPolyline
 90
       17
 70
   128
 43
0.0
 10
-552.1929836249
 20
115.9396080208
 10
-552.7481850404
 20
115.6292195696
 10
-553.1446559065
 20
115.1266227337
 10
-553.3220371277
 20
114.5083333252
 10
-553.2533240213
 20
113.8684803018
 10
-552.9489775346
 20
113.3044754861
 10
-552.4553316615
 20
112.9021834984
 10
-551.8475395112
 20
112.7228496472
 10
-551.2181319288
 20
112.7937758856
 10
-550.6629305134
 20
113.1041643368
 10
-550.2664596473
 20
113.6067611727
 10
-550.089078426
 20
114.2250505812
 10
-550.1577915325
 20
114.8649036046
 10
-550.4621380191
 20
115.4289084203
 10
-550.9557838922
 20
115.831200408
 10
-551.5635760426
 20
116.0105342592
 10
-552.1929836249
 20
115.9396080208
  0
LWPOLYLINE
  5
75
330
1F
100
AcDbEntity
  8
0
  6
Continuous
 62
     7
100
AcDbPolyline
 90
       17
 70
   128
 43
0.0
 10
-280.9336123045
 20
-121.2894331557
 10
-281.48881372
 20
-121.5998216068
 10
-281.885284586
 20
-122.1024184428
 10
-282.0626658073
 20
-122.7207078513
 10
-281.9939527008
 20
-123.3605608746
 10
-281.6896062142
 20
-123.9245656904
 10
-281.1959603411
 20
-124.326857678
 10
-280.5881681907
 20
-124.5061915292
 10
-279.9587606084
 20
-124.4352652908
 10
-279.4035591929
 20
-124.1248768396
 10
-279.0070883269
 20
-123.6222800037
 10
-278.8297071056
 20
-123.0039905952
 10
-278.898420212
 20
-122.3641375719
 10
-279.2027666987
 20
-121.8001327561
 10
-279.6964125718
 20
-121.3978407685
 10
-280.3042047221
 20
-121.2185069172
 10
-280.9336123045
 20
-121.2894331557
  0
LWPOLYLINE
  5
76
330
1F
100
AcDbEntity
  8
0
  6
Continuous
 62
     7
100
AcDbPolyline
 90
       17
 70
   128
 43
0.0
 10
-282.9124633976
 20
118.6887640794
 10
-283.4676648131
 20
118.3783756282
 10
-283.8641356791
 20
117.8757787923
 10
-284.0415169004
 20
117.2574893838
 10
-283.9728037939
 20
116.6176363604
 10
-283.6684573073
 20
116.0536315447
 10
-283.1748114342
 20
115.651339557
 10
-282.5670192838
 20
115.4720057058
 10
-281.9376117015
 20
115.5429319442
 10
-281.382410286
 20
115.8533203954
 10
-280.98593942
 20
116.3559172314
 10
-280.8085581987
 20
116.9742066398
 10
-280.8772713051
 20
117.6140596632
 10
-281.1816177918
 20
118.178064479
 10
-281.6752636649
 20
118.5803564666
 10
-282.2830558153
 20
118.7596903178
 10
-282.9124633976
 20
118.6887640794
  0
LWPOLYLINE
  5
77
330
1F
100
AcDbEntity
  8
0
  6
Continuous
 62
     7
100
AcDbPolyline
 90
       17
 70
   128
 43
0.0
 10
0.5019996985
 20
-118.4161825499
 10
-0.053201717
 20
-118.7265710011
 10
-0.449672583
 20
-119.2291678371
 10
-0.6270538043
 20
-119.8474572455
 10
-0.5583406978
 20
-120.4873102689
 10
-0.2539942112
 20
-121.0513150847
 10
0.2396516619
 20
-121.4536070723
 10
0.8474438123
 20
-121.6329409235
 10
1.4768513946
 20
-121.5620146851
 10
2.0320528101
 20
-121.2516262339
 10
2.4285236761
 20
-120.749029398
 10
2.6059048974
 20
-120.1307399895
 10
2.5371917909
 20
-119.4908869661
 10
2.2328453043
 20
-118.9268821504
 10
1.7391994312
 20
-118.5245901627
 10
1.1314072808
 20
-118.3452563115
 10
0.5019996985
 20
-118.4161825499
  0
LWPOLYLINE
  5
78
330
1F
100
AcDbEntity
  8
0
  6
Continuous
 62
     7
100
AcDbPolyline
 90
       17
 70
   128
 43
0.0
 10
-1.4768513946
 20
121.5620146851
 10
-2.0320528101
 20
121.2516262339
 10
-2.4285236761
 20
120.749029398
 10
-2.6059048974
 20
120.1307399895
 10
-2.5371917909
 20
119.4908869661
 10
-2.2328453043
 20
118.9268821504
 10
-1.7391994312
 20
118.5245901627
 10
-1.1314072808
 20
118.3452563115
 10
-0.5019996985
 20
118.4161825499
 10
0.053201717
 20
118.7265710011
 10
0.449672583
 20
119.2291678371
 10
0.6270538043
 20
119.8474572455
 10
0.5583406978
 20
120.4873102689
 10
0.2539942112
 20
121.0513150847
 10
-0.2396516619
 20
121.4536070723
 10
-0.8474438123
 20
121.6329409235
 10
-1.4768513946
 20
121.5620146851
  0
LWPOLYLINE
  5
79
330
1F
100
AcDbEntity
  8
0
  6
Continuous
 62
     7
100
AcDbPolyline
 90
       17
 70
   128
 43
0.0
 10
268.9761141608
 20
-115.6752593011
 10
268.4209127453
 20
-115.9856477523
 10
268.0244418793
 20
-116.4882445882
 10
267.847060658
 20
-117.1065339967
 10
267.9157737644
 20
-117.7463870201
 10
268.2201202511
 20
-118.3103918358
 10
268.7137661242
 20
-118.7126838235
 10
269.3215582745
 20
-118.8920176747
 10
269.9509658569
 20
-118.8210914363
 10
270.5061672724
 20
-118.5107029851
 10
270.9026381384
 20
-118.0081061491
 10
271.0800193597
 20
-117.3898167407
 10
271.0113062532
 20
-116.7499637173
 10
270.7069597666
 20
-116.1859589015
 10
270.2133138935
 20
-115.7836669139
 10
269.6055217431
 20
-115.6043330627
 10
268.9761141608
 20
-115.6752593011
  0
LWPOLYLINE
  5
7A
330
1F
100
AcDbEntity
  8
0
  6
Continuous
 62
     7
100
AcDbPolyline
 90
       17
 70
   128
 43
0.0
 10
266.9972630677
 20
124.302937934
 10
266.4420616522
 20
123.9925494828
 10
266.0455907862
 20
123.4899526469
 10
265.8682095649
 20
122.8716632384
 10
265.9369226713
 20
122.231810215
 10
266.241269158
 20
121.6678053992
 10
266.7349150311
 20
121.2655134116
 10
267.3427071814
 20
121.0861795604
 10
267.9721147638
 20
121.1571057988
 10
268.5273161792
 20
121.46749425
 10
268.9237870453
 20
121.9700910859
 10
269.1011682666
 20
122.5883804944
 10
269.0324551601
 20
123.2282335178
 10
268.7281086735
 20
123.7922383335
 10
268.2344628004
 20
124.1945303212
 10
267.62667065
 20
124.3738641724
 10
266.9972630677
 20
124.302937934
  0
LWPOLYLINE
  5
7B
330
1F
100
AcDbEntity
  8
0
  6
Continuous
 62
     7
100
AcDbPolyline
 90
       17
 70
   128
 43
0.0
 10
551.2181319288
 20
-112.7937758856
 10
550.6629305134
 20
-113.1041643368
 10
550.2664596473
 20
-113.6067611727
 10
550.089078426
 20
-114.2250505812
 10
550.1577915325
 20
-114.8649036046
 10
550.4621380191
 20
-115.4289084203
 10
550.9557838922
 20
-115.831200408
 10
551.5635760426
 20
-116.0105342592
 10
552.1929836249
 20
-115.9396080208
 10
552.7481850404
 20
-115.6292195696
 10
553.1446559065
 20
-115.1266227337
 10
553.3220371277
 20
-114.5083333252
 10
553.2533240213
 20
-113.8684803018
 10
552.9489775346
 20
-113.3044754861
 10
552.4553316615
 20
-112.9021834984
 10
551.8475395112
 20
-112.7228496472
 10
551.2181319288
 20
-112.7937758856
  0
LWPOLYLINE
  5
7C
330
1F
100
AcDbEntity
  8
0
  6
Continuous
 62
     7
100
AcDbPolyline
 90
       17
 70
   128
 43
0.0
 10
549.2392808357
 20
127.1844213494
 10
548.6840794203
 20
126.8740328983
 10
548.2876085542
 20
126.3714360623
 10
548.1102273329
 20
125.7531466538
 10
548.1789404394
 20
125.1132936305
 10
548.483286926
 20
124.5492888147
 10
548.9769327991
 20
124.1469968271
 10
549.5847249495
 20
123.9676629759
 10
550.2141325318
 20
124.0385892143
 10
550.7693339473
 20
124.3489776655
 10
551.1658048133
 20
124.8515745014
 10
551.3431860346
 20
125.4698639099
 10
551.2744729282
 20
126.1097169333
 10
550.9701264415
 20
126.673721749
 10
550.4764805684
 20
127.0760137367
 10
549.8686884181
 20
127.2553475879
 10
549.2392808357
 20
127.1844213494
  0
LWPOLYLINE
  5
7D
330
1F
100
AcDbEntity
  8
0
  6
Continuous
 62
     7
100
AcDbPolyline
 90
       17
 70
   128
 43
0.0
 10
-531.6385181461
 20
-3.5150414959
 10
-532.3114895588
 20
-3.8912699216
 10
-532.7920603056
 20
-4.5004782076
 10
-533.0070678465
 20
-5.2499199148
 10
-532.9237792326
 20
-6.0254993371
 10
-532.5548744003
 20
-6.709141538
 10
-531.9565157662
 20
-7.1967681897
 10
-531.2197980083
 20
-7.4141425548
 10
-530.4568797266
 20
-7.3281713567
 10
-529.7839083139
 20
-6.951942931
 10
-529.3033375672
 20
-6.3427346451
 10
-529.0883300263
 20
-5.5932929378
 10
-529.1716186401
 20
-4.8177135155
 10
-529.5405234724
 20
-4.1340713146
 10
-530.1388821065
 20
-3.6464446629
 10
-530.8755998645
 20
-3.4290702978
 10
-531.6385181461
 20
-3.5150414959
  0
LWPOLYLINE
  5
7E
330
1F
100
AcDbEntity
  8
0
  6
Continuous
 62
     7
100
AcDbPolyline
 90
       17
 70
   128
 43
0.0
 10
19.6577293469
 20
33.5912302224
 10
18.8165150811
 20
33.1209446904
 10
18.2158016476
 20
32.3594343329
 10
17.9470422214
 20
31.4226321988
 10
18.0511529888
 20
30.453157921
 10
18.5122840292
 20
29.5986051698
 10
19.2602323218
 20
28.9890718552
 10
20.1811295193
 20
28.7173538988
 10
21.1347773713
 20
28.8248178964
 10
21.9759916372
 20
29.2951034285
 10
22.5767050706
 20
30.056613786
 10
22.8454644968
 20
30.9934159201
 10
22.7413537294
 20
31.9628901979
 10
22.2802226891
 20
32.8174429491
 10
21.5322743964
 20
33.4269762637
 10
20.6113771989
 20
33.69869422
 10
19.6577293469
 20
33.5912302224
  0
LWPOLYLINE
  5
7F
330
1F
100
AcDbEntity
  8
0
  6
Continuous
 62
     7
100
AcDbPolyline
 90
       17
 70
   128
 43
0.0
 10
19.1795069994
 20
91.5859612209
 10
18.3382927336
 20
91.1156756888
 10
17.7375793001
 20
90.3541653313
 10
17.4688198739
 20
89.4173631973
 10
17.5729306413
 20
88.4478889194
 10
18.0340616817
 20
87.5933361683
 10
18.7820099743
 20
86.9838028537
 10
19.7029071718
 20
86.7120848973
 10
20.6565550238
 20
86.8195488949
 10
21.4977692897
 20
87.289834427
 10
22.0984827231
 20
88.0513447845
 10
22.3672421493
 20
88.9881469185
 10
22.2631313819
 20
89.9576211964
 10
21.8020003416
 20
90.8121739475
 10
21.0540520489
 20
91.4217072621
 10
20.1331548514
 20
91.6934252185
 10
19.1795069994
 20
91.5859612209
  0
LWPOLYLINE
  5
80
330
1F
100
AcDbEntity
  8
0
  6
Continuous
 62
     7
100
AcDbPolyline
 90
       17
 70
   128
 43
0.0
 10
160.7922267158
 20
93.0317229346
 10
159.9510124499
 20
92.5614374025
 10
159.3502990165
 20
91.799927045
 10
159.0815395903
 20
90.863124911
 10
159.1856503577
 20
89.8936506331
 10
159.646781398
 20
89.039097882
 10
160.3947296907
 20
88.4295645674
 10
161.3156268881
 20
88.157846611
 10
162.2692747401
 20
88.2653106086
 10
163.110489006
 20
88.7355961407
 10
163.7112024395
 20
89.4971064982
 10
163.9799618656
 20
90.4339086322
 10
163.8758510983
 20
91.4033829101
 10
163.4147200579
 20
92.2579356612
 10
162.6667717653
 20
92.8674689758
 10
161.7458745678
 20
93.1391869322
 10
160.7922267158
 20
93.0317229346
  0
LWPOLYLINE
  5
81
330
1F
100
AcDbEntity
  8
0
  6
Continuous
 62
     7
100
AcDbPolyline
 90
       17
 70
   128
 43
0.0
 10
161.2704490633
 20
35.0369919361
 10
160.4292347974
 20
34.566706404
 10
159.828521364
 20
33.8051960466
 10
159.5597619378
 20
32.8683939125
 10
159.6638727052
 20
31.8989196347
 10
160.1250037455
 20
31.0443668835
 10
160.8729520382
 20
30.4348335689
 10
161.7938492356
 20
30.1631156125
 10
162.7474970876
 20
30.2705796101
 10
163.5887113535
 20
30.7408651422
 10
164.189424787
 20
31.5023754997
 10
164.4581842131
 20
32.4391776338
 10
164.3540734458
 20
33.4086519116
 10
163.8929424054
 20
34.2632046627
 10
163.1449941128
 20
34.8727379774
 10
162.2240969153
 20
35.1444559337
 10
161.2704490633
 20
35.0369919361
  0
LWPOLYLINE
  5
82
330
1F
100
AcDbEntity
  8
0
  6
Continuous
 62
     7
100
AcDbPolyline
 90
       17
 70
   128
 43
0.0
 10
22.489611
 20
-53.8574274841
 10
21.8166395873
 20
-54.2336559097
 10
21.3360688406
 20
-54.8428641957
 10
21.1210612996
 20
-55.592305903
 10
21.2043499135
 20
-56.3678853252
 10
21.5732547458
 20
-57.0515275262
 10
22.1716133799
 20
-57.5391541779
 10
22.9083311379
 20
-57.756528543
 10
23.6712494195
 20
-57.6705573449
 10
24.3442208322
 20
-57.2943289192
 10
24.8247915789
 20
-56.6851206332
 10
25.0397991199
 20
-55.935678926
 10
24.956510506
 20
-55.1600995037
 10
24.5876056737
 20
-54.4764573028
 10
23.9892470396
 20
-53.9888306511
 10
23.2525292816
 20
-53.771456286
 10
22.489611
 20
-53.8574274841
  0
LWPOLYLINE
  5
83
330
1F
100
AcDbEntity
  8
0
  6
Continuous
 62
     7
100
AcDbPolyline
 90
       17
 70
   128
 43
0.0
 10
-360.7001643885
 20
-1.7698866274
 10
-361.3731358012
 20
-2.146115053
 10
-361.8537065479
 20
-2.755323339
 10
-362.0687140889
 20
-3.5047650463
 10
-361.985425475
 20
-4.2803444685
 10
-361.6165206427
 20
-4.9639866694
 10
-361.0181620086
 20
-5.4516133211
 10
-360.2814442506
 20
-5.6689876862
 10
-359.518525969
 20
-5.5830164882
 10
-358.8455545563
 20
-5.2067880625
 10
-358.3649838096
 20
-4.5975797765
 10
-358.1499762686
 20
-3.8481380693
 10
-358.2332648825
 20
-3.072558647
 10
-358.6021697148
 20
-2.3889164461
 10
-359.2005283489
 20
-1.9012897944
 10
-359.9372461069
 20
-1.6839154293
 10
-360.7001643885
 20
-1.7698866274
  0
LWPOLYLINE
  5
84
330
1F
100
AcDbEntity
  8
0
  6
Continuous
 62
     7
100
AcDbPolyline
 90
       17
 70
   128
 43
0.0
 10
-193.51848139
 20
-0.0630846043
 10
-194.1914528027
 20
-0.4393130299
 10
-194.6720235494
 20
-1.0485213159
 10
-194.8870310904
 20
-1.7979630232
 10
-194.8037424765
 20
-2.5735424454
 10
-194.4348376442
 20
-3.2571846463
 10
-193.8364790101
 20
-3.744811298
 10
-193.0997612521
 20
-3.9621856631
 10
-192.3368429705
 20
-3.8762144651
 10
-191.6638715578
 20
-3.4999860394
 10
-191.1833008111
 20
-2.8907777534
 10
-190.9682932701
 20
-2.1413360462
 10
-191.051581884
 20
-1.3657566239
 10
-191.4204867163
 20
-0.682114423
 10
-192.0188453504
 20
-0.1944877713
 10
-192.7555631084
 20
0.0228865938
 10
-193.51848139
 20
-0.0630846043
  0
LWPOLYLINE
  5
85
330
1F
100
AcDbEntity
  8
0
  6
Continuous
 62
     7
100
AcDbPolyline
 90
       17
 70
   128
 43
0.0
 10
122.1842666067
 20
68.4192493092
 10
119.6606238091
 20
67.0083927129
 10
117.8584835088
 20
64.7238616404
 10
117.0522052303
 20
61.9134552383
 10
117.3645375324
 20
59.0050324047
 10
118.7479306534
 20
56.4413741513
 10
120.9917755313
 20
54.6127742075
 10
123.7544671237
 20
53.7976203383
 10
126.6154106797
 20
54.1200123311
 10
129.1390534774
 20
55.5308689274
 10
130.9411937777
 20
57.8153999999
 10
131.7474720562
 20
60.625806402
 10
131.4351397541
 20
63.5342292356
 10
130.0517466331
 20
66.097887489
 10
127.8079017552
 20
67.9264874328
 10
125.0452101627
 20
68.7416413019
 10
122.1842666067
 20
68.4192493092
  0
LINE
  5
86
330
1F
100
AcDbEntity
  8
0
  6
CENTERX2
 62
     7
100
AcDbLine
 10
-570.3845655243
 20
-5.8232069023
 30
0.0
 11
-531.0476989364
 21
-5.4216064263
 31
0.0
  0
LINE
  5
87
330
1F
100
AcDbEntity
  8
0
  6
CENTERX2
 62
     7
100
AcDbLine
 10
551.7055577769
 20
-114.3666919532
 30
0.0
 11
551.8704620346
 21
-134.3648750561
 31
0.0
  0
LINE
  5
88
330
1F
100
AcDbEntity
  8
0
  6
CENTERX2
 62
     7
100
AcDbLine
 10
-549.561802426
 20
-145.6096883848
 30
0.0
 11
-549.7267066838
 21
-125.6115052819
 31
0.0
  0
LINE
  5
89
330
1F
100
AcDbEntity
  8
0
  6
CENTERX2
 62
     7
100
AcDbLine
 10
-551.8704620346
 20
134.3648750561
 30
0.0
 11
-551.7055577769
 21
114.3666919532
 31
0.0
  0
LINE
  5
8A
330
1F
100
AcDbEntity
  8
0
  6
CENTERX2
 62
     7
100
AcDbLine
 10
-549.7267066838
 20
-125.6115052819
 30
0.0
 11
-280.4461864564
 21
-122.8623492232
 31
0.0
  0
LINE
  5
8B
330
1F
100
AcDbEntity
  8
0
  6
CENTERX2
 62
     7
100
AcDbLine
 10
-280.4461864564
 20
-122.8623492232
 30
0.0
 11
0.9894255466
 21
-119.9890986175
 31
0.0
  0
LINE
  5
8C
330
1F
100
AcDbEntity
  8
0
  6
CENTERX2
 62
     7
100
AcDbLine
 10
0.9894255466
 20
-119.9890986175
 30
0.0
 11
269.4635400088
 21
-117.2481753687
 31
0.0
  0
LINE
  5
8D
330
1F
100
AcDbEntity
  8
0
  6
CENTERX2
 62
     7
100
AcDbLine
 10
571.3739910708
 20
-114.1658917152
 30
0.0
 11
551.7055577769
 21
-114.3666919532
 31
0.0
  0
LINE
  5
8E
330
1F
100
AcDbEntity
  8
0
  6
CENTERX2
 62
     7
100
AcDbLine
 10
549.561802426
 20
145.6096883848
 30
0.0
 11
549.7267066838
 21
125.6115052819
 31
0.0
  0
LINE
  5
8F
330
1F
100
AcDbEntity
  8
0
  6
CENTERX2
 62
     7
100
AcDbLine
 10
-280.4461864564
 20
-122.8623492232
 30
0.0
 11
-282.4250375495
 21
117.1158480118
 31
0.0
  0
LINE
  5
90
330
1F
100
AcDbEntity
  8
0
  6
CENTERX2
 62
     7
100
AcDbLine
 10
0.9894255466
 20
-119.9890986175
 30
0.0
 11
-0.9894255466
 21
119.9890986175
 31
0.0
  0
LINE
  5
91
330
1F
100
AcDbEntity
  8
0
  6
CENTERX2
 62
     7
100
AcDbLine
 10
269.4635400088
 20
-117.2481753687
 30
0.0
 11
267.4846889157
 21
122.7300218664
 31
0.0
  0
LINE
  5
92
330
1F
100
AcDbEntity
  8
0
  6
CENTERX2
 62
     7
100
AcDbLine
 10
0.0
 20
0.0
 30
0.0
 11
-0.9894255466
 21
119.9890986175
 31
0.0
  0
LINE
  5
93
330
1F
100
AcDbEntity
  8
0
  6
CENTERX2
 62
     7
100
AcDbLine
 10
20.3962533591
 20
31.2080240594
 30
0.0
 11
21.1135868804
 21
-55.7840724383
 31
0.0
  0
LINE
  5
94
330
1F
100
AcDbEntity
  8
0
  6
CENTERX2
 62
     7
100
AcDbLine
 10
21.1135868804
 20
-55.7840724383
 30
0.0
 11
23.0804302098
 21
-55.7639924145
 31
0.0
  0
LINE
  5
95
330
1F
100
AcDbEntity
  8
0
  6
CENTERX2
 62
     7
100
AcDbLine
 10
-281.435612003
 20
-2.8732506057
 30
0.0
 11
-192.9276621803
 21
-1.9696495347
 31
0.0
  0
LINE
  5
96
330
1F
100
AcDbEntity
  8
0
  6
CENTERX2
 62
     7
100
AcDbLine
 10
-281.435612003
 20
-2.8732506057
 30
0.0
 11
-360.1093451788
 21
-3.6764515578
 31
0.0
  0
LINE
  5
97
330
1F
100
AcDbEntity
  8
0
  6
CENTERX2
 62
     7
100
AcDbLine
 10
-549.7267066838
 20
-125.6115052819
 30
0.0
 11
-569.3951399777
 21
-125.8123055199
 31
0.0
  0
LINE
  5
98
330
1F
100
AcDbEntity
  8
0
  6
CENTERX2
 62
     7
100
AcDbLine
 10
549.7267066838
 20
125.6115052819
 30
0.0
 11
569.3951399777
 21
125.8123055199
 31
0.0
  0
LINE
  5
99
330
1F
100
AcDbEntity
  8
0
  6
CENTERX2
 62
     7
100
AcDbLine
 10
-282.5899418073
 20
137.1140311147
 30
0.0
 11
-282.4250375495
 21
117.1158480118
 31
0.0
  0
LINE
  5
9A
330
1F
100
AcDbEntity
  8
0
  6
CENTERX2
 62
     7
100
AcDbLine
 10
-551.7055577769
 20
114.3666919532
 30
0.0
 11
-571.3739910708
 21
114.1658917152
 31
0.0
  0
LINE
  5
9B
330
1F
100
AcDbEntity
  8
0
  6
CENTERX2
 62
     7
100
AcDbLine
 10
-0.4947127733
 20
59.9945493088
 30
0.0
 11
267.979401689
 21
62.7354725576
 31
0.0
  0
LINE
  5
9C
330
1F
100
AcDbEntity
  8
0
  6
CENTERX2
 62
     7
100
AcDbLine
 10
-0.4947127733
 20
59.9945493088
 30
0.0
 11
20.1571421854
 21
60.2053895587
 31
0.0
  0
LINE
  5
9D
330
1F
100
AcDbEntity
  8
0
  6
CENTERX2
 62
     7
100
AcDbLine
 10
20.1571421854
 20
60.2053895587
 30
0.0
 11
19.9180310116
 21
89.2027550579
 31
0.0
  0
LINE
  5
9E
330
1F
100
AcDbEntity
  8
0
  6
CENTERX2
 62
     7
100
AcDbLine
 10
19.9180310116
 20
89.2027550579
 30
0.0
 11
161.530750728
 21
90.6485167716
 31
0.0
  0
LINE
  5
9F
330
1F
100
AcDbEntity
  8
0
  6
CENTERX2
 62
     7
100
AcDbLine
 10
161.530750728
 20
90.6485167716
 30
0.0
 11
162.0089730755
 21
32.6537857731
 31
0.0
  0
LINE
  5
A0
330
1F
100
AcDbEntity
  8
0
  6
CENTERX2
 62
     7
100
AcDbLine
 10
162.0089730755
 20
32.6537857731
 30
0.0
 11
20.3962533591
 21
31.2080240594
 31
0.0
  0
LINE
  5
A1
330
1F
100
AcDbEntity
  8
0
  6
CENTERX2
 62
     7
100
AcDbLine
 10
20.3962533591
 20
31.2080240594
 30
0.0
 11
20.1571421854
 21
60.2053895587
 31
0.0
  0
LINE
  5
A2
330
1F
100
AcDbEntity
  8
0
  6
CENTERX2
 62
     7
100
AcDbLine
 10
161.7698619017
 20
61.6511512724
 30
0.0
 11
124.3998386432
 21
61.2696308201
 31
0.0
  0
LINE
  5
A3
330
1F
100
AcDbEntity
  8
0
  6
CENTERX2
 62
     7
100
AcDbLine
 10
-360.1093451788
 20
-3.6764515578
 30
0.0
 11
-178.1763372098
 21
-1.8190493561
 31
0.0
  0
LINE
  5
A4
330
1F
100
AcDbEntity
  8
0
  6
CENTERX2
 62
     7
100
AcDbLine
 10
-178.1763372098
 20
-1.8190493561
 30
0.0
 11
-178.4649196609
 21
33.177771074
 31
0.0
  0
LINE
  5
A5
330
1F
100
AcDbEntity
  8
0
  6
CENTERX2
 62
     7
100
AcDbLine
 10
-531.0476989364
 20
-5.4216064263
 30
0.0
 11
-349.1146909674
 21
-3.5642042247
 31
0.0
  0
LINE
  5
A6
330
1F
100
AcDbEntity
  8
0
  6
Continuous
 62
     7
100
AcDbLine
 10
-181.2764409454
 20
28.2491001792
 30
0.0
 11
-181.3572440317
 21
38.0482098997
 31
0.0
  0
LINE
  5
A7
330
1F
100
AcDbEntity
  8
0
  6
Continuous
 62
     7
100
AcDbLine
 10
-181.2764409454
 20
28.2491001792
 30
0.0
 11
-175.5725952901
 21
28.3073322483
 31
0.0
  0
LINE
  5
A8
330
1F
100
AcDbEntity
  8
0
  6
Continuous
 62
     7
100
AcDbLine
 10
-175.5725952901
 20
28.3073322483
 30
0.0
 11
-175.6533983764
 21
38.1064419687
 31
0.0
  0
LINE
  5
A9
330
1F
100
AcDbEntity
  8
0
  6
Continuous
 62
     7
100
AcDbLine
 10
-181.3572440317
 20
38.0482098997
 30
0.0
 11
-175.6533983764
 21
38.1064419687
 31
0.0
  0
LINE
  5
AA
330
1F
100
AcDbEntity
  8
0
  6
CENTERX2
 62
     7
100
AcDbLine
 10
-175.6129968333
 20
33.2068871085
 30
0.0
 11
-181.3168424885
 21
33.1486550395
 31
0.0
  0
LINE
  5
AB
330
1F
100
AcDbEntity
  8
0
  6
CENTERX2
 62
     7
100
AcDbLine
 10
-178.4245181177
 20
28.2782162137
 30
0.0
 11
-178.505321204
 21
38.0773259342
 31
0.0
  0
LINE
  5
AC
330
1F
100
AcDbEntity
  8
0
  6
CENTERX2
 62
     7
100
AcDbLine
 10
-349.1146909674
 20
-3.5642042247
 30
0.0
 11
-349.4032734185
 21
31.4326162054
 31
0.0
  0
LINE
  5
AD
330
1F
100
AcDbEntity
  8
0
  6
CENTERX2
 62
     7
100
AcDbLine
 10
-192.9276621803
 20
-1.9696495347
 30
0.0
 11
-94.5854957106
 21
-0.9656483446
 31
0.0
  0
LINE
  5
AE
330
1F
100
AcDbEntity
  8
0
  6
Continuous
 62
     7
100
AcDbLine
 10
-352.2955977893
 20
36.3030550311
 30
0.0
 11
-352.214794703
 21
26.5039453107
 31
0.0
  0
LINE
  5
AF
330
1F
100
AcDbEntity
  8
0
  6
Continuous
 62
     7
100
AcDbLine
 10
-352.2955977893
 20
36.3030550311
 30
0.0
 11
-346.591752134
 21
36.3612871001
 31
0.0
  0
LINE
  5
B0
330
1F
100
AcDbEntity
  8
0
  6
Continuous
 62
     7
100
AcDbLine
 10
-346.591752134
 20
36.3612871001
 30
0.0
 11
-346.5109490477
 21
26.5621773797
 31
0.0
  0
LINE
  5
B1
330
1F
100
AcDbEntity
  8
0
  6
Continuous
 62
     7
100
AcDbLine
 10
-352.214794703
 20
26.5039453107
 30
0.0
 11
-346.5109490477
 21
26.5621773797
 31
0.0
  0
LINE
  5
B2
330
1F
100
AcDbEntity
  8
0
  6
CENTERX2
 62
     7
100
AcDbLine
 10
-346.5513505909
 20
31.4617322399
 30
0.0
 11
-352.2551962461
 21
31.4035001709
 31
0.0
  0
LINE
  5
B3
330
1F
100
AcDbEntity
  8
0
  6
CENTERX2
 62
     7
100
AcDbLine
 10
-349.4436749617
 20
36.3321710656
 30
0.0
 11
-349.3628718754
 21
26.5330613452
 31
0.0
  0
LINE
  5
B4
330
1F
100
AcDbEntity
  8
0
  6
CENTERX2
 62
     7
100
AcDbLine
 10
-94.5854957106
 20
-0.9656483446
 30
0.0
 11
-95.2451127416
 21
79.0270840671
 31
0.0
  0
LINE
  5
B5
330
1F
100
AcDbEntity
  8
0
  6
CENTERX2
 62
     7
100
AcDbLine
 10
267.4846889157
 20
122.7300218664
 30
0.0
 11
267.319784658
 21
142.7282049693
 31
0.0
  0
LINE
  5
B6
330
1F
100
AcDbEntity
  8
0
  6
Continuous
 62
     7
100
AcDbLine
 10
-98.1374371124
 20
83.8975228928
 30
0.0
 11
-98.0566340261
 21
74.0984131724
 31
0.0
  0
LINE
  5
B7
330
1F
100
AcDbEntity
  8
0
  6
Continuous
 62
     7
100
AcDbLine
 10
-98.1374371124
 20
83.8975228928
 30
0.0
 11
-92.4335914571
 21
83.9557549618
 31
0.0
  0
LINE
  5
B8
330
1F
100
AcDbEntity
  8
0
  6
Continuous
 62
     7
100
AcDbLine
 10
-92.4335914571
 20
83.9557549618
 30
0.0
 11
-92.3527883708
 21
74.1566452414
 31
0.0
  0
LINE
  5
B9
330
1F
100
AcDbEntity
  8
0
  6
Continuous
 62
     7
100
AcDbLine
 10
-98.0566340261
 20
74.0984131724
 30
0.0
 11
-92.3527883708
 21
74.1566452414
 31
0.0
  0
LINE
  5
BA
330
1F
100
AcDbEntity
  8
0
  6
CENTERX2
 62
     7
100
AcDbLine
 10
-92.393189914
 20
79.0562001016
 30
0.0
 11
-98.0970355692
 21
78.9979680326
 31
0.0
  0
LINE
  5
BB
330
1F
100
AcDbEntity
  8
0
  6
CENTERX2
 62
     7
100
AcDbLine
 10
-95.2855142847
 20
83.9266389273
 30
0.0
 11
-95.2047111984
 21
74.1275292069
 31
0.0
  0
LINE
  5
BC
330
1F
100
AcDbEntity
  8
0
  6
CENTERX2
 62
     7
100
AcDbLine
 10
-0.9894255466
 20
119.9890986175
 30
0.0
 11
-1.1543298043
 21
139.9872817205
 31
0.0
  0
SPLINE
  5
C0
330
1F
100
AcDbEntity
  8
0
  6
Continuous
 62
     7
370
    25
100
AcDbSpline
210
0.0
220
0.0
230
1.0
 70
     8
 71
     3
 72
    15
 73
    11
 74
     0
 42
0.000000001
 43
0.00000001
 40
0.0
 40
0.0
 40
0.0
 40
0.0
 40
0.1279910255624308
 40
0.2530983915017426
 40
0.3761840584328237
 40
0.4989363124701414
 40
0.6215258806257458
 40
0.7457068938017081
 40
0.8715753502968714
 40
1.0
 40
1.0
 40
1.0
 40
1.0
 10
561.1577899304211
 20
118.7092161548846
 30
0.0
 10
561.1783725511755
 20
118.7371012650083
 30
0.0
 10
561.2190740627294
 20
118.7922432289714
 30
0.0
 10
561.2710994807113
 20
118.8801296697396
 30
0.0
 10
561.3155660611059
 20
118.9705423982627
 30
0.0
 10
561.3513250467963
 20
119.0641485381816
 30
0.0
 10
561.3792629496899
 20
119.1607602197956
 30
0.0
 10
561.3985640267289
 20
119.2603559056579
 30
0.0
 10
561.4103477337222
 20
119.3628061851312
 30
0.0
 10
561.4112863773913
 20
119.4320160937854
 30
0.0
 10
561.411760416921
 20
119.4669689024077
 30
0.0
  0
SPLINE
  5
C1
330
1F
100
AcDbEntity
  8
0
  6
Continuous
 62
     7
370
    25
100
AcDbSpline
210
0.0
220
0.0
230
1.0
 70
     8
 71
     3
 72
    15
 73
    11
 74
     0
 42
0.000000001
 43
0.00000001
 40
0.0
 40
0.0
 40
0.0
 40
0.0
 40
0.1348068327792754
 40
0.2641990558543239
 40
0.388461816728007
 40
0.5099420983643965
 40
0.6304096106127616
 40
0.7506710345120259
 40
0.8734547255294415
 40
1.0
 40
1.0
 40
1.0
 40
1.0
 10
560.2573646570972
 20
118.276968570053
 30
0.0
 10
560.3037175750109
 20
118.2788389755364
 30
0.0
 10
560.3945616138209
 20
118.2825046603731
 30
0.0
 10
560.5269565276121
 20
118.3031228626421
 30
0.0
 10
560.6518686190143
 20
118.3373612682823
 30
0.0
 10
560.7686778950263
 20
118.3861519456494
 30
0.0
 10
560.8787121693866
 20
118.4463094964877
 30
0.0
 10
560.9805934261411
 20
118.5206607137029
 30
0.0
 10
561.0749450914828
 20
118.6080246694873
 30
0.0
 10
561.1298986259171
 20
118.6751480998482
 30
0.0
 10
561.1577899304211
 20
118.7092161548846
 30
0.0
  0
SPLINE
  5
C2
330
1F
100
AcDbEntity
  8
0
  6
Continuous
 62
     7
370
    25
100
AcDbSpline
210
0.0
220
0.0
230
1.0
 70
     8
 71
     3
 72
    23
 73
    19
 74
     0
 42
0.000000001
 43
0.00000001
 40
0.0
 40
0.0
 40
0.0
 40
0.0
 40
0.0646087354707731
 40
0.1275117897236805
 40
0.1885213083986521
 40
0.2487081790893874
 40
0.3085982651789284
 40
0.3688122491095667
 40
0.4298875018150787
 40
0.4928024479242371
 40
0.5557433321028216
 40
0.6174852948395743
 40
0.6789689634380334
 40
0.7401976913545842
 40
0.802360101697619
 40
0.866244776442721
 40
0.9317068283957133
 40
0.9999999999999999
 40
0.9999999999999999
 40
0.9999999999999999
 40
0.9999999999999999
 10
559.0700898378257
 20
119.4306599070085
 30
0.0
 10
559.0714836733365
 20
119.3904280901489
 30
0.0
 10
559.0742345468718
 20
119.3110265829961
 30
0.0
 10
559.0911635370404
 20
119.1946906701429
 30
0.0
 10
559.1175890519432
 20
119.0831079450873
 30
0.0
 10
559.1554089634303
 20
118.9769178264498
 30
0.0
 10
559.203264740665
 20
118.8756445339485
 30
0.0
 10
559.2609935889011
 20
118.7791060133097
 30
0.0
 10
559.3305412544821
 20
118.6886671496552
 30
0.0
 10
559.4082244017288
 20
118.6030749564337
 30
0.0
 10
559.4946310667602
 20
118.5259222184368
 30
0.0
 10
559.5871094515254
 20
118.4579200707464
 30
0.0
 10
559.6854882520729
 20
118.4012275112769
 30
0.0
 10
559.7888734232752
 20
118.35396145361
 30
0.0
 10
559.8984018274188
 20
118.3187042448098
 30
0.0
 10
560.0132300676005
 20
118.2939674404613
 30
0.0
 10
560.1335633050081
 20
118.2788223599798
 30
0.0
 10
560.2155193013036
 20
118.2775951585171
 30
0.0
 10
560.2573646570972
 20
118.276968570053
 30
0.0
  0
SPLINE
  5
C3
330
1F
100
AcDbEntity
  8
0
  6
Continuous
 62
     7
370
    25
100
AcDbSpline
210
0.0
220
0.0
230
1.0
 70
     8
 71
     3
 72
    23
 73
    19
 74
     0
 42
0.000000001
 43
0.00000001
 40
0.0
 40
0.0
 40
0.0
 40
0.0
 40
0.0659391240576351
 40
0.1297911093795472
 40
0.192175236305321
 40
0.253617044215727
 40
0.314719107996244
 40
0.3762822754113683
 40
0.4389729923738919
 40
0.5031747018386515
 40
0.5673294646239455
 40
0.629650993806026
 40
0.690649867303082
 40
0.7512376127977691
 40
0.8117541138236074
 40
0.8727877774488545
 40
0.9355396326682307
 40
1.0
 40
1.0
 40
1.0
 40
1.0
 10
560.2333511607397
 20
120.6138606052086
 30
0.0
 10
560.193107452733
 20
120.6123616257329
 30
0.0
 10
560.1138938510601
 20
120.6094111132432
 30
0.0
 10
559.9975494864133
 20
120.5921575600556
 30
0.0
 10
559.8861669698671
 20
120.5640512486798
 30
0.0
 10
559.7795596965234
 20
120.5256169198008
 30
0.0
 10
559.6776225701279
 20
120.4768874199782
 30
0.0
 10
559.5807231983747
 20
120.4169261135922
 30
0.0
 10
559.488954023182
 20
120.3459408699775
 30
0.0
 10
559.4029310596089
 20
120.2655501365708
 30
0.0
 10
559.3239925925474
 20
120.1781997611568
 30
0.0
 10
559.2556351948929
 20
120.0845877445748
 30
0.0
 10
559.1963662566528
 20
119.9872986902405
 30
0.0
 10
559.1501594406992
 20
119.8841547645144
 30
0.0
 10
559.113550730454
 20
119.7772211893579
 30
0.0
 10
559.0868605570249
 20
119.6658510024113
 30
0.0
 10
559.0723790815132
 20
119.5496467951926
 30
0.0
 10
559.0708597209325
 20
119.4706757409089
 30
0.0
 10
559.0700898378257
 20
119.4306599070085
 30
0.0
  0
SPLINE
  5
C4
330
1F
100
AcDbEntity
  8
0
  6
Continuous
 62
     7
370
    25
100
AcDbSpline
210
0.0
220
0.0
230
1.0
 70
     8
 71
     3
 72
    23
 73
    19
 74
     0
 42
0.000000001
 43
0.00000001
 40
0.0
 40
0.0
 40
0.0
 40
0.0
 40
0.0641474448766695
 40
0.1262121152536796
 40
0.1868412890216854
 40
0.2469358694509714
 40
0.3072563614859934
 40
0.3681505022006555
 40
0.4300707669516664
 40
0.4938754417369507
 40
0.5579806818508263
 40
0.6208695259285498
 40
0.6825247313751567
 40
0.7440356981057479
 40
0.8058886825782012
 40
0.8689681377436576
 40
0.9332474288479055
 40
1.0
 40
1.0
 40
1.0
 40
1.0
 10
561.411760416921
 20
119.4669689024077
 30
0.0
 10
561.4103632828484
 20
119.5065086538288
 30
0.0
 10
561.4076143776203
 20
119.5843043582883
 30
0.0
 10
561.3908998494677
 20
119.6984735874368
 30
0.0
 10
561.363305132727
 20
119.8077329360124
 30
0.0
 10
561.3258187966042
 20
119.9127725368179
 30
0.0
 10
561.2773789691737
 20
120.0132775581121
 30
0.0
 10
561.2178930066975
 20
120.1087534416437
 30
0.0
 10
561.148080203619
 20
120.1993759909467
 30
0.0
 10
561.0693871676128
 20
120.2848478202345
 30
0.0
 10
560.9826358543718
 20
120.3628217892201
 30
0.0
 10
560.8896684179737
 20
120.4306750674127
 30
0.0
 10
560.7925142273976
 20
120.4892146034558
 30
0.0
 10
560.6898294313754
 20
120.5354829642024
 30
0.0
 10
560.5825572944789
 20
120.5722003182153
 30
0.0
 10
560.4702464657256
 20
120.5966509937679
 30
0.0
 10
560.353333256378
 20
120.6119693099655
 30
0.0
 10
560.2738453150978
 20
120.6132222899574
 30
0.0
 10
560.2333511607397
 20
120.6138606052086
 30
0.0
  0
SPLINE
  5
C6
330
1F
100
AcDbEntity
  8
0
  6
Continuous
 62
     7
370
    25
100
AcDbSpline
210
0.0
220
0.0
230
1.0
 70
     8
 71
     3
 72
    15
 73
    11
 74
     0
 42
0.000000001
 43
0.00000001
 40
0.0
 40
0.0
 40
0.0
 40
0.0
 40
0.1279910255624308
 40
0.2530983915017426
 40
0.3761840584328237
 40
0.4989363124701414
 40
0.6215258806257458
 40
0.7457068938017081
 40
0.8715753502968714
 40
1.0
 40
1.0
 40
1.0
 40
1.0
 10
561.5200817789023
 20
118.6912295358547
 30
0.0
 10
561.5406643996566
 20
118.7191146459784
 30
0.0
 10
561.5813659112107
 20
118.7742566099415
 30
0.0
 10
561.6333913291926
 20
118.8621430507097
 30
0.0
 10
561.6778579095871
 20
118.9525557792328
 30
0.0
 10
561.7136168952776
 20
119.0461619191517
 30
0.0
 10
561.7415547981711
 20
119.1427736007657
 30
0.0
 10
561.76085587521
 20
119.242369286628
 30
0.0
 10
561.7726395822035
 20
119.3448195661013
 30
0.0
 10
561.7735782258726
 20
119.4140294747555
 30
0.0
 10
561.7740522654022
 20
119.4489822833778
 30
0.0
  0
SPLINE
  5
C8
330
1F
100
AcDbEntity
  8
0
  6
Continuous
 62
     7
370
    25
100
AcDbSpline
210
0.0
220
0.0
230
1.0
 70
     8
 71
     3
 72
    23
 73
    19
 74
     0
 42
0.000000001
 43
0.00000001
 40
0.0
 40
0.0
 40
0.0
 40
0.0
 40
0.0641474448766695
 40
0.1262121152536796
 40
0.1868412890216854
 40
0.2469358694509714
 40
0.3072563614859934
 40
0.3681505022006555
 40
0.4300707669516664
 40
0.4938754417369507
 40
0.5579806818508263
 40
0.6208695259285498
 40
0.6825247313751567
 40
0.7440356981057479
 40
0.8058886825782012
 40
0.8689681377436576
 40
0.9332474288479055
 40
1.0
 40
1.0
 40
1.0
 40
1.0
 10
561.7740522654022
 20
119.4489822833778
 30
0.0
 10
561.7726551313295
 20
119.4885220347989
 30
0.0
 10
561.7699062261015
 20
119.5663177392584
 30
0.0
 10
561.7531916979489
 20
119.6804869684069
 30
0.0
 10
561.7255969812081
 20
119.7897463169825
 30
0.0
 10
561.6881106450854
 20
119.894785917788
 30
0.0
 10
561.639670817655
 20
119.9952909390822
 30
0.0
 10
561.5801848551788
 20
120.0907668226138
 30
0.0
 10
561.5103720521001
 20
120.1813893719168
 30
0.0
 10
561.431679016094
 20
120.2668612012046
 30
0.0
 10
561.344927702853
 20
120.3448351701902
 30
0.0
 10
561.251960266455
 20
120.4126884483828
 30
0.0
 10
561.1548060758788
 20
120.4712279844259
 30
0.0
 10
561.0521212798567
 20
120.5174963451724
 30
0.0
 10
560.9448491429602
 20
120.5542136991854
 30
0.0
 10
560.8325383142069
 20
120.578664374738
 30
0.0
 10
560.7156251048593
 20
120.5939826909356
 30
0.0
 10
560.6361371635791
 20
120.5952356709276
 30
0.0
 10
560.5956430092209
 20
120.5958739861787
 30
0.0
  0
SPLINE
  5
C9
330
1F
100
AcDbEntity
  8
0
  6
Continuous
 62
     7
370
    25
100
AcDbSpline
210
0.0
220
0.0
230
1.0
 70
     8
 71
     3
 72
    15
 73
    11
 74
     0
 42
0.000000001
 43
0.00000001
 40
0.0
 40
0.0
 40
0.0
 40
0.0
 40
0.1348068327792754
 40
0.2641990558543239
 40
0.388461816728007
 40
0.5099420983643965
 40
0.6304096106127616
 40
0.7506710345120259
 40
0.8734547255294415
 40
1.0
 40
1.0
 40
1.0
 40
1.0
 10
560.6196565055784
 20
118.2589819510231
 30
0.0
 10
560.6660094234921
 20
118.2608523565065
 30
0.0
 10
560.756853462302
 20
118.2645180413432
 30
0.0
 10
560.8892483760933
 20
118.2851362436122
 30
0.0
 10
561.0141604674956
 20
118.3193746492523
 30
0.0
 10
561.1309697435075
 20
118.3681653266195
 30
0.0
 10
561.2410040178679
 20
118.4283228774578
 30
0.0
 10
561.3428852746224
 20
118.502674094673
 30
0.0
 10
561.437236939964
 20
118.5900380504574
 30
0.0
 10
561.4921904743984
 20
118.6571614808183
 30
0.0
 10
561.5200817789023
 20
118.6912295358547
 30
0.0
  0
SPLINE
  5
CF
330
1F
100
AcDbEntity
  8
0
  6
Continuous
 62
     7
370
    25
100
AcDbSpline
210
0.0
220
0.0
230
1.0
 70
     8
 71
     3
 72
    23
 73
    19
 74
     0
 42
0.000000001
 43
0.00000001
 40
0.0
 40
0.0
 40
0.0
 40
0.0
 40
0.0637689599577153
 40
0.1252623047604565
 40
0.1854135826664493
 40
0.2468067624961286
 40
0.3094223888497283
 40
0.3725326822170287
 40
0.437733250736867
 40
0.5057495167426469
 40
0.5440132631112848
 40
0.5883695992066433
 40
0.640389019394521
 40
0.6978974005877112
 40
0.7632716192951086
 40
0.8349786038393117
 40
0.9138736558434383
 40
1.0
 40
1.0
 40
1.0
 40
1.0
 10
559.4701957554654
 20
123.3400788990225
 30
0.0
 10
559.4522748161628
 20
123.339195692106
 30
0.0
 10
559.4170724518463
 20
123.3374607957863
 30
0.0
 10
559.3664896051168
 20
123.3232950886441
 30
0.0
 10
559.3197466969524
 20
123.3010911510434
 30
0.0
 10
559.2770555450707
 20
123.2708739140368
 30
0.0
 10
559.2397235086256
 20
123.23298699033
 30
0.0
 10
559.2068973023753
 20
123.1896110045398
 30
0.0
 10
559.1810683601446
 20
123.1398424668512
 30
0.0
 10
559.1641405778274
 20
123.0938318871492
 30
0.0
 10
559.1541302241322
 20
123.0520280418522
 30
0.0
 10
559.1467246755094
 20
123.0143180159421
 30
0.0
 10
559.1416155640345
 20
122.9706849699071
 30
0.0
 10
559.1362239395622
 20
122.9210696733765
 30
0.0
 10
559.1329196606385
 20
122.8656226516321
 30
0.0
 10
559.1306823992244
 20
122.8040314523151
 30
0.0
 10
559.1301162619524
 20
122.7364790667771
 30
0.0
 10
559.1301454739591
 20
122.6893929655395
 30
0.0
 10
559.1301607200022
 20
122.6648182506568
 30
0.0
  0
SPLINE
  5
D0
330
1F
100
AcDbEntity
  8
0
  6
Continuous
 62
     7
370
    25
100
AcDbSpline
210
0.0
220
0.0
230
1.0
 70
     8
 71
     3
 72
    23
 73
    19
 74
     0
 42
0.000000001
 43
0.00000001
 40
0.0
 40
0.0
 40
0.0
 40
0.0
 40
0.1055399964402547
 40
0.2020864154635851
 40
0.2906848989424224
 40
0.3705526096211978
 40
0.4426702615663914
 40
0.5076749275738823
 40
0.5655732034810509
 40
0.6164546657486248
 40
0.6633313570051057
 40
0.7088620244967001
 40
0.7534118003496991
 40
0.7985150107871729
 40
0.8450643214401666
 40
0.8938731190084417
 40
0.9447078060036705
 40
0.9999999999999999
 40
0.9999999999999999
 40
0.9999999999999999
 40
0.9999999999999999
 10
559.8237693701807
 20
122.7022161229799
 30
0.0
 10
559.8232013438414
 20
122.7316092987633
 30
0.0
 10
559.8221136954552
 20
122.7878909145818
 30
0.0
 10
559.818554138207
 20
122.8688108989024
 30
0.0
 10
559.810979470001
 20
122.9422612170687
 30
0.0
 10
559.8016275333435
 20
123.0085804683492
 30
0.0
 10
559.7909699487623
 20
123.0681076605178
 30
0.0
 10
559.7759702037058
 20
123.1202798609488
 30
0.0
 10
559.7599820863803
 20
123.1659375629295
 30
0.0
 10
559.7402628203054
 20
123.2045097850062
 30
0.0
 10
559.7179281612531
 20
123.237408987315
 30
0.0
 10
559.6926298890528
 20
123.265753947112
 30
0.0
 10
559.6634282419915
 20
123.2891147976042
 30
0.0
 10
559.6311052451006
 20
123.3082573491077
 30
0.0
 10
559.5953775722221
 20
123.3230401191865
 30
0.0
 10
559.5566341315388
 20
123.3337011087521
 30
0.0
 10
559.5144411094121
 20
123.3394493151635
 30
0.0
 10
559.4853514778856
 20
123.3398632425217
 30
0.0
 10
559.4701957554654
 20
123.3400788990225
 30
0.0
  0
SPLINE
  5
D6
330
1F
100
AcDbEntity
  8
0
  6
Continuous
 62
     7
370
    25
100
AcDbSpline
210
0.0
220
0.0
230
1.0
 70
     8
 71
     3
 72
    23
 73
    19
 74
     0
 42
0.000000001
 43
0.00000001
 40
0.0
 40
0.0
 40
0.0
 40
0.0
 40
0.1055399964402547
 40
0.2020864154635851
 40
0.2906848989424224
 40
0.3705526096211978
 40
0.4426702615663914
 40
0.5076749275738823
 40
0.5655732034810509
 40
0.6164546657486248
 40
0.6633313570051057
 40
0.7088620244967001
 40
0.7534118003496991
 40
0.7985150107871729
 40
0.8450643214401666
 40
0.8938731190084417
 40
0.9447078060036705
 40
0.9999999999999999
 40
0.9999999999999999
 40
0.9999999999999999
 40
0.9999999999999999
 10
560.1860612186618
 20
122.68422950395
 30
0.0
 10
560.1854931923227
 20
122.7136226797333
 30
0.0
 10
560.1844055439365
 20
122.7699042955519
 30
0.0
 10
560.1808459866883
 20
122.8508242798725
 30
0.0
 10
560.1732713184823
 20
122.9242745980388
 30
0.0
 10
560.1639193818247
 20
122.9905938493193
 30
0.0
 10
560.1532617972435
 20
123.0501210414879
 30
0.0
 10
560.1382620521871
 20
123.1022932419189
 30
0.0
 10
560.1222739348616
 20
123.1479509438996
 30
0.0
 10
560.1025546687865
 20
123.1865231659763
 30
0.0
 10
560.0802200097344
 20
123.2194223682851
 30
0.0
 10
560.0549217375341
 20
123.2477673280821
 30
0.0
 10
560.0257200904726
 20
123.2711281785742
 30
0.0
 10
559.9933970935818
 20
123.2902707300778
 30
0.0
 10
559.9576694207034
 20
123.3050535001565
 30
0.0
 10
559.91892598002
 20
123.3157144897222
 30
0.0
 10
559.8767329578934
 20
123.3214626961336
 30
0.0
 10
559.8476433263668
 20
123.3218766234918
 30
0.0
 10
559.8324876039467
 20
123.3220922799926
 30
0.0
  0
SPLINE
  5
E1
330
1F
100
AcDbEntity
  8
0
  6
Continuous
 62
     7
370
    25
100
AcDbSpline
210
0.0
220
0.0
230
1.0
 70
     8
 71
     3
 72
    23
 73
    19
 74
     0
 42
0.000000001
 43
0.00000001
 40
0.0
 40
0.0
 40
0.0
 40
0.0
 40
0.0397367044660649
 40
0.0805183572719384
 40
0.124722720586992
 40
0.1758448810992532
 40
0.2325094779251274
 40
0.2945916293797968
 40
0.3626852925075802
 40
0.4369406763448797
 40
0.4797067413992885
 40
0.5303214733661185
 40
0.5887819004958628
 40
0.6546636443660165
 40
0.7294519046757577
 40
0.8116774073379156
 40
0.9018553037243794
 40
1.0
 40
1.0
 40
1.0
 40
1.0
 10
-552.1902621861365
 20
30.29011043132558
 30
0.0
 10
-552.2404240253919
 20
30.28585251453674
 30
0.0
 10
-552.3420667999717
 20
30.27722471135466
 30
0.0
 10
-552.48411141153
 20
30.20200093337333
 30
0.0
 10
-552.6142061549743
 20
30.08758100416689
 30
0.0
 10
-552.7278704651735
 20
29.92991748503296
 30
0.0
 10
-552.8307008863846
 20
29.7393699108731
 30
0.0
 10
-552.918733100603
 20
29.51748682689753
 30
0.0
 10
-552.9884786775135
 20
29.26584592311805
 30
0.0
 10
-553.0334192875214
 20
29.03361484111165
 30
0.0
 10
-553.0602522066052
 20
28.8212702562688
 30
0.0
 10
-553.0795252207578
 20
28.62835359039942
 30
0.0
 10
-553.0933085416672
 20
28.40539150241855
 30
0.0
 10
-553.1069804593973
 20
28.15153194682036
 30
0.0
 10
-553.1151423799216
 20
27.86706386334298
 30
0.0
 10
-553.1200927652517
 20
27.55152371804985
 30
0.0
 10
-553.1203737651207
 20
27.2061317762591
 30
0.0
 10
-553.1193860647389
 20
26.96572307637335
 30
0.0
 10
-553.1188713227072
 20
26.84043360101741
 30
0.0
  0
SPLINE
  5
E2
330
1F
100
AcDbEntity
  8
0
  6
Continuous
 62
     7
370
    25
100
AcDbSpline
210
0.0
220
0.0
230
1.0
 70
     8
 71
     3
 72
    23
 73
    19
 74
     0
 42
0.000000001
 43
0.00000001
 40
0.0
 40
0.0
 40
0.0
 40
0.0
 40
0.1213216350645579
 40
0.2329014523545297
 40
0.3348143225008822
 40
0.4270727439543321
 40
0.5092204793169282
 40
0.5825019000625832
 40
0.6459144441740385
 40
0.7002878936827871
 40
0.7479401054382225
 40
0.7909307019442283
 40
0.8298532826669351
 40
0.8662679197150899
 40
0.8999925182512499
 40
0.9328680140455023
 40
0.9654204013030143
 40
1.0
 40
1.0
 40
1.0
 40
1.0
 10
-551.1986752697086
 20
27.01268060348034
 30
0.0
 10
-551.2008242496061
 20
27.16275902507895
 30
0.0
 10
-551.2049496517981
 20
27.45086495390849
 30
0.0
 10
-551.216277296357
 20
27.86496589501641
 30
0.0
 10
-551.2388514330457
 20
28.24256489748067
 30
0.0
 10
-551.2657196664478
 20
28.58328093989999
 30
0.0
 10
-551.296517904548
 20
28.88817505458738
 30
0.0
 10
-551.338495386292
 20
29.15556043704138
 30
0.0
 10
-551.3838244254268
 20
29.38746667107827
 30
0.0
 10
-551.4382980752787
 20
29.58466446528694
 30
0.0
 10
-551.4997792462368
 20
29.7529456727924
 30
0.0
 10
-551.5697794352266
 20
29.89698387338429
 30
0.0
 10
-551.6510121792351
 20
30.01809464893022
 30
0.0
 10
-551.7385946397463
 20
30.12021342147612
 30
0.0
 10
-551.8395652894283
 20
30.19701855104606
 30
0.0
 10
-551.9478327983276
 20
30.2523244683212
 30
0.0
 10
-552.066314282655
 20
30.28495991126327
 30
0.0
 10
-552.1481227506297
 20
30.28835937300272
 30
0.0
 10
-552.1902621861365
 20
30.29011043132558
 30
0.0
  0
SPLINE
  5
E8
330
1F
100
AcDbEntity
  8
0
  6
Continuous
 62
     7
370
    25
100
AcDbSpline
210
0.0
220
0.0
230
1.0
 70
     8
 71
     3
 72
    23
 73
    19
 74
     0
 42
0.000000001
 43
0.00000001
 40
0.0
 40
0.0
 40
0.0
 40
0.0
 40
0.1213216350645579
 40
0.2329014523545297
 40
0.3348143225008822
 40
0.4270727439543321
 40
0.5092204793169282
 40
0.5825019000625832
 40
0.6459144441740385
 40
0.7002878936827871
 40
0.7479401054382225
 40
0.7909307019442283
 40
0.8298532826669351
 40
0.8662679197150899
 40
0.8999925182512499
 40
0.9328680140455023
 40
0.9654204013030143
 40
1.0
 40
1.0
 40
1.0
 40
1.0
 10
-550.8363834212273
 20
26.99469398445043
 30
0.0
 10
-550.8385324011248
 20
27.14477240604904
 30
0.0
 10
-550.8426578033169
 20
27.43287833487858
 30
0.0
 10
-550.8539854478757
 20
27.84697927598651
 30
0.0
 10
-550.8765595845645
 20
28.22457827845077
 30
0.0
 10
-550.9034278179665
 20
28.56529432087008
 30
0.0
 10
-550.9342260560667
 20
28.87018843555747
 30
0.0
 10
-550.9762035378109
 20
29.13757381801147
 30
0.0
 10
-551.0215325769457
 20
29.36948005204836
 30
0.0
 10
-551.0760062267974
 20
29.56667784625703
 30
0.0
 10
-551.1374873977555
 20
29.73495905376249
 30
0.0
 10
-551.2074875867453
 20
29.87899725435438
 30
0.0
 10
-551.2887203307538
 20
30.00010802990031
 30
0.0
 10
-551.3763027912652
 20
30.10222680244621
 30
0.0
 10
-551.477273440947
 20
30.17903193201616
 30
0.0
 10
-551.5855409498464
 20
30.23433784929129
 30
0.0
 10
-551.7040224341737
 20
30.26697329223337
 30
0.0
 10
-551.7858309021484
 20
30.27037275397281
 30
0.0
 10
-551.8279703376552
 20
30.27212381229567
 30
0.0
  0
SPLINE
  5
E9
330
1F
100
AcDbEntity
  8
0
  6
Continuous
 62
     7
370
    25
100
AcDbSpline
210
0.0
220
0.0
230
1.0
 70
     8
 71
     3
 72
    23
 73
    19
 74
     0
 42
0.000000001
 43
0.00000001
 40
0.0
 40
0.0
 40
0.0
 40
0.0
 40
0.0597742672560107
 40
0.1174868861808314
 40
0.1747651962756096
 40
0.231291213978092
 40
0.2879842217569333
 40
0.3443490838136166
 40
0.4019162644176423
 40
0.4602406569645511
 40
0.5192007316268373
 40
0.5808840732039793
 40
0.6443236315396692
 40
0.7098052397333352
 40
0.7779170277749933
 40
0.84901415096822
 40
0.9228047917637049
 40
1.0
 40
1.0
 40
1.0
 40
1.0
 10
-549.8513254211431
 20
6.99010630213008
 30
0.0
 10
-549.913913571195
 20
6.98788908807345
 30
0.0
 10
-550.0369311705564
 20
6.983531132928727
 30
0.0
 10
-550.2188584649695
 20
6.960408716092012
 30
0.0
 10
-550.3947829069008
 20
6.922214303600733
 30
0.0
 10
-550.5661008903511
 20
6.870266518286806
 30
0.0
 10
-550.7326829493975
 20
6.806683242093226
 30
0.0
 10
-550.8929336011701
 20
6.725361662428693
 30
0.0
 10
-551.0474661037192
 20
6.63018922312858
 30
0.0
 10
-551.1970865154885
 20
6.522177096534316
 30
0.0
 10
-551.3396949065112
 20
6.398039160859659
 30
0.0
 10
-551.4795261143759
 20
6.26261035849413
 30
0.0
 10
-551.6109892896698
 20
6.109330499521461
 30
0.0
 10
-551.7372223759838
 20
5.94308371382906
 30
0.0
 10
-551.8604282734927
 20
5.764343113801833
 30
0.0
 10
-551.9761250766473
 20
5.570100882416835
 30
0.0
 10
-552.088082719768
 20
5.362482022817657
 30
0.0
 10
-552.1550685555833
 20
5.216690312566975
 30
0.0
 10
-552.1893167025308
 20
5.142150734824442
 30
0.0
  0
SPLINE
  5
EA
330
1F
100
AcDbEntity
  8
0
  6
Continuous
 62
     7
370
    25
100
AcDbSpline
210
0.0
220
0.0
230
1.0
 70
     8
 71
     3
 72
    31
 73
    27
 74
     0
 42
0.000000001
 43
0.00000001
 40
0.0
 40
0.0
 40
0.0
 40
0.0
 40
0.0803410340041792
 40
0.1550002920026365
 40
0.2239803111639924
 40
0.2875723711278678
 40
0.3450730131351604
 40
0.3972856075517306
 40
0.4439457897685755
 40
0.4852493817774253
 40
0.5231288892351212
 40
0.5601110744364274
 40
0.5957774299175405
 40
0.6303408697989543
 40
0.664260828984831
 40
0.6972417150495633
 40
0.7297637442522424
 40
0.761992603287756
 40
0.7932560002740947
 40
0.8236284351595633
 40
0.8528992168836783
 40
0.8819257804280223
 40
0.9106638169640601
 40
0.9397244224295301
 40
0.9695421186730067
 40
1.0
 40
1.0
 40
1.0
 40
1.0
 10
-546.8958353680869
 20
0.4051044364954291
 30
0.0
 10
-546.8978156798817
 20
0.6200734527031116
 30
0.0
 10
-546.9016362543891
 20
1.034808720884716
 30
0.0
 10
-546.923988957525
 20
1.633672817582698
 30
0.0
 10
-546.9462791825017
 20
2.187715782172321
 30
0.0
 10
-546.9836770198895
 20
2.694846004071886
 30
0.0
 10
-547.0244399155018
 20
3.156743308235455
 30
0.0
 10
-547.0802755860549
 20
3.571242655629025
 30
0.0
 10
-547.1363820542798
 20
3.941992906926989
 30
0.0
 10
-547.208450043891
 20
4.270733171782464
 30
0.0
 10
-547.289039471737
 20
4.570557163594663
 30
0.0
 10
-547.3813650640669
 20
4.850979831580002
 30
0.0
 10
-547.4840628918032
 20
5.118206954097698
 30
0.0
 10
-547.6021223968519
 20
5.369700809184419
 30
0.0
 10
-547.728698979044
 20
5.608684317009416
 30
0.0
 10
-547.8681726298311
 20
5.833793998622988
 30
0.0
 10
-548.0203444897877
 20
6.044636582939725
 30
0.0
 10
-548.1841607536603
 20
6.240208236339957
 30
0.0
 10
-548.3575846469076
 20
6.419234462386067
 30
0.0
 10
-548.5427437124962
 20
6.573693636432915
 30
0.0
 10
-548.7372372319178
 20
6.705065370003892
 30
0.0
 10
-548.9406887428397
 20
6.813073423438306
 30
0.0
 10
-549.1560179699875
 20
6.891888241491875
 30
0.0
 10
-549.3790430211618
 20
6.952104651624824
 30
0.0
 10
-549.612414335023
 20
6.986425433807077
 30
0.0
 10
-549.7711265000706
 20
6.988870689028534
 30
0.0
 10
-549.8513254211431
 20
6.99010630213008
 30
0.0
  0
SPLINE
  5
EE
330
1F
100
AcDbEntity
  8
0
  6
Continuous
 62
     7
370
    25
100
AcDbSpline
210
0.0
220
0.0
230
1.0
 70
     8
 71
     3
 72
    23
 73
    19
 74
     0
 42
0.000000001
 43
0.00000001
 40
0.0
 40
0.0
 40
0.0
 40
0.0
 40
0.0432922180511811
 40
0.0889514177325979
 40
0.1368133516781466
 40
0.1870794703658058
 40
0.239814940153294
 40
0.2954234391893738
 40
0.353195092430706
 40
0.4139995675119051
 40
0.4774135621745951
 40
0.543563238592841
 40
0.61275249330013
 40
0.6843376250500547
 40
0.759049586351727
 40
0.8365536697096062
 40
0.9168604676164086
 40
0.9999999999999999
 40
0.9999999999999999
 40
0.9999999999999999
 40
0.9999999999999999
 10
-552.1893167025308
 20
5.142150734824442
 30
0.0
 10
-552.219268769334
 20
5.070832520275745
 30
0.0
 10
-552.2808105180848
 20
4.924296801390555
 30
0.0
 10
-552.3654011921057
 20
4.69471116672718
 30
0.0
 10
-552.4414748442775
 20
4.449000232536887
 30
0.0
 10
-552.5125254401069
 20
4.188612921132836
 30
0.0
 10
-552.5776846730085
 20
3.912366219861647
 30
0.0
 10
-552.6373095573463
 20
3.621077591716087
 30
0.0
 10
-552.688044218013
 20
3.313450616817986
 30
0.0
 10
-552.7373396304123
 20
2.99142300142875
 30
0.0
 10
-552.7758464720362
 20
2.652794671282121
 30
0.0
 10
-552.8139436269993
 20
2.299037605647887
 30
0.0
 10
-552.8414319480531
 20
1.929583721307777
 30
0.0
 10
-552.8649378837829
 20
1.544536610558363
 30
0.0
 10
-552.881789817905
 20
1.14423180411584
 30
0.0
 10
-552.8940398987328
 20
0.7281356246536937
 30
0.0
 10
-552.896857216909
 20
0.2967923847673808
 30
0.0
 10
-552.896523427233
 20
0.0042112480140022
 30
0.0
 10
-552.8963536398936
 20
-0.1446147234881873
 30
0.0
  0
SPLINE
  5
F4
330
1F
100
AcDbEntity
  8
0
  6
Continuous
 62
     7
370
    25
100
AcDbSpline
210
0.0
220
0.0
230
1.0
 70
     8
 71
     3
 72
    31
 73
    27
 74
     0
 42
0.000000001
 43
0.00000001
 40
0.0
 40
0.0
 40
0.0
 40
0.0
 40
0.0803410340041792
 40
0.1550002920026365
 40
0.2239803111639924
 40
0.2875723711278678
 40
0.3450730131351604
 40
0.3972856075517306
 40
0.4439457897685755
 40
0.4852493817774253
 40
0.5231288892351212
 40
0.5601110744364274
 40
0.5957774299175405
 40
0.6303408697989543
 40
0.664260828984831
 40
0.6972417150495633
 40
0.7297637442522424
 40
0.761992603287756
 40
0.7932560002740947
 40
0.8236284351595633
 40
0.8528992168836783
 40
0.8819257804280223
 40
0.9106638169640601
 40
0.9397244224295301
 40
0.9695421186730067
 40
1.0
 40
1.0
 40
1.0
 40
1.0
 10
-546.5335435196056
 20
0.3871178174655196
 30
0.0
 10
-546.5355238314004
 20
0.602086833673202
 30
0.0
 10
-546.5393444059079
 20
1.016822101854807
 30
0.0
 10
-546.5616971090437
 20
1.615686198552788
 30
0.0
 10
-546.5839873340204
 20
2.169729163142412
 30
0.0
 10
-546.6213851714083
 20
2.676859385041976
 30
0.0
 10
-546.6621480670207
 20
3.138756689205546
 30
0.0
 10
-546.7179837375736
 20
3.553256036599115
 30
0.0
 10
-546.7740902057986
 20
3.924006287897079
 30
0.0
 10
-546.8461581954098
 20
4.252746552752555
 30
0.0
 10
-546.9267476232558
 20
4.552570544564754
 30
0.0
 10
-547.0190732155858
 20
4.832993212550093
 30
0.0
 10
-547.1217710433219
 20
5.10022033506779
 30
0.0
 10
-547.2398305483707
 20
5.35171419015451
 30
0.0
 10
-547.3664071305627
 20
5.590697697979507
 30
0.0
 10
-547.5058807813499
 20
5.815807379593078
 30
0.0
 10
-547.6580526413065
 20
6.026649963909816
 30
0.0
 10
-547.821868905179
 20
6.222221617310049
 30
0.0
 10
-547.9952927984264
 20
6.401247843356157
 30
0.0
 10
-548.180451864015
 20
6.555707017403005
 30
0.0
 10
-548.3749453834365
 20
6.687078750973982
 30
0.0
 10
-548.5783968943585
 20
6.795086804408397
 30
0.0
 10
-548.7937261215062
 20
6.873901622461966
 30
0.0
 10
-549.0167511726805
 20
6.934118032594915
 30
0.0
 10
-549.2501224865418
 20
6.968438814777168
 30
0.0
 10
-549.4088346515894
 20
6.970884069998625
 30
0.0
 10
-549.4890335726619
 20
6.97211968310017
 30
0.0
  0
SPLINE
  5
107
330
1F
100
AcDbEntity
  8
0
  6
Continuous
 62
     7
370
    25
100
AcDbSpline
210
0.0
220
0.0
230
1.0
 70
     8
 71
     3
 72
    23
 73
    19
 74
     0
 42
0.000000001
 43
0.00000001
 40
0.0
 40
0.0
 40
0.0
 40
0.0
 40
0.0687412630793409
 40
0.1347890881949856
 40
0.1985360495607117
 40
0.260385650605922
 40
0.3209615782321761
 40
0.3799038495841116
 40
0.4385029357752149
 40
0.4961543439762803
 40
0.5542654832084969
 40
0.6127487608156791
 40
0.6725134425261592
 40
0.7336464018979412
 40
0.7967896194814187
 40
0.8619356990410311
 40
0.929397734774902
 40
1.0
 40
1.0
 40
1.0
 40
1.0
 10
559.4732366373667
 20
123.9574669391729
 30
0.0
 10
559.4999063485378
 20
123.957106375364
 30
0.0
 10
559.5522007913538
 20
123.9563993754508
 30
0.0
 10
559.6290571457348
 20
123.9504999260127
 30
0.0
 10
559.7026359299969
 20
123.9390346829507
 30
0.0
 10
559.772728232938
 20
123.9212467158436
 30
0.0
 10
559.8401754859625
 20
123.9006678662091
 30
0.0
 10
559.9037715139835
 20
123.8730368997647
 30
0.0
 10
559.9644100018874
 20
123.8417389336755
 30
0.0
 10
560.0212563197048
 20
123.8044123563438
 30
0.0
 10
560.0755472656405
 20
123.7633656161233
 30
0.0
 10
560.125241339212
 20
123.71549185555
 30
0.0
 10
560.1729621249605
 20
123.6639522116508
 30
0.0
 10
560.21577153858
 20
123.6057920707024
 30
0.0
 10
560.256510231417
 20
123.5436234523913
 30
0.0
 10
560.2935218348548
 20
123.4761859576393
 30
0.0
 10
560.3277190302505
 20
123.4039314905225
 30
0.0
 10
560.3468767786096
 20
123.3530831539696
 30
0.0
 10
560.3566735212966
 20
123.3270807209103
 30
0.0
  0
SPLINE
  5
108
330
1F
100
AcDbEntity
  8
0
  6
Continuous
 62
     7
370
    25
100
AcDbSpline
210
0.0
220
0.0
230
1.0
 70
     8
 71
     3
 72
    31
 73
    27
 74
     0
 42
0.000000001
 43
0.00000001
 40
0.0
 40
0.0
 40
0.0
 40
0.0
 40
0.0728890266200389
 40
0.1401861299444906
 40
0.2022774341249636
 40
0.2588951317514667
 40
0.3104829424654768
 40
0.3570952441313369
 40
0.3985135666534652
 40
0.4350375108701152
 40
0.4692514858292801
 40
0.5028050278902668
 40
0.5362104463185475
 40
0.5693793599391899
 40
0.60280147504837
 40
0.6366657983367859
 40
0.6709286568940439
 40
0.7058030002293045
 40
0.7411890612458595
 40
0.7763043110764335
 40
0.8120043009129485
 40
0.8479689758088952
 40
0.8845217611964666
 40
0.9219741585441782
 40
0.9601981758095666
 40
1.0
 40
1.0
 40
1.0
 40
1.0
 10
558.523926362529
 20
122.5504537667231
 30
0.0
 10
558.5237002899034
 20
122.5979990281777
 30
0.0
 10
558.5232654885629
 20
122.6894419587475
 30
0.0
 10
558.5272144865856
 20
122.8213443872632
 30
0.0
 10
558.5332240449536
 20
122.9425392244438
 30
0.0
 10
558.5430071559075
 20
123.0532233077598
 30
0.0
 10
558.556362885604
 20
123.1533472760793
 30
0.0
 10
558.5723410618754
 20
123.2430016398045
 30
0.0
 10
558.5907412787261
 20
123.3221817371972
 30
0.0
 10
558.6139107489405
 20
123.3915777220629
 30
0.0
 10
558.6401741683227
 20
123.4542588284506
 30
0.0
 10
558.6704629274062
 20
123.5127456252814
 30
0.0
 10
558.7044238271176
 20
123.5683179903788
 30
0.0
 10
558.7429654956757
 20
123.6206160763487
 30
0.0
 10
558.7853831597945
 20
123.6700837511852
 30
0.0
 10
558.8317191612462
 20
123.7168139539202
 30
0.0
 10
558.8823750339466
 20
123.7601571275688
 30
0.0
 10
558.9370306523282
 20
123.7998448234645
 30
0.0
 10
558.9945724583092
 20
123.8360958568277
 30
0.0
 10
559.0550854538853
 20
123.8682327693487
 30
0.0
 10
559.1186262762308
 20
123.8945128746489
 30
0.0
 10
559.1842496211755
 20
123.9178309304708
 30
0.0
 10
559.252923895701
 20
123.9348447296206
 30
0.0
 10
559.3239679556085
 20
123.9469152712235
 30
0.0
 10
559.3976163097266
 20
123.9559737032627
 30
0.0
 10
559.4476923225451
 20
123.9569625286607
 30
0.0
 10
559.4732366373667
 20
123.9574669391729
 30
0.0
  0
SPLINE
  5
12F
330
1F
100
AcDbEntity
  8
0
  6
Continuous
 62
     7
370
    25
100
AcDbSpline
210
0.0
220
0.0
230
1.0
 70
     8
 71
     3
 72
    23
 73
    19
 74
     0
 42
0.000000001
 43
0.00000001
 40
0.0
 40
0.0
 40
0.0
 40
0.0
 40
0.0461569113589203
 40
0.0911610125283412
 40
0.1358424507981336
 40
0.1812290418930952
 40
0.2285476941892921
 40
0.277455468378598
 40
0.3296999047113799
 40
0.3853656175770515
 40
0.4450671413031865
 40
0.509120455013798
 40
0.5778391329877469
 40
0.6515288633817885
 40
0.730664051294688
 40
0.814907843156213
 40
0.9047754882970378
 40
1.0
 40
1.0
 40
1.0
 40
1.0
 10
-552.1979511598986
 20
33.95346904564294
 30
0.0
 10
-552.1238985763966
 20
33.95125679451117
 30
0.0
 10
-551.9776429389718
 20
33.94688754520049
 30
0.0
 10
-551.7632724165409
 20
33.90337501457377
 30
0.0
 10
-551.5575765118004
 20
33.83306464901709
 30
0.0
 10
-551.3614259139035
 20
33.72986353911546
 30
0.0
 10
-551.1748798740566
 20
33.59769154037869
 30
0.0
 10
-550.9971539462331
 20
33.43638714996936
 30
0.0
 10
-550.827968869382
 20
33.24691294873755
 30
0.0
 10
-550.6717104677904
 20
33.02453219881078
 30
0.0
 10
-550.5199892993853
 20
32.77605039744042
 30
0.0
 10
-550.3828441935016
 20
32.494981515878
 30
0.0
 10
-550.2493766764228
 20
32.18715081287676
 30
0.0
 10
-550.1302032602803
 20
31.84700530029149
 30
0.0
 10
-550.0163005761693
 20
31.47855259719773
 30
0.0
 10
-549.9121877826518
 20
31.07970417281133
 30
0.0
 10
-549.8166495787256
 20
30.65170817683932
 30
0.0
 10
-549.7627207280451
 20
30.35516535451671
 30
0.0
 10
-549.7349759085979
 20
30.20260272876201
 30
0.0
  0
SPLINE
  5
130
330
1F
100
AcDbEntity
  8
0
  6
Continuous
 62
     7
370
    25
100
AcDbSpline
210
0.0
220
0.0
230
1.0
 70
     8
 71
     3
 72
    39
 73
    35
 74
     0
 42
0.000000001
 43
0.00000001
 40
0.0
 40
0.0
 40
0.0
 40
0.0
 40
0.0452421194331613
 40
0.0887850425172146
 40
0.1306330832850868
 40
0.1707860462595407
 40
0.209457791146569
 40
0.2462254259412723
 40
0.2815250751322916
 40
0.3153397098275421
 40
0.3472707283590676
 40
0.3775221687719219
 40
0.4063094936696929
 40
0.4334254988989635
 40
0.4588756521858962
 40
0.4828770754482844
 40
0.5050168613896482
 40
0.5257627833368775
 40
0.5646746861703722
 40
0.6022320165081652
 40
0.6381034341214796
 40
0.6725839363753654
 40
0.7057744212469471
 40
0.7379769705217335
 40
0.7689396130993476
 40
0.7989905520936037
 40
0.8278185945858382
 40
0.8548546212550777
 40
0.8806638649256718
 40
0.9052309793187236
 40
0.9290749341193697
 40
0.9525835249230983
 40
0.9759525690772113
 40
1.0
 40
1.0
 40
1.0
 40
1.0
 10
-554.7942445168989
 20
26.10781421177424
 30
0.0
 10
-554.7946519456035
 20
26.24328008015032
 30
0.0
 10
-554.7954515008702
 20
26.50912401129438
 30
0.0
 10
-554.7980574027811
 20
26.90027052434126
 30
0.0
 10
-554.794775063824
 20
27.27618325516018
 30
0.0
 10
-554.7905297488529
 20
27.63749417971756
 30
0.0
 10
-554.783794933912
 20
27.98355200433435
 30
0.0
 10
-554.7762406649675
 20
28.31507536259636
 30
0.0
 10
-554.762296895704
 20
28.63182990268099
 30
0.0
 10
-554.7515049030189
 20
28.93421931630646
 30
0.0
 10
-554.734277311389
 20
29.22117495766678
 30
0.0
 10
-554.7160648005653
 20
29.49296440855392
 30
0.0
 10
-554.6958006614698
 20
29.75015410801034
 30
0.0
 10
-554.67352874287
 20
29.99273938571588
 30
0.0
 10
-554.649106299106
 20
30.22070811103526
 30
0.0
 10
-554.622983465777
 20
30.43346713715625
 30
0.0
 10
-554.5951176015134
 20
30.63181550714116
 30
0.0
 10
-554.5518738937627
 20
30.87286625068199
 30
0.0
 10
-554.4939198240726
 20
31.15808540361594
 30
0.0
 10
-554.4128455676455
 20
31.48448502844375
 30
0.0
 10
-554.3195157135661
 20
31.79364106629816
 30
0.0
 10
-554.215247207492
 20
32.08533465310978
 30
0.0
 10
-554.098758977856
 20
32.36028093202951
 30
0.0
 10
-553.9725156727742
 20
32.61910187396649
 30
0.0
 10
-553.8330313735149
 20
32.8599949554679
 30
0.0
 10
-553.6837448861712
 20
33.08262367276106
 30
0.0
 10
-553.5252522947733
 20
33.28372283777653
 30
0.0
 10
-553.3594200569026
 20
33.46174518412999
 30
0.0
 10
-553.1836883585598
 20
33.61047336198288
 30
0.0
 10
-553.0015841535559
 20
33.73450152118335
 30
0.0
 10
-552.8113424270878
 20
33.831013326638
 30
0.0
 10
-552.6137721036947
 20
33.89978870020102
 30
0.0
 10
-552.408518353736
 20
33.944037999888
 30
0.0
 10
-552.2688065095689
 20
33.95029552163597
 30
0.0
 10
-552.1979511598986
 20
33.95346904564294
 30
0.0
  0
CIRCLE
  5
13E
330
1F
100
AcDbEntity
  8
0
  6
Continuous
 62
     7
370
    25
100
AcDbCircle
 10
-549.7226095984
 20
-125.6291626468
 30
0.0
 40
1.632220431448638
  0
CIRCLE
  5
143
330
1F
100
AcDbEntity
  8
0
  6
Continuous
 62
     7
370
    25
100
AcDbCircle
 10
-192.9226960162
 20
-1.9910524012
 30
0.0
 40
1.978449007816516
  0
LWPOLYLINE
  5
144
330
1F
100
AcDbEntity
  8
0
  6
Continuous
 62
     7
370
    25
100
AcDbPolyline
 90
       30
 70
   128
 43
0.0
 10
124.4616777399
 20
53.7703121565
 10
126.0457813875
 20
53.9618293528
 10
127.5529225817
 20
54.4950512236
 10
128.9126290753
 20
55.345044907
 10
130.061322504
 20
56.4720656429
 10
130.9452912396
 20
57.8234151944
 10
131.5232018865
 20
59.3359059584
 10
131.7680319852
 20
60.9388155477
 10
131.6683335525
 20
62.5571936915
 10
131.2287683761
 20
64.1153668265
 10
130.4698900352
 20
65.5404765086
 10
129.4271828376
 20
66.765886193
 10
128.149402613
 20
67.7342970849
 10
126.6962969445
 20
68.4004273671
 10
125.1358114381
 20
68.7331295282
 10
123.5409126619
 20
68.7168467847
 10
121.9861763099
 20
68.3523404997
 10
120.544300126
 20
67.6566545819
 10
119.2827046381
 20
66.6623185318
 10
118.2603806489
 20
65.4158263977
 10
117.5251308921
 20
63.9754627667
 10
117.111334829
 20
62.4085774411
 10
117.0383411037
 20
60.7884362374
 10
117.3095628216
 20
59.1907951575
 10
117.9123179566
 20
57.6903581228
 10
118.8184223486
 20
56.3572839013
 10
119.9855075633
 20
55.2539055621
 10
121.359001993
 20
54.43181585
 10
122.8746825649
 20
53.9294547661
 10
124.4616777399
 20
53.7703121565
  0
CIRCLE
  5
14D
330
1F
100
AcDbEntity
  8
0
  6
Continuous
 62
     7
370
    25
100
AcDbCircle
 10
-531.0427327723
 20
-5.4430092929
 30
0.0
 40
1.978449007816492
  0
CIRCLE
  5
14E
330
1F
100
AcDbEntity
  8
0
  6
Continuous
 62
     7
370
    25
100
AcDbCircle
 10
-551.7014606915
 20
114.3490345883
 30
0.0
 40
1.632220431448538
  0
CIRCLE
  5
14F
330
1F
100
AcDbEntity
  8
0
  6
Continuous
 62
     7
370
    25
100
AcDbCircle
 10
-280.4420893711
 20
-122.8800065882
 30
0.0
 40
1.632220431448609
  0
CIRCLE
  5
150
330
1F
100
AcDbEntity
  8
0
  6
Continuous
 62
     7
370
    25
100
AcDbCircle
 10
-282.4209404642
 20
117.0981906469
 30
0.0
 40
1.632220431448623
  0
CIRCLE
  5
151
330
1F
100
AcDbEntity
  8
0
  6
Continuous
 62
     7
370
    25
100
AcDbCircle
 10
0.9935226319
 20
-120.0067559825
 30
0.0
 40
1.632220431448623
  0
CIRCLE
  5
152
330
1F
100
AcDbEntity
  8
0
  6
Continuous
 62
     7
370
    25
100
AcDbCircle
 10
-0.9853284612
 20
119.9714412526
 30
0.0
 40
1.632220431448637
  0
CIRCLE
  5
153
330
1F
100
AcDbEntity
  8
0
  6
Continuous
 62
     7
370
    25
100
AcDbCircle
 10
269.4676370942
 20
-117.2658327336
 30
0.0
 40
1.632220431448609
  0
CIRCLE
  5
154
330
1F
100
AcDbEntity
  8
0
  6
Continuous
 62
     7
370
    25
100
AcDbCircle
 10
267.4887860011
 20
122.7123645015
 30
0.0
 40
1.63222043144858
  0
CIRCLE
  5
155
330
1F
100
AcDbEntity
  8
0
  6
Continuous
 62
     7
370
    25
100
AcDbCircle
 10
-360.1043790147
 20
-3.6978544243
 30
0.0
 40
1.9784490078165
  0
CIRCLE
  5
156
330
1F
100
AcDbEntity
  8
0
  6
Continuous
 62
     7
370
    25
100
AcDbCircle
 10
162.0151807806
 20
32.6270321899
 30
0.0
 40
2.473061259770668
  0
CIRCLE
  5
157
330
1F
100
AcDbEntity
  8
0
  6
Continuous
 62
     7
370
    25
100
AcDbCircle
 10
161.5369584331
 20
90.6217631884
 30
0.0
 40
2.473061259770672
  0
CIRCLE
  5
158
330
1F
100
AcDbEntity
  8
0
  6
Continuous
 62
     7
370
    25
100
AcDbCircle
 10
19.9242387167
 20
89.1760014747
 30
0.0
 40
2.473061259770671
  0
CIRCLE
  5
159
330
1F
100
AcDbEntity
  8
0
  6
Continuous
 62
     7
370
    25
100
AcDbCircle
 10
20.4024610642
 20
31.1812704762
 30
0.0
 40
2.473061259770643
  0
CIRCLE
  5
15A
330
1F
100
AcDbEntity
  8
0
  6
Continuous
 62
     7
370
    25
100
AcDbCircle
 10
23.0853963738
 20
-55.785395281
 30
0.0
 40
1.978449007816513
  0
CIRCLE
  5
15B
330
1F
100
AcDbEntity
  8
0
  6
Continuous
 62
     7
370
    25
100
AcDbCircle
 10
549.7308037691
 20
125.5938479169
 30
0.0
 40
1.63222043144858
  0
CIRCLE
  5
15C
330
1F
100
AcDbEntity
  8
0
  6
Continuous
 62
     7
370
    25
100
AcDbCircle
 10
551.7096548622
 20
-114.3843493181
 30
0.0
 40
1.632220431448737
  0
SPLINE
  5
15D
330
1F
100
AcDbEntity
  8
0
  6
Continuous
 62
     7
370
    25
100
AcDbSpline
210
0.0
220
0.0
230
1.0
 70
     8
 71
     3
 72
    43
 73
    39
 74
     0
 42
0.000000001
 43
0.00000001
 40
0.0
 40
0.0
 40
0.0
 40
0.0
 40
0.0205238224460728
 40
0.0406413626751601
 40
0.0607834190586391
 40
0.0810079980591248
 40
0.1014374252837447
 40
0.122289252109855
 40
0.1437686774803284
 40
0.1658536878275924
 40
0.1885036163712958
 40
0.2116221409435104
 40
0.2350941863568989
 40
0.2592164542266704
 40
0.2840754843382988
 40
0.3095533943108306
 40
0.3359898402757968
 40
0.3631842913581067
 40
0.4188123733141569
 40
0.4752687651222418
 40
0.5327931553346812
 40
0.5915226136178041
 40
0.6070161340500535
 40
0.6239132742197764
 40
0.6420630607155574
 40
0.6616408305636818
 40
0.6824931504515178
 40
0.7046228070916848
 40
0.7280321310278298
 40
0.7528663335514215
 40
0.7791330595127122
 40
0.8066787363320393
 40
0.8355104628975728
 40
0.8657726801390081
 40
0.8973252486129306
 40
0.9301644290230047
 40
0.9644375276928254
 40
1.0
 40
1.0
 40
1.0
 40
1.0
 10
-549.8515087127287
 20
10.65354154394212
 30
0.0
 10
-549.7619148058427
 20
10.65251122618842
 30
0.0
 10
-549.5845005608695
 20
10.65047098648121
 30
0.0
 10
-549.3212654486349
 20
10.61447888891228
 30
0.0
 10
-549.062895348328
 20
10.5591299546233
 30
0.0
 10
-548.810207708229
 20
10.47640503522328
 30
0.0
 10
-548.5620023274764
 20
10.37231843722322
 30
0.0
 10
-548.3203780602199
 20
10.24116816429549
 30
0.0
 10
-548.0819200007903
 20
10.08990361591047
 30
0.0
 10
-547.8521261836584
 20
9.911745140415672
 30
0.0
 10
-547.629858031414
 20
9.713187962994429
 30
0.0
 10
-547.4138409409613
 20
9.498649746647533
 30
0.0
 10
-547.2085867666342
 20
9.264568551500275
 30
0.0
 10
-547.0131299296507
 20
9.01216721797165
 30
0.0
 10
-546.8270875416443
 20
8.741533114090771
 30
0.0
 10
-546.6522106767629
 20
8.451279984662508
 30
0.0
 10
-546.4842114268181
 20
8.144929140470838
 30
0.0
 10
-546.2758873294172
 20
7.709243260052953
 30
0.0
 10
-546.0413622708909
 20
7.13920794150729
 30
0.0
 10
-545.804008964077
 20
6.426468843119968
 30
0.0
 10
-545.6143362415323
 20
5.684809527869247
 30
0.0
 10
-545.5078698761434
 20
5.11031748260199
 30
0.0
 10
-545.4492702419294
 20
4.710698630997297
 30
0.0
 10
-545.4208305639077
 20
4.488430372648018
 30
0.0
 10
-545.3976205372784
 20
4.247334930128638
 30
0.0
 10
-545.3722706008236
 20
3.988847845740727
 30
0.0
 10
-545.3496858696273
 20
3.712361798126708
 30
0.0
 10
-545.3285620161837
 20
3.418723464087885
 30
0.0
 10
-545.3089473204402
 20
3.107268676088955
 30
0.0
 10
-545.2920941090476
 20
2.777275107471741
 30
0.0
 10
-545.2729372629398
 20
2.429030712448757
 30
0.0
 10
-545.2596974764677
 20
2.062746680519934
 30
0.0
 10
-545.2466878314078
 20
1.678734057699948
 30
0.0
 10
-545.2368897956517
 20
1.27683896979834
 30
0.0
 10
-545.2243580750427
 20
0.8572367826700988
 30
0.0
 10
-545.2187871483383
 20
0.4196768667590525
 30
0.0
 10
-545.2096592025181
 20
-0.0355996457874746
 30
0.0
 10
-545.2078524495104
 20
-0.345328763379886
 30
0.0
 10
-545.2069323939729
 20
-0.5030525853950878
 30
0.0
  0
SPLINE
  5
15E
330
1F
100
AcDbEntity
  8
0
  6
Continuous
 62
     7
370
    25
100
AcDbSpline
210
0.0
220
0.0
230
1.0
 70
     8
 71
     3
 72
    39
 73
    35
 74
     0
 42
0.000000001
 43
0.00000001
 40
0.0
 40
0.0
 40
0.0
 40
0.0
 40
0.0394569160551793
 40
0.07778455308824
 40
0.114702397014058
 40
0.1503586267142288
 40
0.1846063448320806
 40
0.2177425154103592
 40
0.2496239421290007
 40
0.2801035239467933
 40
0.3093474039546106
 40
0.3374913941560149
 40
0.3642769087161066
 40
0.3898179236964932
 40
0.4139993853790757
 40
0.4371347009724291
 40
0.4590454868141294
 40
0.4796625245629758
 40
0.5192174011962671
 40
0.5575458209504784
 40
0.5946568338129159
 40
0.6308707389899181
 40
0.666103203532352
 40
0.7006161908362573
 40
0.7343540925667337
 40
0.7676831469835519
 40
0.8000093827757848
 40
0.8306512652276471
 40
0.860097225571405
 40
0.8884789847744335
 40
0.9163519843306857
 40
0.9439582159836366
 40
0.9716729062718794
 40
1.0
 40
1.0
 40
1.0
 40
1.0
 10
-554.5734731196336
 20
-0.6654594829222389
 30
0.0
 10
-554.5746033939697
 20
-0.4880211597984661
 30
0.0
 10
-554.5768315935576
 20
-0.1382228976735764
 30
0.0
 10
-554.5750860353589
 20
0.3776102367551715
 30
0.0
 10
-554.5708739851361
 20
0.8763546458898072
 30
0.0
 10
-554.5583880238348
 20
1.356608152460194
 30
0.0
 10
-554.5467634403029
 20
1.819868651029348
 30
0.0
 10
-554.5274598556185
 20
2.265903132194761
 30
0.0
 10
-554.5041689810741
 20
2.694745676235486
 30
0.0
 10
-554.4808379442748
 20
3.106083265321442
 30
0.0
 10
-554.4492171004076
 20
3.499992588849813
 30
0.0
 10
-554.4162775065612
 20
3.877128338798856
 30
0.0
 10
-554.3747038461446
 20
4.236635639396602
 30
0.0
 10
-554.3333814072049
 20
4.578191174840325
 30
0.0
 10
-554.2877770064705
 20
4.902676249324458
 30
0.0
 10
-554.2347574970242
 20
5.209399147656304
 30
0.0
 10
-554.1827541748237
 20
5.50005518844798
 30
0.0
 10
-554.1023224486873
 20
5.860232355945923
 30
0.0
 10
-553.9924309879437
 20
6.289172301526821
 30
0.0
 10
-553.8419661742471
 20
6.783706270625218
 30
0.0
 10
-553.6679625545048
 20
7.254157343742025
 30
0.0
 10
-553.4780451315886
 20
7.703132602491153
 30
0.0
 10
-553.2648593898226
 20
8.128218891962444
 30
0.0
 10
-553.0321568962489
 20
8.529730644638546
 30
0.0
 10
-552.7783780560006
 20
8.907454059237798
 30
0.0
 10
-552.5100989939735
 20
9.26237638546688
 30
0.0
 10
-552.2246134857025
 20
9.584994690953543
 30
0.0
 10
-551.923235060225
 20
9.867203087714573
 30
0.0
 10
-551.6094759148895
 20
10.1067293626128
 30
0.0
 10
-551.2819360109244
 20
10.30286932927716
 30
0.0
 10
-550.9418494747024
 20
10.45625702550397
 30
0.0
 10
-550.589473414383
 20
10.56677724292225
 30
0.0
 10
-550.2248590930432
 20
10.63858552828539
 30
0.0
 10
-549.9768621783589
 20
10.64852001860442
 30
0.0
 10
-549.8515087127287
 20
10.65354154394212
 30
0.0
  0
SPLINE
  5
16E
330
1F
100
AcDbEntity
  8
0
  6
Continuous
 62
     7
370
    25
100
AcDbSpline
210
0.0
220
0.0
230
1.0
 70
     8
 71
     3
 72
    23
 73
    19
 74
     0
 42
0.000000001
 43
0.00000001
 40
0.0
 40
0.0
 40
0.0
 40
0.0
 40
0.0657223151915757
 40
0.1295079307025746
 40
0.1917221026921674
 40
0.2531611245021116
 40
0.314315703735261
 40
0.3759517397728812
 40
0.4386196008234128
 40
0.5029729018927948
 40
0.5671286457242729
 40
0.62955228957967
 40
0.6904767824348841
 40
0.7510723384108375
 40
0.8116678943867873
 40
0.872929355587391
 40
0.9355013707158076
 40
1.0
 40
1.0
 40
1.0
 40
1.0
 10
560.2363920426409
 20
121.231248645359
 30
0.0
 10
560.2970120107383
 20
121.2302592413984
 30
0.0
 10
560.4164656027893
 20
121.2283095891502
 30
0.0
 10
560.592177155246
 20
121.2056185345791
 30
0.0
 10
560.7608131222204
 20
121.1664490363456
 30
0.0
 10
560.9227465085193
 20
121.1117682830937
 30
0.0
 10
561.0772124825247
 20
121.0394741378184
 30
0.0
 10
561.2251735918602
 20
120.9519786738834
 30
0.0
 10
561.3652828982579
 20
120.8469194398937
 30
0.0
 10
561.4974336595145
 20
120.7281794417228
 30
0.0
 10
561.617580130791
 20
120.5971983051398
 30
0.0
 10
561.7236529392356
 20
120.4582522422512
 30
0.0
 10
561.8137704232836
 20
120.3119686099989
 30
0.0
 10
561.8878900841911
 20
120.1585624337048
 30
0.0
 10
561.9457563791184
 20
119.9977005095553
 30
0.0
 10
561.9870340209114
 20
119.8297782224165
 30
0.0
 10
562.0127205092361
 20
119.6548161730804
 30
0.0
 10
562.0167993325048
 20
119.5356968005432
 30
0.0
 10
562.0188696652017
 20
119.4752340848204
 30
0.0
  0
SPLINE
  5
16F
330
1F
100
AcDbEntity
  8
0
  6
Continuous
 62
     7
370
    25
100
AcDbSpline
210
0.0
220
0.0
230
1.0
 70
     8
 71
     3
 72
    23
 73
    19
 74
     0
 42
0.000000001
 43
0.00000001
 40
0.0
 40
0.0
 40
0.0
 40
0.0
 40
0.0633955966615918
 40
0.1251572666424244
 40
0.1856494665262529
 40
0.2459766793408251
 40
0.3061083686579624
 40
0.3673505880891746
 40
0.4299020782799305
 40
0.4945399581832011
 40
0.5593725826940414
 40
0.622409685845748
 40
0.6843574258194687
 40
0.745806600772221
 40
0.8074302750159065
 40
0.8699955160697894
 40
0.9339278677192967
 40
1.0
 40
1.0
 40
1.0
 40
1.0
 10
558.4628840106897
 20
119.4341069851534
 30
0.0
 10
558.4639136309461
 20
119.4939184697783
 30
0.0
 10
558.4659463345371
 20
119.6119998874743
 30
0.0
 10
558.4895733210045
 20
119.7858657365839
 30
0.0
 10
558.529023071628
 20
119.9535879283843
 30
0.0
 10
558.5844518315364
 20
120.1150923966543
 30
0.0
 10
558.6574001572424
 20
120.2699918976354
 30
0.0
 10
558.745759397417
 20
120.4188086589727
 30
0.0
 10
558.851224667462
 20
120.5610301631796
 30
0.0
 10
558.971320413086
 20
120.6951847981257
 30
0.0
 10
559.1020982481216
 20
120.8193698940296
 30
0.0
 10
559.2431167329587
 20
120.9272591428102
 30
0.0
 10
559.3906931994962
 20
121.0195420642218
 30
0.0
 10
559.5452239952156
 20
121.0963553289402
 30
0.0
 10
559.7078033139488
 20
121.1553210717349
 30
0.0
 10
559.8775928998286
 20
121.1972684381701
 30
0.0
 10
560.054521981305
 20
121.2249102178375
 30
0.0
 10
560.1751071072788
 20
121.2291127791361
 30
0.0
 10
560.2363920426409
 20
121.231248645359
 30
0.0
  0
SPLINE
  5
170
330
1F
100
AcDbEntity
  8
0
  6
Continuous
 62
     7
370
    25
100
AcDbSpline
210
0.0
220
0.0
230
1.0
 70
     8
 71
     3
 72
    31
 73
    27
 74
     0
 42
0.000000001
 43
0.00000001
 40
0.0
 40
0.0
 40
0.0
 40
0.0
 40
0.0431143456619578
 40
0.0856827648242168
 40
0.1275943241639205
 40
0.1690586225605273
 40
0.2104320288213115
 40
0.2518111664630429
 40
0.2934438397982161
 40
0.3353808532218233
 40
0.3774766059607824
 40
0.4186884906768059
 40
0.459873033671199
 40
0.5008729046253072
 40
0.5418727755794159
 40
0.5832117768673291
 40
0.6247632017340737
 40
0.6669876223820845
 40
0.7093697058942319
 40
0.7511026519448484
 40
0.7925683801202239
 40
0.833545108550261
 40
0.8748274225565273
 40
0.9160177232110684
 40
0.9578592039763052
 40
0.9999999999999999
 40
0.9999999999999999
 40
0.9999999999999999
 40
0.9999999999999999
 10
560.2543237751959
 20
117.6595805299026
 30
0.0
 10
560.2143088244653
 20
117.6596965946683
 30
0.0
 10
560.1347856040558
 20
117.6599272545535
 30
0.0
 10
560.016845442
 20
117.6712815861639
 30
0.0
 10
559.9011597613285
 20
117.6881810258484
 30
0.0
 10
559.7881633376948
 20
117.7137676250487
 30
0.0
 10
559.6770846439522
 20
117.7451161134026
 30
0.0
 10
559.568923301246
 20
117.7860975589597
 30
0.0
 10
559.4625587557299
 20
117.8329165635596
 30
0.0
 10
559.3592241031257
 20
117.8878339677692
 30
0.0
 10
559.2598807365737
 20
117.9490556140166
 30
0.0
 10
559.1649997571715
 20
118.0159918230609
 30
0.0
 10
559.0757202368816
 20
118.0888249698714
 30
0.0
 10
558.9914614219972
 20
118.1673115695128
 30
0.0
 10
558.9127705968997
 20
118.2517306492421
 30
0.0
 10
558.8385529739019
 20
118.3409500187142
 30
0.0
 10
558.7707459416093
 20
118.4367344886209
 30
0.0
 10
558.7077303546597
 20
118.5369559557631
 30
0.0
 10
558.6506353559885
 20
118.6410572952577
 30
0.0
 10
558.6018813597874
 20
118.7486370579485
 30
0.0
 10
558.5591827848472
 20
118.8574452996267
 30
0.0
 10
558.5252716916291
 20
118.9689692673004
 30
0.0
 10
558.4974685791957
 20
119.0819827173126
 30
0.0
 10
558.4787437709513
 20
119.1977263266232
 30
0.0
 10
558.4654247904509
 20
119.3151151971572
 30
0.0
 10
558.4637329472029
 20
119.3943489253899
 30
0.0
 10
558.4628840106897
 20
119.4341069851534
 30
0.0
  0
SPLINE
  5
171
330
1F
100
AcDbEntity
  8
0
  6
Continuous
 62
     7
370
    25
100
AcDbSpline
210
0.0
220
0.0
230
1.0
 70
     8
 71
     3
 72
    23
 73
    19
 74
     0
 42
0.000000001
 43
0.00000001
 40
0.0
 40
0.0
 40
0.0
 40
0.0
 40
0.0667486513092655
 40
0.1311519760901745
 40
0.19373219705709
 40
0.2553255433785925
 40
0.3163881857773738
 40
0.3780268629068886
 40
0.4404056792053952
 40
0.504557429324088
 40
0.5686582873620105
 40
0.6309861790899878
 40
0.6922881348732944
 40
0.752615446979616
 40
0.8131995384355553
 40
0.8740161248607896
 40
0.9361583555105166
 40
1.0
 40
1.0
 40
1.0
 40
1.0
 10
562.0188696652017
 20
119.4752340848204
 30
0.0
 10
562.0179814244202
 20
119.411966159352
 30
0.0
 10
562.0162361526966
 20
119.287653333766
 30
0.0
 10
561.9913934674493
 20
119.1054934081112
 30
0.0
 10
561.9531493841814
 20
118.9308210106203
 30
0.0
 10
561.8952895590514
 20
118.7650367661747
 30
0.0
 10
561.8225582166721
 20
118.6065067548282
 30
0.0
 10
561.7326133247176
 20
118.456366377091
 30
0.0
 10
561.6256051438751
 20
118.3146673154286
 30
0.0
 10
561.5042972343315
 20
118.1822443261905
 30
0.0
 10
561.3713561893381
 20
118.0620335988189
 30
0.0
 10
561.230745527178
 20
117.9556865430025
 30
0.0
 10
561.0835255959677
 20
117.8656883376977
 30
0.0
 10
560.9296271788522
 20
117.7920350383842
 30
0.0
 10
560.7700199555663
 20
117.7335789263613
 30
0.0
 10
560.6037167624347
 20
117.6917963554479
 30
0.0
 10
560.4311200194297
 20
117.6663552585867
 30
0.0
 10
560.3137834463379
 20
117.6618589897272
 30
0.0
 10
560.2543237751959
 20
117.6595805299026
 30
0.0
  0
SPLINE
  5
1A1
330
1F
100
AcDbEntity
  8
0
  6
Continuous
 62
     7
370
    25
100
AcDbSpline
210
0.0
220
0.0
230
1.0
 70
     8
 71
     3
 72
    31
 73
    27
 74
     0
 42
0.000000001
 43
0.00000001
 40
0.0
 40
0.0
 40
0.0
 40
0.0
 40
0.0431143456619578
 40
0.0856827648242168
 40
0.1275943241639205
 40
0.1690586225605273
 40
0.2104320288213115
 40
0.2518111664630429
 40
0.2934438397982161
 40
0.3353808532218233
 40
0.3774766059607824
 40
0.4186884906768059
 40
0.459873033671199
 40
0.5008729046253072
 40
0.5418727755794159
 40
0.5832117768673291
 40
0.6247632017340737
 40
0.6669876223820845
 40
0.7093697058942319
 40
0.7511026519448484
 40
0.7925683801202239
 40
0.833545108550261
 40
0.8748274225565273
 40
0.9160177232110684
 40
0.9578592039763052
 40
0.9999999999999999
 40
0.9999999999999999
 40
0.9999999999999999
 40
0.9999999999999999
 10
560.6166156236771
 20
117.6415939108727
 30
0.0
 10
560.5766006729466
 20
117.6417099756384
 30
0.0
 10
560.4970774525369
 20
117.6419406355236
 30
0.0
 10
560.3791372904811
 20
117.653294967134
 30
0.0
 10
560.2634516098097
 20
117.6701944068185
 30
0.0
 10
560.150455186176
 20
117.6957810060188
 30
0.0
 10
560.0393764924333
 20
117.7271294943727
 30
0.0
 10
559.9312151497272
 20
117.7681109399298
 30
0.0
 10
559.8248506042112
 20
117.8149299445297
 30
0.0
 10
559.7215159516069
 20
117.8698473487393
 30
0.0
 10
559.6221725850548
 20
117.9310689949867
 30
0.0
 10
559.5272916056527
 20
117.998005204031
 30
0.0
 10
559.4380120853629
 20
118.0708383508415
 30
0.0
 10
559.3537532704785
 20
118.1493249504829
 30
0.0
 10
559.275062445381
 20
118.2337440302122
 30
0.0
 10
559.200844822383
 20
118.3229633996843
 30
0.0
 10
559.1330377900906
 20
118.418747869591
 30
0.0
 10
559.070022203141
 20
118.5189693367332
 30
0.0
 10
559.0129272044697
 20
118.6230706762278
 30
0.0
 10
558.9641732082687
 20
118.7306504389186
 30
0.0
 10
558.9214746333284
 20
118.8394586805968
 30
0.0
 10
558.8875635401104
 20
118.9509826482705
 30
0.0
 10
558.859760427677
 20
119.0639960982827
 30
0.0
 10
558.8410356194325
 20
119.1797397075932
 30
0.0
 10
558.8277166389322
 20
119.2971285781273
 30
0.0
 10
558.8260247956841
 20
119.37636230636
 30
0.0
 10
558.8251758591709
 20
119.4161203661235
 30
0.0
  0
SPLINE
  5
1A2
330
1F
100
AcDbEntity
  8
0
  6
Continuous
 62
     7
370
    25
100
AcDbSpline
210
0.0
220
0.0
230
1.0
 70
     8
 71
     3
 72
    23
 73
    19
 74
     0
 42
0.000000001
 43
0.00000001
 40
0.0
 40
0.0
 40
0.0
 40
0.0
 40
0.0633955966615918
 40
0.1251572666424244
 40
0.1856494665262529
 40
0.2459766793408251
 40
0.3061083686579624
 40
0.3673505880891746
 40
0.4299020782799305
 40
0.4945399581832011
 40
0.5593725826940414
 40
0.622409685845748
 40
0.6843574258194687
 40
0.745806600772221
 40
0.8074302750159065
 40
0.8699955160697894
 40
0.9339278677192967
 40
1.0
 40
1.0
 40
1.0
 40
1.0
 10
558.8251758591709
 20
119.4161203661235
 30
0.0
 10
558.8262054794272
 20
119.4759318507484
 30
0.0
 10
558.8282381830184
 20
119.5940132684444
 30
0.0
 10
558.8518651694857
 20
119.767879117554
 30
0.0
 10
558.8913149201093
 20
119.9356013093544
 30
0.0
 10
558.9467436800177
 20
120.0971057776244
 30
0.0
 10
559.0196920057236
 20
120.2520052786054
 30
0.0
 10
559.1080512458982
 20
120.4008220399428
 30
0.0
 10
559.2135165159433
 20
120.5430435441497
 30
0.0
 10
559.3336122615672
 20
120.6771981790958
 30
0.0
 10
559.4643900966029
 20
120.8013832749997
 30
0.0
 10
559.60540858144
 20
120.9092725237803
 30
0.0
 10
559.7529850479774
 20
121.0015554451919
 30
0.0
 10
559.9075158436968
 20
121.0783687099103
 30
0.0
 10
560.0700951624301
 20
121.137334452705
 30
0.0
 10
560.2398847483099
 20
121.1792818191402
 30
0.0
 10
560.4168138297863
 20
121.2069235988075
 30
0.0
 10
560.5373989557601
 20
121.2111261601062
 30
0.0
 10
560.5986838911222
 20
121.2132620263291
 30
0.0
  0
SPLINE
  5
1A9
330
1F
100
AcDbEntity
  8
0
  6
Continuous
 62
     7
370
    25
100
AcDbSpline
210
0.0
220
0.0
230
1.0
 70
     8
 71
     3
 72
    31
 73
    27
 74
     0
 42
0.000000001
 43
0.00000001
 40
0.0
 40
0.0
 40
0.0
 40
0.0
 40
0.0728890266200389
 40
0.1401861299444906
 40
0.2022774341249636
 40
0.2588951317514667
 40
0.3104829424654768
 40
0.3570952441313369
 40
0.3985135666534652
 40
0.4350375108701152
 40
0.4692514858292801
 40
0.5028050278902668
 40
0.5362104463185475
 40
0.5693793599391899
 40
0.60280147504837
 40
0.6366657983367859
 40
0.6709286568940439
 40
0.7058030002293045
 40
0.7411890612458595
 40
0.7763043110764335
 40
0.8120043009129485
 40
0.8479689758088952
 40
0.8845217611964666
 40
0.9219741585441782
 40
0.9601981758095666
 40
1.0
 40
1.0
 40
1.0
 40
1.0
 10
558.8862182110103
 20
122.5324671476932
 30
0.0
 10
558.8859921383846
 20
122.5800124091478
 30
0.0
 10
558.8855573370441
 20
122.6714553397176
 30
0.0
 10
558.8895063350668
 20
122.8033577682332
 30
0.0
 10
558.8955158934349
 20
122.9245526054139
 30
0.0
 10
558.9052990043888
 20
123.0352366887299
 30
0.0
 10
558.9186547340853
 20
123.1353606570494
 30
0.0
 10
558.9346329103566
 20
123.2250150207746
 30
0.0
 10
558.9530331272074
 20
123.3041951181673
 30
0.0
 10
558.9762025974218
 20
123.373591103033
 30
0.0
 10
559.002466016804
 20
123.4362722094207
 30
0.0
 10
559.0327547758874
 20
123.4947590062515
 30
0.0
 10
559.0667156755989
 20
123.5503313713489
 30
0.0
 10
559.1052573441569
 20
123.6026294573188
 30
0.0
 10
559.1476750082758
 20
123.6520971321553
 30
0.0
 10
559.1940110097274
 20
123.6988273348903
 30
0.0
 10
559.2446668824279
 20
123.7421705085388
 30
0.0
 10
559.2993225008094
 20
123.7818582044346
 30
0.0
 10
559.3568643067904
 20
123.8181092377978
 30
0.0
 10
559.4173773023666
 20
123.8502461503188
 30
0.0
 10
559.480918124712
 20
123.876526255619
 30
0.0
 10
559.5465414696567
 20
123.8998443114409
 30
0.0
 10
559.6152157441823
 20
123.9168581105907
 30
0.0
 10
559.6862598040897
 20
123.9289286521936
 30
0.0
 10
559.7599081582078
 20
123.9379870842328
 30
0.0
 10
559.8099841710264
 20
123.9389759096308
 30
0.0
 10
559.8355284858479
 20
123.939480320143
 30
0.0
  0
SPLINE
  5
1E8
330
1F
100
AcDbEntity
  8
0
  6
Continuous
 62
     7
370
    25
100
AcDbSpline
210
0.0
220
0.0
230
1.0
 70
     8
 71
     3
 72
    39
 73
    35
 74
     0
 42
0.000000001
 43
0.00000001
 40
0.0
 40
0.0
 40
0.0
 40
0.0
 40
0.0394569160551793
 40
0.07778455308824
 40
0.114702397014058
 40
0.1503586267142288
 40
0.1846063448320806
 40
0.2177425154103592
 40
0.2496239421290007
 40
0.2801035239467933
 40
0.3093474039546106
 40
0.3374913941560149
 40
0.3642769087161066
 40
0.3898179236964932
 40
0.4139993853790757
 40
0.4371347009724291
 40
0.4590454868141294
 40
0.4796625245629758
 40
0.5192174011962671
 40
0.5575458209504784
 40
0.5946568338129159
 40
0.6308707389899181
 40
0.666103203532352
 40
0.7006161908362573
 40
0.7343540925667337
 40
0.7676831469835519
 40
0.8000093827757848
 40
0.8306512652276471
 40
0.860097225571405
 40
0.8884789847744335
 40
0.9163519843306857
 40
0.9439582159836366
 40
0.9716729062718794
 40
1.0
 40
1.0
 40
1.0
 40
1.0
 10
-554.2111812711523
 20
-0.6834461019521484
 30
0.0
 10
-554.2123115454884
 20
-0.5060077788283757
 30
0.0
 10
-554.2145397450764
 20
-0.1562095167034859
 30
0.0
 10
-554.2127941868778
 20
0.359623617725262
 30
0.0
 10
-554.208582136655
 20
0.8583680268598975
 30
0.0
 10
-554.1960961753535
 20
1.338621533430285
 30
0.0
 10
-554.1844715918218
 20
1.801882031999439
 30
0.0
 10
-554.1651680071374
 20
2.247916513164851
 30
0.0
 10
-554.1418771325929
 20
2.676759057205576
 30
0.0
 10
-554.1185460957935
 20
3.088096646291532
 30
0.0
 10
-554.0869252519263
 20
3.482005969819904
 30
0.0
 10
-554.0539856580799
 20
3.859141719768946
 30
0.0
 10
-554.0124119976634
 20
4.218649020366693
 30
0.0
 10
-553.9710895587236
 20
4.560204555810416
 30
0.0
 10
-553.9254851579892
 20
4.884689630294549
 30
0.0
 10
-553.872465648543
 20
5.191412528626395
 30
0.0
 10
-553.8204623263424
 20
5.482068569418072
 30
0.0
 10
-553.7400306002061
 20
5.842245736916014
 30
0.0
 10
-553.6301391394625
 20
6.271185682496911
 30
0.0
 10
-553.4796743257658
 20
6.765719651595309
 30
0.0
 10
-553.3056707060235
 20
7.236170724712116
 30
0.0
 10
-553.1157532831073
 20
7.685145983461243
 30
0.0
 10
-552.9025675413413
 20
8.110232272932535
 30
0.0
 10
-552.6698650477678
 20
8.511744025608637
 30
0.0
 10
-552.4160862075194
 20
8.889467440207888
 30
0.0
 10
-552.1478071454923
 20
9.24438976643697
 30
0.0
 10
-551.8623216372213
 20
9.567008071923635
 30
0.0
 10
-551.5609432117437
 20
9.849216468684663
 30
0.0
 10
-551.2471840664082
 20
10.08874274358289
 30
0.0
 10
-550.9196441624431
 20
10.28488271024725
 30
0.0
 10
-550.5795576262211
 20
10.43827040647406
 30
0.0
 10
-550.2271815659017
 20
10.54879062389234
 30
0.0
 10
-549.862567244562
 20
10.62059890925548
 30
0.0
 10
-549.6145703298777
 20
10.6305333995745
 30
0.0
 10
-549.4892168642475
 20
10.63555492491221
 30
0.0
  0
SPLINE
  5
1ED
330
1F
100
AcDbEntity
  8
0
  6
Continuous
 62
     7
370
    25
100
AcDbSpline
210
0.0
220
0.0
230
1.0
 70
     8
 71
     3
 72
    39
 73
    35
 74
     0
 42
0.000000001
 43
0.00000001
 40
0.0
 40
0.0
 40
0.0
 40
0.0
 40
0.0452421194331613
 40
0.0887850425172146
 40
0.1306330832850868
 40
0.1707860462595407
 40
0.209457791146569
 40
0.2462254259412723
 40
0.2815250751322916
 40
0.3153397098275421
 40
0.3472707283590676
 40
0.3775221687719219
 40
0.4063094936696929
 40
0.4334254988989635
 40
0.4588756521858962
 40
0.4828770754482844
 40
0.5050168613896482
 40
0.5257627833368775
 40
0.5646746861703722
 40
0.6022320165081652
 40
0.6381034341214796
 40
0.6725839363753654
 40
0.7057744212469471
 40
0.7379769705217335
 40
0.7689396130993476
 40
0.7989905520936037
 40
0.8278185945858382
 40
0.8548546212550777
 40
0.8806638649256718
 40
0.9052309793187236
 40
0.9290749341193697
 40
0.9525835249230983
 40
0.9759525690772113
 40
1.0
 40
1.0
 40
1.0
 40
1.0
 10
-554.4319526684176
 20
26.08982759274434
 30
0.0
 10
-554.4323600971222
 20
26.22529346112041
 30
0.0
 10
-554.4331596523889
 20
26.49113739226447
 30
0.0
 10
-554.4357655542999
 20
26.88228390531135
 30
0.0
 10
-554.4324832153428
 20
27.25819663613028
 30
0.0
 10
-554.4282379003716
 20
27.61950756068765
 30
0.0
 10
-554.4215030854307
 20
27.96556538530444
 30
0.0
 10
-554.4139488164864
 20
28.29708874356645
 30
0.0
 10
-554.4000050472227
 20
28.61384328365108
 30
0.0
 10
-554.3892130545377
 20
28.91623269727655
 30
0.0
 10
-554.3719854629077
 20
29.20318833863687
 30
0.0
 10
-554.353772952084
 20
29.47497778952401
 30
0.0
 10
-554.3335088129885
 20
29.73216748898043
 30
0.0
 10
-554.3112368943888
 20
29.97475276668597
 30
0.0
 10
-554.2868144506248
 20
30.20272149200535
 30
0.0
 10
-554.2606916172957
 20
30.41548051812634
 30
0.0
 10
-554.2328257530321
 20
30.61382888811125
 30
0.0
 10
-554.1895820452814
 20
30.85487963165209
 30
0.0
 10
-554.1316279755913
 20
31.14009878458603
 30
0.0
 10
-554.0505537191642
 20
31.46649840941384
 30
0.0
 10
-553.957223865085
 20
31.77565444726825
 30
0.0
 10
-553.8529553590107
 20
32.06734803407987
 30
0.0
 10
-553.7364671293749
 20
32.34229431299961
 30
0.0
 10
-553.6102238242929
 20
32.60111525493659
 30
0.0
 10
-553.4707395250337
 20
32.84200833643799
 30
0.0
 10
-553.3214530376899
 20
33.06463705373115
 30
0.0
 10
-553.162960446292
 20
33.26573621874662
 30
0.0
 10
-552.9971282084214
 20
33.44375856510008
 30
0.0
 10
-552.8213965100786
 20
33.59248674295297
 30
0.0
 10
-552.6392923050747
 20
33.71651490215344
 30
0.0
 10
-552.4490505786065
 20
33.8130267076081
 30
0.0
 10
-552.2514802552134
 20
33.88180208117112
 30
0.0
 10
-552.0462265052547
 20
33.92605138085809
 30
0.0
 10
-551.9065146610876
 20
33.93230890260606
 30
0.0
 10
-551.8356593114173
 20
33.93548242661304
 30
0.0
  0
LINE
  5
1F3
330
1F
100
AcDbEntity
  8
0
  6
Continuous
 62
     7
370
    25
100
AcDbLine
 10
560.6880948971
 20
120.5933739215
 30
0.0
 11
560.3258030487
 21
120.6113605405
 31
0.0
  0
LINE
  5
1F4
330
1F
100
AcDbEntity
  8
0
  6
Continuous
 62
     7
370
    25
100
AcDbLine
 10
560.1589744827
 20
118.2795775029
 30
0.0
 11
560.5212663312
 21
118.2615908838
 31
0.0
  0
LINE
  5
1F5
330
1F
100
AcDbEntity
  8
0
  6
Continuous
 62
     7
370
    25
100
AcDbLine
 10
-549.3160408489
 20
6.9674827162
 30
0.0
 11
-549.6783326974
 21
6.9854693353
 31
0.0
  0
LINE
  5
1F6
330
1F
100
AcDbEntity
  8
0
  6
Continuous
 62
     7
370
    25
100
AcDbLine
 10
561.4117604169
 20
119.4669689024
 30
0.0
 11
561.7740522654
 21
119.4489822834
 31
0.0
  0
LINE
  5
1F7
330
1F
100
AcDbEntity
  8
0
  6
Continuous
 62
     7
370
    25
100
AcDbLine
 10
561.1577899304
 20
118.7092161549
 30
0.0
 11
561.5200817789
 21
118.6912295359
 31
0.0
  0
LINE
  5
1F8
330
1F
100
AcDbEntity
  8
0
  6
Continuous
 62
     7
370
    25
100
AcDbLine
 10
560.2573646571
 20
118.2769685701
 30
0.0
 11
560.6196565056
 21
118.258981951
 31
0.0
  0
LINE
  5
1F9
330
1F
100
AcDbEntity
  8
0
  6
Continuous
 62
     7
370
    25
100
AcDbLine
 10
559.8257520773
 20
122.4617703033
 30
0.0
 11
559.8237693702
 21
122.702216123
 31
0.0
  0
LINE
  5
1FA
330
1F
100
AcDbEntity
  8
0
  6
Continuous
 62
     7
370
    25
100
AcDbLine
 10
559.8237693702
 20
122.702216123
 30
0.0
 11
560.1860612187
 21
122.684229504
 31
0.0
  0
LINE
  5
1FB
330
1F
100
AcDbEntity
  8
0
  6
Continuous
 62
     7
370
    25
100
AcDbLine
 10
560.1880439258
 20
122.4437836843
 30
0.0
 11
560.1860612187
 21
122.684229504
 31
0.0
  0
LINE
  5
1FC
330
1F
100
AcDbEntity
  8
0
  6
Continuous
 62
     7
370
    25
100
AcDbLine
 10
559.8257520773
 20
122.4617703033
 30
0.0
 11
560.1880439258
 21
122.4437836843
 31
0.0
  0
LINE
  5
1FD
330
1F
100
AcDbEntity
  8
0
  6
Continuous
 62
     7
370
    25
100
AcDbLine
 10
559.1318934583
 20
122.4546865171
 30
0.0
 11
559.8257520773
 21
122.4617703033
 31
0.0
  0
LINE
  5
1FE
330
1F
100
AcDbEntity
  8
0
  6
Continuous
 62
     7
370
    25
100
AcDbLine
 10
559.13016072
 20
122.6648182507
 30
0.0
 11
559.1318934583
 21
122.4546865171
 31
0.0
  0
LINE
  5
1FF
330
1F
100
AcDbEntity
  8
0
  6
Continuous
 62
     7
370
    25
100
AcDbLine
 10
559.4941853068
 20
122.4366998981
 30
0.0
 11
560.1880439258
 21
122.4437836843
 31
0.0
  0
LINE
  5
200
330
1F
100
AcDbEntity
  8
0
  6
Continuous
 62
     7
370
    25
100
AcDbLine
 10
559.1318934583
 20
122.4546865171
 30
0.0
 11
559.4941853068
 21
122.4366998981
 31
0.0
  0
LINE
  5
201
330
1F
100
AcDbEntity
  8
0
  6
Continuous
 62
     7
370
    25
100
AcDbLine
 10
559.4701957555
 20
123.340078899
 30
0.0
 11
559.8324876039
 21
123.32209228
 31
0.0
  0
LINE
  5
202
330
1F
100
AcDbEntity
  8
0
  6
Continuous
 62
     7
370
    25
100
AcDbLine
 10
560.58168701
 20
125.4598107874
 30
0.0
 11
560.5731880707
 21
126.4904897165
 31
0.0
  0
LINE
  5
203
330
1F
100
AcDbEntity
  8
0
  6
Continuous
 62
     7
370
    25
100
AcDbLine
 10
560.5731880707
 20
126.4904897165
 30
0.0
 11
560.9354799192
 21
126.4725030975
 31
0.0
  0
LINE
  5
204
330
1F
100
AcDbEntity
  8
0
  6
Continuous
 62
     7
370
    25
100
AcDbLine
 10
560.9439788584
 20
125.4418241684
 30
0.0
 11
560.9354799192
 21
126.4725030975
 31
0.0
  0
LINE
  5
205
330
1F
100
AcDbEntity
  8
0
  6
Continuous
 62
     7
370
    25
100
AcDbLine
 10
560.58168701
 20
125.4598107874
 30
0.0
 11
560.9439788584
 21
125.4418241684
 31
0.0
  0
LINE
  5
206
330
1F
100
AcDbEntity
  8
0
  6
Continuous
 62
     7
370
    25
100
AcDbLine
 10
560.5731880707
 20
126.4904897165
 30
0.0
 11
559.4031631392
 21
125.963161774
 31
0.0
  0
LINE
  5
207
330
1F
100
AcDbEntity
  8
0
  6
Continuous
 62
     7
370
    25
100
AcDbLine
 10
559.4031631392
 20
125.963161774
 30
0.0
 11
560.58168701
 21
125.4598107874
 31
0.0
  0
LINE
  5
208
330
1F
100
AcDbEntity
  8
0
  6
Continuous
 62
     7
370
    25
100
AcDbLine
 10
-551.1885279348
 20
25.7820982951
 30
0.0
 11
-551.1986752697
 21
27.0126806035
 31
0.0
  0
LINE
  5
209
330
1F
100
AcDbEntity
  8
0
  6
Continuous
 62
     7
370
    25
100
AcDbLine
 10
-551.1986752697
 20
27.0126806035
 30
0.0
 11
-550.8363834212
 21
26.9946939845
 31
0.0
  0
LINE
  5
20A
330
1F
100
AcDbEntity
  8
0
  6
Continuous
 62
     7
370
    25
100
AcDbLine
 10
-550.8262360863
 20
25.7641116761
 30
0.0
 11
-550.8363834212
 21
26.9946939845
 31
0.0
  0
LINE
  5
20B
330
1F
100
AcDbEntity
  8
0
  6
Continuous
 62
     7
370
    25
100
AcDbLine
 10
-551.1885279348
 20
25.7820982951
 30
0.0
 11
-550.8262360863
 21
25.7641116761
 31
0.0
  0
LINE
  5
20C
330
1F
100
AcDbEntity
  8
0
  6
Continuous
 62
     7
370
    25
100
AcDbLine
 10
-553.1099825719
 20
25.7624816565
 30
0.0
 11
-551.1885279348
 21
25.7820982951
 31
0.0
  0
LINE
  5
20D
330
1F
100
AcDbEntity
  8
0
  6
Continuous
 62
     7
370
    25
100
AcDbLine
 10
-553.1188713227
 20
26.840433601
 30
0.0
 11
-553.1099825719
 21
25.7624816565
 31
0.0
  0
LINE
  5
20E
330
1F
100
AcDbEntity
  8
0
  6
Continuous
 62
     7
370
    25
100
AcDbLine
 10
-552.7476907235
 20
25.7444950375
 30
0.0
 11
-550.8262360863
 21
25.7641116761
 31
0.0
  0
LINE
  5
20F
330
1F
100
AcDbEntity
  8
0
  6
Continuous
 62
     7
370
    25
100
AcDbLine
 10
-553.1099825719
 20
25.7624816565
 30
0.0
 11
-552.7476907235
 21
25.7444950375
 31
0.0
  0
LINE
  5
210
330
1F
100
AcDbEntity
  8
0
  6
Continuous
 62
     7
370
    25
100
AcDbLine
 10
-552.1902621861
 20
30.2901104313
 30
0.0
 11
-551.8279703377
 21
30.2721238123
 31
0.0
  0
LINE
  5
211
330
1F
100
AcDbEntity
  8
0
  6
Continuous
 62
     7
370
    25
100
AcDbLine
 10
-546.8809054133
 20
-1.4054732544
 30
0.0
 11
-546.8958353681
 21
0.4051044365
 31
0.0
  0
LINE
  5
212
330
1F
100
AcDbEntity
  8
0
  6
Continuous
 62
     7
370
    25
100
AcDbLine
 10
-552.8854511544
 20
-1.4667752501
 30
0.0
 11
-546.8809054133
 21
-1.4054732544
 31
0.0
  0
LINE
  5
213
330
1F
100
AcDbEntity
  8
0
  6
Continuous
 62
     7
370
    25
100
AcDbLine
 10
-552.8963536399
 20
-0.1446147235
 30
0.0
 11
-552.8854511544
 21
-1.4667752501
 31
0.0
  0
LINE
  5
214
330
1F
100
AcDbEntity
  8
0
  6
Continuous
 62
     7
370
    25
100
AcDbLine
 10
-546.8809054133
 20
-1.4054732544
 30
0.0
 11
-546.5186135648
 21
-1.4234598734
 31
0.0
  0
LINE
  5
215
330
1F
100
AcDbEntity
  8
0
  6
Continuous
 62
     7
370
    25
100
AcDbLine
 10
-552.523159306
 20
-1.4847618692
 30
0.0
 11
-546.5186135648
 21
-1.4234598734
 31
0.0
  0
LINE
  5
216
330
1F
100
AcDbEntity
  8
0
  6
Continuous
 62
     7
370
    25
100
AcDbLine
 10
-552.8854511544
 20
-1.4667752501
 30
0.0
 11
-552.523159306
 21
-1.4847618692
 31
0.0
  0
LINE
  5
217
330
1F
100
AcDbEntity
  8
0
  6
Continuous
 62
     7
370
    25
100
AcDbLine
 10
-546.8958353681
 20
0.4051044365
 30
0.0
 11
-546.5335435196
 21
0.3871178175
 31
0.0
  0
LINE
  5
218
330
1F
100
AcDbEntity
  8
0
  6
Continuous
 62
     7
370
    25
100
AcDbLine
 10
-546.5186135648
 20
-1.4234598734
 30
0.0
 11
-546.5335435196
 21
0.3871178175
 31
0.0
  0
LINE
  5
219
330
1F
100
AcDbEntity
  8
0
  6
Continuous
 62
     7
370
    25
100
AcDbLine
 10
-548.6934453221
 20
-14.6333400027
 30
0.0
 11
-551.9228006651
 21
-17.3928987386
 31
0.0
  0
LINE
  5
21A
330
1F
100
AcDbEntity
  8
0
  6
Continuous
 62
     7
370
    25
100
AcDbLine
 10
-548.6484824023
 20
-20.0860597504
 30
0.0
 11
-548.6934453221
 21
-14.6333400027
 31
0.0
  0
LINE
  5
21B
330
1F
100
AcDbEntity
  8
0
  6
Continuous
 62
     7
370
    25
100
AcDbLine
 10
-551.9228006651
 20
-17.3928987386
 30
0.0
 11
-548.6484824023
 21
-20.0860597504
 31
0.0
  0
LINE
  5
21C
330
1F
100
AcDbEntity
  8
0
  6
Continuous
 62
     7
370
    25
100
AcDbLine
 10
-548.6934453221
 20
-14.6333400027
 30
0.0
 11
-548.3311534736
 21
-14.6513266217
 31
0.0
  0
LINE
  5
21D
330
1F
100
AcDbEntity
  8
0
  6
Continuous
 62
     7
370
    25
100
AcDbLine
 10
-548.2861905538
 20
-20.1040463694
 30
0.0
 11
-548.3311534736
 21
-14.6513266217
 31
0.0
  0
LINE
  5
21E
330
1F
100
AcDbEntity
  8
0
  6
Continuous
 62
     7
370
    25
100
AcDbLine
 10
-548.6484824023
 20
-20.0860597504
 30
0.0
 11
-548.2861905538
 21
-20.1040463694
 31
0.0
  0
LINE
  5
21F
330
1F
100
AcDbEntity
  8
0
  6
Continuous
 62
     7
370
    25
100
AcDbLine
 10
571.9011871771
 20
-134.1820614371
 30
0.0
 11
571.5388953286
 21
-134.1640748181
 31
0.0
  0
LINE
  5
220
330
1F
100
AcDbEntity
  8
0
  6
Continuous
 62
     7
370
    25
100
AcDbLine
 10
-568.8679438715
 20
-145.8284752418
 30
0.0
 11
571.9011871771
 21
-134.1820614371
 31
0.0
  0
LINE
  5
221
330
1F
100
AcDbEntity
  8
0
  6
Continuous
 62
     7
370
    25
100
AcDbLine
 10
-568.8679438715
 20
-145.8284752418
 30
0.0
 11
-569.23023572
 21
-145.8104886228
 31
0.0
  0
LINE
  5
222
330
1F
100
AcDbEntity
  8
0
  6
Continuous
 62
     7
370
    25
100
AcDbLine
 10
-569.23023572
 20
-145.8104886228
 30
0.0
 11
571.5388953286
 21
-134.1640748181
 31
0.0
  0
LINE
  5
223
330
1F
100
AcDbEntity
  8
0
  6
Continuous
 62
     7
370
    25
100
AcDbLine
 10
569.5925275684
 20
145.7925020038
 30
0.0
 11
569.23023572
 21
145.8104886228
 31
0.0
  0
LINE
  5
224
330
1F
100
AcDbEntity
  8
0
  6
Continuous
 62
     7
370
    25
100
AcDbLine
 10
571.9011871771
 20
-134.1820614371
 30
0.0
 11
569.5925275684
 21
145.7925020038
 31
0.0
  0
LINE
  5
225
330
1F
100
AcDbEntity
  8
0
  6
Continuous
 62
     7
370
    25
100
AcDbLine
 10
571.5388953286
 20
-134.1640748181
 30
0.0
 11
569.23023572
 21
145.8104886228
 31
0.0
  0
LINE
  5
226
330
1F
100
AcDbEntity
  8
0
  6
Continuous
 62
     7
370
    25
100
AcDbLine
 10
560.4328783689
 20
122.4679686162
 30
0.0
 11
561.9073279342
 21
122.4830216618
 31
0.0
  0
LINE
  5
227
330
1F
100
AcDbEntity
  8
0
  6
Continuous
 62
     7
370
    25
100
AcDbLine
 10
560.4311513117
 20
122.6774113932
 30
0.0
 11
560.4328783689
 21
122.4679686162
 31
0.0
  0
LINE
  5
228
330
1F
100
AcDbEntity
  8
0
  6
Continuous
 62
     7
370
    25
100
AcDbLine
 10
561.899351657
 20
123.4503165926
 30
0.0
 11
560.4311513117
 21
122.6774113932
 31
0.0
  0
LINE
  5
229
330
1F
100
AcDbEntity
  8
0
  6
Continuous
 62
     7
370
    25
100
AcDbLine
 10
561.8936932723
 20
124.1365172699
 30
0.0
 11
561.899351657
 21
123.4503165926
 31
0.0
  0
LINE
  5
22A
330
1F
100
AcDbEntity
  8
0
  6
Continuous
 62
     7
370
    25
100
AcDbLine
 10
560.3566735213
 20
123.3270807209
 30
0.0
 11
561.8936932723
 21
124.1365172699
 31
0.0
  0
LINE
  5
22B
330
1F
100
AcDbEntity
  8
0
  6
Continuous
 62
     7
370
    25
100
AcDbLine
 10
558.5298574405
 20
121.8311831772
 30
0.0
 11
558.5239263625
 21
122.5504537667
 31
0.0
  0
LINE
  5
22C
330
1F
100
AcDbEntity
  8
0
  6
Continuous
 62
     7
370
    25
100
AcDbLine
 10
561.912418208
 20
121.8657166348
 30
0.0
 11
558.5298574405
 21
121.8311831772
 31
0.0
  0
LINE
  5
22D
330
1F
100
AcDbEntity
  8
0
  6
Continuous
 62
     7
370
    25
100
AcDbLine
 10
561.9073279342
 20
122.4830216618
 30
0.0
 11
561.912418208
 21
121.8657166348
 31
0.0
  0
LINE
  5
22E
330
1F
100
AcDbEntity
  8
0
  6
Continuous
 62
     7
370
    25
100
AcDbLine
 10
559.636206516
 20
128.765695917
 30
0.0
 11
561.8553344234
 21
128.7883515808
 31
0.0
  0
LINE
  5
22F
330
1F
100
AcDbEntity
  8
0
  6
Continuous
 62
     7
370
    25
100
AcDbLine
 10
561.8425007978
 20
130.3447043219
 30
0.0
 11
559.636206516
 21
128.765695917
 31
0.0
  0
LINE
  5
230
330
1F
100
AcDbEntity
  8
0
  6
Continuous
 62
     7
370
    25
100
AcDbLine
 10
561.8378820561
 20
130.9048259592
 30
0.0
 11
561.8425007978
 21
130.3447043219
 31
0.0
  0
LINE
  5
231
330
1F
100
AcDbEntity
  8
0
  6
Continuous
 62
     7
370
    25
100
AcDbLine
 10
558.4553212885
 20
130.8702925016
 30
0.0
 11
561.8378820561
 21
130.9048259592
 31
0.0
  0
LINE
  5
232
330
1F
100
AcDbEntity
  8
0
  6
Continuous
 62
     7
370
    25
100
AcDbLine
 10
558.4604115623
 20
130.2529874745
 30
0.0
 11
558.4553212885
 21
130.8702925016
 31
0.0
  0
LINE
  5
233
330
1F
100
AcDbEntity
  8
0
  6
Continuous
 62
     7
370
    25
100
AcDbLine
 10
560.6863154328
 20
130.2757123159
 30
0.0
 11
558.4604115623
 21
130.2529874745
 31
0.0
  0
LINE
  5
234
330
1F
100
AcDbEntity
  8
0
  6
Continuous
 62
     7
370
    25
100
AcDbLine
 10
558.4732792745
 20
128.6925009944
 30
0.0
 11
560.6863154328
 21
130.2757123159
 31
0.0
  0
LINE
  5
235
330
1F
100
AcDbEntity
  8
0
  6
Continuous
 62
     7
370
    25
100
AcDbLine
 10
558.4778639296
 20
128.1365130962
 30
0.0
 11
558.4732792745
 21
128.6925009944
 31
0.0
  0
LINE
  5
236
330
1F
100
AcDbEntity
  8
0
  6
Continuous
 62
     7
370
    25
100
AcDbLine
 10
561.8604246971
 20
128.1710465538
 30
0.0
 11
558.4778639296
 21
128.1365130962
 31
0.0
  0
LINE
  5
237
330
1F
100
AcDbEntity
  8
0
  6
Continuous
 62
     7
370
    25
100
AcDbLine
 10
561.8553344234
 20
128.7883515808
 30
0.0
 11
561.8604246971
 21
128.1710465538
 31
0.0
  0
LINE
  5
238
330
1F
100
AcDbEntity
  8
0
  6
Continuous
 62
     7
370
    25
100
AcDbLine
 10
561.2089403054
 20
133.5442206193
 30
0.0
 11
561.816066597
 21
133.5504189322
 31
0.0
  0
LINE
  5
239
330
1F
100
AcDbEntity
  8
0
  6
Continuous
 62
     7
370
    25
100
AcDbLine
 10
561.219120853
 20
132.3096105652
 30
0.0
 11
561.2089403054
 21
133.5442206193
 31
0.0
  0
LINE
  5
23A
330
1F
100
AcDbEntity
  8
0
  6
Continuous
 62
     7
370
    25
100
AcDbLine
 10
560.3084314155
 20
132.3003130958
 30
0.0
 11
561.219120853
 21
132.3096105652
 31
0.0
  0
LINE
  5
23B
330
1F
100
AcDbEntity
  8
0
  6
Continuous
 62
     7
370
    25
100
AcDbLine
 10
560.298250868
 20
133.5349231499
 30
0.0
 11
560.3084314155
 21
132.3003130958
 31
0.0
  0
LINE
  5
23C
330
1F
100
AcDbEntity
  8
0
  6
Continuous
 62
     7
370
    25
100
AcDbLine
 10
559.6911245764
 20
133.528724837
 30
0.0
 11
560.298250868
 21
133.5349231499
 31
0.0
  0
LINE
  5
23D
330
1F
100
AcDbEntity
  8
0
  6
Continuous
 62
     7
370
    25
100
AcDbLine
 10
559.7013051239
 20
132.2941147829
 30
0.0
 11
559.6911245764
 21
133.528724837
 31
0.0
  0
LINE
  5
23E
330
1F
100
AcDbEntity
  8
0
  6
Continuous
 62
     7
370
    25
100
AcDbLine
 10
559.0508126686
 20
132.2874737334
 30
0.0
 11
559.7013051239
 21
132.2941147829
 31
0.0
  0
LINE
  5
23F
330
1F
100
AcDbEntity
  8
0
  6
Continuous
 62
     7
370
    25
100
AcDbLine
 10
559.0406321211
 20
133.5220837875
 30
0.0
 11
559.0508126686
 21
132.2874737334
 31
0.0
  0
LINE
  5
240
330
1F
100
AcDbEntity
  8
0
  6
Continuous
 62
     7
370
    25
100
AcDbLine
 10
558.4335058294
 20
133.5158854746
 30
0.0
 11
559.0406321211
 21
133.5220837875
 31
0.0
  0
LINE
  5
241
330
1F
100
AcDbEntity
  8
0
  6
Continuous
 62
     7
370
    25
100
AcDbLine
 10
558.4487766508
 20
131.6639703935
 30
0.0
 11
558.4335058294
 21
133.5158854746
 31
0.0
  0
LINE
  5
242
330
1F
100
AcDbEntity
  8
0
  6
Continuous
 62
     7
370
    25
100
AcDbLine
 10
561.8313374183
 20
131.6985038511
 30
0.0
 11
558.4487766508
 21
131.6639703935
 31
0.0
  0
LINE
  5
243
330
1F
100
AcDbEntity
  8
0
  6
Continuous
 62
     7
370
    25
100
AcDbLine
 10
561.816066597
 20
133.5504189322
 30
0.0
 11
561.8313374183
 21
131.6985038511
 31
0.0
  0
LINE
  5
244
330
1F
100
AcDbEntity
  8
0
  6
Continuous
 62
     7
370
    25
100
AcDbLine
 10
561.8087947773
 20
134.4322832565
 30
0.0
 11
559.0333603014
 21
134.4039481118
 31
0.0
  0
LINE
  5
245
330
1F
100
AcDbEntity
  8
0
  6
Continuous
 62
     7
370
    25
100
AcDbLine
 10
561.8037045035
 20
135.0495882835
 30
0.0
 11
561.8087947773
 21
134.4322832565
 31
0.0
  0
LINE
  5
246
330
1F
100
AcDbEntity
  8
0
  6
Continuous
 62
     7
370
    25
100
AcDbLine
 10
559.0282700276
 20
135.0212531388
 30
0.0
 11
561.8037045035
 21
135.0495882835
 31
0.0
  0
LINE
  5
247
330
1F
100
AcDbEntity
  8
0
  6
Continuous
 62
     7
370
    25
100
AcDbLine
 10
559.0231797538
 20
135.6385581659
 30
0.0
 11
559.0282700276
 21
135.0212531388
 31
0.0
  0
LINE
  5
248
330
1F
100
AcDbEntity
  8
0
  6
Continuous
 62
     7
370
    25
100
AcDbLine
 10
558.4160534622
 20
135.632359853
 30
0.0
 11
559.0231797538
 21
135.6385581659
 31
0.0
  0
LINE
  5
249
330
1F
100
AcDbEntity
  8
0
  6
Continuous
 62
     7
370
    25
100
AcDbLine
 10
558.4313242835
 20
133.7804447719
 30
0.0
 11
558.4160534622
 21
135.632359853
 31
0.0
  0
LINE
  5
24A
330
1F
100
AcDbEntity
  8
0
  6
Continuous
 62
     7
370
    25
100
AcDbLine
 10
559.0384505751
 20
133.7866430848
 30
0.0
 11
558.4313242835
 21
133.7804447719
 31
0.0
  0
LINE
  5
24B
330
1F
100
AcDbEntity
  8
0
  6
Continuous
 62
     7
370
    25
100
AcDbLine
 10
559.0333603014
 20
134.4039481118
 30
0.0
 11
559.0384505751
 21
133.7866430848
 31
0.0
  0
LINE
  5
24C
330
1F
100
AcDbEntity
  8
0
  6
Continuous
 62
     7
370
    25
100
AcDbLine
 10
-549.5072551272
 20
25.7992628539
 30
0.0
 11
-545.4241640232
 21
25.840948211
 31
0.0
  0
LINE
  5
24D
330
1F
100
AcDbEntity
  8
0
  6
Continuous
 62
     7
370
    25
100
AcDbLine
 10
-549.5112983289
 20
26.2895878977
 30
0.0
 11
-549.5072551272
 21
25.7992628539
 31
0.0
  0
LINE
  5
24E
330
1F
100
AcDbEntity
  8
0
  6
Continuous
 62
     7
370
    25
100
AcDbLine
 10
-545.4651624029
 20
30.8128823127
 30
0.0
 11
-549.5112983289
 21
26.2895878977
 31
0.0
  0
LINE
  5
24F
330
1F
100
AcDbEntity
  8
0
  6
Continuous
 62
     7
370
    25
100
AcDbLine
 10
-545.4991756403
 20
34.9377178951
 30
0.0
 11
-545.4651624029
 21
30.8128823127
 31
0.0
  0
LINE
  5
250
330
1F
100
AcDbEntity
  8
0
  6
Continuous
 62
     7
370
    25
100
AcDbLine
 10
-549.7349759086
 20
30.2026027288
 30
0.0
 11
-545.4991756403
 21
34.9377178951
 31
0.0
  0
LINE
  5
251
330
1F
100
AcDbEntity
  8
0
  6
Continuous
 62
     7
370
    25
100
AcDbLine
 10
-554.7610493592
 20
22.0821883659
 30
0.0
 11
-554.7942445169
 21
26.1078142118
 31
0.0
  0
LINE
  5
252
330
1F
100
AcDbEntity
  8
0
  6
Continuous
 62
     7
370
    25
100
AcDbLine
 10
-545.3939580029
 20
22.1778194792
 30
0.0
 11
-554.7610493592
 21
22.0821883659
 31
0.0
  0
LINE
  5
253
330
1F
100
AcDbEntity
  8
0
  6
Continuous
 62
     7
370
    25
100
AcDbLine
 10
-545.4241640232
 20
25.840948211
 30
0.0
 11
-545.3939580029
 21
22.1778194792
 31
0.0
  0
LINE
  5
254
330
1F
100
AcDbEntity
  8
0
  6
Continuous
 62
     7
370
    25
100
AcDbLine
 10
-546.9561497863
 20
-21.4101345137
 30
0.0
 11
-545.0220463781
 21
-22.9244530315
 31
0.0
  0
LINE
  5
255
330
1F
100
AcDbEntity
  8
0
  6
Continuous
 62
     7
370
    25
100
AcDbLine
 10
-547.023232323
 20
-13.2749361217
 30
0.0
 11
-546.9561497863
 21
-21.4101345137
 31
0.0
  0
LINE
  5
256
330
1F
100
AcDbEntity
  8
0
  6
Continuous
 62
     7
370
    25
100
AcDbLine
 10
-545.1144107245
 20
-11.7232922062
 30
0.0
 11
-547.023232323
 21
-13.2749361217
 31
0.0
  0
LINE
  5
257
330
1F
100
AcDbEntity
  8
0
  6
Continuous
 62
     7
370
    25
100
AcDbLine
 10
-545.1467720702
 20
-7.7987839763
 30
0.0
 11
-545.1144107245
 21
-11.7232922062
 31
0.0
  0
LINE
  5
258
330
1F
100
AcDbEntity
  8
0
  6
Continuous
 62
     7
370
    25
100
AcDbLine
 10
-554.4507611622
 20
-15.546919956
 30
0.0
 11
-545.1467720702
 21
-7.7987839763
 31
0.0
  0
LINE
  5
259
330
1F
100
AcDbEntity
  8
0
  6
Continuous
 62
     7
370
    25
100
AcDbLine
 10
-554.4199101175
 20
-19.2882717493
 30
0.0
 11
-554.4507611622
 21
-15.546919956
 31
0.0
  0
LINE
  5
25A
330
1F
100
AcDbEntity
  8
0
  6
Continuous
 62
     7
370
    25
100
AcDbLine
 10
-544.9897007647
 20
-26.8470533818
 30
0.0
 11
-554.4199101175
 21
-19.2882717493
 31
0.0
  0
LINE
  5
25B
330
1F
100
AcDbEntity
  8
0
  6
Continuous
 62
     7
370
    25
100
AcDbLine
 10
-545.0220463781
 20
-22.9244530315
 30
0.0
 11
-544.9897007647
 21
-26.8470533818
 31
0.0
  0
LINE
  5
25C
330
1F
100
AcDbEntity
  8
0
  6
Continuous
 62
     7
370
    25
100
AcDbLine
 10
-571.5388953286
 20
134.1640748181
 30
0.0
 11
-569.23023572
 21
-145.8104886228
 31
0.0
  0
LINE
  5
25D
330
1F
100
AcDbEntity
  8
0
  6
Continuous
 62
     7
370
    25
100
AcDbLine
 10
569.23023572
 20
145.8104886228
 30
0.0
 11
-571.5388953286
 21
134.1640748181
 31
0.0
  0
LINE
  5
25E
330
1F
100
AcDbEntity
  8
0
  6
Continuous
 62
     7
370
    25
100
AcDbLine
 10
-92.3527883708
 20
74.1566452414
 30
0.0
 11
-92.4335914571
 21
83.9557549618
 31
0.0
  0
LINE
  5
25F
330
1F
100
AcDbEntity
  8
0
  6
Continuous
 62
     7
370
    25
100
AcDbLine
 10
-92.4335914571
 20
83.9557549618
 30
0.0
 11
-98.1374371124
 21
83.8975228928
 31
0.0
  0
LINE
  5
260
330
1F
100
AcDbEntity
  8
0
  6
Continuous
 62
     7
370
    25
100
AcDbLine
 10
-98.1374371124
 20
83.8975228928
 30
0.0
 11
-98.0566340261
 21
74.0984131724
 31
0.0
  0
LINE
  5
261
330
1F
100
AcDbEntity
  8
0
  6
Continuous
 62
     7
370
    25
100
AcDbLine
 10
-98.0566340261
 20
74.0984131724
 30
0.0
 11
-92.3527883708
 21
74.1566452414
 31
0.0
  0
LINE
  5
262
330
1F
100
AcDbEntity
  8
0
  6
Continuous
 62
     7
370
    25
100
AcDbLine
 10
-181.3572440317
 20
38.0482098997
 30
0.0
 11
-181.2764409454
 21
28.2491001792
 31
0.0
  0
LINE
  5
263
330
1F
100
AcDbEntity
  8
0
  6
Continuous
 62
     7
370
    25
100
AcDbLine
 10
-181.2764409454
 20
28.2491001792
 30
0.0
 11
-175.5725952901
 21
28.3073322483
 31
0.0
  0
LINE
  5
264
330
1F
100
AcDbEntity
  8
0
  6
Continuous
 62
     7
370
    25
100
AcDbLine
 10
-175.5725952901
 20
28.3073322483
 30
0.0
 11
-175.6533983764
 21
38.1064419687
 31
0.0
  0
LINE
  5
265
330
1F
100
AcDbEntity
  8
0
  6
Continuous
 62
     7
370
    25
100
AcDbLine
 10
-175.6533983764
 20
38.1064419687
 30
0.0
 11
-181.3572440317
 21
38.0482098997
 31
0.0
  0
LINE
  5
266
330
1F
100
AcDbEntity
  8
0
  6
Continuous
 62
     7
370
    25
100
AcDbLine
 10
-346.5109490477
 20
26.5621773797
 30
0.0
 11
-346.591752134
 21
36.3612871001
 31
0.0
  0
LINE
  5
267
330
1F
100
AcDbEntity
  8
0
  6
Continuous
 62
     7
370
    25
100
AcDbLine
 10
-346.591752134
 20
36.3612871001
 30
0.0
 11
-352.2955977893
 21
36.3030550311
 31
0.0
  0
LINE
  5
268
330
1F
100
AcDbEntity
  8
0
  6
Continuous
 62
     7
370
    25
100
AcDbLine
 10
-352.2955977893
 20
36.3030550311
 30
0.0
 11
-352.214794703
 21
26.5039453107
 31
0.0
  0
LINE
  5
269
330
1F
100
AcDbEntity
  8
0
  6
Continuous
 62
     7
370
    25
100
AcDbLine
 10
-352.214794703
 20
26.5039453107
 30
0.0
 11
-346.5109490477
 21
26.5621773797
 31
0.0
  0
LINE
  5
26A
330
1F
100
AcDbEntity
  8
0
  6
Continuous
 62
     7
370
    25
100
AcDbLine
 10
-554.5365179417
 20
-5.1470685408
 30
0.0
 11
-554.5734731196
 21
-0.6654594829
 31
0.0
  0
LINE
  5
26B
330
1F
100
AcDbEntity
  8
0
  6
Continuous
 62
     7
370
    25
100
AcDbLine
 10
-545.1694265854
 20
-5.0514374274
 30
0.0
 11
-554.5365179417
 21
-5.1470685408
 31
0.0
  0
LINE
  5
26C
330
1F
100
AcDbEntity
  8
0
  6
Continuous
 62
     7
370
    25
100
AcDbLine
 10
-545.206932394
 20
-0.5030525854
 30
0.0
 11
-545.1694265854
 21
-5.0514374274
 31
0.0
  0
LINE
  5
26D
330
1F
100
AcDbEntity
  8
0
  6
Continuous
 62
     7
370
    25
100
AcDbLine
 10
-554.7217815328
 20
17.3201210145
 30
0.0
 11
-545.3546901766
 21
17.4157521278
 31
0.0
  0
LINE
  5
26E
330
1F
100
AcDbEntity
  8
0
  6
Continuous
 62
     7
370
    25
100
AcDbLine
 10
-554.6915755125
 20
13.6569922826
 30
0.0
 11
-554.7217815328
 21
17.3201210145
 31
0.0
  0
LINE
  5
26F
330
1F
100
AcDbEntity
  8
0
  6
Continuous
 62
     7
370
    25
100
AcDbLine
 10
-545.3244841563
 20
13.752623396
 30
0.0
 11
-554.6915755125
 21
13.6569922826
 31
0.0
  0
LINE
  5
270
330
1F
100
AcDbEntity
  8
0
  6
Continuous
 62
     7
370
    25
100
AcDbLine
 10
-545.3546901766
 20
17.4157521278
 30
0.0
 11
-545.3244841563
 21
13.752623396
 31
0.0
  0
LINE
  5
271
330
1F
100
AcDbEntity
  8
0
  6
Continuous
 62
     7
370
    25
100
AcDbLine
 10
561.1907448787
 20
125.2317638892
 30
0.0
 11
561.886807768
 21
124.971532552
 31
0.0
  0
LINE
  5
272
330
1F
100
AcDbEntity
  8
0
  6
Continuous
 62
     7
370
    25
100
AcDbLine
 10
561.1783884663
 20
126.730244284
 30
0.0
 11
561.1907448787
 21
125.2317638892
 31
0.0
  0
LINE
  5
273
330
1F
100
AcDbEntity
  8
0
  6
Continuous
 62
     7
370
    25
100
AcDbLine
 10
561.8700428149
 20
127.0046431935
 30
0.0
 11
561.1783884663
 21
126.730244284
 31
0.0
  0
LINE
  5
274
330
1F
100
AcDbEntity
  8
0
  6
Continuous
 62
     7
370
    25
100
AcDbLine
 10
561.8646059935
 20
127.6639745673
 30
0.0
 11
561.8700428149
 21
127.0046431935
 31
0.0
  0
LINE
  5
275
330
1F
100
AcDbEntity
  8
0
  6
Continuous
 62
     7
370
    25
100
AcDbLine
 10
558.493498342
 20
126.2405047988
 30
0.0
 11
561.8646059935
 21
127.6639745673
 31
0.0
  0
LINE
  5
276
330
1F
100
AcDbEntity
  8
0
  6
Continuous
 62
     7
370
    25
100
AcDbLine
 10
558.4982193437
 20
125.6679819445
 30
0.0
 11
558.493498342
 21
126.2405047988
 31
0.0
  0
LINE
  5
277
330
1F
100
AcDbEntity
  8
0
  6
Continuous
 62
     7
370
    25
100
AcDbLine
 10
561.8922389083
 20
124.3128901348
 30
0.0
 11
558.4982193437
 21
125.6679819445
 31
0.0
  0
LINE
  5
278
330
1F
100
AcDbEntity
  8
0
  6
Continuous
 62
     7
370
    25
100
AcDbLine
 10
561.886807768
 20
124.971532552
 30
0.0
 11
561.8922389083
 21
124.3128901348
 31
0.0
  0
LINE
  5
279
330
1F
100
AcDbEntity
  8
0
  6
Continuous
 62
     7
370
    25
100
AcDbLine
 10
561.3427417878
 20
117.3179170516
 30
0.0
 11
561.9498680795
 21
117.3241153645
 31
0.0
  0
LINE
  5
27A
330
1F
100
AcDbEntity
  8
0
  6
Continuous
 62
     7
370
    25
100
AcDbLine
 10
561.3507407895
 20
116.3478662948
 30
0.0
 11
561.3427417878
 21
117.3179170516
 31
0.0
  0
LINE
  5
27B
330
1F
100
AcDbEntity
  8
0
  6
Continuous
 62
     7
370
    25
100
AcDbLine
 10
558.5753063136
 20
116.3195311501
 30
0.0
 11
561.3507407895
 21
116.3478662948
 31
0.0
  0
LINE
  5
27C
330
1F
100
AcDbEntity
  8
0
  6
Continuous
 62
     7
370
    25
100
AcDbLine
 10
558.5803965874
 20
115.7022261231
 30
0.0
 11
558.5753063136
 21
116.3195311501
 31
0.0
  0
LINE
  5
27D
330
1F
100
AcDbEntity
  8
0
  6
Continuous
 62
     7
370
    25
100
AcDbLine
 10
561.9629573549
 20
115.7367595807
 30
0.0
 11
558.5803965874
 21
115.7022261231
 31
0.0
  0
LINE
  5
27E
330
1F
100
AcDbEntity
  8
0
  6
Continuous
 62
     7
370
    25
100
AcDbLine
 10
561.9498680795
 20
117.3241153645
 30
0.0
 11
561.9629573549
 21
115.7367595807
 31
0.0
  0
LINE
  5
27F
330
1F
100
AcDbEntity
  8
0
  6
Continuous
 62
     7
370
    25
100
AcDbLine
 10
-548.9615330273
 20
-40.3812629012
 30
0.0
 11
-544.8784419233
 21
-40.3395775441
 31
0.0
  0
LINE
  5
280
330
1F
100
AcDbEntity
  8
0
  6
Continuous
 62
     7
370
    25
100
AcDbLine
 10
-549.0179175985
 20
-33.5434226018
 30
0.0
 11
-548.9615330273
 21
-40.3812629012
 31
0.0
  0
LINE
  5
281
330
1F
100
AcDbEntity
  8
0
  6
Continuous
 62
     7
370
    25
100
AcDbLine
 10
-544.9348264945
 20
-33.5017372447
 30
0.0
 11
-549.0179175985
 21
-33.5434226018
 31
0.0
  0
LINE
  5
282
330
1F
100
AcDbEntity
  8
0
  6
Continuous
 62
     7
370
    25
100
AcDbLine
 10
-544.9650325148
 20
-29.8386085128
 30
0.0
 11
-544.9348264945
 21
-33.5017372447
 31
0.0
  0
LINE
  5
283
330
1F
100
AcDbEntity
  8
0
  6
Continuous
 62
     7
370
    25
100
AcDbLine
 10
-554.332123871
 20
-29.9342396262
 30
0.0
 11
-544.9650325148
 21
-29.8386085128
 31
0.0
  0
LINE
  5
284
330
1F
100
AcDbEntity
  8
0
  6
Continuous
 62
     7
370
    25
100
AcDbLine
 10
-554.3019178508
 20
-33.597368358
 30
0.0
 11
-554.332123871
 21
-29.9342396262
 31
0.0
  0
LINE
  5
285
330
1F
100
AcDbEntity
  8
0
  6
Continuous
 62
     7
370
    25
100
AcDbLine
 10
-550.699190406
 20
-33.5605871606
 30
0.0
 11
-554.3019178508
 21
-33.597368358
 31
0.0
  0
LINE
  5
286
330
1F
100
AcDbEntity
  8
0
  6
Continuous
 62
     7
370
    25
100
AcDbLine
 10
-550.6428058348
 20
-40.39842746
 30
0.0
 11
-550.699190406
 21
-33.5605871606
 31
0.0
  0
LINE
  5
287
330
1F
100
AcDbEntity
  8
0
  6
Continuous
 62
     7
370
    25
100
AcDbLine
 10
-554.2455332795
 20
-40.4352086574
 30
0.0
 11
-550.6428058348
 21
-40.39842746
 31
0.0
  0
LINE
  5
288
330
1F
100
AcDbEntity
  8
0
  6
Continuous
 62
     7
370
    25
100
AcDbLine
 10
-554.2153272593
 20
-44.0983373893
 30
0.0
 11
-554.2455332795
 21
-40.4352086574
 31
0.0
  0
LINE
  5
289
330
1F
100
AcDbEntity
  8
0
  6
Continuous
 62
     7
370
    25
100
AcDbLine
 10
-544.848235903
 20
-44.0027062759
 30
0.0
 11
-554.2153272593
 21
-44.0983373893
 31
0.0
  0
LINE
  5
28A
330
1F
100
AcDbEntity
  8
0
  6
Continuous
 62
     7
370
    25
100
AcDbLine
 10
-544.8784419233
 20
-40.3395775441
 30
0.0
 11
-544.848235903
 21
-44.0027062759
 31
0.0
  0
LINE
  5
28B
330
1F
100
AcDbEntity
  8
0
  6
Continuous
 62
     7
370
    25
100
AcDbLine
 10
561.3427417878
 20
117.3179170516
 30
0.0
 11
561.7050336363
 21
117.2999304326
 31
0.0
  0
LINE
  5
28C
330
1F
100
AcDbEntity
  8
0
  6
Continuous
 62
     7
370
    25
100
AcDbLine
 10
561.7050336363
 20
117.2999304326
 30
0.0
 11
561.950046881
 21
117.3024318376
 31
0.0
  0
LINE
  5
28D
330
1F
100
AcDbEntity
  8
0
  6
Continuous
 62
     7
370
    25
100
AcDbLine
 10
560.2363920426
 20
121.2312486454
 30
0.0
 11
560.5986838911
 21
121.2132620263
 31
0.0
  0
LINE
  5
28E
330
1F
100
AcDbEntity
  8
0
  6
Continuous
 62
     7
370
    25
100
AcDbLine
 10
560.4328783689
 20
122.4679686162
 30
0.0
 11
560.7951702174
 21
122.4499819972
 31
0.0
  0
LINE
  5
28F
330
1F
100
AcDbEntity
  8
0
  6
Continuous
 62
     7
370
    25
100
AcDbLine
 10
560.7951702174
 20
122.4499819972
 30
0.0
 11
561.9075067358
 21
122.4613381349
 31
0.0
  0
LINE
  5
290
330
1F
100
AcDbEntity
  8
0
  6
Continuous
 62
     7
370
    25
100
AcDbLine
 10
560.3566735213
 20
123.3270807209
 30
0.0
 11
560.7189653698
 21
123.3090941019
 31
0.0
  0
LINE
  5
291
330
1F
100
AcDbEntity
  8
0
  6
Continuous
 62
     7
370
    25
100
AcDbLine
 10
560.7189653698
 20
123.3090941019
 30
0.0
 11
561.8954074155
 21
123.9286405905
 31
0.0
  0
LINE
  5
292
330
1F
100
AcDbEntity
  8
0
  6
Continuous
 62
     7
370
    25
100
AcDbLine
 10
558.4982193437
 20
125.6679819445
 30
0.0
 11
558.8605111921
 21
125.6499953255
 31
0.0
  0
LINE
  5
293
330
1F
100
AcDbEntity
  8
0
  6
Continuous
 62
     7
370
    25
100
AcDbLine
 10
561.891191012
 20
124.4399700668
 30
0.0
 11
558.8605111921
 21
125.6499953255
 31
0.0
  0
LINE
  5
294
330
1F
100
AcDbEntity
  8
0
  6
Continuous
 62
     7
370
    25
100
AcDbLine
 10
558.493498342
 20
126.2405047988
 30
0.0
 11
558.8557901905
 21
126.2225181798
 31
0.0
  0
LINE
  5
295
330
1F
100
AcDbEntity
  8
0
  6
Continuous
 62
     7
370
    25
100
AcDbLine
 10
558.8557901905
 20
126.2225181798
 30
0.0
 11
561.8660108847
 21
127.4936013363
 31
0.0
  0
LINE
  5
296
330
1F
100
AcDbEntity
  8
0
  6
Continuous
 62
     7
370
    25
100
AcDbLine
 10
561.3507407895
 20
116.3478662948
 30
0.0
 11
561.713032638
 21
116.3298796758
 31
0.0
  0
LINE
  5
297
330
1F
100
AcDbEntity
  8
0
  6
Continuous
 62
     7
370
    25
100
AcDbLine
 10
558.5753063136
 20
116.3195311501
 30
0.0
 11
558.9375981621
 21
116.3015445311
 31
0.0
  0
LINE
  5
298
330
1F
100
AcDbEntity
  8
0
  6
Continuous
 62
     7
370
    25
100
AcDbLine
 10
558.9375981621
 20
116.3015445311
 30
0.0
 11
561.713032638
 21
116.3298796758
 31
0.0
  0
LINE
  5
299
330
1F
100
AcDbEntity
  8
0
  6
Continuous
 62
     7
370
    25
100
AcDbLine
 10
561.713032638
 20
116.3298796758
 30
0.0
 11
561.7050336363
 21
117.2999304326
 31
0.0
  0
LINE
  5
29A
330
1F
100
AcDbEntity
  8
0
  6
Continuous
 62
     7
370
    25
100
AcDbLine
 10
559.636206516
 20
128.765695917
 30
0.0
 11
559.9984983645
 21
128.747709298
 31
0.0
  0
LINE
  5
29B
330
1F
100
AcDbEntity
  8
0
  6
Continuous
 62
     7
370
    25
100
AcDbLine
 10
559.9984983645
 20
128.747709298
 30
0.0
 11
561.8555132249
 21
128.7666680539
 31
0.0
  0
LINE
  5
29C
330
1F
100
AcDbEntity
  8
0
  6
Continuous
 62
     7
370
    25
100
AcDbLine
 10
558.4553212885
 20
130.8702925016
 30
0.0
 11
558.817613137
 21
130.8523058825
 31
0.0
  0
LINE
  5
29D
330
1F
100
AcDbEntity
  8
0
  6
Continuous
 62
     7
370
    25
100
AcDbLine
 10
558.817613137
 20
130.8523058825
 30
0.0
 11
561.8380608576
 21
130.8831424323
 31
0.0
  0
LINE
  5
29E
330
1F
100
AcDbEntity
  8
0
  6
Continuous
 62
     7
370
    25
100
AcDbLine
 10
561.2089403054
 20
133.5442206193
 30
0.0
 11
561.5712321539
 21
133.5262340002
 31
0.0
  0
LINE
  5
29F
330
1F
100
AcDbEntity
  8
0
  6
Continuous
 62
     7
370
    25
100
AcDbLine
 10
561.5712321539
 20
133.5262340002
 30
0.0
 11
561.8162453985
 21
133.5287354053
 31
0.0
  0
LINE
  5
2A0
330
1F
100
AcDbEntity
  8
0
  6
Continuous
 62
     7
370
    25
100
AcDbLine
 10
559.0282700276
 20
135.0212531388
 30
0.0
 11
559.390561876
 21
135.0032665198
 31
0.0
  0
LINE
  5
2A1
330
1F
100
AcDbEntity
  8
0
  6
Continuous
 62
     7
370
    25
100
AcDbLine
 10
559.390561876
 20
135.0032665198
 30
0.0
 11
561.803883305
 21
135.0279047566
 31
0.0
  0
LINE
  5
2A2
330
1F
100
AcDbEntity
  8
0
  6
Continuous
 62
     7
370
    25
100
AcDbLine
 10
561.219120853
 20
132.3096105652
 30
0.0
 11
561.5814127014
 21
132.2916239462
 31
0.0
  0
LINE
  5
2A3
330
1F
100
AcDbEntity
  8
0
  6
Continuous
 62
     7
370
    25
100
AcDbLine
 10
561.5814127014
 20
132.2916239462
 30
0.0
 11
561.5712321539
 21
133.5262340002
 31
0.0
  0
LINE
  5
2A4
330
1F
100
AcDbEntity
  8
0
  6
Continuous
 62
     7
370
    25
100
AcDbLine
 10
560.3084314155
 20
132.3003130958
 30
0.0
 11
560.670723264
 21
132.2823264768
 31
0.0
  0
LINE
  5
2A5
330
1F
100
AcDbEntity
  8
0
  6
Continuous
 62
     7
370
    25
100
AcDbLine
 10
560.670723264
 20
132.2823264768
 30
0.0
 11
561.5814127014
 21
132.2916239462
 31
0.0
  0
LINE
  5
2A6
330
1F
100
AcDbEntity
  8
0
  6
Continuous
 62
     7
370
    25
100
AcDbLine
 10
558.4628840107
 20
119.4341069852
 30
0.0
 11
558.8251758592
 21
119.4161203661
 31
0.0
  0
LINE
  5
2A7
330
1F
100
AcDbEntity
  8
0
  6
Continuous
 62
     7
370
    25
100
AcDbLine
 10
560.6863154328
 20
130.2757123159
 30
0.0
 11
561.0486072813
 21
130.2577256969
 31
0.0
  0
LINE
  5
2A8
330
1F
100
AcDbEntity
  8
0
  6
Continuous
 62
     7
370
    25
100
AcDbLine
 10
558.4732792745
 20
128.6925009944
 30
0.0
 11
558.835571123
 21
128.6745143754
 31
0.0
  0
LINE
  5
2A9
330
1F
100
AcDbEntity
  8
0
  6
Continuous
 62
     7
370
    25
100
AcDbLine
 10
558.835571123
 20
128.6745143754
 30
0.0
 11
561.0486072813
 21
130.2577256969
 31
0.0
  0
LINE
  5
2AA
330
1F
100
AcDbEntity
  8
0
  6
Continuous
 62
     7
370
    25
100
AcDbLine
 10
559.6911245764
 20
133.528724837
 30
0.0
 11
560.0534164248
 21
133.510738218
 31
0.0
  0
LINE
  5
2AB
330
1F
100
AcDbEntity
  8
0
  6
Continuous
 62
     7
370
    25
100
AcDbLine
 10
560.0534164248
 20
133.510738218
 30
0.0
 11
560.2984296695
 21
133.513239623
 31
0.0
  0
LINE
  5
2AC
330
1F
100
AcDbEntity
  8
0
  6
Continuous
 62
     7
370
    25
100
AcDbLine
 10
558.5239263625
 20
122.5504537667
 30
0.0
 11
558.886218211
 21
122.5324671477
 31
0.0
  0
LINE
  5
2AD
330
1F
100
AcDbEntity
  8
0
  6
Continuous
 62
     7
370
    25
100
AcDbLine
 10
559.7013051239
 20
132.2941147829
 30
0.0
 11
560.0635969724
 21
132.2761281639
 31
0.0
  0
LINE
  5
2AE
330
1F
100
AcDbEntity
  8
0
  6
Continuous
 62
     7
370
    25
100
AcDbLine
 10
560.0635969724
 20
132.2761281639
 30
0.0
 11
560.0534164248
 21
133.510738218
 31
0.0
  0
LINE
  5
2AF
330
1F
100
AcDbEntity
  8
0
  6
Continuous
 62
     7
370
    25
100
AcDbLine
 10
559.0508126686
 20
132.2874737334
 30
0.0
 11
559.4131045171
 21
132.2694871144
 31
0.0
  0
LINE
  5
2B0
330
1F
100
AcDbEntity
  8
0
  6
Continuous
 62
     7
370
    25
100
AcDbLine
 10
559.4131045171
 20
132.2694871144
 30
0.0
 11
560.0635969724
 21
132.2761281639
 31
0.0
  0
LINE
  5
2B1
330
1F
100
AcDbEntity
  8
0
  6
Continuous
 62
     7
370
    25
100
AcDbLine
 10
558.9425096343
 20
115.705923031
 30
0.0
 11
558.9375981621
 21
116.3015445311
 31
0.0
  0
LINE
  5
2B2
330
1F
100
AcDbEntity
  8
0
  6
Continuous
 62
     7
370
    25
100
AcDbLine
 10
558.8919704874
 20
121.8348800851
 30
0.0
 11
558.886218211
 21
122.5324671477
 31
0.0
  0
LINE
  5
2B3
330
1F
100
AcDbEntity
  8
0
  6
Continuous
 62
     7
370
    25
100
AcDbLine
 10
558.4335058294
 20
133.5158854746
 30
0.0
 11
558.7957976779
 21
133.4978988555
 31
0.0
  0
LINE
  5
2B4
330
1F
100
AcDbEntity
  8
0
  6
Continuous
 62
     7
370
    25
100
AcDbLine
 10
558.7957976779
 20
133.4978988555
 30
0.0
 11
559.0408109226
 21
133.5004002606
 31
0.0
  0
LINE
  5
2B5
330
1F
100
AcDbEntity
  8
0
  6
Continuous
 62
     7
370
    25
100
AcDbLine
 10
558.4160534622
 20
135.632359853
 30
0.0
 11
558.7783453107
 21
135.6143732339
 31
0.0
  0
LINE
  5
2B6
330
1F
100
AcDbEntity
  8
0
  6
Continuous
 62
     7
370
    25
100
AcDbLine
 10
558.7783453107
 20
135.6143732339
 30
0.0
 11
559.0233585553
 21
135.616874639
 31
0.0
  0
LINE
  5
2B7
330
1F
100
AcDbEntity
  8
0
  6
Continuous
 62
     7
370
    25
100
AcDbLine
 10
558.8605111921
 20
125.6499953255
 30
0.0
 11
558.8557901905
 21
126.2225181798
 31
0.0
  0
LINE
  5
2B8
330
1F
100
AcDbEntity
  8
0
  6
Continuous
 62
     7
370
    25
100
AcDbLine
 10
558.8399769766
 20
128.140210004
 30
0.0
 11
558.835571123
 21
128.6745143754
 31
0.0
  0
LINE
  5
2B9
330
1F
100
AcDbEntity
  8
0
  6
Continuous
 62
     7
370
    25
100
AcDbLine
 10
558.8225246093
 20
130.2566843824
 30
0.0
 11
558.817613137
 21
130.8523058825
 31
0.0
  0
LINE
  5
2BA
330
1F
100
AcDbEntity
  8
0
  6
Continuous
 62
     7
370
    25
100
AcDbLine
 10
558.8108896978
 20
131.6676673014
 30
0.0
 11
558.7957976779
 21
133.4978988555
 31
0.0
  0
LINE
  5
2BB
330
1F
100
AcDbEntity
  8
0
  6
Continuous
 62
     7
370
    25
100
AcDbLine
 10
558.7934373305
 20
133.7841416797
 30
0.0
 11
558.7783453107
 21
135.6143732339
 31
0.0
  0
LINE
  5
2BC
330
1F
100
AcDbEntity
  8
0
  6
Continuous
 62
     7
370
    25
100
AcDbLine
 10
-98.1374371124
 20
83.8975228928
 30
0.0
 11
-97.7751452639
 21
83.8795362738
 31
0.0
  0
LINE
  5
2BD
330
1F
100
AcDbEntity
  8
0
  6
Continuous
 62
     7
370
    25
100
AcDbLine
 10
-92.4334126556
 20
83.9340714349
 30
0.0
 11
-97.7751452639
 21
83.8795362738
 31
0.0
  0
LINE
  5
2BE
330
1F
100
AcDbEntity
  8
0
  6
Continuous
 62
     7
370
    25
100
AcDbLine
 10
-97.7751452639
 20
83.8795362738
 30
0.0
 11
-97.6945209791
 21
74.1021100802
 31
0.0
  0
LINE
  5
2BF
330
1F
100
AcDbEntity
  8
0
  6
Continuous
 62
     7
370
    25
100
AcDbLine
 10
-181.3572440317
 20
38.0482098997
 30
0.0
 11
-180.9949521832
 21
38.0302232806
 31
0.0
  0
LINE
  5
2C0
330
1F
100
AcDbEntity
  8
0
  6
Continuous
 62
     7
370
    25
100
AcDbLine
 10
-175.6532195749
 20
38.0847584418
 30
0.0
 11
-180.9949521832
 21
38.0302232806
 31
0.0
  0
LINE
  5
2C1
330
1F
100
AcDbEntity
  8
0
  6
Continuous
 62
     7
370
    25
100
AcDbLine
 10
-180.9949521832
 20
38.0302232806
 30
0.0
 11
-180.9143278984
 21
28.2527970871
 31
0.0
  0
LINE
  5
2C2
330
1F
100
AcDbEntity
  8
0
  6
Continuous
 62
     7
370
    25
100
AcDbLine
 10
-352.2955977893
 20
36.3030550311
 30
0.0
 11
-351.9333059408
 21
36.2850684121
 31
0.0
  0
LINE
  5
2C3
330
1F
100
AcDbEntity
  8
0
  6
Continuous
 62
     7
370
    25
100
AcDbLine
 10
-346.5915733325
 20
36.3396035732
 30
0.0
 11
-351.9333059408
 21
36.2850684121
 31
0.0
  0
LINE
  5
2C4
330
1F
100
AcDbEntity
  8
0
  6
Continuous
 62
     7
370
    25
100
AcDbLine
 10
-351.9333059408
 20
36.2850684121
 30
0.0
 11
-351.852681656
 21
26.5076422186
 31
0.0
  0
LINE
  5
2C5
330
1F
100
AcDbEntity
  8
0
  6
Continuous
 62
     7
370
    25
100
AcDbLine
 10
-548.9615330273
 20
-40.3812629012
 30
0.0
 11
-548.5992411788
 21
-40.3992495202
 31
0.0
  0
LINE
  5
2C6
330
1F
100
AcDbEntity
  8
0
  6
Continuous
 62
     7
370
    25
100
AcDbLine
 10
-548.5992411788
 20
-40.3992495202
 30
0.0
 11
-544.8782631218
 21
-40.361261071
 31
0.0
  0
LINE
  5
2C7
330
1F
100
AcDbEntity
  8
0
  6
Continuous
 62
     7
370
    25
100
AcDbLine
 10
-554.332123871
 20
-29.9342396262
 30
0.0
 11
-553.9698320226
 21
-29.9522262452
 31
0.0
  0
LINE
  5
2C8
330
1F
100
AcDbEntity
  8
0
  6
Continuous
 62
     7
370
    25
100
AcDbLine
 10
-553.9698320226
 20
-29.9522262452
 30
0.0
 11
-544.9648537133
 21
-29.8602920397
 31
0.0
  0
LINE
  5
2C9
330
1F
100
AcDbEntity
  8
0
  6
Continuous
 62
     7
370
    25
100
AcDbLine
 10
-554.4199101175
 20
-19.2882717493
 30
0.0
 11
-554.057618269
 21
-19.3062583683
 31
0.0
  0
LINE
  5
2CA
330
1F
100
AcDbEntity
  8
0
  6
Continuous
 62
     7
370
    25
100
AcDbLine
 10
-544.9919619789
 20
-26.5728325969
 30
0.0
 11
-554.057618269
 21
-19.3062583683
 31
0.0
  0
LINE
  5
2CB
330
1F
100
AcDbEntity
  8
0
  6
Continuous
 62
     7
370
    25
100
AcDbLine
 10
-554.4507611622
 20
-15.546919956
 30
0.0
 11
-554.0884693137
 21
-15.564906575
 31
0.0
  0
LINE
  5
2CC
330
1F
100
AcDbEntity
  8
0
  6
Continuous
 62
     7
370
    25
100
AcDbLine
 10
-554.0884693137
 20
-15.564906575
 30
0.0
 11
-545.1441538612
 21
-8.1162980603
 31
0.0
  0
LINE
  5
2CD
330
1F
100
AcDbEntity
  8
0
  6
Continuous
 62
     7
370
    25
100
AcDbLine
 10
-549.8515087127
 20
10.6535415439
 30
0.0
 11
-549.4892168642
 21
10.6355549249
 31
0.0
  0
LINE
  5
2CE
330
1F
100
AcDbEntity
  8
0
  6
Continuous
 62
     7
370
    25
100
AcDbLine
 10
-554.7217815328
 20
17.3201210145
 30
0.0
 11
-554.3594896843
 21
17.3021343954
 31
0.0
  0
LINE
  5
2CF
330
1F
100
AcDbEntity
  8
0
  6
Continuous
 62
     7
370
    25
100
AcDbLine
 10
-554.3594896843
 20
17.3021343954
 30
0.0
 11
-545.354511375
 21
17.3940686009
 31
0.0
  0
LINE
  5
2D0
330
1F
100
AcDbEntity
  8
0
  6
Continuous
 62
     7
370
    25
100
AcDbLine
 10
-549.5072551272
 20
25.7992628539
 30
0.0
 11
-549.1449632788
 21
25.7812762349
 31
0.0
  0
LINE
  5
2D1
330
1F
100
AcDbEntity
  8
0
  6
Continuous
 62
     7
370
    25
100
AcDbLine
 10
-549.1449632788
 20
25.7812762349
 30
0.0
 11
-545.4239852217
 21
25.8192646841
 31
0.0
  0
LINE
  5
2D2
330
1F
100
AcDbEntity
  8
0
  6
Continuous
 62
     7
370
    25
100
AcDbLine
 10
-549.7349759086
 20
30.2026027288
 30
0.0
 11
-549.3726840601
 21
30.1846161097
 31
0.0
  0
LINE
  5
2D3
330
1F
100
AcDbEntity
  8
0
  6
Continuous
 62
     7
370
    25
100
AcDbLine
 10
-549.3726840601
 20
30.1846161097
 30
0.0
 11
-545.4957195773
 21
34.518596033
 31
0.0
  0
LINE
  5
2D4
330
1F
100
AcDbEntity
  8
0
  6
Continuous
 62
     7
370
    25
100
AcDbLine
 10
-550.6428058348
 20
-40.39842746
 30
0.0
 11
-550.2805139864
 21
-40.416414079
 31
0.0
  0
LINE
  5
2D5
330
1F
100
AcDbEntity
  8
0
  6
Continuous
 62
     7
370
    25
100
AcDbLine
 10
-554.2455332795
 20
-40.4352086574
 30
0.0
 11
-553.8832414311
 21
-40.4531952765
 31
0.0
  0
LINE
  5
2D6
330
1F
100
AcDbEntity
  8
0
  6
Continuous
 62
     7
370
    25
100
AcDbLine
 10
-553.8832414311
 20
-40.4531952765
 30
0.0
 11
-550.2805139864
 21
-40.416414079
 31
0.0
  0
LINE
  5
2D7
330
1F
100
AcDbEntity
  8
0
  6
Continuous
 62
     7
370
    25
100
AcDbLine
 10
-550.699190406
 20
-33.5605871606
 30
0.0
 11
-550.3368985576
 21
-33.5785737796
 31
0.0
  0
LINE
  5
2D8
330
1F
100
AcDbEntity
  8
0
  6
Continuous
 62
     7
370
    25
100
AcDbLine
 10
-550.2805139864
 20
-40.416414079
 30
0.0
 11
-550.3368985576
 21
-33.5785737796
 31
0.0
  0
LINE
  5
2D9
330
1F
100
AcDbEntity
  8
0
  6
Continuous
 62
     7
370
    25
100
AcDbLine
 10
-554.5734731196
 20
-0.6654594829
 30
0.0
 11
-554.2111812712
 21
-0.683446102
 31
0.0
  0
LINE
  5
2DA
330
1F
100
AcDbEntity
  8
0
  6
Continuous
 62
     7
370
    25
100
AcDbLine
 10
-552.1979511599
 20
33.9534690456
 30
0.0
 11
-551.8356593114
 21
33.9354824266
 31
0.0
  0
LINE
  5
2DB
330
1F
100
AcDbEntity
  8
0
  6
Continuous
 62
     7
370
    25
100
AcDbLine
 10
-553.8532142123
 20
-44.0946404814
 30
0.0
 11
-553.8832414311
 21
-40.4531952765
 31
0.0
  0
LINE
  5
2DC
330
1F
100
AcDbEntity
  8
0
  6
Continuous
 62
     7
370
    25
100
AcDbLine
 10
-553.9398048038
 20
-33.5936714501
 30
0.0
 11
-553.9698320226
 21
-29.9522262452
 31
0.0
  0
LINE
  5
2DD
330
1F
100
AcDbEntity
  8
0
  6
Continuous
 62
     7
370
    25
100
AcDbLine
 10
-554.7942445169
 20
26.1078142118
 30
0.0
 11
-554.4319526684
 21
26.0898275927
 31
0.0
  0
LINE
  5
2DE
330
1F
100
AcDbEntity
  8
0
  6
Continuous
 62
     7
370
    25
100
AcDbLine
 10
-554.057618269
 20
-19.3062583683
 30
0.0
 11
-554.0884693137
 21
-15.564906575
 31
0.0
  0
LINE
  5
2DF
330
1F
100
AcDbEntity
  8
0
  6
Continuous
 62
     7
370
    25
100
AcDbLine
 10
-554.1744048947
 20
-5.1433716329
 30
0.0
 11
-554.2111812712
 21
-0.683446102
 31
0.0
  0
LINE
  5
2E0
330
1F
100
AcDbEntity
  8
0
  6
Continuous
 62
     7
370
    25
100
AcDbLine
 10
-554.3294624656
 20
13.6606891905
 30
0.0
 11
-554.3594896843
 21
17.3021343954
 31
0.0
  0
LINE
  5
2E1
330
1F
100
AcDbEntity
  8
0
  6
Continuous
 62
     7
370
    25
100
AcDbLine
 10
-554.3989363122
 20
22.0858852737
 30
0.0
 11
-554.4319526684
 21
26.0898275927
 31
0.0
  0
ARC
  5
2E2
330
1F
100
AcDbEntity
  8
0
  6
Continuous
 62
     7
370
    25
100
AcDbCircle
 10
552.0930720571
 20
-114.3859307844
 30
0.0
 40
1.652627990736461
100
AcDbArc
 50
94.3400777263
 51
259.9754890965
  0
ARC
  5
2E3
330
1F
100
AcDbEntity
  8
0
  6
Continuous
 62
     7
370
    25
100
AcDbCircle
 10
550.114220964
 20
125.5922664506
 30
0.0
 40
1.652627990738454
100
AcDbArc
 50
94.3400777315
 51
259.9754890914
  0
ARC
  5
2E4
330
1F
100
AcDbEntity
  8
0
  6
Continuous
 62
     7
370
    25
100
AcDbCircle
 10
269.8510542891
 20
-117.2674141999
 30
0.0
 40
1.652627990737731
100
AcDbArc
 50
94.3400777296
 51
259.9754890933
  0
ARC
  5
2E5
330
1F
100
AcDbEntity
  8
0
  6
Continuous
 62
     7
370
    25
100
AcDbCircle
 10
267.872203196
 20
122.7107830352
 30
0.0
 40
1.652627990738187
100
AcDbArc
 50
94.3400777307
 51
259.9754890922
  0
ARC
  5
2E6
330
1F
100
AcDbEntity
  8
0
  6
Continuous
 62
     7
370
    25
100
AcDbCircle
 10
162.4075825696
 20
32.633768222
 30
0.0
 40
2.502451489124415
100
AcDbArc
 50
91.3035893062
 51
262.1660645146
  0
ARC
  5
2E7
330
1F
100
AcDbEntity
  8
0
  6
Continuous
 62
     7
370
    25
100
AcDbCircle
 10
161.9293602221
 20
90.6284992205
 30
0.0
 40
2.502451489126217
100
AcDbArc
 50
91.3035893063
 51
262.1660645085
  0
ARC
  5
2E8
330
1F
100
AcDbEntity
  8
0
  6
Continuous
 62
     7
370
    25
100
AcDbCircle
 10
124.8610408249
 20
61.2467336228
 30
0.0
 40
7.502973492700384
100
AcDbArc
 50
89.2995405081
 51
265.0160263248
  0
ARC
  5
2E9
330
1F
100
AcDbEntity
  8
0
  6
Continuous
 62
     7
370
    25
100
AcDbCircle
 10
23.4726412184
 20
-55.7834644231
 30
0.0
 40
2.002659401822541
100
AcDbArc
 50
93.2150374099
 51
261.1005294129
  0
ARC
  5
2EA
330
1F
100
AcDbEntity
  8
0
  6
Continuous
 62
     7
370
    25
100
AcDbCircle
 10
20.7948628532
 20
31.1880065084
 30
0.0
 40
2.50245148912453
100
AcDbArc
 50
91.3035893062
 51
262.1660645142
  0
ARC
  5
2EB
330
1F
100
AcDbEntity
  8
0
  6
Continuous
 62
     7
370
    25
100
AcDbCircle
 10
20.3166405057
 20
89.1827375068
 30
0.0
 40
2.502451489124021
100
AcDbArc
 50
91.3035893062
 51
262.166064516
  0
ARC
  5
2EC
330
1F
100
AcDbEntity
  8
0
  6
Continuous
 62
     7
370
    25
100
AcDbCircle
 10
1.3769398268
 20
-120.0083374488
 30
0.0
 40
1.652627990740131
100
AcDbArc
 50
94.3400777357
 51
259.9754890869
  0
ARC
  5
2ED
330
1F
100
AcDbEntity
  8
0
  6
Continuous
 62
     7
370
    25
100
AcDbCircle
 10
-0.6019112663
 20
119.9698597863
 30
0.0
 40
1.652627990739801
100
AcDbArc
 50
94.3400777351
 51
259.9754890879
  0
ARC
  5
2EE
330
1F
100
AcDbEntity
  8
0
  6
Continuous
 62
     7
370
    25
100
AcDbCircle
 10
-192.5354511716
 20
-1.9891215433
 30
0.0
 40
2.002659401822654
100
AcDbArc
 50
93.2150374101
 51
261.1005294127
  0
ARC
  5
2EF
330
1F
100
AcDbEntity
  8
0
  6
Continuous
 62
     7
370
    25
100
AcDbCircle
 10
-280.0586721762
 20
-122.8815880545
 30
0.0
 40
1.652627990737415
100
AcDbArc
 50
94.3400777288
 51
259.9754890941
  0
ARC
  5
2F0
330
1F
100
AcDbEntity
  8
0
  6
Continuous
 62
     7
370
    25
100
AcDbCircle
 10
-282.0375232693
 20
117.0966091806
 30
0.0
 40
1.652627990738385
100
AcDbArc
 50
94.3400777312
 51
259.9754890916
  0
ARC
  5
2F1
330
1F
100
AcDbEntity
  8
0
  6
Continuous
 62
     7
370
    25
100
AcDbCircle
 10
-359.7171341701
 20
-3.6959235664
 30
0.0
 40
2.002659401822884
100
AcDbArc
 50
93.2150374106
 51
261.1005294122
  0
ARC
  5
2F2
330
1F
100
AcDbEntity
  8
0
  6
Continuous
 62
     7
370
    25
100
AcDbCircle
 10
-530.6554879277
 20
-5.4410784349
 30
0.0
 40
2.002659401819886
100
AcDbArc
 50
93.2150374042
 51
261.1005294186
  0
ARC
  5
2F3
330
1F
100
AcDbEntity
  8
0
  6
Continuous
 62
     7
370
    25
100
AcDbCircle
 10
-549.3391924035
 20
-125.6307441131
 30
0.0
 40
1.652627990739901
100
AcDbArc
 50
94.3400777352
 51
259.9754890876
  0
ARC
  5
2F4
330
1F
100
AcDbEntity
  8
0
  6
Continuous
 62
     7
370
    25
100
AcDbCircle
 10
-551.3180434966
 20
114.347453122
 30
0.0
 40
1.652627990739033
100
AcDbArc
 50
94.3400777329
 51
259.97548909
  0
ENDSEC
  0
SECTION
  2
OBJECTS
  0
DICTIONARY
  5
C
330
0
100
AcDbDictionary
281
     1
  3
ACAD_GROUP
350
D
  3
ACAD_LAYOUT
350
1A
  3
ACAD_MLINESTYLE
350
17
  3
ACAD_PLOTSETTINGS
350
19
  3
ACAD_PLOTSTYLENAME
350
E
  3
ACAD_SCALELIST
350
47
  0
DICTIONARY
  5
D
102
{ACAD_REACTORS
330
C
102
}
330
C
100
AcDbDictionary
281
     1
  0
DICTIONARY
  5
1A
102
{ACAD_REACTORS
330
C
102
}
330
C
100
AcDbDictionary
281
     1
  3
Layout1
350
1E
  3
Layout2
350
26
  3
Model
350
22
  0
DICTIONARY
  5
17
102
{ACAD_REACTORS
330
C
102
}
330
C
100
AcDbDictionary
281
     1
  3
Standard
350
18
  0
DICTIONARY
  5
19
102
{ACAD_REACTORS
330
C
102
}
330
C
100
AcDbDictionary
281
     1
  0
ACDBDICTIONARYWDFLT
  5
E
102
{ACAD_REACTORS
330
C
102
}
330
C
100
AcDbDictionary
281
     1
  3
Normal
350
F
100
AcDbDictionaryWithDefault
340
F
  0
DICTIONARY
  5
47
102
{ACAD_REACTORS
330
C
102
}
330
C
100
AcDbDictionary
281
     1
  3
A0
350
48
  3
A1
350
49
  3
A2
350
4A
  3
A3
350
4B
  3
A4
350
4C
  3
A5
350
4D
  3
A6
350
4E
  3
A7
350
4F
  3
A8
350
50
  3
A9
350
51
  3
B0
350
52
  3
B1
350
53
  3
B2
350
54
  3
B3
350
55
  3
B4
350
56
  3
B5
350
57
  3
B6
350
58
  3
B7
350
59
  3
B8
350
5A
  3
B9
350
5B
  3
C0
350
5C
  3
C1
350
5D
  3
C2
350
5E
  3
C3
350
5F
  3
C4
350
60
  3
C5
350
61
  3
C6
350
62
  3
C7
350
63
  3
C8
350
64
  3
C9
350
65
  3
D0
350
66
  3
D1
350
67
  3
D2
350
68
  0
LAYOUT
  5
1E
102
{ACAD_REACTORS
330
1A
102
}
330
1A
100
AcDbPlotSettings
  1

  2
none_device
  4

  6

 40
0.0
 41
0.0
 42
0.0
 43
0.0
 44
0.0
 45
0.0
 46
0.0
 47
0.0
 48
0.0
 49
0.0
140
0.0
141
0.0
142
1.0
143
1.0
 70
   688
 72
     1
 73
     0
 74
     5
  7

 75
    16
147
1.0
148
0.0
149
0.0
100
AcDbLayout
  1
Layout1
 70
     1
 71
     1
 10
0.0
 20
0.0
 11
420.0
 21
297.0
 12
0.0
 22
0.0
 32
0.0
 14
1.0000000000E+20
 24
1.0000000000E+20
 34
1.0000000000E+20
 15
-1.0000000000E+20
 25
-1.0000000000E+20
 35
-1.0000000000E+20
146
0.0
 13
0.0
 23
0.0
 33
0.0
 16
1.0
 26
0.0
 36
0.0
 17
0.0
 27
1.0
 37
0.0
 76
     0
330
1B
  0
LAYOUT
  5
26
102
{ACAD_REACTORS
330
1A
102
}
330
1A
100
AcDbPlotSettings
  1

  2
none_device
  4

  6

 40
0.0
 41
0.0
 42
0.0
 43
0.0
 44
0.0
 45
0.0
 46
0.0
 47
0.0
 48
0.0
 49
0.0
140
0.0
141
0.0
142
1.0
143
1.0
 70
   688
 72
     1
 73
     0
 74
     5
  7

 75
    16
147
1.0
148
0.0
149
0.0
100
AcDbLayout
  1
Layout2
 70
     1
 71
     2
 10
0.0
 20
0.0
 11
0.0
 21
0.0
 12
0.0
 22
0.0
 32
0.0
 14
0.0
 24
0.0
 34
0.0
 15
0.0
 25
0.0
 35
0.0
146
0.0
 13
0.0
 23
0.0
 33
0.0
 16
1.0
 26
0.0
 36
0.0
 17
0.0
 27
1.0
 37
0.0
 76
     0
330
23
  0
LAYOUT
  5
22
102
{ACAD_REACTORS
330
1A
102
}
330
1A
100
AcDbPlotSettings
  1

  2
none_device
  4
ANSI_A_(11.00_x_8.50_Inches)
  6

 40
6.35
 41
19.05
 42
6.35000508
 43
19.05000254
 44
279.4
 45
215.9
 46
133.3061770183
 47
88.9021742733
 48
0.0
 49
0.0
140
0.0
141
0.0
142
0.0095238921
143
1.0
 70
  1696
 72
     0
 73
     0
 74
     0
  7

 75
     0
147
0.0179189148
148
-1300.4909072572
149
0.0
100
AcDbLayout
  1
Model
 70
     1
 71
     0
 10
0.0
 20
0.0
 11
420.0
 21
297.0
 12
0.0
 22
0.0
 32
0.0
 14
-571.5388953286
 24
-145.8284752418
 34
0.0
 15
571.9011871771
 25
145.8104886228
 35
0.0
146
0.0
 13
0.0
 23
0.0
 33
0.0
 16
1.0
 26
0.0
 36
0.0
 17
0.0
 27
1.0
 37
0.0
 76
     0
330
1F
331
29
  0
MLINESTYLE
  5
18
102
{ACAD_REACTORS
330
17
102
}
330
17
100
AcDbMlineStyle
  2
Standard
 70
     0
  3

 62
   256
 51
90.0
 52
90.0
 71
     2
 49
0.5
 62
   256
  6
BYLAYER
 49
-0.5
 62
   256
  6
BYLAYER
  0
ACDBPLACEHOLDER
  5
F
102
{ACAD_REACTORS
330
E
102
}
330
E
  0
SCALE
  5
48
102
{ACAD_REACTORS
330
47
102
}
330
47
100
AcDbScale
 70
     0
300
1:1
140
1.0
141
1.0
290
     1
  0
SCALE
  5
49
102
{ACAD_REACTORS
330
47
102
}
330
47
100
AcDbScale
 70
     0
300
1:2
140
1.0
141
2.0
290
     0
  0
SCALE
  5
4A
102
{ACAD_REACTORS
330
47
102
}
330
47
100
AcDbScale
 70
     0
300
1:4
140
1.0
141
4.0
290
     0
  0
SCALE
  5
4B
102
{ACAD_REACTORS
330
47
102
}
330
47
100
AcDbScale
 70
     0
300
1:5
140
1.0
141
5.0
290
     0
  0
SCALE
  5
4C
102
{ACAD_REACTORS
330
47
102
}
330
47
100
AcDbScale
 70
     0
300
1:8
140
1.0
141
8.0
290
     0
  0
SCALE
  5
4D
102
{ACAD_REACTORS
330
47
102
}
330
47
100
AcDbScale
 70
     0
300
1:10
140
1.0
141
10.0
290
     0
  0
SCALE
  5
4E
102
{ACAD_REACTORS
330
47
102
}
330
47
100
AcDbScale
 70
     0
300
1:16
140
1.0
141
16.0
290
     0
  0
SCALE
  5
4F
102
{ACAD_REACTORS
330
47
102
}
330
47
100
AcDbScale
 70
     0
300
1:20
140
1.0
141
20.0
290
     0
  0
SCALE
  5
50
102
{ACAD_REACTORS
330
47
102
}
330
47
100
AcDbScale
 70
     0
300
1:30
140
1.0
141
30.0
290
     0
  0
SCALE
  5
51
102
{ACAD_REACTORS
330
47
102
}
330
47
100
AcDbScale
 70
     0
300
1:40
140
1.0
141
40.0
290
     0
  0
SCALE
  5
52
102
{ACAD_REACTORS
330
47
102
}
330
47
100
AcDbScale
 70
     0
300
1:50
140
1.0
141
50.0
290
     0
  0
SCALE
  5
53
102
{ACAD_REACTORS
330
47
102
}
330
47
100
AcDbScale
 70
     0
300
1:100
140
1.0
141
100.0
290
     0
  0
SCALE
  5
54
102
{ACAD_REACTORS
330
47
102
}
330
47
100
AcDbScale
 70
     0
300
2:1
140
2.0
141
1.0
290
     0
  0
SCALE
  5
55
102
{ACAD_REACTORS
330
47
102
}
330
47
100
AcDbScale
 70
     0
300
4:1
140
4.0
141
1.0
290
     0
  0
SCALE
  5
56
102
{ACAD_REACTORS
330
47
102
}
330
47
100
AcDbScale
 70
     0
300
8:1
140
8.0
141
1.0
290
     0
  0
SCALE
  5
57
102
{ACAD_REACTORS
330
47
102
}
330
47
100
AcDbScale
 70
     0
300
10:1
140
10.0
141
1.0
290
     0
  0
SCALE
  5
58
102
{ACAD_REACTORS
330
47
102
}
330
47
100
AcDbScale
 70
     0
300
100:1
140
100.0
141
1.0
290
     0
  0
SCALE
  5
59
102
{ACAD_REACTORS
330
47
102
}
330
47
100
AcDbScale
 70
     0
300
1/128" = 1'-0"
140
0.0078125
141
12.0
290
     0
  0
SCALE
  5
5A
102
{ACAD_REACTORS
330
47
102
}
330
47
100
AcDbScale
 70
     0
300
1/64" = 1'-0"
140
0.015625
141
12.0
290
     0
  0
SCALE
  5
5B
102
{ACAD_REACTORS
330
47
102
}
330
47
100
AcDbScale
 70
     0
300
1/32" = 1'-0"
140
0.03125
141
12.0
290
     0
  0
SCALE
  5
5C
102
{ACAD_REACTORS
330
47
102
}
330
47
100
AcDbScale
 70
     0
300
1/16" = 1'-0"
140
0.0625
141
12.0
290
     0
  0
SCALE
  5
5D
102
{ACAD_REACTORS
330
47
102
}
330
47
100
AcDbScale
 70
     0
300
3/32" = 1'-0"
140
0.09375
141
12.0
290
     0
  0
SCALE
  5
5E
102
{ACAD_REACTORS
330
47
102
}
330
47
100
AcDbScale
 70
     0
300
1/8" = 1'-0"
140
0.125
141
12.0
290
     0
  0
SCALE
  5
5F
102
{ACAD_REACTORS
330
47
102
}
330
47
100
AcDbScale
 70
     0
300
3/16" = 1'-0"
140
0.1875
141
12.0
290
     0
  0
SCALE
  5
60
102
{ACAD_REACTORS
330
47
102
}
330
47
100
AcDbScale
 70
     0
300
1/4" = 1'-0"
140
0.25
141
12.0
290
     0
  0
SCALE
  5
61
102
{ACAD_REACTORS
330
47
102
}
330
47
100
AcDbScale
 70
     0
300
3/8" = 1'-0"
140
0.375
141
12.0
290
     0
  0
SCALE
  5
62
102
{ACAD_REACTORS
330
47
102
}
330
47
100
AcDbScale
 70
     0
300
1/2" = 1'-0"
140
0.5
141
12.0
290
     0
  0
SCALE
  5
63
102
{ACAD_REACTORS
330
47
102
}
330
47
100
AcDbScale
 70
     0
300
3/4" = 1'-0"
140
0.75
141
12.0
290
     0
  0
SCALE
  5
64
102
{ACAD_REACTORS
330
47
102
}
330
47
100
AcDbScale
 70
     0
300
1" = 1'-0"
140
1.0
141
12.0
290
     0
  0
SCALE
  5
65
102
{ACAD_REACTORS
330
47
102
}
330
47
100
AcDbScale
 70
     0
300
1-1/2" = 1'-0"
140
1.5
141
12.0
290
     0
  0
SCALE
  5
66
102
{ACAD_REACTORS
330
47
102
}
330
47
100
AcDbScale
 70
     0
300
3" = 1'-0"
140
3.0
141
12.0
290
     0
  0
SCALE
  5
67
102
{ACAD_REACTORS
330
47
102
}
330
47
100
AcDbScale
 70
     0
300
6" = 1'-0"
140
6.0
141
12.0
290
     0
  0
SCALE
  5
68
102
{ACAD_REACTORS
330
47
102
}
330
47
100
AcDbScale
 70
     0
300
1'-0" = 1'-0"
140
12.0
141
12.0
290
     0
  0
ENDSEC
  0
EOF
