  0
SECTION
  2
HEADER
  9
$ACADVER
  1
AC1015
  9
$ACADMAINTVER
 70
     6
  9
$DWGCODEPAGE
  3
ANSI_1252
  9
$INSBASE
 10
0.0
 20
0.0
 30
0.0
  9
$EXTMIN
 10
-140.0
 20
-580.0
 30
0.0
  9
$EXTMAX
 10
140.0
 20
580.0
 30
0.0
  9
$LIMMIN
 10
0.0
 20
0.0
  9
$LIMMAX
 10
420.0
 20
297.0
  9
$ORTHOMODE
 70
     0
  9
$REGENMODE
 70
     1
  9
$FILLMODE
 70
     1
  9
$QTEXTMODE
 70
     0
  9
$MIRRTEXT
 70
     1
  9
$LTSCALE
 40
1.0
  9
$ATTMODE
 70
     1
  9
$TEXTSIZE
 40
3.5
  9
$TRACEWID
 40
1.0
  9
$TEXTSTYLE
  7
Standard
  9
$CLAYER
  8
0
  9
$CELTYPE
  6
ByLayer
  9
$CECOLOR
 62
   256
  9
$CELTSCALE
 40
1.0
  9
$DISPSILH
 70
     0
  9
$DIMSCALE
 40
1.0
  9
$DIMASZ
 40
3.302
  9
$DIMEXO
 40
1.0
  9
$DIMDLI
 40
3.75
  9
$DIMRND
 40
0.0
  9
$DIMDLE
 40
0.0
  9
$DIMEXE
 40
1.0
  9
$DIMTP
 40
0.0
  9
$DIMTM
 40
0.0
  9
$DIMTXT
 40
3.5
  9
$DIMCEN
 40
2.5
  9
$DIMTSZ
 40
0.0
  9
$DIMTOL
 70
     0
  9
$DIMLIM
 70
     0
  9
$DIMTIH
 70
     1
  9
$DIMTOH
 70
     1
  9
$DIMSE1
 70
     0
  9
$DIMSE2
 70
     0
  9
$DIMTAD
 70
     1
  9
$DIMZIN
 70
     0
  9
$DIMBLK
  1

  9
$DIMASO
 70
     1
  9
$DIMSHO
 70
     1
  9
$DIMPOST
  1

  9
$DIMAPOST
  1

  9
$DIMALT
 70
     0
  9
$DIMALTD
 70
     3
  9
$DIMALTF
 40
0.0393700787
  9
$DIMLFAC
 40
1.0
  9
$DIMTOFL
 70
     1
  9
$DIMTVP
 40
0.0
  9
$DIMTIX
 70
     0
  9
$DIMSOXD
 70
     0
  9
$DIMSAH
 70
     0
  9
$DIMBLK1
  1

  9
$DIMBLK2
  1

  9
$DIMSTYLE
  2
ISO-25
  9
$DIMCLRD
 70
     0
  9
$DIMCLRE
 70
     0
  9
$DIMCLRT
 70
     0
  9
$DIMTFAC
 40
1.0
  9
$DIMGAP
 40
1.524
  9
$DIMJUST
 70
     0
  9
$DIMSD1
 70
     0
  9
$DIMSD2
 70
     0
  9
$DIMTOLJ
 70
     0
  9
$DIMTZIN
 70
     0
  9
$DIMALTZ
 70
     0
  9
$DIMALTTZ
 70
     0
  9
$DIMUPT
 70
     0
  9
$DIMDEC
 70
     2
  9
$DIMTDEC
 70
     2
  9
$DIMALTU
 70
     2
  9
$DIMALTTD
 70
     3
  9
$DIMTXSTY
  7
Standard
  9
$DIMAUNIT
 70
     0
  9
$DIMADEC
 70
     2
  9
$DIMALTRND
 40
0.0
  9
$DIMAZIN
 70
     0
  9
$DIMDSEP
 70
    44
  9
$DIMATFIT
 70
     3
  9
$DIMFRAC
 70
     0
  9
$DIMLDRBLK
  1

  9
$DIMLUNIT
 70
     2
  9
$DIMLWD
 70
    -2
  9
$DIMLWE
 70
    -2
  9
$DIMTMOVE
 70
     0
  9
$LUNITS
 70
     2
  9
$LUPREC
 70
     3
  9
$SKETCHINC
 40
1.0
  9
$FILLETRAD
 40
10.0
  9
$AUNITS
 70
     0
  9
$AUPREC
 70
     2
  9
$MENU
  1
.
  9
$ELEVATION
 40
0.0
  9
$PELEVATION
 40
0.0
  9
$THICKNESS
 40
0.0
  9
$LIMCHECK
 70
     0
  9
$CHAMFERA
 40
0.0
  9
$CHAMFERB
 40
0.0
  9
$CHAMFERC
 40
0.0
  9
$CHAMFERD
 40
0.0
  9
$SKPOLY
 70
     0
  9
$TDCREATE
 40
2459067.428897072
  9
$TDUCREATE
 40
2459067.095563739
  9
$TDUPDATE
 40
2459067.43210132
  9
$TDUUPDATE
 40
2459067.098767986
  9
$TDINDWG
 40
0.0000000116
  9
$TDUSRTIMER
 40
0.0000000116
  9
$USRTIMER
 70
     1
  9
$ANGBASE
 50
0.0
  9
$ANGDIR
 70
     0
  9
$PDMODE
 70
     0
  9
$PDSIZE
 40
-1.0
  9
$PLINEWID
 40
0.0
  9
$SPLFRAME
 70
     0
  9
$SPLINETYPE
 70
     6
  9
$SPLINESEGS
 70
     8
  9
$HANDSEED
  5
F7
  9
$SURFTAB1
 70
     6
  9
$SURFTAB2
 70
     6
  9
$SURFTYPE
 70
     6
  9
$SURFU
 70
     6
  9
$SURFV
 70
     6
  9
$UCSBASE
  2

  9
$UCSNAME
  2

  9
$UCSORG
 10
0.0
 20
0.0
 30
0.0
  9
$UCSXDIR
 10
1.0
 20
0.0
 30
0.0
  9
$UCSYDIR
 10
0.0
 20
1.0
 30
0.0
  9
$UCSORTHOREF
  2

  9
$UCSORTHOVIEW
 70
     0
  9
$UCSORGTOP
 10
0.0
 20
0.0
 30
0.0
  9
$UCSORGBOTTOM
 10
0.0
 20
0.0
 30
0.0
  9
$UCSORGLEFT
 10
0.0
 20
0.0
 30
0.0
  9
$UCSORGRIGHT
 10
0.0
 20
0.0
 30
0.0
  9
$UCSORGFRONT
 10
0.0
 20
0.0
 30
0.0
  9
$UCSORGBACK
 10
0.0
 20
0.0
 30
0.0
  9
$PUCSBASE
  2

  9
$PUCSNAME
  2

  9
$PUCSORG
 10
0.0
 20
0.0
 30
0.0
  9
$PUCSXDIR
 10
1.0
 20
0.0
 30
0.0
  9
$PUCSYDIR
 10
0.0
 20
1.0
 30
0.0
  9
$PUCSORTHOREF
  2

  9
$PUCSORTHOVIEW
 70
     0
  9
$PUCSORGTOP
 10
0.0
 20
0.0
 30
0.0
  9
$PUCSORGBOTTOM
 10
0.0
 20
0.0
 30
0.0
  9
$PUCSORGLEFT
 10
0.0
 20
0.0
 30
0.0
  9
$PUCSORGRIGHT
 10
0.0
 20
0.0
 30
0.0
  9
$PUCSORGFRONT
 10
0.0
 20
0.0
 30
0.0
  9
$PUCSORGBACK
 10
0.0
 20
0.0
 30
0.0
  9
$USERI1
 70
     0
  9
$USERI2
 70
     0
  9
$USERI3
 70
     0
  9
$USERI4
 70
     0
  9
$USERI5
 70
     0
  9
$USERR1
 40
0.0
  9
$USERR2
 40
0.0
  9
$USERR3
 40
0.0
  9
$USERR4
 40
0.0
  9
$USERR5
 40
0.0
  9
$WORLDVIEW
 70
     1
  9
$SHADEDGE
 70
     3
  9
$SHADEDIF
 70
    70
  9
$TILEMODE
 70
     1
  9
$MAXACTVP
 70
    64
  9
$PINSBASE
 10
0.0
 20
0.0
 30
0.0
  9
$PLIMCHECK
 70
     0
  9
$PEXTMIN
 10
1.0000000000E+20
 20
1.0000000000E+20
 30
1.0000000000E+20
  9
$PEXTMAX
 10
-1.0000000000E+20
 20
-1.0000000000E+20
 30
-1.0000000000E+20
  9
$PLIMMIN
 10
0.0
 20
0.0
  9
$PLIMMAX
 10
420.0
 20
297.0
  9
$UNITMODE
 70
     0
  9
$VISRETAIN
 70
     1
  9
$PLINEGEN
 70
     0
  9
$PSLTSCALE
 70
     1
  9
$TREEDEPTH
 70
  3020
  9
$CMLSTYLE
  2
Standard
  9
$CMLJUST
 70
     0
  9
$CMLSCALE
 40
20.0
  9
$PROXYGRAPHICS
 70
     1
  9
$MEASUREMENT
 70
     1
  9
$CELWEIGHT
370
    -1
  9
$ENDCAPS
280
     0
  9
$JOINSTYLE
280
     0
  9
$LWDISPLAY
290
     1
  9
$INSUNITS
 70
     4
  9
$HYPERLINKBASE
  1

  9
$STYLESHEET
  1

  9
$XEDIT
290
     1
  9
$CEPSNTYPE
380
     0
  9
$PSTYLEMODE
290
     1
  9
$FINGERPRINTGUID
  2
{917392C4-4A30-448A-8385-31547BC0DA16}
  9
$VERSIONGUID
  2
{FAEB1C32-E019-11D5-929B-00C0DF256EC4}
  9
$EXTNAMES
290
     1
  9
$PSVPSCALE
 40
0.0
  9
$OLESTARTUP
290
     0
  0
ENDSEC
  0
SECTION
  2
CLASSES
  0
CLASS
  1
ACDBDICTIONARYWDFLT
  2
AcDbDictionaryWithDefault
  3
ObjectDBX Classes
 90
        0
280
     0
281
     0
  0
CLASS
  1
VISUALSTYLE
  2
AcDbVisualStyle
  3
ObjectDBX Classes
 90
     4095
280
     0
281
     0
  0
CLASS
  1
MATERIAL
  2
AcDbMaterial
  3
ObjectDBX Classes
 90
     1153
280
     0
281
     0
  0
CLASS
  1
SCALE
  2
AcDbScale
  3
ObjectDBX Classes
 90
     1153
280
     0
281
     0
  0
CLASS
  1
TABLESTYLE
  2
AcDbTableStyle
  3
ObjectDBX Classes
 90
     4095
280
     0
281
     0
  0
CLASS
  1
MLEADERSTYLE
  2
AcDbMLeaderStyle
  3
ACDB_MLEADERSTYLE_CLASS
 90
     4095
280
     0
281
     0
  0
CLASS
  1
SUN
  2
AcDbSun
  3
SCENEOE
 90
     1153
280
     0
281
     0
  0
CLASS
  1
ACDBPLACEHOLDER
  2
AcDbPlaceHolder
  3
ObjectDBX Classes
 90
        0
280
     0
281
     0
  0
CLASS
  1
LAYOUT
  2
AcDbLayout
  3
ObjectDBX Classes
 90
        0
280
     0
281
     0
  0
ENDSEC
  0
SECTION
  2
TABLES
  0
TABLE
  2
VPORT
  5
8
330
0
100
AcDbSymbolTable
 70
     1
  0
VPORT
  5
29
330
8
100
AcDbSymbolTableRecord
100
AcDbViewportTableRecord
  2
*Active
 70
     0
 10
0.0
 20
0.0
 11
1.0
 21
1.0
 12
0.0
 22
0.0
 13
0.0
 23
0.0
 14
10.0
 24
10.0
 15
10.0
 25
10.0
 16
0.0
 26
0.0
 36
1.0
 17
0.0
 27
0.0
 37
0.0
 40
1183.2
 41
0.2413793103
 42
50.0
 43
0.0
 44
0.0
 50
0.0
 51
0.0
 71
     0
 72
   100
 73
     1
 74
     3
 75
     0
 76
     0
 77
     0
 78
     0
281
     0
 65
     1
110
0.0
120
0.0
130
0.0
111
1.0
121
0.0
131
0.0
112
0.0
122
1.0
132
0.0
 79
     0
146
0.0
  0
ENDTAB
  0
TABLE
  2
LTYPE
  5
5
330
0
100
AcDbSymbolTable
 70
     6
  0
LTYPE
  5
14
330
5
100
AcDbSymbolTableRecord
100
AcDbLinetypeTableRecord
  2
ByBlock
 70
     0
  3

 72
    65
 73
     0
 40
0.0
  0
LTYPE
  5
15
330
5
100
AcDbSymbolTableRecord
100
AcDbLinetypeTableRecord
  2
ByLayer
 70
     0
  3

 72
    65
 73
     0
 40
0.0
  0
LTYPE
  5
16
330
5
100
AcDbSymbolTableRecord
100
AcDbLinetypeTableRecord
  2
Continuous
 70
     0
  3
Solid line
 72
    65
 73
     0
 40
0.0
  0
LTYPE
  5
6E
330
5
100
AcDbSymbolTableRecord
100
AcDbLinetypeTableRecord
  2
HIDDEN
 70
     0
  3
Hidden __ __ __ __ __ __ __ __ __ __ __ __ __ __
 72
    65
 73
     2
 40
1.905
 49
1.27
 74
     0
 49
-0.635
 74
     0
  0
LTYPE
  5
6F
330
5
100
AcDbSymbolTableRecord
100
AcDbLinetypeTableRecord
  2
PHANTOM
 70
     0
  3
Phantom ______  __  __  ______  __  __  ______
 72
    65
 73
     6
 40
12.7
 49
6.35
 74
     0
 49
-1.27
 74
     0
 49
1.27
 74
     0
 49
-1.27
 74
     0
 49
1.27
 74
     0
 49
-1.27
 74
     0
  0
LTYPE
  5
70
330
5
100
AcDbSymbolTableRecord
100
AcDbLinetypeTableRecord
  2
CENTER
 70
     0
  3
Center ____ _ ____ _ ____ _ ____ _ ____ _ ____
 72
    65
 73
     4
 40
10.16
 49
6.35
 74
     0
 49
-1.27
 74
     0
 49
1.27
 74
     0
 49
-1.27
 74
     0
  0
LTYPE
  5
71
330
5
100
AcDbSymbolTableRecord
100
AcDbLinetypeTableRecord
  2
CENTERX2
 70
     0
  3
Center (2x) ________  __  ________  __  _____
 72
    65
 73
     4
 40
20.32
 49
12.7
 74
     0
 49
-2.54
 74
     0
 49
2.54
 74
     0
 49
-2.54
 74
     0
  0
LTYPE
  5
72
330
5
100
AcDbSymbolTableRecord
100
AcDbLinetypeTableRecord
  2
DOT2
 70
     0
  3
Dot (.5x) ........................................
 72
    65
 73
     2
 40
0.635
 49
0.0
 74
     0
 49
-0.635
 74
     0
  0
ENDTAB
  0
TABLE
  2
LAYER
  5
2
330
0
100
AcDbSymbolTable
 70
     1
  0
LAYER
  5
10
330
2
100
AcDbSymbolTableRecord
100
AcDbLayerTableRecord
  2
0
 70
     0
 62
     7
  6
Continuous
370
    -3
390
F
  0
ENDTAB
  0
TABLE
  2
STYLE
  5
3
330
0
100
AcDbSymbolTable
 70
     1
  0
STYLE
  5
11
330
3
100
AcDbSymbolTableRecord
100
AcDbTextStyleTableRecord
  2
Standard
 70
     0
 40
0.0
 41
1.0
 50
0.0
 71
     0
 42
3.5
  3
txt
  4

  0
ENDTAB
  0
TABLE
  2
VIEW
  5
6
330
0
100
AcDbSymbolTable
 70
     0
  0
ENDTAB
  0
TABLE
  2
UCS
  5
7
330
0
100
AcDbSymbolTable
 70
     0
  0
ENDTAB
  0
TABLE
  2
APPID
  5
9
330
0
100
AcDbSymbolTable
 70
     1
  0
APPID
  5
12
330
9
100
AcDbSymbolTableRecord
100
AcDbRegAppTableRecord
  2
ACAD
 70
     0
  0
ENDTAB
  0
TABLE
  2
DIMSTYLE
  5
A
330
0
100
AcDbSymbolTable
 70
     1
100
AcDbDimStyleTable
  0
DIMSTYLE
105
27
330
A
100
AcDbSymbolTableRecord
100
AcDbDimStyleTableRecord
  2
ISO-25
 70
     0
 41
2.5
 42
0.625
 43
3.75
 44
1.25
 73
     0
 74
     0
 77
     1
 78
     8
140
2.5
141
2.5
143
0.0393700787
147
0.625
171
     3
172
     1
178
     0
271
     2
272
     2
274
     3
278
    44
283
     0
284
     8
340
11
  0
ENDTAB
  0
TABLE
  2
BLOCK_RECORD
  5
1
330
0
100
AcDbSymbolTable
 70
     1
  0
BLOCK_RECORD
  5
1F
330
1
100
AcDbSymbolTableRecord
100
AcDbBlockTableRecord
  2
*Model_Space
340
22
  0
BLOCK_RECORD
  5
1B
330
1
100
AcDbSymbolTableRecord
100
AcDbBlockTableRecord
  2
*Paper_Space
340
1E
  0
BLOCK_RECORD
  5
23
330
1
100
AcDbSymbolTableRecord
100
AcDbBlockTableRecord
  2
*Paper_Space0
340
26
  0
ENDTAB
  0
ENDSEC
  0
SECTION
  2
BLOCKS
  0
BLOCK
  5
20
330
1F
100
AcDbEntity
  8
0
100
AcDbBlockBegin
  2
*Model_Space
 70
     0
 10
0.0
 20
0.0
 30
0.0
  3
*Model_Space
  1

  0
ENDBLK
  5
21
330
1F
100
AcDbEntity
  8
0
100
AcDbBlockEnd
  0
BLOCK
  5
1C
330
1B
100
AcDbEntity
 67
     1
  8
0
100
AcDbBlockBegin
  2
*Paper_Space
 70
     0
 10
0.0
 20
0.0
 30
0.0
  3
*Paper_Space
  1

  0
ENDBLK
  5
1D
330
1B
100
AcDbEntity
 67
     1
  8
0
100
AcDbBlockEnd
  0
BLOCK
  5
24
330
23
100
AcDbEntity
  8
0
100
AcDbBlockBegin
  2
*Paper_Space0
 70
     0
 10
0.0
 20
0.0
 30
0.0
  3
*Paper_Space0
  1

  0
ENDBLK
  5
25
330
23
100
AcDbEntity
  8
0
100
AcDbBlockEnd
  0
ENDSEC
  0
SECTION
  2
ENTITIES
  0
LINE
  5
73
330
1F
100
AcDbEntity
  8
0
  6
Continuous
 62
     7
370
    25
100
AcDbLine
 10
-34.7770012727
 20
554.3554766717
 30
0.0
 11
-38.4404628112
 21
554.3554766717
 31
0.0
  0
LINE
  5
74
330
1F
100
AcDbEntity
  8
0
  6
Continuous
 62
     7
370
    25
100
AcDbLine
 10
-38.4404628112
 20
554.3554766717
 30
0.0
 11
-38.4404628112
 21
563.8804766717
 31
0.0
  0
LINE
  5
75
330
1F
100
AcDbEntity
  8
0
  6
Continuous
 62
     7
370
    25
100
AcDbLine
 10
-38.4404628112
 20
563.8804766717
 30
0.0
 11
-34.7770012727
 21
563.8804766717
 31
0.0
  0
LINE
  5
76
330
1F
100
AcDbEntity
  8
0
  6
Continuous
 62
     7
370
    25
100
AcDbLine
 10
-34.7770012727
 20
563.8804766717
 30
0.0
 11
-34.7770012727
 21
560.2170151333
 31
0.0
  0
LINE
  5
77
330
1F
100
AcDbEntity
  8
0
  6
Continuous
 62
     7
370
    25
100
AcDbLine
 10
-34.7770012727
 20
560.2170151333
 30
0.0
 11
-27.9385397343
 21
560.2170151333
 31
0.0
  0
LINE
  5
78
330
1F
100
AcDbEntity
  8
0
  6
Continuous
 62
     7
370
    25
100
AcDbLine
 10
-27.9385397343
 20
560.2170151333
 30
0.0
 11
-27.9385397343
 21
563.8804766717
 31
0.0
  0
LINE
  5
79
330
1F
100
AcDbEntity
  8
0
  6
Continuous
 62
     7
370
    25
100
AcDbLine
 10
-27.9385397343
 20
563.8804766717
 30
0.0
 11
-24.2750781958
 21
563.8804766717
 31
0.0
  0
LINE
  5
7A
330
1F
100
AcDbEntity
  8
0
  6
Continuous
 62
     7
370
    25
100
AcDbLine
 10
-24.2750781958
 20
563.8804766717
 30
0.0
 11
-24.2750781958
 21
554.3554766717
 31
0.0
  0
LINE
  5
7B
330
1F
100
AcDbEntity
  8
0
  6
Continuous
 62
     7
370
    25
100
AcDbLine
 10
-24.2750781958
 20
554.3554766717
 30
0.0
 11
-27.9385397343
 21
554.3554766717
 31
0.0
  0
LINE
  5
7C
330
1F
100
AcDbEntity
  8
0
  6
Continuous
 62
     7
370
    25
100
AcDbLine
 10
-27.9385397343
 20
554.3554766717
 30
0.0
 11
-27.9385397343
 21
558.5073997486
 31
0.0
  0
LINE
  5
7D
330
1F
100
AcDbEntity
  8
0
  6
Continuous
 62
     7
370
    25
100
AcDbLine
 10
-27.9385397343
 20
558.5073997486
 30
0.0
 11
-34.7770012727
 21
558.5073997486
 31
0.0
  0
LINE
  5
7E
330
1F
100
AcDbEntity
  8
0
  6
Continuous
 62
     7
370
    25
100
AcDbLine
 10
-34.7770012727
 20
558.5073997486
 30
0.0
 11
-34.7770012727
 21
554.3554766717
 31
0.0
  0
LINE
  5
7F
330
1F
100
AcDbEntity
  8
0
  6
Continuous
 62
     7
370
    25
100
AcDbLine
 10
111.5877645079
 20
-572.3586871832
 30
0.0
 11
110.0002645079
 21
-572.3586871832
 31
0.0
  0
LINE
  5
80
330
1F
100
AcDbEntity
  8
0
  6
Continuous
 62
     7
370
    25
100
AcDbLine
 10
110.0002645079
 20
-572.3586871832
 30
0.0
 11
110.0002645079
 21
-568.9191038499
 31
0.0
  0
LINE
  5
81
330
1F
100
AcDbEntity
  8
0
  6
Continuous
 62
     7
370
    25
100
AcDbLine
 10
110.0002645079
 20
-568.9191038499
 30
0.0
 11
110.617625619
 21
-568.9191038499
 31
0.0
  0
LINE
  5
82
330
1F
100
AcDbEntity
  8
0
  6
Continuous
 62
     7
370
    25
100
AcDbLine
 10
110.617625619
 20
-568.9191038499
 30
0.0
 11
110.617625619
 21
-571.7413260721
 31
0.0
  0
LINE
  5
83
330
1F
100
AcDbEntity
  8
0
  6
Continuous
 62
     7
370
    25
100
AcDbLine
 10
110.617625619
 20
-571.7413260721
 30
0.0
 11
111.5877645079
 21
-571.7413260721
 31
0.0
  0
LINE
  5
84
330
1F
100
AcDbEntity
  8
0
  6
Continuous
 62
     7
370
    25
100
AcDbLine
 10
111.5877645079
 20
-571.7413260721
 30
0.0
 11
111.5877645079
 21
-572.3586871832
 31
0.0
  0
SPLINE
  5
85
330
1F
100
AcDbEntity
  8
0
  6
Continuous
 62
     7
370
    25
100
AcDbSpline
210
0.0
220
0.0
230
1.0
 70
     8
 71
     3
 72
    23
 73
    19
 74
     0
 42
0.000000001
 43
0.00000001
 40
0.0
 40
0.0
 40
0.0
 40
0.0
 40
0.0667486513092655
 40
0.1311519760901745
 40
0.19373219705709
 40
0.2553255433785925
 40
0.3163881857773738
 40
0.3780268629068886
 40
0.4404056792053952
 40
0.504557429324088
 40
0.5686582873620105
 40
0.6309861790899878
 40
0.6922881348732944
 40
0.752615446979616
 40
0.8131995384355553
 40
0.8740161248607896
 40
0.9361583555105166
 40
1.0
 40
1.0
 40
1.0
 40
1.0
 10
113.7381931103588
 20
-572.4468816276619
 30
0.0
 10
113.6749338314073
 20
-572.4454480340629
 30
0.0
 10
113.5506379950451
 20
-572.4426312185963
 30
0.0
 10
113.3687304821041
 20
-572.4158445894594
 30
0.0
 10
113.1944473665784
 20
-572.3754945686262
 30
0.0
 10
113.0292527269908
 20
-572.31527432717
 30
0.0
 10
112.8714641971342
 20
-572.239993961629
 30
0.0
 10
112.722241095676
 20
-572.1472816781126
 30
0.0
 10
112.5816335713649
 20
-572.037290690831
 30
0.0
 10
112.4504481720108
 20
-571.9128379098087
 30
0.0
 10
112.3315938824954
 20
-571.7766592707563
 30
0.0
 10
112.2266816586413
 20
-571.6327986147843
 30
0.0
 10
112.138185870528
 20
-571.4823549107923
 30
0.0
 10
112.0661032802668
 20
-571.3252577479335
 30
0.0
 10
112.0092762617219
 20
-571.1624834468397
 30
0.0
 10
111.9691912568375
 20
-570.9930406650583
 30
0.0
 10
111.9455120879035
 20
-570.8173357878965
 30
0.0
 10
111.9422137171642
 20
-570.6979935229516
 30
0.0
 10
111.9405422857061
 20
-570.6375174783564
 30
0.0
  0
SPLINE
  5
86
330
1F
100
AcDbEntity
  8
0
  6
Continuous
 62
     7
370
    25
100
AcDbSpline
210
0.0
220
0.0
230
1.0
 70
     8
 71
     3
 72
    31
 73
    27
 74
     0
 42
0.000000001
 43
0.00000001
 40
0.0
 40
0.0
 40
0.0
 40
0.0
 40
0.0431143456619578
 40
0.0856827648242168
 40
0.1275943241639205
 40
0.1690586225605273
 40
0.2104320288213115
 40
0.2518111664630429
 40
0.2934438397982161
 40
0.3353808532218233
 40
0.3774766059607824
 40
0.4186884906768059
 40
0.459873033671199
 40
0.5008729046253072
 40
0.5418727755794159
 40
0.5832117768673291
 40
0.6247632017340737
 40
0.6669876223820845
 40
0.7093697058942319
 40
0.7511026519448484
 40
0.7925683801202239
 40
0.833545108550261
 40
0.8748274225565273
 40
0.9160177232110684
 40
0.9578592039763052
 40
0.9999999999999999
 40
0.9999999999999999
 40
0.9999999999999999
 40
0.9999999999999999
 10
111.9405422857061
 20
-570.6375174783564
 30
0.0
 10
111.9410668771858
 20
-570.5968323614849
 30
0.0
 10
111.9421094176138
 20
-570.5159772946338
 30
0.0
 10
111.9546679152663
 20
-570.3961542128376
 30
0.0
 10
111.9727485412138
 20
-570.2786699167225
 30
0.0
 10
111.9994889290778
 20
-570.1639928178834
 30
0.0
 10
112.0319716657696
 20
-570.0513139227141
 30
0.0
 10
112.0740576396838
 20
-569.9416820742792
 30
0.0
 10
112.1219628674617
 20
-569.8339261029411
 30
0.0
 10
112.1779356156597
 20
-569.7293187416509
 30
0.0
 10
112.2401718995613
 20
-569.628822465547
 30
0.0
 10
112.3080772263662
 20
-569.5329113331077
 30
0.0
 10
112.3818223430951
 20
-569.4427450501324
 30
0.0
 10
112.4611696922972
 20
-569.3577310809479
 30
0.0
 10
112.5463927156814
 20
-569.2784282285435
 30
0.0
 10
112.6363703924058
 20
-569.2037138506364
 30
0.0
 10
112.7328477654839
 20
-569.1355726267665
 30
0.0
 10
112.8337132479215
 20
-569.0723404123399
 30
0.0
 10
112.9383981833251
 20
-569.0151606174347
 30
0.0
 10
113.0464764090484
 20
-568.966490886088
 30
0.0
 10
113.1557213001403
 20
-568.9239884387079
 30
0.0
 10
113.2675922210109
 20
-568.8904436279275
 30
0.0
 10
113.3808902757437
 20
-568.8631217304985
 30
0.0
 10
113.4968258245509
 20
-568.845053290885
 30
0.0
 10
113.6143514556579
 20
-568.8324951410135
 30
0.0
 10
113.6936029847591
 20
-568.8314392383868
 30
0.0
 10
113.7333699766783
 20
-568.8309094054397
 30
0.0
  0
SPLINE
  5
87
330
1F
100
AcDbEntity
  8
0
  6
Continuous
 62
     7
370
    25
100
AcDbSpline
210
0.0
220
0.0
230
1.0
 70
     8
 71
     3
 72
    23
 73
    19
 74
     0
 42
0.000000001
 43
0.00000001
 40
0.0
 40
0.0
 40
0.0
 40
0.0
 40
0.0633955966615918
 40
0.1251572666424244
 40
0.1856494665262529
 40
0.2459766793408251
 40
0.3061083686579624
 40
0.3673505880891746
 40
0.4299020782799305
 40
0.4945399581832011
 40
0.5593725826940414
 40
0.622409685845748
 40
0.6843574258194687
 40
0.745806600772221
 40
0.8074302750159065
 40
0.8699955160697894
 40
0.9339278677192967
 40
1.0
 40
1.0
 40
1.0
 40
1.0
 10
113.7333699766783
 20
-568.8309094054397
 30
0.0
 10
113.7931713483511
 20
-568.8324577700441
 30
0.0
 10
113.9112328007889
 20
-568.8355145924714
 30
0.0
 10
114.0848585933584
 20
-568.8609955931341
 30
0.0
 10
114.2521791477951
 20
-568.9025132306657
 30
0.0
 10
114.4131188022258
 20
-568.96022574978
 30
0.0
 10
114.5672745822561
 20
-569.035696298777
 30
0.0
 10
114.7151902469359
 20
-569.1267852380744
 30
0.0
 10
114.8563359693643
 20
-569.2352118168275
 30
0.0
 10
114.9892654013563
 20
-569.3584466218357
 30
0.0
 10
115.1121161708325
 20
-569.4924590912722
 30
0.0
 10
115.2185664343357
 20
-569.6367473401642
 30
0.0
 10
115.3093433138011
 20
-569.7875727150351
 30
0.0
 10
115.3845794343723
 20
-569.9453393568734
 30
0.0
 10
115.4418857439761
 20
-570.1111398749107
 30
0.0
 10
115.4820999517379
 20
-570.2841289056498
 30
0.0
 10
115.5079355878665
 20
-570.4642572352926
 30
0.0
 10
115.5109070835299
 20
-570.5869000760167
 30
0.0
 10
115.5124172857061
 20
-570.6492308030091
 30
0.0
  0
SPLINE
  5
88
330
1F
100
AcDbEntity
  8
0
  6
Continuous
 62
     7
370
    25
100
AcDbSpline
210
0.0
220
0.0
230
1.0
 70
     8
 71
     3
 72
    23
 73
    19
 74
     0
 42
0.000000001
 43
0.00000001
 40
0.0
 40
0.0
 40
0.0
 40
0.0
 40
0.0657223151915757
 40
0.1295079307025746
 40
0.1917221026921674
 40
0.2531611245021116
 40
0.314315703735261
 40
0.3759517397728812
 40
0.4386196008234128
 40
0.5029729018927948
 40
0.5671286457242729
 40
0.62955228957967
 40
0.6904767824348841
 40
0.7510723384108375
 40
0.8116678943867873
 40
0.872929355587391
 40
0.9355013707158076
 40
1.0
 40
1.0
 40
1.0
 40
1.0
 10
115.5124172857061
 20
-570.6492308030091
 30
0.0
 10
115.5108089857335
 20
-570.710859206671
 30
0.0
 10
115.5076397790373
 20
-570.832299953356
 30
0.0
 10
115.4831546755001
 20
-571.0107683295023
 30
0.0
 10
115.4422632554386
 20
-571.1819042873037
 30
0.0
 10
115.3859289058151
 20
-571.3460951968491
 30
0.0
 10
115.3120572840295
 20
-571.5025457737285
 30
0.0
 10
115.2230506525584
 20
-571.6522549330807
 30
0.0
 10
115.1165602955967
 20
-571.7938333380844
 30
0.0
 10
114.9964703346737
 20
-571.9272050123841
 30
0.0
 10
114.8642617095116
 20
-572.0482684252519
 30
0.0
 10
114.7242317876434
 20
-572.1549553487706
 30
0.0
 10
114.5770271407027
 20
-572.2453578216746
 30
0.0
 10
114.4228632293287
 20
-572.3194344352511
 30
0.0
 10
114.2614094564082
 20
-572.3769225669727
 30
0.0
 10
114.0930646325014
 20
-572.4174846211895
 30
0.0
 10
113.9178391747319
 20
-572.442135000566
 30
0.0
 10
113.7986773659222
 20
-572.4452835063374
 30
0.0
 10
113.7381931103588
 20
-572.4468816276619
 30
0.0
  0
LINE
  5
89
330
1F
100
AcDbEntity
  8
0
  6
Continuous
 62
     7
370
    25
100
AcDbLine
 10
119.2358764871
 20
-572.3586871832
 30
0.0
 11
118.5771742302
 21
-572.3586871832
 31
0.0
  0
LINE
  5
8A
330
1F
100
AcDbEntity
  8
0
  6
Continuous
 62
     7
370
    25
100
AcDbLine
 10
118.5771742302
 20
-572.3586871832
 30
0.0
 11
119.9669257492
 21
-568.9191038499
 31
0.0
  0
LINE
  5
8B
330
1F
100
AcDbEntity
  8
0
  6
Continuous
 62
     7
370
    25
100
AcDbLine
 10
119.9669257492
 20
-568.9191038499
 30
0.0
 11
120.539500619
 21
-568.9191038499
 31
0.0
  0
LINE
  5
8C
330
1F
100
AcDbEntity
  8
0
  6
Continuous
 62
     7
370
    25
100
AcDbLine
 10
120.539500619
 20
-568.9191038499
 30
0.0
 11
121.928563119
 21
-572.3586871832
 31
0.0
  0
LINE
  5
8D
330
1F
100
AcDbEntity
  8
0
  6
Continuous
 62
     7
370
    25
100
AcDbLine
 10
121.928563119
 20
-572.3586871832
 30
0.0
 11
121.269171843
 21
-572.3586871832
 31
0.0
  0
LINE
  5
8E
330
1F
100
AcDbEntity
  8
0
  6
Continuous
 62
     7
370
    25
100
AcDbLine
 10
121.269171843
 20
-572.3586871832
 30
0.0
 11
121.0018324333
 21
-571.6531316277
 31
0.0
  0
LINE
  5
8F
330
1F
100
AcDbEntity
  8
0
  6
Continuous
 62
     7
370
    25
100
AcDbLine
 10
121.0018324333
 20
-571.6531316277
 30
0.0
 11
119.5032158968
 21
-571.6531316277
 31
0.0
  0
LINE
  5
90
330
1F
100
AcDbEntity
  8
0
  6
Continuous
 62
     7
370
    25
100
AcDbLine
 10
119.5032158968
 20
-571.6531316277
 30
0.0
 11
119.2358764871
 21
-572.3586871832
 31
0.0
  0
LINE
  5
91
330
1F
100
AcDbEntity
  8
0
  6
Continuous
 62
     7
370
    25
100
AcDbLine
 10
22.9835756503
 20
554.3554766717
 30
0.0
 11
19.3201141119
 21
554.3554766717
 31
0.0
  0
LINE
  5
92
330
1F
100
AcDbEntity
  8
0
  6
Continuous
 62
     7
370
    25
100
AcDbLine
 10
19.3201141119
 20
554.3554766717
 30
0.0
 11
19.3201141119
 21
563.8804766717
 31
0.0
  0
LINE
  5
93
330
1F
100
AcDbEntity
  8
0
  6
Continuous
 62
     7
370
    25
100
AcDbLine
 10
19.3201141119
 20
563.8804766717
 30
0.0
 11
22.9835756503
 21
563.8804766717
 31
0.0
  0
LINE
  5
94
330
1F
100
AcDbEntity
  8
0
  6
Continuous
 62
     7
370
    25
100
AcDbLine
 10
22.9835756503
 20
563.8804766717
 30
0.0
 11
22.9835756503
 21
554.3554766717
 31
0.0
  0
LINE
  5
95
330
1F
100
AcDbEntity
  8
0
  6
Continuous
 62
     7
370
    25
100
AcDbLine
 10
5.063142958
 20
554.3554766717
 30
0.0
 11
0.5143448811
 21
554.3554766717
 31
0.0
  0
LINE
  5
96
330
1F
100
AcDbEntity
  8
0
  6
Continuous
 62
     7
370
    25
100
AcDbLine
 10
0.5143448811
 20
554.3554766717
 30
0.0
 11
0.5143448811
 21
563.8804766717
 31
0.0
  0
LINE
  5
97
330
1F
100
AcDbEntity
  8
0
  6
Continuous
 62
     7
370
    25
100
AcDbLine
 10
0.5143448811
 20
563.8804766717
 30
0.0
 11
4.9963611071
 21
563.8804766717
 31
0.0
  0
SPLINE
  5
98
330
1F
100
AcDbEntity
  8
0
  6
Continuous
 62
     7
370
    25
100
AcDbSpline
210
0.0
220
0.0
230
1.0
 70
     8
 71
     3
 72
    39
 73
    35
 74
     0
 42
0.000000001
 43
0.00000001
 40
0.0
 40
0.0
 40
0.0
 40
0.0
 40
0.0394569160551793
 40
0.07778455308824
 40
0.114702397014058
 40
0.1503586267142288
 40
0.1846063448320806
 40
0.2177425154103592
 40
0.2496239421290007
 40
0.2801035239467933
 40
0.3093474039546106
 40
0.3374913941560149
 40
0.3642769087161066
 40
0.3898179236964932
 40
0.4139993853790757
 40
0.4371347009724291
 40
0.4590454868141294
 40
0.4796625245629758
 40
0.5192174011962671
 40
0.5575458209504784
 40
0.5946568338129159
 40
0.6308707389899181
 40
0.666103203532352
 40
0.7006161908362573
 40
0.7343540925667337
 40
0.7676831469835519
 40
0.8000093827757848
 40
0.8306512652276471
 40
0.860097225571405
 40
0.8884789847744335
 40
0.9163519843306857
 40
0.9439582159836366
 40
0.9716729062718794
 40
1.0
 40
1.0
 40
1.0
 40
1.0
 10
4.996361107066087
 20
563.880476671715
 30
0.0
 10
5.173812152577919
 20
563.880138213327
 30
0.0
 10
5.52363549535706
 20
563.8794709834194
 30
0.0
 10
6.039454248036007
 20
563.8733712666434
 30
0.0
 10
6.53815898024714
 20
563.8649069657164
 30
0.0
 10
7.018288215498972
 20
563.8481850145431
 30
0.0
 10
7.481433123543552
 20
563.8324813622331
 30
0.0
 10
7.927273501856049
 20
563.8091143424261
 30
0.0
 10
8.355881120851109
 20
563.781837298843
 30
0.0
 10
8.766983258150116
 20
563.7546661855765
 30
0.0
 10
9.160572380294008
 20
563.7192123500336
 30
0.0
 10
9.537374353466342
 20
563.6825582802425
 30
0.0
 10
9.896459611695406
 20
563.6372731330729
 30
0.0
 10
10.23759554988355
 20
563.5923939332768
 30
0.0
 10
10.56161719732549
 20
563.5433040769813
 30
0.0
 10
10.86780084687775
 20
563.4868236669867
 30
0.0
 10
11.15792790636021
 20
563.4315111967379
 30
0.0
 10
11.51728632103937
 20
563.3467106317695
 30
0.0
 10
11.94510720803793
 20
563.2313797019086
 30
0.0
 10
12.43810832903742
 20
563.0742449565186
 30
0.0
 10
12.90678607798704
 20
562.8933785246071
 30
0.0
 10
13.35382540007325
 20
562.6965114387516
 30
0.0
 10
13.77673803960005
 20
562.4761860643064
 30
0.0
 10
14.17587673214217
 20
562.2362142541081
 30
0.0
 10
14.55101175256975
 20
561.9750120479998
 30
0.0
 10
14.90319749501796
 20
561.6992575896788
 30
0.0
 10
15.22290333500969
 20
561.4062789404115
 30
0.0
 10
15.50203674077179
 20
561.0974796219363
 30
0.0
 10
15.73836134120832
 20
560.7764497897593
 30
0.0
 10
15.9311586517917
 20
560.4417718274466
 30
0.0
 10
16.0810753141522
 20
560.0946952444594
 30
0.0
 10
16.1879987440534
 20
559.7354824271674
 30
0.0
 10
16.25608503931692
 20
559.364150657238
 30
0.0
 10
16.26348771289186
 20
559.1119109921902
 30
0.0
 10
16.26722949648916
 20
558.9844129697918
 30
0.0
  0
SPLINE
  5
99
330
1F
100
AcDbEntity
  8
0
  6
Continuous
 62
     7
370
    25
100
AcDbSpline
210
0.0
220
0.0
230
1.0
 70
     8
 71
     3
 72
    43
 73
    39
 74
     0
 42
0.000000001
 43
0.00000001
 40
0.0
 40
0.0
 40
0.0
 40
0.0
 40
0.0205238224460728
 40
0.0406413626751601
 40
0.0607834190586391
 40
0.0810079980591248
 40
0.1014374252837447
 40
0.122289252109855
 40
0.1437686774803284
 40
0.1658536878275924
 40
0.1885036163712958
 40
0.2116221409435104
 40
0.2350941863568989
 40
0.2592164542266704
 40
0.2840754843382988
 40
0.3095533943108306
 40
0.3359898402757968
 40
0.3631842913581067
 40
0.4188123733141569
 40
0.4752687651222418
 40
0.5327931553346812
 40
0.5915226136178041
 40
0.6070161340500535
 40
0.6239132742197764
 40
0.6420630607155574
 40
0.6616408305636818
 40
0.6824931504515178
 40
0.7046228070916848
 40
0.7280321310278298
 40
0.7528663335514215
 40
0.7791330595127122
 40
0.8066787363320393
 40
0.8355104628975728
 40
0.8657726801390081
 40
0.8973252486129306
 40
0.9301644290230047
 40
0.9644375276928254
 40
1.0
 40
1.0
 40
1.0
 40
1.0
 10
16.26722949648916
 20
558.9844129697918
 30
0.0
 10
16.2652844778735
 20
558.893325013314
 30
0.0
 10
16.26143294353205
 20
558.7129522448258
 30
0.0
 10
16.22275315118421
 20
558.445603864624
 30
0.0
 10
16.16476606158249
 20
558.1833643862127
 30
0.0
 10
16.07946081847089
 20
557.9271322029542
 30
0.0
 10
15.97283951521008
 20
557.6756365584231
 30
0.0
 10
15.83922154535532
 20
557.4310593162454
 30
0.0
 10
15.6855214908033
 20
557.1898700296214
 30
0.0
 10
15.50501578596174
 20
556.9577157896204
 30
0.0
 10
15.30418807520439
 20
556.7333844646812
 30
0.0
 10
15.0874430381392
 20
556.5155430349364
 30
0.0
 10
14.85126477416422
 20
556.3088088927475
 30
0.0
 10
14.59686627393664
 20
556.112190011822
 30
0.0
 10
14.3243309970334
 20
555.9252963493913
 30
0.0
 10
14.03229055631509
 20
555.7499199717223
 30
0.0
 10
13.72422250936269
 20
555.5816715293162
 30
0.0
 10
13.28640687408465
 20
555.3735062817613
 30
0.0
 10
12.71397341059955
 20
555.1398270462867
 30
0.0
 10
11.99880634129092
 20
554.9044685928523
 30
0.0
 10
11.25520564924039
 20
554.7178329073433
 30
0.0
 10
10.67962282310712
 20
554.6143975590036
 30
0.0
 10
10.27940304395334
 20
554.5581655896276
 30
0.0
 10
10.05684295353485
 20
554.5311124712645
 30
0.0
 10
9.815508944669379
 20
554.50953456922
 30
0.0
 10
9.556761330928309
 20
554.4859266824625
 30
0.0
 10
9.280042864856073
 20
554.4652812876512
 30
0.0
 10
8.98618691258576
 20
554.4462650820601
 30
0.0
 10
8.674529795059879
 20
554.4289327239544
 30
0.0
 10
8.344361966223529
 20
554.4145636004519
 30
0.0
 10
7.995919670724012
 20
554.3980052249484
 30
0.0
 10
7.629498027271993
 20
554.3876144003592
 30
0.0
 10
7.245350024316505
 20
554.3776062183673
 30
0.0
 10
6.843352225438434
 20
554.3710134427995
 30
0.0
 10
6.423619300176664
 20
554.361789593448
 30
0.0
 10
5.985999591461816
 20
554.3597938482733
 30
0.0
 10
5.530626853197783
 20
554.3543299655435
 30
0.0
 10
5.220877224793997
 20
554.3550897602961
 30
0.0
 10
5.063142958027625
 20
554.3554766717149
 30
0.0
  0
CIRCLE
  5
9A
330
1F
100
AcDbEntity
  8
0
  6
Continuous
 62
     7
370
    25
100
AcDbCircle
 10
-120.0
 20
-560.0
 30
0.0
 40
1.650000000000006
  0
CIRCLE
  5
9B
330
1F
100
AcDbEntity
  8
0
  6
Continuous
 62
     7
370
    25
100
AcDbCircle
 10
120.0
 20
-560.0
 30
0.0
 40
1.65000000000002
  0
CIRCLE
  5
9C
330
1F
100
AcDbEntity
  8
0
  6
Continuous
 62
     7
370
    25
100
AcDbCircle
 10
-56.0
 20
-23.0
 30
0.0
 40
1.999999999999993
  0
CIRCLE
  5
9D
330
1F
100
AcDbEntity
  8
0
  6
Continuous
 62
     7
370
    25
100
AcDbCircle
 10
31.0
 20
-21.0
 30
0.0
 40
2.5
  0
CIRCLE
  5
9E
330
1F
100
AcDbEntity
  8
0
  6
Continuous
 62
     7
370
    25
100
AcDbCircle
 10
89.0
 20
-21.0
 30
0.0
 40
2.5
  0
CIRCLE
  5
9F
330
1F
100
AcDbEntity
  8
0
  6
Continuous
 62
     7
370
    25
100
AcDbCircle
 10
89.0
 20
-165.0
 30
0.0
 40
2.5
  0
CIRCLE
  5
A0
330
1F
100
AcDbEntity
  8
0
  6
Continuous
 62
     7
370
    25
100
AcDbCircle
 10
31.0
 20
-165.0
 30
0.0
 40
2.5
  0
CIRCLE
  5
A1
330
1F
100
AcDbEntity
  8
0
  6
Continuous
 62
     7
370
    25
100
AcDbCircle
 10
0.0
 20
366.18
 30
0.0
 40
1.999999999999996
  0
CIRCLE
  5
A2
330
1F
100
AcDbEntity
  8
0
  6
Continuous
 62
     7
370
    25
100
AcDbCircle
 10
120.0
 20
-273.0
 30
0.0
 40
1.65000000000002
  0
CIRCLE
  5
A3
330
1F
100
AcDbEntity
  8
0
  6
Continuous
 62
     7
370
    25
100
AcDbCircle
 10
-120.0
 20
-273.0
 30
0.0
 40
1.650000000000006
  0
CIRCLE
  5
A4
330
1F
100
AcDbEntity
  8
0
  6
Continuous
 62
     7
370
    25
100
AcDbCircle
 10
120.0
 20
0.0
 30
0.0
 40
1.650000000000006
  0
CIRCLE
  5
A5
330
1F
100
AcDbEntity
  8
0
  6
Continuous
 62
     7
370
    25
100
AcDbCircle
 10
-120.0
 20
0.0
 30
0.0
 40
1.649999999999991
  0
CIRCLE
  5
A6
330
1F
100
AcDbEntity
  8
0
  6
Continuous
 62
     7
370
    25
100
AcDbCircle
 10
120.0
 20
286.18
 30
0.0
 40
1.65000000000002
  0
CIRCLE
  5
A7
330
1F
100
AcDbEntity
  8
0
  6
Continuous
 62
     7
370
    25
100
AcDbCircle
 10
-120.0
 20
286.18
 30
0.0
 40
1.650000000000006
  0
CIRCLE
  5
A8
330
1F
100
AcDbEntity
  8
0
  6
Continuous
 62
     7
370
    25
100
AcDbCircle
 10
120.0
 20
560.0
 30
0.0
 40
1.65000000000002
  0
CIRCLE
  5
A9
330
1F
100
AcDbEntity
  8
0
  6
Continuous
 62
     7
370
    25
100
AcDbCircle
 10
0.0
 20
540.0
 30
0.0
 40
2.000000000000001
  0
LINE
  5
AA
330
1F
100
AcDbEntity
  8
0
  6
Continuous
 62
     7
370
    25
100
AcDbLine
 10
30.1
 20
357.9
 30
0.0
 11
30.1
 21
352.1
 31
0.0
  0
LINE
  5
AB
330
1F
100
AcDbEntity
  8
0
  6
Continuous
 62
     7
370
    25
100
AcDbLine
 10
39.9
 20
357.9
 30
0.0
 11
30.1
 21
357.9
 31
0.0
  0
LINE
  5
AC
330
1F
100
AcDbEntity
  8
0
  6
Continuous
 62
     7
370
    25
100
AcDbLine
 10
39.9
 20
352.1
 30
0.0
 11
39.9
 21
357.9
 31
0.0
  0
LINE
  5
AD
330
1F
100
AcDbEntity
  8
0
  6
Continuous
 62
     7
370
    25
100
AcDbLine
 10
30.1
 20
352.1
 30
0.0
 11
39.9
 21
352.1
 31
0.0
  0
LINE
  5
AE
330
1F
100
AcDbEntity
  8
0
  6
Continuous
 62
     7
370
    25
100
AcDbLine
 10
39.9
 20
178.28
 30
0.0
 11
39.9
 21
184.08
 31
0.0
  0
LINE
  5
AF
330
1F
100
AcDbEntity
  8
0
  6
Continuous
 62
     7
370
    25
100
AcDbLine
 10
30.1
 20
178.28
 30
0.0
 11
39.9
 21
178.28
 31
0.0
  0
LINE
  5
B0
330
1F
100
AcDbEntity
  8
0
  6
Continuous
 62
     7
370
    25
100
AcDbLine
 10
30.1
 20
184.08
 30
0.0
 11
30.1
 21
178.28
 31
0.0
  0
LINE
  5
B1
330
1F
100
AcDbEntity
  8
0
  6
Continuous
 62
     7
370
    25
100
AcDbLine
 10
39.9
 20
184.08
 30
0.0
 11
30.1
 21
184.08
 31
0.0
  0
CIRCLE
  5
B2
330
1F
100
AcDbEntity
  8
0
  6
Continuous
 62
     7
370
    25
100
AcDbCircle
 10
60.0
 20
-127.0
 30
0.0
 40
7.500000000000028
  0
CIRCLE
  5
B3
330
1F
100
AcDbEntity
  8
0
  6
Continuous
 62
     7
370
    25
100
AcDbCircle
 10
0.0
 20
196.18
 30
0.0
 40
2.000000000000005
  0
LINE
  5
B4
330
1F
100
AcDbEntity
  8
0
  6
Continuous
 62
     7
370
    25
100
AcDbLine
 10
75.1
 20
99.08
 30
0.0
 11
75.1
 21
93.28
 31
0.0
  0
LINE
  5
B5
330
1F
100
AcDbEntity
  8
0
  6
Continuous
 62
     7
370
    25
100
AcDbLine
 10
84.9
 20
99.08
 30
0.0
 11
75.1
 21
99.08
 31
0.0
  0
LINE
  5
B6
330
1F
100
AcDbEntity
  8
0
  6
Continuous
 62
     7
370
    25
100
AcDbLine
 10
84.9
 20
93.28
 30
0.0
 11
84.9
 21
99.08
 31
0.0
  0
LINE
  5
B7
330
1F
100
AcDbEntity
  8
0
  6
Continuous
 62
     7
370
    25
100
AcDbLine
 10
75.1
 20
93.28
 30
0.0
 11
84.9
 21
93.28
 31
0.0
  0
CIRCLE
  5
B8
330
1F
100
AcDbEntity
  8
0
  6
Continuous
 62
     7
370
    25
100
AcDbCircle
 10
-120.0
 20
560.0
 30
0.0
 40
1.650000000000006
  0
LINE
  5
B9
330
1F
100
AcDbEntity
  8
0
  6
Continuous
 62
     7
370
    25
100
AcDbLine
 10
140.0
 20
-580.0
 30
0.0
 11
140.0
 21
580.0
 31
0.0
  0
LINE
  5
BA
330
1F
100
AcDbEntity
  8
0
  6
Continuous
 62
     7
370
    25
100
AcDbLine
 10
140.0
 20
580.0
 30
0.0
 11
-140.0
 21
580.0
 31
0.0
  0
LINE
  5
BB
330
1F
100
AcDbEntity
  8
0
  6
Continuous
 62
     7
370
    25
100
AcDbLine
 10
-140.0
 20
580.0
 30
0.0
 11
-140.0
 21
-580.0
 31
0.0
  0
LINE
  5
BC
330
1F
100
AcDbEntity
  8
0
  6
Continuous
 62
     7
370
    25
100
AcDbLine
 10
-140.0
 20
-580.0
 30
0.0
 11
140.0
 21
-580.0
 31
0.0
  0
LINE
  5
BD
330
1F
100
AcDbEntity
  8
0
  6
Continuous
 62
     7
370
    25
100
AcDbLine
 10
-17.360294542
 20
554.3554766717
 30
0.0
 11
-21.2832512727
 21
554.3554766717
 31
0.0
  0
LINE
  5
BE
330
1F
100
AcDbEntity
  8
0
  6
Continuous
 62
     7
370
    25
100
AcDbLine
 10
-21.2832512727
 20
554.3554766717
 30
0.0
 11
-13.6281430997
 21
563.8804766717
 31
0.0
  0
LINE
  5
BF
330
1F
100
AcDbEntity
  8
0
  6
Continuous
 62
     7
370
    25
100
AcDbLine
 10
-13.6281430997
 20
563.8804766717
 30
0.0
 11
-9.8864513929
 21
563.8804766717
 31
0.0
  0
LINE
  5
C0
330
1F
100
AcDbEntity
  8
0
  6
Continuous
 62
     7
370
    25
100
AcDbLine
 10
-9.8864513929
 20
563.8804766717
 30
0.0
 11
-2.2332512727
 21
554.3554766717
 31
0.0
  0
LINE
  5
C1
330
1F
100
AcDbEntity
  8
0
  6
Continuous
 62
     7
370
    25
100
AcDbLine
 10
-2.2332512727
 20
554.3554766717
 30
0.0
 11
-6.1581160564
 21
554.3554766717
 31
0.0
  0
LINE
  5
C2
330
1F
100
AcDbEntity
  8
0
  6
Continuous
 62
     7
370
    25
100
AcDbLine
 10
-6.1581160564
 20
554.3554766717
 30
0.0
 11
-7.6902825227
 21
556.3093228256
 31
0.0
  0
LINE
  5
C3
330
1F
100
AcDbEntity
  8
0
  6
Continuous
 62
     7
370
    25
100
AcDbLine
 10
-7.6902825227
 20
556.3093228256
 30
0.0
 11
-15.8262200227
 21
556.3093228256
 31
0.0
  0
LINE
  5
C4
330
1F
100
AcDbEntity
  8
0
  6
Continuous
 62
     7
370
    25
100
AcDbLine
 10
-15.8262200227
 20
556.3093228256
 30
0.0
 11
-17.360294542
 21
554.3554766717
 31
0.0
  0
LINE
  5
C5
330
1F
100
AcDbEntity
  8
0
  6
Continuous
 62
     7
370
    25
100
AcDbLine
 10
31.4095371888
 20
554.3554766717
 30
0.0
 11
27.7460756503
 21
554.3554766717
 31
0.0
  0
LINE
  5
C6
330
1F
100
AcDbEntity
  8
0
  6
Continuous
 62
     7
370
    25
100
AcDbLine
 10
27.7460756503
 20
554.3554766717
 30
0.0
 11
27.7460756503
 21
563.8804766717
 31
0.0
  0
LINE
  5
C7
330
1F
100
AcDbEntity
  8
0
  6
Continuous
 62
     7
370
    25
100
AcDbLine
 10
27.7460756503
 20
563.8804766717
 30
0.0
 11
31.7720672369
 21
563.8804766717
 31
0.0
  0
SPLINE
  5
C8
330
1F
100
AcDbEntity
  8
0
  6
Continuous
 62
     7
370
    25
100
AcDbSpline
210
0.0
220
0.0
230
1.0
 70
     8
 71
     3
 72
    39
 73
    35
 74
     0
 42
0.000000001
 43
0.00000001
 40
0.0
 40
0.0
 40
0.0
 40
0.0
 40
0.0452421194331613
 40
0.0887850425172146
 40
0.1306330832850868
 40
0.1707860462595407
 40
0.209457791146569
 40
0.2462254259412723
 40
0.2815250751322916
 40
0.3153397098275421
 40
0.3472707283590676
 40
0.3775221687719219
 40
0.4063094936696929
 40
0.4334254988989635
 40
0.4588756521858962
 40
0.4828770754482844
 40
0.5050168613896482
 40
0.5257627833368775
 40
0.5646746861703722
 40
0.6022320165081652
 40
0.6381034341214796
 40
0.6725839363753654
 40
0.7057744212469471
 40
0.7379769705217335
 40
0.7689396130993476
 40
0.7989905520936037
 40
0.8278185945858382
 40
0.8548546212550777
 40
0.8806638649256718
 40
0.9052309793187236
 40
0.9290749341193697
 40
0.9525835249230983
 40
0.9759525690772113
 40
1.0
 40
1.0
 40
1.0
 40
1.0
 10
31.77206723687378
 20
563.880476671715
 30
0.0
 10
31.90753816802187
 20
563.879755152159
 30
0.0
 10
32.17339203456318
 20
563.8783392117642
 30
0.0
 10
32.56456776003575
 20
563.8777093443895
 30
0.0
 10
32.94044948670224
 20
563.8712202013868
 30
0.0
 10
33.30171947840959
 20
563.8638743565452
 30
0.0
 10
33.64771085234564
 20
563.8541251433434
 30
0.0
 10
33.97915929694222
 20
563.8436645928992
 30
0.0
 10
34.29577359235893
 20
563.826831201764
 30
0.0
 10
34.59805484307462
 20
563.8133228905014
 30
0.0
 10
34.884836515453
 20
563.7934004418972
 30
0.0
 10
35.15644184087244
 20
563.7726037121855
 30
0.0
 10
35.41342637176431
 20
563.7498433520418
 30
0.0
 10
35.65578588544398
 20
563.7251639848317
 30
0.0
 10
35.88350679385734
 20
563.6984205724411
 30
0.0
 10
36.09600054182153
 20
563.670075773339
 30
0.0
 10
36.29406574238637
 20
563.6400795315774
 30
0.0
 10
36.53467660369985
 20
563.5940894978522
 30
0.0
 10
36.81930598591477
 20
563.532772057221
 30
0.0
 10
37.14488007291205
 20
563.4476013851767
 30
0.0
 10
37.45308533649468
 20
563.3501141367944
 30
0.0
 10
37.74371635627026
 20
563.2416511808386
 30
0.0
 10
38.0174752012721
 20
563.1209039633878
 30
0.0
 10
38.27500900896854
 20
562.9903732553912
 30
0.0
 10
38.51447965498503
 20
562.8465297843816
 30
0.0
 10
38.73558574122041
 20
562.6928728541754
 30
0.0
 10
38.93506814345523
 20
562.5300359226532
 30
0.0
 10
39.1113986402752
 20
562.3599297247109
 30
0.0
 10
39.25833370639614
 20
562.1800036405137
 30
0.0
 10
39.3805035301414
 20
561.9938052601217
 30
0.0
 10
39.47507373801697
 20
561.7995635784278
 30
0.0
 10
39.54183250898937
 20
561.5981029326192
 30
0.0
 10
39.58398659990491
 20
561.3890356252848
 30
0.0
 10
39.58881779869151
 20
561.2469280396517
 30
0.0
 10
39.59126795802762
 20
561.1748576813303
 30
0.0
  0
SPLINE
  5
C9
330
1F
100
AcDbEntity
  8
0
  6
Continuous
 62
     7
370
    25
100
AcDbSpline
210
0.0
220
0.0
230
1.0
 70
     8
 71
     3
 72
    23
 73
    19
 74
     0
 42
0.000000001
 43
0.00000001
 40
0.0
 40
0.0
 40
0.0
 40
0.0
 40
0.0461569113589203
 40
0.0911610125283412
 40
0.1358424507981336
 40
0.1812290418930952
 40
0.2285476941892921
 40
0.277455468378598
 40
0.3296999047113799
 40
0.3853656175770515
 40
0.4450671413031865
 40
0.509120455013798
 40
0.5778391329877469
 40
0.6515288633817885
 40
0.730664051294688
 40
0.814907843156213
 40
0.9047754882970378
 40
1.0
 40
1.0
 40
1.0
 40
1.0
 10
39.59126795802762
 20
561.1748576813303
 30
0.0
 10
39.58829966469268
 20
561.099581620258
 30
0.0
 10
39.58243721380664
 20
560.9509095851405
 30
0.0
 10
39.53673581310839
 20
560.7333084153323
 30
0.0
 10
39.46432496086694
 20
560.5247520358961
 30
0.0
 10
39.35912059619893
 20
560.3261768239358
 30
0.0
 10
39.22504320566445
 20
560.1376101593245
 30
0.0
 10
39.06192327667891
 20
559.9582557932223
 30
0.0
 10
38.87072054544132
 20
559.7878217102199
 30
0.0
 10
38.6467430188365
 20
559.6308070086473
 30
0.0
 10
38.39671058888614
 20
559.4786244778328
 30
0.0
 10
38.11423967334459
 20
559.3415357010751
 30
0.0
 10
37.80504430366128
 20
559.2084105726267
 30
0.0
 10
37.46367984217052
 20
559.090090224741
 30
0.0
 10
37.0940618120939
 20
558.9773663457121
 30
0.0
 10
36.69414780631503
 20
558.8748514011852
 30
0.0
 10
36.26517357545069
 20
558.7812992420535
 30
0.0
 10
35.96807819840432
 20
558.7289521788387
 30
0.0
 10
35.81523129937378
 20
558.7020211428688
 30
0.0
  0
LINE
  5
CA
330
1F
100
AcDbEntity
  8
0
  6
Continuous
 62
     7
370
    25
100
AcDbLine
 10
35.8152312994
 20
558.7020211429
 30
0.0
 11
40.5071333426
 21
554.3554766717
 31
0.0
  0
LINE
  5
CB
330
1F
100
AcDbEntity
  8
0
  6
Continuous
 62
     7
370
    25
100
AcDbLine
 10
40.5071333426
 20
554.3554766717
 30
0.0
 11
36.3819230061
 21
554.3554766717
 31
0.0
  0
LINE
  5
CC
330
1F
100
AcDbEntity
  8
0
  6
Continuous
 62
     7
370
    25
100
AcDbLine
 10
36.3819230061
 20
554.3554766717
 30
0.0
 11
31.8999067801
 21
558.5073997486
 31
0.0
  0
LINE
  5
CD
330
1F
100
AcDbEntity
  8
0
  6
Continuous
 62
     7
370
    25
100
AcDbLine
 10
31.8999067801
 20
558.5073997486
 30
0.0
 11
31.4095371888
 21
558.5073997486
 31
0.0
  0
LINE
  5
CE
330
1F
100
AcDbEntity
  8
0
  6
Continuous
 62
     7
370
    25
100
AcDbLine
 10
31.4095371888
 20
558.5073997486
 30
0.0
 11
31.4095371888
 21
554.3554766717
 31
0.0
  0
LINE
  5
CF
330
1F
100
AcDbEntity
  8
0
  6
Continuous
 62
     7
370
    25
100
AcDbLine
 10
128.6974867302
 20
-569.536464961
 30
0.0
 11
128.080125619
 21
-569.536464961
 31
0.0
  0
LINE
  5
D0
330
1F
100
AcDbEntity
  8
0
  6
Continuous
 62
     7
370
    25
100
AcDbLine
 10
128.080125619
 20
-569.536464961
 30
0.0
 11
128.080125619
 21
-568.9191038499
 31
0.0
  0
LINE
  5
D1
330
1F
100
AcDbEntity
  8
0
  6
Continuous
 62
     7
370
    25
100
AcDbLine
 10
128.080125619
 20
-568.9191038499
 30
0.0
 11
129.9322089524
 21
-568.9191038499
 31
0.0
  0
LINE
  5
D2
330
1F
100
AcDbEntity
  8
0
  6
Continuous
 62
     7
370
    25
100
AcDbLine
 10
129.9322089524
 20
-568.9191038499
 30
0.0
 11
129.9322089524
 21
-569.536464961
 31
0.0
  0
LINE
  5
D3
330
1F
100
AcDbEntity
  8
0
  6
Continuous
 62
     7
370
    25
100
AcDbLine
 10
129.9322089524
 20
-569.536464961
 30
0.0
 11
129.3148478413
 21
-569.536464961
 31
0.0
  0
LINE
  5
D4
330
1F
100
AcDbEntity
  8
0
  6
Continuous
 62
     7
370
    25
100
AcDbLine
 10
129.3148478413
 20
-569.536464961
 30
0.0
 11
129.3148478413
 21
-572.3586871832
 31
0.0
  0
LINE
  5
D5
330
1F
100
AcDbEntity
  8
0
  6
Continuous
 62
     7
370
    25
100
AcDbLine
 10
129.3148478413
 20
-572.3586871832
 30
0.0
 11
128.6974867302
 21
-572.3586871832
 31
0.0
  0
LINE
  5
D6
330
1F
100
AcDbEntity
  8
0
  6
Continuous
 62
     7
370
    25
100
AcDbLine
 10
128.6974867302
 20
-572.3586871832
 30
0.0
 11
128.6974867302
 21
-569.536464961
 31
0.0
  0
LINE
  5
D7
330
1F
100
AcDbEntity
  8
0
  6
Continuous
 62
     7
370
    25
100
AcDbLine
 10
127.8155422857
 20
-572.3586871832
 30
0.0
 11
125.9634589524
 21
-572.3586871832
 31
0.0
  0
LINE
  5
D8
330
1F
100
AcDbEntity
  8
0
  6
Continuous
 62
     7
370
    25
100
AcDbLine
 10
125.9634589524
 20
-572.3586871832
 30
0.0
 11
125.9634589524
 21
-568.9191038499
 31
0.0
  0
LINE
  5
D9
330
1F
100
AcDbEntity
  8
0
  6
Continuous
 62
     7
370
    25
100
AcDbLine
 10
125.9634589524
 20
-568.9191038499
 30
0.0
 11
127.8155422857
 21
-568.9191038499
 31
0.0
  0
LINE
  5
DA
330
1F
100
AcDbEntity
  8
0
  6
Continuous
 62
     7
370
    25
100
AcDbLine
 10
127.8155422857
 20
-568.9191038499
 30
0.0
 11
127.8155422857
 21
-569.536464961
 31
0.0
  0
LINE
  5
DB
330
1F
100
AcDbEntity
  8
0
  6
Continuous
 62
     7
370
    25
100
AcDbLine
 10
127.8155422857
 20
-569.536464961
 30
0.0
 11
126.5808200635
 21
-569.536464961
 31
0.0
  0
LINE
  5
DC
330
1F
100
AcDbEntity
  8
0
  6
Continuous
 62
     7
370
    25
100
AcDbLine
 10
126.5808200635
 20
-569.536464961
 30
0.0
 11
126.5808200635
 21
-570.1979232943
 31
0.0
  0
LINE
  5
DD
330
1F
100
AcDbEntity
  8
0
  6
Continuous
 62
     7
370
    25
100
AcDbLine
 10
126.5808200635
 20
-570.1979232943
 30
0.0
 11
127.8155422857
 21
-570.1979232943
 31
0.0
  0
LINE
  5
DE
330
1F
100
AcDbEntity
  8
0
  6
Continuous
 62
     7
370
    25
100
AcDbLine
 10
127.8155422857
 20
-570.1979232943
 30
0.0
 11
127.8155422857
 21
-570.8152844054
 31
0.0
  0
LINE
  5
DF
330
1F
100
AcDbEntity
  8
0
  6
Continuous
 62
     7
370
    25
100
AcDbLine
 10
127.8155422857
 20
-570.8152844054
 30
0.0
 11
126.5808200635
 21
-570.8152844054
 31
0.0
  0
LINE
  5
E0
330
1F
100
AcDbEntity
  8
0
  6
Continuous
 62
     7
370
    25
100
AcDbLine
 10
126.5808200635
 20
-570.8152844054
 30
0.0
 11
126.5808200635
 21
-571.7413260721
 31
0.0
  0
LINE
  5
E1
330
1F
100
AcDbEntity
  8
0
  6
Continuous
 62
     7
370
    25
100
AcDbLine
 10
126.5808200635
 20
-571.7413260721
 30
0.0
 11
127.8155422857
 21
-571.7413260721
 31
0.0
  0
LINE
  5
E2
330
1F
100
AcDbEntity
  8
0
  6
Continuous
 62
     7
370
    25
100
AcDbLine
 10
127.8155422857
 20
-571.7413260721
 30
0.0
 11
127.8155422857
 21
-572.3586871832
 31
0.0
  0
LINE
  5
E3
330
1F
100
AcDbEntity
  8
0
  6
Continuous
 62
     7
370
    25
100
AcDbLine
 10
123.0530422857
 20
-572.3586871832
 30
0.0
 11
122.4356811746
 21
-572.3586871832
 31
0.0
  0
LINE
  5
E4
330
1F
100
AcDbEntity
  8
0
  6
Continuous
 62
     7
370
    25
100
AcDbLine
 10
122.4356811746
 20
-572.3586871832
 30
0.0
 11
122.4356811746
 21
-568.9191038499
 31
0.0
  0
LINE
  5
E5
330
1F
100
AcDbEntity
  8
0
  6
Continuous
 62
     7
370
    25
100
AcDbLine
 10
122.4356811746
 20
-568.9191038499
 30
0.0
 11
122.9917195861
 21
-568.9191038499
 31
0.0
  0
LINE
  5
E6
330
1F
100
AcDbEntity
  8
0
  6
Continuous
 62
     7
370
    25
100
AcDbLine
 10
122.9917195861
 20
-568.9191038499
 30
0.0
 11
124.5523478413
 21
-571.1825315843
 31
0.0
  0
LINE
  5
E7
330
1F
100
AcDbEntity
  8
0
  6
Continuous
 62
     7
370
    25
100
AcDbLine
 10
124.5523478413
 20
-571.1825315843
 30
0.0
 11
124.5523478413
 21
-568.9191038499
 31
0.0
  0
LINE
  5
E8
330
1F
100
AcDbEntity
  8
0
  6
Continuous
 62
     7
370
    25
100
AcDbLine
 10
124.5523478413
 20
-568.9191038499
 30
0.0
 11
125.1697089524
 21
-568.9191038499
 31
0.0
  0
LINE
  5
E9
330
1F
100
AcDbEntity
  8
0
  6
Continuous
 62
     7
370
    25
100
AcDbLine
 10
125.1697089524
 20
-568.9191038499
 30
0.0
 11
125.1697089524
 21
-572.3586871832
 31
0.0
  0
LINE
  5
EA
330
1F
100
AcDbEntity
  8
0
  6
Continuous
 62
     7
370
    25
100
AcDbLine
 10
125.1697089524
 20
-572.3586871832
 30
0.0
 11
124.6095364263
 21
-572.3586871832
 31
0.0
  0
LINE
  5
EB
330
1F
100
AcDbEntity
  8
0
  6
Continuous
 62
     7
370
    25
100
AcDbLine
 10
124.6095364263
 20
-572.3586871832
 30
0.0
 11
123.0530422857
 21
-570.1021496398
 31
0.0
  0
LINE
  5
EC
330
1F
100
AcDbEntity
  8
0
  6
Continuous
 62
     7
370
    25
100
AcDbLine
 10
123.0530422857
 20
-570.1021496398
 30
0.0
 11
123.0530422857
 21
-572.3586871832
 31
0.0
  0
LINE
  5
ED
330
1F
100
AcDbEntity
  8
0
  6
Continuous
 62
     7
370
    25
100
AcDbLine
 10
116.7471395079
 20
-572.3586871832
 30
0.0
 11
116.1297783968
 21
-572.3586871832
 31
0.0
  0
LINE
  5
EE
330
1F
100
AcDbEntity
  8
0
  6
Continuous
 62
     7
370
    25
100
AcDbLine
 10
116.1297783968
 20
-572.3586871832
 30
0.0
 11
116.1297783968
 21
-568.9191038499
 31
0.0
  0
LINE
  5
EF
330
1F
100
AcDbEntity
  8
0
  6
Continuous
 62
     7
370
    25
100
AcDbLine
 10
116.1297783968
 20
-568.9191038499
 30
0.0
 11
116.8491143343
 21
-568.9191038499
 31
0.0
  0
SPLINE
  5
F0
330
1F
100
AcDbEntity
  8
0
  6
Continuous
 62
     7
370
    25
100
AcDbSpline
210
0.0
220
0.0
230
1.0
 70
     8
 71
     3
 72
    31
 73
    27
 74
     0
 42
0.000000001
 43
0.00000001
 40
0.0
 40
0.0
 40
0.0
 40
0.0
 40
0.0728890266200389
 40
0.1401861299444906
 40
0.2022774341249636
 40
0.2588951317514667
 40
0.3104829424654768
 40
0.3570952441313369
 40
0.3985135666534652
 40
0.4350375108701152
 40
0.4692514858292801
 40
0.5028050278902668
 40
0.5362104463185475
 40
0.5693793599391899
 40
0.60280147504837
 40
0.6366657983367859
 40
0.6709286568940439
 40
0.7058030002293045
 40
0.7411890612458595
 40
0.7763043110764335
 40
0.8120043009129485
 40
0.8479689758088952
 40
0.8845217611964666
 40
0.9219741585441782
 40
0.9601981758095666
 40
1.0
 40
1.0
 40
1.0
 40
1.0
 10
116.8491143343172
 20
-568.9191038498841
 30
0.0
 10
116.8966622208228
 20
-568.9192726175927
 30
0.0
 10
116.9881102001051
 20
-568.9195972054356
 30
0.0
 10
117.1199731914247
 20
-568.9247183418098
 30
0.0
 10
117.2411074830724
 20
-568.9318448234019
 30
0.0
 10
117.3516924253234
 20
-568.9427200234599
 30
0.0
 10
117.451680708117
 20
-568.9571392241787
 30
0.0
 10
117.5411725430827
 20
-568.9741370757639
 30
0.0
 10
117.6201653144626
 20
-568.9935097718834
 30
0.0
 10
117.6893252171877
 20
-569.0176496797051
 30
0.0
 10
117.7517386095084
 20
-569.0448791297467
 30
0.0
 10
117.8099165682757
 20
-569.0761662671401
 30
0.0
 10
117.865142585773
 20
-569.1111626997165
 30
0.0
 10
117.9170475357195
 20
-569.1507892783442
 30
0.0
 10
117.9660824843335
 20
-569.194333130637
 30
0.0
 10
118.0123399389853
 20
-569.2418380877575
 30
0.0
 10
118.0551662389661
 20
-569.2937069721762
 30
0.0
 10
118.0942962020877
 20
-569.3496120383664
 30
0.0
 10
118.1299600137144
 20
-569.4084228860186
 30
0.0
 10
118.1614793432059
 20
-569.4702202628098
 30
0.0
 10
118.1871109143368
 20
-569.5350471447005
 30
0.0
 10
118.2097591550745
 20
-569.6019666430943
 30
0.0
 10
118.2260719491528
 20
-569.6719353853497
 30
0.0
 10
118.2374172587987
 20
-569.7442722139497
 30
0.0
 10
118.2457238506924
 20
-569.8192317622116
 30
0.0
 10
118.2462014400141
 20
-569.8701559511347
 30
0.0
 10
118.2464450634838
 20
-569.8961329297452
 30
0.0
  0
SPLINE
  5
F1
330
1F
100
AcDbEntity
  8
0
  6
Continuous
 62
     7
370
    25
100
AcDbSpline
210
0.0
220
0.0
230
1.0
 70
     8
 71
     3
 72
    23
 73
    19
 74
     0
 42
0.000000001
 43
0.00000001
 40
0.0
 40
0.0
 40
0.0
 40
0.0
 40
0.0687412630793409
 40
0.1347890881949856
 40
0.1985360495607117
 40
0.260385650605922
 40
0.3209615782321761
 40
0.3799038495841116
 40
0.4385029357752149
 40
0.4961543439762803
 40
0.5542654832084969
 40
0.6127487608156791
 40
0.6725134425261592
 40
0.7336464018979412
 40
0.7967896194814187
 40
0.8619356990410311
 40
0.929397734774902
 40
1.0
 40
1.0
 40
1.0
 40
1.0
 10
118.2464450634838
 20
-569.8961329297452
 30
0.0
 10
118.2458122173198
 20
-569.9232469279182
 30
0.0
 10
118.244571321334
 20
-569.9764125365693
 30
0.0
 10
118.2378871804795
 20
-570.054508479514
 30
0.0
 10
118.2256706706956
 20
-570.1292252151482
 30
0.0
 10
118.2071669893581
 20
-570.2003439820618
 30
0.0
 10
118.1858994110797
 20
-570.2687499362206
 30
0.0
 10
118.1576189874096
 20
-570.3331809449952
 30
0.0
 10
118.1257017341561
 20
-570.3945740640644
 30
0.0
 10
118.0877945449909
 20
-570.45206086449
 30
0.0
 10
118.0461932567747
 20
-570.5069182429622
 30
0.0
 10
117.9978118336865
 20
-570.557044409802
 30
0.0
 10
117.9457846487824
 20
-570.6051334566783
 30
0.0
 10
117.8871870645194
 20
-570.6481732488469
 30
0.0
 10
117.824602116845
 20
-570.6890739815271
 30
0.0
 10
117.7567863086957
 20
-570.7261409376163
 30
0.0
 10
117.6841822292927
 20
-570.7603058950407
 30
0.0
 10
117.6331379658923
 20
-570.7793586352977
 30
0.0
 10
117.6070353412616
 20
-570.7891016797454
 30
0.0
  0
LINE
  5
F2
330
1F
100
AcDbEntity
  8
0
  6
Continuous
 62
     7
370
    25
100
AcDbLine
 10
117.6070353413
 20
-570.7891016797
 30
0.0
 11
118.4007853413
 21
-572.3586871832
 31
0.0
  0
LINE
  5
F3
330
1F
100
AcDbEntity
  8
0
  6
Continuous
 62
     7
370
    25
100
AcDbLine
 10
118.4007853413
 20
-572.3586871832
 30
0.0
 11
117.7145223204
 21
-572.3586871832
 31
0.0
  0
LINE
  5
F4
330
1F
100
AcDbEntity
  8
0
  6
Continuous
 62
     7
370
    25
100
AcDbLine
 10
117.7145223204
 20
-572.3586871832
 30
0.0
 11
116.9566013135
 21
-570.8593816277
 31
0.0
  0
LINE
  5
F5
330
1F
100
AcDbEntity
  8
0
  6
Continuous
 62
     7
370
    25
100
AcDbLine
 10
116.9566013135
 20
-570.8593816277
 30
0.0
 11
116.7471395079
 21
-570.8593816277
 31
0.0
  0
LINE
  5
F6
330
1F
100
AcDbEntity
  8
0
  6
Continuous
 62
     7
370
    25
100
AcDbLine
 10
116.7471395079
 20
-570.8593816277
 30
0.0
 11
116.7471395079
 21
-572.3586871832
 31
0.0
  0
ENDSEC
  0
SECTION
  2
OBJECTS
  0
DICTIONARY
  5
C
330
0
100
AcDbDictionary
281
     1
  3
ACAD_GROUP
350
D
  3
ACAD_LAYOUT
350
1A
  3
ACAD_MLINESTYLE
350
17
  3
ACAD_PLOTSETTINGS
350
19
  3
ACAD_PLOTSTYLENAME
350
E
  3
ACAD_SCALELIST
350
47
  0
DICTIONARY
  5
D
102
{ACAD_REACTORS
330
C
102
}
330
C
100
AcDbDictionary
281
     1
  0
DICTIONARY
  5
1A
102
{ACAD_REACTORS
330
C
102
}
330
C
100
AcDbDictionary
281
     1
  3
Layout1
350
1E
  3
Layout2
350
26
  3
Model
350
22
  0
DICTIONARY
  5
17
102
{ACAD_REACTORS
330
C
102
}
330
C
100
AcDbDictionary
281
     1
  3
Standard
350
18
  0
DICTIONARY
  5
19
102
{ACAD_REACTORS
330
C
102
}
330
C
100
AcDbDictionary
281
     1
  0
ACDBDICTIONARYWDFLT
  5
E
102
{ACAD_REACTORS
330
C
102
}
330
C
100
AcDbDictionary
281
     1
  3
Normal
350
F
100
AcDbDictionaryWithDefault
340
F
  0
DICTIONARY
  5
47
102
{ACAD_REACTORS
330
C
102
}
330
C
100
AcDbDictionary
281
     1
  3
A0
350
48
  3
A1
350
49
  3
A2
350
4A
  3
A3
350
4B
  3
A4
350
4C
  3
A5
350
4D
  3
A6
350
4E
  3
A7
350
4F
  3
A8
350
50
  3
A9
350
51
  3
B0
350
52
  3
B1
350
53
  3
B2
350
54
  3
B3
350
55
  3
B4
350
56
  3
B5
350
57
  3
B6
350
58
  3
B7
350
59
  3
B8
350
5A
  3
B9
350
5B
  3
C0
350
5C
  3
C1
350
5D
  3
C2
350
5E
  3
C3
350
5F
  3
C4
350
60
  3
C5
350
61
  3
C6
350
62
  3
C7
350
63
  3
C8
350
64
  3
C9
350
65
  3
D0
350
66
  3
D1
350
67
  3
D2
350
68
  0
LAYOUT
  5
1E
102
{ACAD_REACTORS
330
1A
102
}
330
1A
100
AcDbPlotSettings
  1

  2
none_device
  4

  6

 40
0.0
 41
0.0
 42
0.0
 43
0.0
 44
0.0
 45
0.0
 46
0.0
 47
0.0
 48
0.0
 49
0.0
140
0.0
141
0.0
142
1.0
143
1.0
 70
   688
 72
     1
 73
     0
 74
     5
  7

 75
    16
147
1.0
148
0.0
149
0.0
100
AcDbLayout
  1
Layout1
 70
     1
 71
     1
 10
0.0
 20
0.0
 11
420.0
 21
297.0
 12
0.0
 22
0.0
 32
0.0
 14
1.0000000000E+20
 24
1.0000000000E+20
 34
1.0000000000E+20
 15
-1.0000000000E+20
 25
-1.0000000000E+20
 35
-1.0000000000E+20
146
0.0
 13
0.0
 23
0.0
 33
0.0
 16
1.0
 26
0.0
 36
0.0
 17
0.0
 27
1.0
 37
0.0
 76
     0
330
1B
  0
LAYOUT
  5
26
102
{ACAD_REACTORS
330
1A
102
}
330
1A
100
AcDbPlotSettings
  1

  2
none_device
  4

  6

 40
0.0
 41
0.0
 42
0.0
 43
0.0
 44
0.0
 45
0.0
 46
0.0
 47
0.0
 48
0.0
 49
0.0
140
0.0
141
0.0
142
1.0
143
1.0
 70
   688
 72
     1
 73
     0
 74
     5
  7

 75
    16
147
1.0
148
0.0
149
0.0
100
AcDbLayout
  1
Layout2
 70
     1
 71
     2
 10
0.0
 20
0.0
 11
0.0
 21
0.0
 12
0.0
 22
0.0
 32
0.0
 14
0.0
 24
0.0
 34
0.0
 15
0.0
 25
0.0
 35
0.0
146
0.0
 13
0.0
 23
0.0
 33
0.0
 16
1.0
 26
0.0
 36
0.0
 17
0.0
 27
1.0
 37
0.0
 76
     0
330
23
  0
LAYOUT
  5
22
102
{ACAD_REACTORS
330
1A
102
}
330
1A
100
AcDbPlotSettings
  1

  2
none_device
  4
ANSI_A_(11.00_x_8.50_Inches)
  6

 40
6.35
 41
19.05
 42
6.35000508
 43
19.05000254
 44
279.4
 45
215.9
 46
133.34999746
 47
88.89999873
 48
0.0
 49
0.0
140
0.0
141
0.0
142
0.0072543103
143
1.0
 70
  1696
 72
     0
 73
     0
 74
     0
  7

 75
     0
147
0.0179189148
148
-1300.4909072572
149
0.0
100
AcDbLayout
  1
Model
 70
     1
 71
     0
 10
0.0
 20
0.0
 11
420.0
 21
297.0
 12
0.0
 22
0.0
 32
0.0
 14
-140.0
 24
-580.0
 34
0.0
 15
140.0
 25
580.0
 35
0.0
146
0.0
 13
0.0
 23
0.0
 33
0.0
 16
1.0
 26
0.0
 36
0.0
 17
0.0
 27
1.0
 37
0.0
 76
     0
330
1F
331
29
  0
MLINESTYLE
  5
18
102
{ACAD_REACTORS
330
17
102
}
330
17
100
AcDbMlineStyle
  2
Standard
 70
     0
  3

 62
   256
 51
90.0
 52
90.0
 71
     2
 49
0.5
 62
   256
  6
BYLAYER
 49
-0.5
 62
   256
  6
BYLAYER
  0
ACDBPLACEHOLDER
  5
F
102
{ACAD_REACTORS
330
E
102
}
330
E
  0
SCALE
  5
48
102
{ACAD_REACTORS
330
47
102
}
330
47
100
AcDbScale
 70
     0
300
1:1
140
1.0
141
1.0
290
     1
  0
SCALE
  5
49
102
{ACAD_REACTORS
330
47
102
}
330
47
100
AcDbScale
 70
     0
300
1:2
140
1.0
141
2.0
290
     0
  0
SCALE
  5
4A
102
{ACAD_REACTORS
330
47
102
}
330
47
100
AcDbScale
 70
     0
300
1:4
140
1.0
141
4.0
290
     0
  0
SCALE
  5
4B
102
{ACAD_REACTORS
330
47
102
}
330
47
100
AcDbScale
 70
     0
300
1:5
140
1.0
141
5.0
290
     0
  0
SCALE
  5
4C
102
{ACAD_REACTORS
330
47
102
}
330
47
100
AcDbScale
 70
     0
300
1:8
140
1.0
141
8.0
290
     0
  0
SCALE
  5
4D
102
{ACAD_REACTORS
330
47
102
}
330
47
100
AcDbScale
 70
     0
300
1:10
140
1.0
141
10.0
290
     0
  0
SCALE
  5
4E
102
{ACAD_REACTORS
330
47
102
}
330
47
100
AcDbScale
 70
     0
300
1:16
140
1.0
141
16.0
290
     0
  0
SCALE
  5
4F
102
{ACAD_REACTORS
330
47
102
}
330
47
100
AcDbScale
 70
     0
300
1:20
140
1.0
141
20.0
290
     0
  0
SCALE
  5
50
102
{ACAD_REACTORS
330
47
102
}
330
47
100
AcDbScale
 70
     0
300
1:30
140
1.0
141
30.0
290
     0
  0
SCALE
  5
51
102
{ACAD_REACTORS
330
47
102
}
330
47
100
AcDbScale
 70
     0
300
1:40
140
1.0
141
40.0
290
     0
  0
SCALE
  5
52
102
{ACAD_REACTORS
330
47
102
}
330
47
100
AcDbScale
 70
     0
300
1:50
140
1.0
141
50.0
290
     0
  0
SCALE
  5
53
102
{ACAD_REACTORS
330
47
102
}
330
47
100
AcDbScale
 70
     0
300
1:100
140
1.0
141
100.0
290
     0
  0
SCALE
  5
54
102
{ACAD_REACTORS
330
47
102
}
330
47
100
AcDbScale
 70
     0
300
2:1
140
2.0
141
1.0
290
     0
  0
SCALE
  5
55
102
{ACAD_REACTORS
330
47
102
}
330
47
100
AcDbScale
 70
     0
300
4:1
140
4.0
141
1.0
290
     0
  0
SCALE
  5
56
102
{ACAD_REACTORS
330
47
102
}
330
47
100
AcDbScale
 70
     0
300
8:1
140
8.0
141
1.0
290
     0
  0
SCALE
  5
57
102
{ACAD_REACTORS
330
47
102
}
330
47
100
AcDbScale
 70
     0
300
10:1
140
10.0
141
1.0
290
     0
  0
SCALE
  5
58
102
{ACAD_REACTORS
330
47
102
}
330
47
100
AcDbScale
 70
     0
300
100:1
140
100.0
141
1.0
290
     0
  0
SCALE
  5
59
102
{ACAD_REACTORS
330
47
102
}
330
47
100
AcDbScale
 70
     0
300
1/128" = 1'-0"
140
0.0078125
141
12.0
290
     0
  0
SCALE
  5
5A
102
{ACAD_REACTORS
330
47
102
}
330
47
100
AcDbScale
 70
     0
300
1/64" = 1'-0"
140
0.015625
141
12.0
290
     0
  0
SCALE
  5
5B
102
{ACAD_REACTORS
330
47
102
}
330
47
100
AcDbScale
 70
     0
300
1/32" = 1'-0"
140
0.03125
141
12.0
290
     0
  0
SCALE
  5
5C
102
{ACAD_REACTORS
330
47
102
}
330
47
100
AcDbScale
 70
     0
300
1/16" = 1'-0"
140
0.0625
141
12.0
290
     0
  0
SCALE
  5
5D
102
{ACAD_REACTORS
330
47
102
}
330
47
100
AcDbScale
 70
     0
300
3/32" = 1'-0"
140
0.09375
141
12.0
290
     0
  0
SCALE
  5
5E
102
{ACAD_REACTORS
330
47
102
}
330
47
100
AcDbScale
 70
     0
300
1/8" = 1'-0"
140
0.125
141
12.0
290
     0
  0
SCALE
  5
5F
102
{ACAD_REACTORS
330
47
102
}
330
47
100
AcDbScale
 70
     0
300
3/16" = 1'-0"
140
0.1875
141
12.0
290
     0
  0
SCALE
  5
60
102
{ACAD_REACTORS
330
47
102
}
330
47
100
AcDbScale
 70
     0
300
1/4" = 1'-0"
140
0.25
141
12.0
290
     0
  0
SCALE
  5
61
102
{ACAD_REACTORS
330
47
102
}
330
47
100
AcDbScale
 70
     0
300
3/8" = 1'-0"
140
0.375
141
12.0
290
     0
  0
SCALE
  5
62
102
{ACAD_REACTORS
330
47
102
}
330
47
100
AcDbScale
 70
     0
300
1/2" = 1'-0"
140
0.5
141
12.0
290
     0
  0
SCALE
  5
63
102
{ACAD_REACTORS
330
47
102
}
330
47
100
AcDbScale
 70
     0
300
3/4" = 1'-0"
140
0.75
141
12.0
290
     0
  0
SCALE
  5
64
102
{ACAD_REACTORS
330
47
102
}
330
47
100
AcDbScale
 70
     0
300
1" = 1'-0"
140
1.0
141
12.0
290
     0
  0
SCALE
  5
65
102
{ACAD_REACTORS
330
47
102
}
330
47
100
AcDbScale
 70
     0
300
1-1/2" = 1'-0"
140
1.5
141
12.0
290
     0
  0
SCALE
  5
66
102
{ACAD_REACTORS
330
47
102
}
330
47
100
AcDbScale
 70
     0
300
3" = 1'-0"
140
3.0
141
12.0
290
     0
  0
SCALE
  5
67
102
{ACAD_REACTORS
330
47
102
}
330
47
100
AcDbScale
 70
     0
300
6" = 1'-0"
140
6.0
141
12.0
290
     0
  0
SCALE
  5
68
102
{ACAD_REACTORS
330
47
102
}
330
47
100
AcDbScale
 70
     0
300
1'-0" = 1'-0"
140
12.0
141
12.0
290
     0
  0
ENDSEC
  0
EOF
